<?xml version="1.0" encoding="utf-8"?>
<!-- Generator: Adobe Illustrator 26.0.3, SVG Export Plug-In . SVG Version: 6.00 Build 0)  -->
<svg version="1.1" id="レイヤー_1" xmlns="http://www.w3.org/2000/svg" xmlns:xlink="http://www.w3.org/1999/xlink" x="0px"
	 y="0px" viewBox="0 0 500 500" style="enable-background:new 0 0 500 500;" xml:space="preserve">
<style type="text/css">
	.st0{fill:#C9C9C9;}
</style>
<path id="XMLID_00000180356314042084761470000007563222073494508968_" class="st0" d="M448.8,148c0.3,4.4,0.3,8.8,0.3,13.3
	c0,135.6-103.2,291.9-291.9,291.9v-0.1c-55.7,0.1-110.3-15.9-157.2-46c8.1,1,16.3,1.5,24.4,1.5c46.2,0,91.1-15.5,127.4-44
	c-43.9-0.8-82.4-29.5-95.8-71.2c15.4,3,31.2,2.4,46.3-1.8C54.4,281.9,20,239.8,20,191c0-0.4,0-0.9,0-1.3c14.3,8,30.2,12.4,46.6,12.8
	c-45.1-30.1-59-90.1-31.8-136.9c52.1,64.1,128.9,103,211.4,107.2c-8.3-35.6,3-73,29.7-98c41.3-38.9,106.3-36.9,145.1,4.5
	c23-4.5,45-13,65.1-24.9c-7.7,23.8-23.7,43.9-45.1,56.7c20.3-2.4,40.2-7.8,58.9-16.1C486.2,115.5,468.9,133.5,448.8,148z"/>
</svg>
