<svg xmlns="http://www.w3.org/2000/svg" xmlns:xlink="http://www.w3.org/1999/xlink" style="display:none"><symbol id="elem_01" viewBox="0 0 129 129"><style>.st0{fill:#606060}</style><path d="M64.5 129v-1c35 0 63.5-28.5 63.5-63.5S99.5 1 64.5 1V0C100.1 0 129 28.9 129 64.5S100.1 129 64.5 129zM64.5 129C28.9 129 0 100.1 0 64.5S28.9 0 64.5 0v1C29.5 1 1 29.5 1 64.5S29.5 128 64.5 128v1z"/><path d="M16.7 53.5V58.1h-.9V54.2v-.7h.9zm4.4-.1v2.3c0 2.3-.3 3-1 3.9-.6.7-1.6 1.1-2.3 1.4l-.6-.7c.9-.2 1.7-.6 2.3-1.3.7-.8.8-1.6.8-3.4v-1.5-.8h.8zM27.3 58.7c1.5-.9 2.6-2.3 3.2-3.5l.5.8c-1.4 2.6-4.1 4.4-7 4.9l-.5-.8c1.7-.3 2.9-.9 3.8-1.4zm-.6-3.1l-.6.6c-.5-.5-1.7-1.5-2.4-2l.5-.6c.8.5 2 1.5 2.5 2zM32.2 53.7v-.6H36v.6h-1.1v1.2h1v1.8c.9-.3 1.2-.8 1.3-1.7h-1.1v-.6h.8c.3-.5.6-1.2.8-1.7l.7.2c-.2.5-.5 1-.8 1.5l2.1-.1c-.2-.2-.4-.5-.6-.6l.5-.3c.5.5 1.1 1.2 1.4 1.6l-.5.3c-.1-.2-.2-.3-.3-.5l-.8.1V56c0 .2 0 .2.2.2h.6c.2 0 .2-.1.2-.7.1.1.4.2.5.2-.1.8-.2 1-.7 1h-.8c-.6 0-.8-.2-.8-.8v-1.2h-.8c-.1 1.1-.4 1.8-1.5 2.2-.1-.1-.2-.4-.4-.5v2.2c.8-.5 1.5-1.3 1.9-2.2l.6.2c-.1.3-.2.5-.4.7h1.8l.4.2c-.3.9-.8 1.6-1.4 2.2.6.4 1.2.8 2 1-.1.1-.3.4-.4.6-.8-.2-1.5-.6-2-1.1-.6.5-1.4.8-2.2 1.1-.1-.2-.2-.4-.4-.5v.4h-.6v-.5h-2.5v.7h-.6v-6.5h1v-1.2h-.9zm.6 4.1v.8h2.5v-1.1h-.5c-.4 0-.5-.1-.5-.5v-1.5h-.5v.7c0 .6-.1 1.3-.7 1.8-.1-.1-.2-.2-.3-.2zm0-2.3v2.2c.5-.5.6-1 .6-1.5v-.7h-.6zm2.6 4.6v-1h-2.5v1h2.5zm-1.6-5.2h.5v-1.2h-.5v1.2zm1.1 2.2h.5v-1.6h-.6V57c-.1.1 0 .1.1.1zm3.1 2.7c-.3-.3-.6-.7-.8-1.2-.3.3-.6.5-.9.7-.1-.1-.2-.3-.4-.4v1.8c.8-.1 1.5-.4 2.1-.9zm-.4-1.6c.2.5.5.9.9 1.2.4-.4.7-.8 1-1.3l-1.9.1zM50.2 54.2l-.3.3c-.4.6-1.3 1.9-2.4 2.6l-.5-.4c.9-.5 1.8-1.5 2.1-2.1h-5.4c-.4 0-.7 0-1.1.1v-.9c.3 0 .7.1 1.1.1h5.5c.2 0 .5 0 .7-.1l.3.4zm-3.8 1.3c0 2.6-.2 4.3-2.7 5.5l-.7-.6c.3-.1.6-.2.8-.4 1.5-.9 1.7-2.3 1.7-3.9v-.7h.9zM58.2 54.3c-.1.1-.2.3-.2.4-.3.8-.9 1.9-1.6 2.8 1 .9 2.2 2.1 2.8 2.8l-.7.6c-.6-.8-1.7-2-2.6-2.8-1 1.1-2.3 2.1-3.7 2.8l-.6-.6c1.5-.6 2.9-1.7 3.9-2.8.6-.7 1.3-1.9 1.6-2.7h-4.7v-.9c.1 0 .7.1 1 .1H57c.3 0 .6 0 .7-.1l.5.4zM66.9 60.7v-.5H61.1v-.9c.2 0 .7.1 1.1.1h4.7v-4.5H61.2v-.8c.3 0 .7.1 1 .1h5.5V60.8h-.8zM69.8 60.4c.8-.6 1.4-1.4 1.7-2.3.3-.9.3-2.8.3-3.8 0-.3 0-.5-.1-.7h.9v.7c0 1.1 0 3.1-.3 4.1-.3 1-.9 2-1.7 2.6l-.8-.6zm4.4.1c0-.2.1-.3.1-.5v-5.7c0-.4 0-.6-.1-.7h.9v6.2c.9-.4 2.1-1.3 2.8-2.3l.5.6c-.8 1.1-2.1 2.1-3.3 2.6-.1.1-.2.1-.3.2l-.6-.4zM80.6 53.5h.9v3c1.1-.3 2.6-.7 3.6-1.2.3-.1.6-.3.8-.4l.3.8c-1.5.7-3.2 1.2-4.8 1.6v2.1c0 .5.2.6.7.7.3 0 .8.1 1.3.1 1 0 2.5-.1 3.3-.3v.9c-.8.1-2.3.2-3.3.2-.6 0-1.1 0-1.5-.1-.7-.1-1.1-.5-1.1-1.2v-5.3c-.1-.4-.1-.7-.2-.9zm5.2-.3c.2.3.6.9.8 1.3l-.5.2c-.2-.4-.5-1-.8-1.3l.5-.2zm.5-.2l.5-.2c.2.4.6.9.8 1.3l-.5.2c-.2-.4-.5-.9-.8-1.3zM88.5 60.4c.8-.6 1.4-1.4 1.7-2.3.3-.9.3-2.8.3-3.8 0-.3 0-.5-.1-.7h.9v.7c0 1.1 0 3.1-.3 4.1-.3 1-.9 2-1.7 2.6l-.8-.6zm4.4.1c0-.2.1-.3.1-.5v-5.7c0-.4 0-.6-.1-.7h.9v6.2c.9-.4 2.1-1.3 2.8-2.3l.5.6c-.8 1.1-2.1 2.1-3.3 2.6-.1.1-.2.1-.3.2l-.6-.4zM106.7 60.4c-.4 0-.6-.2-.6-.7 0-1.1-.2-3.8-.4-5-.2.3-.3.8-.6 1.5l-1.1 3c-.1.4-.3.9-.5 1.2h-.2c-.3 0-.6-.2-1.1-1.8l-.8-2.6c-.2-.5-.4-1-.6-1.4-.3 1.9-.4 4.3-.4 5.7h-.3c-.3 0-.6-.2-.6-.7 0-1.9.4-4.6.6-6.1h.3c.9 0 1.3.8 1.5 1.5l.9 2.7c.1.5.3 1 .4 1.4.1-.4.3-.9.4-1.4l.9-2.4c.3-.7.7-1.5.9-1.7h.2c.6 0 .9.4 1 1.3.2 1.7.3 3.9.4 5.5h-.3zM113.4 59.6c0 1.7-1.1 2.4-2.5 2.4-.8 0-1.7-.4-1.7-1.1v-.4h.1c.4.4.8.6 1.7.6.9 0 1.5-.5 1.5-1.5 0-.1-.1-.4-.1-.7v-.3c-.2.5-.7 1-1.5 1-1.2 0-2.2-.8-2.2-2.1s.8-2.6 2.5-2.6c1.2 0 2 .7 2 2.3v1.5c.2.2.2.7.2.9zm-2.2-3.8c-.9 0-1.5.8-1.5 1.6 0 1.1.6 1.5 1.4 1.5.9 0 1.4-.6 1.4-1.4 0-1.2-.4-1.7-1.3-1.7zM24.5 75c0-1.9.8-3.4 1.9-4.5l.6.3c-1.1 1.1-1.8 2.6-1.8 4.3s.7 3.1 1.8 4.2l-.6.3c-1.1-1.2-1.9-2.7-1.9-4.6zM29.1 71.5h.9v3c1.1-.3 2.6-.7 3.6-1.2.3-.1.6-.3.8-.4l.3.8c-1.5.7-3.2 1.2-4.8 1.6v2.1c0 .5.2.6.7.7.3 0 .8.1 1.3.1 1 0 2.5-.1 3.3-.3v.9c-.8.1-2.3.2-3.3.2-.6 0-1.1 0-1.5-.1-.7-.1-1.1-.5-1.1-1.2v-5.3c-.2-.4-.2-.7-.2-.9zm5.2-.3c.2.3.6.9.8 1.3l-.5.2c-.2-.4-.5-1-.8-1.3l.5-.2zm.5-.2l.5-.2c.2.4.6.9.8 1.3l-.5.2c-.2-.4-.5-.9-.8-1.3zM44.7 72.5c-.1.1-.2.4-.2.5-.2.8-.7 1.9-1.4 2.8.4.2.7.5.9.6l-.5.7c-.2-.2-.5-.4-.9-.7-.9 1-2.1 1.9-3.7 2.5l-.7-.6c1.7-.5 2.9-1.4 3.8-2.4-.7-.5-1.5-1-2.1-1.3l.5-.6c.5.3 1.4.7 2.1 1.2.6-.8 1-1.8 1.2-2.6h-3.2c-.6.8-1.5 1.8-2.5 2.5l-.6-.5c1.6-1 2.6-2.4 3.1-3.3.1-.2.2-.5.3-.8l.9.3c-.2.2-.3.6-.4.8-.1.1-.1.2-.2.4h2.6c.3 0 .5 0 .6-.1l.4.6zM52.4 78.2l-.4.7c-1.3-.6-4.1-1.2-5.7-1.4l.3-.7c1.7.2 4.5.8 5.8 1.4zm-.4-3.1l-.3.7c-1.1-.4-3.4-1-4.8-1.2l.3-.7c1.3.3 3.6.7 4.8 1.2zm.7-2.6l-.3.7c-1.2-.4-3.7-1-5-1.1l.3-.7c1.2.2 3.8.7 5 1.1zM58.5 76.7c1.5-.9 2.6-2.3 3.2-3.5l.4.8c-1.4 2.6-4.1 4.4-7 4.9l-.5-.8c1.8-.3 3-.9 3.9-1.4zm-.5-3.1l-.6.6c-.5-.5-1.7-1.5-2.4-2l.5-.6c.7.5 1.9 1.5 2.5 2zM69.4 73.1c-.4-.6-1.1-.8-1.7-.8-1.5 0-2.4 1-2.4 2.5 0 1.9 1.1 2.8 2.5 2.8.7 0 1.3-.2 1.6-.7v.3c0 .6-.7 1.2-1.9 1.2-1.8 0-3.2-1.4-3.2-3.5 0-1.8 1.2-3.5 3.4-3.5 1.1 0 1.7.7 1.7 1.3v.4zM74.9 72.3v.6h-3.2v-.6h3.2zm-.3 3.8v2.7h-2v.5H72v-3.2h2.6zm-2.5-2v-.6h2.6v.6h-2.6zm0 1.3v-.6h2.6v.6h-2.6zm2.5-4.4v.6h-2.5V71h2.5zm-.6 5.7h-1.4v1.6H74v-1.6zm6.2-.2v.3c-.1 1.5-.2 2.1-.4 2.4-.1.2-.3.2-.6.2h-1.1c0-.2-.1-.4-.2-.6H79c.1 0 .2 0 .2-.1.1-.2.2-.6.3-1.7h-.9c0 .2-.1.3-.1.5l-.6-.1c.1-.4.2-.9.3-1.5H77c-.1 1.6-.5 2.8-1.9 3.5-.1-.2-.3-.4-.4-.5 1.2-.6 1.5-1.5 1.6-2.9h-1v-.6h3.5c0 .4-.1.8-.2 1.1h1.6zm.1-3.4h-1.7c.5.7 1.2 1.3 1.9 1.6-.1.1-.3.4-.4.5-.7-.4-1.5-1.2-2-1.9v1.8h-.7v-1.7c-.5.8-1.4 1.6-2.1 2-.1-.2-.3-.4-.4-.5.7-.3 1.5-1 2.1-1.7h-1.7v-.6h2.3v-.8c-.7.1-1.3.1-2 .1 0-.1-.1-.4-.2-.5 1.4-.1 3.2-.3 4.2-.5l.5.5c-.5.1-1.1.2-1.8.3v.9h2.3v.5zM88.3 76.9h2.1v.6h-2.1v1.2c0 .4-.1.6-.4.6-.3.1-.8.1-1.6.1 0-.2-.1-.4-.2-.6H87.4c.2 0 .2 0 .2-.2v-1.2h-3.7c.5.3 1.1.8 1.4 1.1l-.5.5c-.3-.3-.9-.8-1.4-1.1l.5-.4h-2.1v-.6h5.8v-.6h-1.9c-1 0-1.7-.3-2.2-.9-.5.3-.9.6-1.4 1l-.3-.6c.4-.2.9-.5 1.3-.8v-1.3h-1.3v-.6h1.9v1.8c.4.6 1.1.8 1.9.8H87c1.2 0 2.6 0 3.4-.1-.1.1-.2.4-.2.6h-2v.7zm-4.9-4.4c-.2-.4-.8-.9-1.3-1.2l.5-.4c.5.3 1 .8 1.3 1.2l-.5.4zm1.5 0h1.7c0-.1.1-.3.1-.5h-2.6v-.5h1.6c-.1-.2-.3-.5-.4-.7l.6-.1c.2.2.4.6.5.9H88c.2-.3.4-.6.5-.9l.7.1c-.2.3-.4.5-.5.7h1.6v.5h-2.9l-.2.5h2.3v2.8h-4.7v-2.8zm4 .8v-.4h-3.3v.4h3.3zm0 .8v-.4h-3.3v.4h3.3zm0 .8v-.4h-3.3v.4h3.3zM93.8 70.7l.7.2c-.2.7-.5 1.4-.8 2v6.5H93v-5.3c-.3.4-.5.8-.8 1.1-.1-.2-.3-.5-.4-.7.8-.9 1.5-2.4 2-3.8zm.1 6.6c1-.8 2-2.4 2.6-4.1h-2.2v-.7H97v-1.9h.7v1.9h2.8v.7h-2.4c.6 1.6 1.5 3.2 2.6 4-.2.1-.4.4-.5.6-1-.9-1.9-2.5-2.5-4.2V77h1.5v.6h-1.5v1.7H97v-1.7h-1.5V77H97v-3.2c-.6 1.6-1.5 3.2-2.5 4.1-.2-.2-.5-.4-.6-.6zM104 75c0 1.9-.8 3.4-1.9 4.5l-.6-.3c1.1-1.1 1.8-2.5 1.8-4.2s-.7-3.1-1.8-4.3l.6-.3c1.1 1.2 1.9 2.8 1.9 4.6z"/></symbol><symbol id="elem_02" viewBox="0 0 129 129"><style>.st0{fill:#606060}</style><path d="M64.5 129v-1c35 0 63.5-28.5 63.5-63.5S99.5 1 64.5 1V0C100.1 0 129 28.9 129 64.5S100.1 129 64.5 129zM64.5 129C28.9 129 0 100.1 0 64.5S28.9 0 64.5 0v1C29.5 1 1 29.5 1 64.5S29.5 128 64.5 128v1z"/><path d="M23.4 53h4v.6h-1.2v1.1h1v1.4c.7-.9 1.2-2.2 1.6-3.5l.7.1c-.1.5-.3 1-.5 1.5h3v.7h-1.9v1.4h1.7v.7h-1.7v1.5H32v.7h-1.8v2.3h-.7V55h-.7c-.3.6-.6 1.2-1 1.7-.1-.1-.4-.3-.6-.4v5h-.6v-.5h-2.5v.6h-.5v-6.6h1v-1.1h-1.2V53zm.7 5.6h2.5v-.9h-.5c-.4 0-.5-.1-.5-.6v-1.8h-.5v.8c0 .6-.1 1.3-.7 1.9-.1-.1-.2-.2-.3-.2v.8zm0-.9c.5-.5.6-1.1.6-1.6v-.8h-.6v2.4zm0 1.4v1h2.5v-1h-2.5zm1-5.5v1.1h.6v-1.1h-.6zm.9 3.6c0 .1 0 .1.1.1h.4v-1.9H26v1.8zM33.5 53.7v-.6h3.8v.6h-1.1v1.2h1v1.8c.9-.3 1.2-.8 1.3-1.7h-1.1v-.6h.8c.3-.5.6-1.2.8-1.7l.7.2c-.2.5-.5 1-.8 1.5l2.1-.1c-.2-.2-.4-.5-.6-.6l.5-.3c.5.5 1.1 1.2 1.4 1.6l-.5.3c-.1-.1-.2-.3-.3-.5l-.8.1v1.2c0 .2 0 .2.2.2h.6c.2 0 .2-.1.2-.7.1.1.4.2.5.2-.1.8-.2 1-.7 1h-.8c-.6 0-.8-.2-.8-.8v-1.2h-.8c-.1 1.1-.4 1.8-1.5 2.2-.1-.1-.2-.4-.4-.5v2.2c.8-.5 1.5-1.3 1.9-2.2l.6.2c-.1.3-.2.5-.4.7h1.8l.4.2c-.3.9-.8 1.6-1.4 2.2.6.4 1.2.8 2 .9-.1.1-.3.4-.4.6-.8-.2-1.5-.6-2-1.1-.6.5-1.4.8-2.2 1.1-.1-.2-.2-.4-.4-.5v.4h-.6v-.5H34v.7h-.6v-6.5h1v-1.2h-.9zm.6 4.1v.8h2.5v-1.1h-.5c-.4 0-.5-.1-.5-.5v-1.5h-.5v.7c0 .6-.1 1.3-.7 1.8-.1-.1-.2-.2-.3-.2zm0-2.3v2.2c.5-.5.6-1 .6-1.5v-.7h-.6zm2.6 4.6v-1h-2.5v1h2.5zm-1.6-5.2h.5v-1.2h-.5v1.2zm1.1 2.2h.5v-1.6H36V57c0 .1.1.1.2.1zm3.1 2.7c-.3-.4-.6-.7-.8-1.2-.3.3-.6.5-.9.7-.1-.1-.2-.3-.4-.4v1.8c.8-.1 1.5-.4 2.1-.9zm-.4-1.6c.2.5.5.9.9 1.2.4-.4.7-.8 1-1.3l-1.9.1zM45.6 53.3c0 .3-.1.7-.1 1v1.6c1.3.4 3.1 1.1 4.1 1.6l-.3.8c-1-.6-2.7-1.2-3.7-1.5V60c0 .3 0 .8.1 1.1h-.9c0-.3.1-.8.1-1.1v-5.6c0-.3 0-.7-.1-1h.8zM57.5 60.7v-.5H51.7v-.9c.2 0 .7.1 1.1.1h4.7v-4.5H51.8v-.8c.3 0 .7.1 1 .1h5.4V60.8h-.7zM67.8 54.3c-.1.1-.1.3-.1.5-.2 1-.7 2.5-1.4 3.5-.9 1.1-2 2-3.8 2.6l-.6-.7c1.8-.5 2.9-1.3 3.7-2.3.7-.9 1.1-2.2 1.2-3.1H61V54c.3 0 .6.1.9.1h5.3l.6.2zM69.3 60.7v-.8c.2 0 .5.1.7.1h2.2v-3.5h-2.5v-.8H75.5v.8H72.9V60h2.3c.2 0 .5 0 .6-.1v.8h-6.5zM78.2 59.6v-4.7-.7H84.9v6.5h-.8v-.5H79v.5h-.8v-1.1zm.8-4.7v4.5h5.2v-4.5H79zM87.7 56.5h7.5v.9h-7.5v-.9zM96.9 60.4c.8-.6 1.4-1.4 1.7-2.3.3-.9.3-2.8.3-3.8 0-.3 0-.5-.1-.7h.9v.7c0 1.1 0 3.1-.3 4.1-.3 1-.9 2-1.7 2.6l-.8-.6zm4.3.1c0-.1.1-.3.1-.5v-5.7c0-.4-.1-.6-.1-.7h.9v6.2c.9-.4 2.1-1.3 2.8-2.3l.5.6c-.8 1.1-2.1 2.1-3.3 2.6-.1.1-.2.1-.3.2l-.6-.4zM40.2 75c0-1.9.8-3.4 1.9-4.5l.6.3c-1.1 1.1-1.8 2.6-1.8 4.3s.7 3.1 1.8 4.2l-.6.3c-1.1-1.2-1.9-2.7-1.9-4.6zM44.8 71.5h.9v3c1.1-.3 2.6-.7 3.6-1.2.3-.1.6-.3.8-.4l.3.8c-1.5.7-3.2 1.2-4.8 1.6v2.1c0 .5.2.6.7.7.3.1.8.1 1.3.1 1 0 2.5-.1 3.3-.3v.9c-.8.1-2.3.2-3.3.2-.6 0-1.1 0-1.5-.1-.7-.1-1.1-.5-1.1-1.2v-5.3c-.1-.4-.1-.7-.2-.9zm5.2-.3c.2.3.6.9.8 1.3l-.5.2c-.2-.4-.5-1-.8-1.3l.5-.2zm.5-.2l.5-.2c.2.4.6.9.8 1.3l-.5.2c-.2-.4-.5-.9-.8-1.3zM60.4 72.5c-.1.1-.2.4-.2.5-.2.8-.7 1.9-1.4 2.8.4.2.7.5.9.6l-.5.7c-.2-.2-.5-.4-.9-.7-.9 1-2.1 1.9-3.7 2.5l-.7-.6c1.7-.5 2.9-1.4 3.8-2.4-.7-.5-1.5-1-2.1-1.3l.5-.6c.5.3 1.4.7 2.1 1.2.6-.8 1-1.8 1.2-2.6h-3.2c-.6.8-1.5 1.8-2.5 2.5l-.6-.5c1.6-1 2.6-2.4 3.1-3.3.1-.2.2-.5.3-.8l.9.3c-.2.2-.3.6-.4.7-.1.1-.1.2-.2.4h2.6c.3 0 .5 0 .6-.1l.4.7zM68.1 78.2l-.3.7c-1.3-.6-4.1-1.2-5.7-1.4l.3-.7c1.6.2 4.4.8 5.7 1.4zm-.3-3.1l-.3.7c-1.1-.4-3.4-1-4.8-1.2l.3-.7c1.3.3 3.6.8 4.8 1.2zm.6-2.6l-.3.7c-1.2-.4-3.7-1-5-1.1l.3-.7c1.2.2 3.8.7 5 1.1zM74.3 76.7c1.5-.9 2.6-2.3 3.2-3.5l.4.8c-1.4 2.6-4.1 4.4-7 4.9l-.5-.8c1.7-.3 2.9-.9 3.9-1.4zm-.6-3.1l-.6.6c-.5-.5-1.7-1.5-2.4-2l.5-.6c.7.5 2 1.5 2.5 2zM83.5 78.4h-.8c-1.7 0-2.5-1-2.5-2.8v-1.2c0-.6.1-1.3.2-1.8.2-.7.4-1 .9-1h3.5v.4c0 .2-.2.5-.7.5h-2.8c-.1.5-.2 1.4-.2 2.1H84v.3c0 .3-.2.5-.6.5H81v.5c0 1.4.5 1.8 1.9 1.8h.5c.5 0 1-.1 1.3-.2v.3c.1.4 0 .6-1.2.6zM88.2 75c0 1.9-.8 3.4-1.9 4.5l-.6-.3c1.1-1.1 1.8-2.5 1.8-4.2s-.7-3.1-1.8-4.3l.6-.3c1.2 1.2 1.9 2.8 1.9 4.6z"/></symbol><symbol id="elem_03" viewBox="0 0 129 129"><style>.st0{fill:#606060}</style><path d="M64.5 129v-1c35 0 63.5-28.5 63.5-63.5S99.5 1 64.5 1V0C100.1 0 129 28.9 129 64.5S100.1 129 64.5 129zM64.5 129C28.9 129 0 100.1 0 64.5S28.9 0 64.5 0v1C29.5 1 1 29.5 1 64.5S29.5 128 64.5 128v1z"/><path d="M52.4 55.8H50v-.7h2.9l.5.2c-.5 2.5-1.6 4.3-3 5.2-.1-.2-.4-.4-.6-.6 1.2-.8 2.2-2.2 2.6-4.1zm.8 4.8h.4c.2 0 .3-.1.3-.3v-7.7h.7v1.7c.2.7.5 1.5.8 2.2.8-.7 1.7-1.6 2.3-2.4l.6.5c-.8.8-1.8 1.8-2.6 2.5.7 1.3 1.7 2.3 3 2.9-.2.1-.4.4-.5.6-1.7-.8-2.8-2.4-3.6-4.4v4.1c0 .5-.1.7-.5.9-.3.1-.9.1-1.7.1 0-.2-.2-.6-.3-.8.4.1.8.1 1.1.1zM60.3 55.3c.6.2 1.3.6 1.7.9l-.4.6c-.3-.3-1.1-.7-1.7-1l.4-.5zm-.2 5.5c.4-.7 1.1-2 1.5-3.1l.5.4c-.4 1-1 2.2-1.5 3.1l-.5-.4zm.2-7.5l.4-.5c.6.3 1.3.7 1.7 1l-.4.5c-.3-.3-1.1-.8-1.7-1zm4.8 2.7h.7c.7 1 1.9 2 3 2.5-.1.2-.3.4-.4.6-.2-.1-.4-.3-.7-.4v2.6H67V61h-2.8v.4h-.6v-2.7c-.3.2-.6.4-.8.5-.1-.2-.2-.4-.4-.6 1-.6 2.1-1.6 2.7-2.6zm-.2-1c-.5.7-1.1 1.4-1.8 1.9-.1-.1-.4-.3-.5-.5.6-.4 1.3-1 1.7-1.7l.6.3zm-2.3-1.2h2.5v-1.1h.7v1.1h2.5v1.6h-.7v-1h-4.4v1h-.6v-1.6zm4.5 4.6c-.7-.5-1.3-1.1-1.7-1.7-.4.6-.9 1.2-1.6 1.7h3.3zm-.2 2V59h-2.8v1.4h2.8zm-.4-5.6c.6.5 1.3 1 1.8 1.6l-.5.4c-.5-.6-1.1-1.2-1.8-1.7l.5-.3zM69.8 56.9c.2-.6.4-1.7.5-2.4l.5.1c-.1.8-.2 1.9-.5 2.6l-.5-.3zm2.1-4.2v8.7h-.7v-8.7h.7zm.1 1.7l.5-.2c.3.5.6 1.2.7 1.6l-.6.2c-.1-.4-.4-1.1-.6-1.6zm.7 6.7v-.7h2.7V58h-2v-.7h2v-2H74c-.2.6-.4 1.1-.7 1.5-.1-.1-.5-.2-.6-.3.6-.8.9-2.1 1.2-3.4l.7.1-.3 1.5h1.2v-2h.7v2h2.2v.7h-2.2v2h1.9v.6h-1.9v2.4h2.4v.7h-5.9zM34.4 72h.3v-.3c0-.6.5-1.1 1.1-1.1.6 0 1.1.5 1.1 1.1 0 .6-.5 1.1-1.1 1.1-.1 0-.2 0-.4-.1v.1c-.2 1-.7 2.5-1.4 3.5-.9 1.1-2 2-3.8 2.5l-.6-.7c1.9-.5 2.9-1.3 3.7-2.3.7-.9 1.1-2.2 1.2-3.1h-5.9v-.8c.3 0 .6.1 1 .1h4.8zm2-.3c0-.3-.3-.6-.6-.6-.4 0-.6.3-.6.6s.3.6.6.6.6-.3.6-.6zM38.6 77.4v-4.7-.7H45.3v6.5h-.8V78h-5.2v.5h-.8c.1 0 .1-.7.1-1.1zm.7-4.6v4.5h5.2v-4.5h-5.2zM48.4 73.9h6.9v.8H52c0 1-.2 1.9-.6 2.6-.3.6-1.1 1.3-1.9 1.7l-.7-.5c.7-.3 1.4-.9 1.8-1.5.4-.7.5-1.5.6-2.4h-3.7v-.8c.4.1.6.1.9.1zm.4-2.4h5.7v.8h-5.7v-.8zM56.9 77.2c1.9-.9 3.6-2.5 4.4-3.7H57.2v-.8h4.4v-.9c0-.2 0-.5-.1-.8h.9c0 .3-.1.5-.1.8v.9h2.3v.8h-2.3c0 1.4.1 3.3.1 4.5 0 .5-.3.8-.9.8-.5 0-1.1 0-1.5-.1V78c.5.1 1 .1 1.3.1.3 0 .3-.1.3-.4v-3.5c-.8 1.1-2.5 2.7-4.2 3.6l-.5-.6zM71.8 72.5c.3 0 .5 0 .6-.1l.6.4c-.1.1-.2.4-.2.5-.2 1-.8 2.3-1.7 3.3-.9 1.1-2 1.9-3.8 2.6l-.7-.6c1.8-.5 2.9-1.4 3.8-2.4.8-.9 1.3-2.1 1.5-3h-3.2c-.6.8-1.4 1.7-2.4 2.3l-.6-.5c1.6-1 2.6-2.4 3-3.2.1-.2.2-.5.3-.8l.9.3c-.2.2-.3.6-.4.7-.1.1-.1.3-.2.4h2.5zm.7-1.6c.2.3.6.9.8 1.3l-.5.2c-.2-.4-.5-1-.8-1.3l.5-.2zm1-.4c.2.3.6.9.8 1.3l-.5.2c-.2-.4-.5-1-.8-1.3l.5-.2zM76.7 71.3V75.9h-.9V72v-.7h.9zm4.4 0v2.3c0 2.3-.3 3-1 3.9-.6.7-1.6 1.1-2.3 1.4l-.6-.7c.9-.2 1.7-.6 2.3-1.3.7-.8.8-1.6.8-3.4V72v-.8h.8zM86.4 73.5h-2.7v-.8h2.8v-1c0-.2 0-.6-.1-.8h.9c0 .2 0 .5-.1.8v1h2.9l.5.3v.5c0 .9-.2 3.7-.6 4.6-.2.4-.5.6-1 .6h-1.5l-.1-.8c.5.1 1 .1 1.4.1.3 0 .5-.1.5-.3.4-.7.5-3.1.5-4.1h-2.7c-.3 2.7-1.3 4.2-2.9 5.3l-.7-.6c1.8-1 2.6-2.9 2.9-4.8zM96.6 76.5c1.5-.9 2.6-2.3 3.2-3.5l.5.8c-1.4 2.6-4.1 4.4-7 4.9l-.5-.8c1.7-.2 2.9-.8 3.8-1.4zm-.5-3l-.6.6c-.5-.5-1.7-1.5-2.4-2l.5-.6c.7.5 1.9 1.5 2.5 2z"/></symbol><symbol id="icon-account" viewBox="0 0 500 500"><style>.st0{fill:#c9c9c9}</style><path d="M250 220.4c-53.3 0-96.7-43.4-96.7-96.7S196.7 27 250 27s96.7 43.4 96.7 96.7-43.4 96.7-96.7 96.7zm0-153.8c-31.5 0-57.2 25.6-57.2 57.2 0 31.5 25.6 57.2 57.2 57.2 31.5 0 57.2-25.6 57.2-57.2S281.5 66.6 250 66.6zM46.9 472.9c-.8 0-1.7 0-2.5-.2-10.8-1.4-18.5-11.2-17.1-22.1 14-111.9 109.8-196.3 222.7-196.3 113 0 208.7 84.4 222.7 196.3 1.4 10.8-6.3 20.7-17.1 22.1-10.9 1.4-20.7-6.3-22.1-17.1C422 363.4 343.1 293.9 250 293.9S78 363.4 66.5 455.6c-1.3 10-9.8 17.3-19.6 17.3z"/></symbol><symbol id="icon-cart" viewBox="0 0 500 500"><path d="M411.5 130h-57.2v-25.7C354.3 46.8 307.5 0 250 0S145.7 46.8 145.7 104.3V130H88.5C60.7 130 38 152.6 38 180.5v269.1c0 27.8 22.6 50.5 50.5 50.5h322.9c27.8 0 50.5-22.6 50.5-50.5V180.4c0-27.8-22.6-50.4-50.4-50.4zm-218.7-25.7c0-31.5 25.7-57.2 57.2-57.2 31.5 0 57.2 25.7 57.2 57.2V130H192.8v-25.7zm222 345.2c0 1.9-1.5 3.4-3.4 3.4H88.5c-1.9 0-3.4-1.5-3.4-3.4V180.4c0-1.9 1.5-3.4 3.4-3.4h322.9c1.9 0 3.4 1.5 3.4 3.4v269.1z"/></symbol><symbol id="icon-close" viewBox="0 0 10.1 10.1"><path d="M5.9 5l3.7-3.7c.3-.3.2-.7 0-.9L9.1 0 5 4.1 1.4.5C1.1.2.7.3.5.5L0 .9 4.1 5 .6 8.5c-.4.4-.4.9 0 1.2l.3.3L5 6l3.5 3.5c.5.5.9.4 1.3.1l.3-.3L5.9 5z"/></symbol><symbol id="icon-instagram" viewBox="0 0 500 500"><style>.st0{fill:#c9c9c9}</style><path d="M250 65c60.3 0 67.4.2 91.2 1.3 22 1 34 4.7 41.9 7.8 10.5 4.1 18.1 9 26 16.9 7.9 7.9 12.8 15.4 16.9 26 3.1 8 6.8 19.9 7.8 41.9 1.1 23.8 1.3 30.9 1.3 91.2s-.2 67.4-1.3 91.2c-1 22-4.7 34-7.8 41.9-4.1 10.5-9 18.1-16.9 26-7.9 7.9-15.4 12.8-26 16.9-8 3.1-19.9 6.8-41.9 7.8-23.8 1.1-30.9 1.3-91.2 1.3s-67.4-.2-91.2-1.3c-22-1-34-4.7-41.9-7.8-10.5-4.1-18.1-9-26-16.9-7.9-7.9-12.8-15.4-16.9-26-3.1-8-6.8-19.9-7.8-41.9-1-23.9-1.2-31-1.2-91.3s.2-67.4 1.3-91.2c1-22 4.7-34 7.8-41.9 4.1-10.5 9-18.1 16.9-26 7.9-7.9 15.4-12.8 26-16.9 8-3.1 19.9-6.8 41.9-7.8 23.7-1 30.8-1.2 91.1-1.2m0-40.7c-61.3 0-69 .3-93.1 1.4-24 1.1-40.4 4.9-54.8 10.5-14.8 5.8-27.4 13.5-40 26-12.5 12.5-20.3 25.1-26 40-5.6 14.4-9.4 30.8-10.5 54.8-1.1 24.1-1.4 31.8-1.4 93.1s.3 69 1.4 93.1c1.1 24 4.9 40.4 10.5 54.8 5.8 14.8 13.5 27.4 26 40 12.5 12.5 25.1 20.3 40 26 14.4 5.6 30.8 9.4 54.8 10.5 24.1 1.1 31.8 1.4 93.1 1.4s69-.3 93.1-1.4c24-1.1 40.4-4.9 54.8-10.5 14.8-5.8 27.4-13.5 40-26 12.5-12.5 20.3-25.1 26-40 5.6-14.4 9.4-30.8 10.5-54.8 1.1-24.1 1.4-31.8 1.4-93.1s-.3-69-1.4-93.1c-1.1-24-4.9-40.4-10.5-54.8-5.8-14.8-13.5-27.4-26-40-12.5-12.5-25.1-20.3-40-26-14.4-5.6-30.8-9.4-54.8-10.5-24.1-1.1-31.8-1.4-93.1-1.4z"/><path d="M250 134.1c-64 0-115.9 51.9-115.9 115.9S186 365.9 250 365.9 365.9 314 365.9 250 314 134.1 250 134.1zm0 191.1c-41.6 0-75.2-33.7-75.2-75.2 0-41.6 33.7-75.2 75.2-75.2s75.2 33.7 75.2 75.2c0 41.6-33.6 75.2-75.2 75.2z"/><circle cx="370.5" cy="129.5" r="27.1"/></symbol><symbol id="icon-twitter" viewBox="0 0 500 500"><path d="M448.8 148c.3 4.4.3 8.8.3 13.3 0 135.6-103.2 291.9-291.9 291.9v-.1c-55.7.1-110.3-15.9-157.2-46 8.1 1 16.3 1.5 24.4 1.5 46.2 0 91.1-15.5 127.4-44-43.9-.8-82.4-29.5-95.8-71.2 15.4 3 31.2 2.4 46.3-1.8C54.4 281.9 20 239.8 20 191v-1.3c14.3 8 30.2 12.4 46.6 12.8-45.1-30.1-59-90.1-31.8-136.9 52.1 64.1 128.9 103 211.4 107.2-8.3-35.6 3-73 29.7-98 41.3-38.9 106.3-36.9 145.1 4.5 23-4.5 45-13 65.1-24.9-7.7 23.8-23.7 43.9-45.1 56.7 20.3-2.4 40.2-7.8 58.9-16.1-13.7 20.5-31 38.5-51.1 53z"/></symbol><symbol id="logo-tui_01" viewBox="0 0 22 12.8"><path d="M1.6 3.5h3.2V4c0 .6-.4 1-1.2 1h-2v4.6c0 1.3.5 1.9 1.5 1.9.6 0 1.1-.1 1.5-.3h.1v.6c0 .8-.6 1.2-1.7 1.2-2.1 0-3-1.1-3-3.2v-6c0-.5.1-1.1.4-1.4.2-.3.7-.7 1-.7h.2v1.8zm10.2 9.3C9.5 12.8 8 11.3 8 8.6V3.5h.5c.7 0 1.1.4 1.1 1.2v3.8c0 1.9.9 2.9 2.3 2.9 1.5 0 2.2-.8 2.2-2.8V3.5h.4c.8 0 1.1.4 1.1 1.2v4c0 2.7-1.4 4.1-3.8 4.1zm8.8-9.4h-.5v8.2c0 .8.6 1.2 1.1 1.2h.5V4.7c0-.8-.6-1.3-1.1-1.3zm.3-3.4c-.6 0-1.1.5-1.1 1.1s.5 1.1 1.1 1.1c.6 0 1.1-.5 1.1-1.1S21.5 0 20.9 0z"/></symbol><symbol id="mask_01" viewBox="0 0 10 10"><path d="M10 0H0v10C0 4.5 4.5 0 10 0z"/></symbol><symbol id="mask_02" viewBox="0 0 10 10"><path d="M0 0h10v10C10 4.5 5.5 0 0 0z"/></symbol><symbol id="tx-01" viewBox="0 0 183.7 20.2"><style>.st0{fill:#fff}</style><path d="M9.4 6.8h-3c-.2 0-.2 0-.2-.2V5c0-.2 0-.2.2-.2h5.2V3.3c0-1.4 0-2.2-.2-3.1.8 0 1.6.1 2.3.2.2 0 .4.1.4.2 0 .2-.1.3-.2.5-.1.3-.1.7-.1 2.2v1.5H20c.2 0 .2 0 .2.2v1.7c0 .2 0 .2-.2.2h-5.3c1.5 3 3.1 5 6.1 7.5-.5.5-.8.9-1.1 1.5-.2.3-.2.5-.4.5-.1 0-.2-.1-.5-.4-2.5-2.5-3.9-4.6-5.1-7.4v5.7h2.9c.2 0 .2 0 .2.2V16c0 .2 0 .3-.2.3h-2.9c0 2.1.1 3.5.1 3.8 0 .2 0 .2-.2.2h-1.9c-.2 0-.3 0-.3-.2s0-1.7.1-3.8H8.7c-.2 0-.2 0-.2-.3v-1.6c0-.2 0-.2.2-.2h2.8c0-1.7.1-3.7.1-5.6-1.3 3-2.8 5.3-5 7.3-.2.2-.4.3-.5.3s-.1-.1-.2-.4c-.3-.5-.7-.9-1-1.3v5.4c0 .2 0 .2-.2.2H2.8c-.2 0-.2 0-.2-.2v-8.3-2.5c-.4.5-.8 1.1-1.3 1.6-.1.3-.2.4-.3.4-.1 0-.2-.1-.2-.4C.6 10 .3 9.2 0 8.8c1.9-2.1 3.3-4.5 4.2-7.2.2-.5.3-1 .3-1.6.8.3 1.5.5 2.1.7.3.2.4.2.4.4s-.1.2-.2.4c-.2.1-.3.3-.5.9-.4 1-.9 2.1-1.4 3.2v8.9c2.4-2 4.3-4.4 5.8-7.6H9.4zM41.7.1c.3-.1.3-.1.5 0 .4.3 1 .9 1.4 1.4.2.2.1.3-.1.4l-.5.3h1.9c.2 0 .2 0 .2.2v1.5c0 .2 0 .2-.2.2h-5.1c.2 1.5.5 2.9.9 4.2.4-.7.8-1.3 1.1-1.9 0-.4.2-.9.3-1.4.7.2 1.3.4 1.8.7.2.1.3.2.3.3 0 .1-.1.2-.2.3-.1.1-.2.3-.4.7-.5 1.1-1.1 2.2-1.9 3.3.6.9 1.2 1.4 1.6 1.4.6 0 .8-.6 1-2.1.3.3.8.6 1.1.7.4.2.6.3.6.5 0 .1 0 .3-.1.5-.6 1.8-1.3 2.7-2.5 2.7-1.1 0-2.2-.7-3.1-2-.5.5-1.1 1-1.7 1.5-.3.2-.4.3-.5.3-.1 0-.2-.1-.5-.4l-.7-.7c0 .1-.1.1-.2.1h-5.9c-.2 0-.2 0-.2-.2V9.5 8.1c0-.2 0-.2.2-.2h5.9c.2 0 .2 0 .2.2v4.1c.9-.6 1.7-1.2 2.4-2-.8-1.7-1.3-3.9-1.6-6.1h-7.8v1.5c0 1.2-.2 3.3-.4 4.4-.3 1.4-.7 2.6-1.5 3.9-.2.3-.3.4-.4.4-.1 0-.2-.1-.5-.3-.5-.4-1-.7-1.4-.9.9-1.2 1.3-2.2 1.6-3.5.3-1.2.4-2.6.4-4.7V2.5c0-.2 0-.2.3-.2h9.6c-.1-.8-.1-1.6-.3-2.2.8 0 1.6.1 2.2.2.2 0 .3.1.3.2 0 .2-.1.3-.1.4-.1.2 0 .7 0 1.5h2.1c-.3-.4-.8-.9-1-1.1-.1-.1-.1-.1-.1-.2s0-.2.2-.2l.8-.8zM26.1 18.6c-.3-.2-.3-.2-.1-.4.9-1 1.7-2.4 2.2-3.7.1-.2.1-.2.4-.1l1.4.6c.3.1.3.2.2.4-.6 1.5-1.3 2.8-2.2 4-.1.2-.2.2-.4 0l-1.5-.8zm8.7-13.4h2c.2 0 .2 0 .2.3v1.3c0 .2 0 .2-.2.2h-6.2c-.2 0-.2 0-.2-.2V5.4c0-.2 0-.3.2-.3h4.2zm-1.5 11.7c0 .4.1.7.4.9.4.2 1.3.2 2.2.2 1.6 0 2.2 0 2.7-.2.4-.2.6-.8.6-1.9.4.3.9.5 1.6.7.6.2.6.2.5.8-.2 1.2-.6 1.8-1.2 2.2-.8.4-2 .5-4.3.5-1.9 0-3.2-.1-3.8-.4-.5-.3-.8-.7-.8-1.9v-1.9c0-.6 0-1-.1-1.7.7 0 1.5 0 2.2.1.3 0 .4.1.4.2s0 .2-.1.4-.1.4-.1.8v1.2zm1.6-7.5h-2.6V11h2.6V9.4zm.7 3.8c.2-.2.3-.2.5 0 .8.7 1.4 1.3 2.1 2.2.1.2.2.2-.1.4l-1.1.9c-.1.1-.2.2-.3.2s-.1 0-.2-.2c-.6-.9-1.2-1.6-1.9-2.3-.2-.2-.2-.2.1-.4l.9-.8zm6.8.9c.1-.1.2-.1.3-.1.1 0 .1 0 .2.1 1 1.1 1.9 2.3 2.6 3.7.1.2.1.3-.2.4l-1.4.8c-.3.2-.4.2-.4 0-.6-1.5-1.3-2.7-2.4-3.8-.2-.2-.1-.2.1-.4l1.2-.7zM60.7 2.3c0-.6-.1-.9-.3-1.6 1 .1 2 .2 2.6.3.4.1.6.2.6.4s-.1.3-.2.5c-.1.1-.1.4-.2.6v1.4c2.4-.1 4.6-.1 6.8-.1.3 0 .3 0 .3.3v1.7c0 .2-.1.3-.4.3-2.3-.1-4.4-.1-6.7 0v4.1c.2.6.3 1.5.3 2.2 0 2.6-1 5.2-3.9 7.1-.4.2-.7.4-.9.4s-.4-.2-.7-.3c-.5-.4-1.1-.7-1.7-.9 2.6-1.1 4.1-3 4.5-4.8-.4.6-1.3.9-2.1.9-1.7 0-3.1-1.3-3.1-3.4 0-2 1.5-3.3 3.3-3.3.7 0 1.3.1 1.7.4V6.3c-2.8.2-5.9.4-7.6.7-.5.1-.8.3-1 .3-.2 0-.3-.1-.4-.3-.2-.4-.4-1.3-.6-2.2.8.1 1.5 0 2.7-.1 1.3-.1 4.2-.3 6.8-.4.2-.9.2-1.4.2-2zm-2.8 8.9c0 1 .6 1.5 1.4 1.5.8 0 1.5-.5 1.5-1.5 0-.9-.6-1.4-1.5-1.4-.6-.1-1.4.4-1.4 1.4zM82.1 9.3c1.2-.7 2.3-1 3.5-1 3.2 0 5.5 2.1 5.5 5.3 0 3.7-3 6-7.7 6-2.8 0-4.4-1.2-4.4-3.2 0-1.5 1.4-2.7 3.1-2.7 2.1 0 3.6 1.1 4.1 3.2 1.5-.7 2.2-1.7 2.2-3.3 0-2-1.4-3.3-3.5-3.3-1.8 0-3.9.8-5.6 2.3-.6.6-1.3 1.2-1.9 1.9-.2.2-.3.2-.4.2-.1 0-.2-.1-.3-.2-.5-.4-.9-1-1.3-1.4-.1-.2-.1-.3.1-.5 1.7-1.4 3.2-2.8 5.2-4.9 1.4-1.4 2.4-2.5 3.4-3.8-1.3.2-2.9.5-4.2.8L79 5c-.1 0-.3.1-.4.1-.2 0-.4-.1-.5-.4-.3-.5-.5-1.1-.8-2.4.7.1 1.4.1 2 0 1.3-.1 3.3-.4 5-.7.6-.1 1-.2 1.2-.3.1-.1.3-.2.4-.2.2 0 .4.1.5.2.7.5 1.1.9 1.5 1.4.2.2.2.4.2.5 0 .2-.1.4-.4.5-.4.2-.6.3-1 .7-1.5 1.7-2.9 3.2-4.6 4.9zm0 6.3c-.6 0-1.1.4-1.1.8 0 .7.6 1.1 1.9 1.1.4 0 .7 0 1-.1-.2-1.2-.8-1.8-1.8-1.8zM98.2 6.2c.2-.2.3-.3.5-.2 1 .6 2.1 1.3 3.1 2.2l.2.2s0 .1-.1.2l-1 1.3c-.2.2-.2.3-.4.1-.9-.9-1.9-1.7-3.1-2.4-.1-.1-.2-.1-.2-.2s0-.1.1-.2l.9-1zm0 10.9c.5-1.3 1.3-3.2 1.9-5.3.3.3.8.7 1.2 1.1.6.4.6.4.4 1.1-.5 1.7-1.1 3.5-1.7 5-.2.4-.3.7-.3.9 0 .2-.1.3-.2.3s-.2 0-.4-.1c-.5-.3-1.1-.6-1.8-1.1.3-.8.6-1.2.9-1.9zM99.1.6c.2-.2.3-.2.4-.1 1.1.7 2.1 1.5 3.1 2.3.1.1.1.1.1.2s0 .1-.1.3l-1 1.3c-.2.3-.2.3-.4.1-.9-1-2-1.9-3.1-2.6-.2-.1-.2-.2 0-.4l1-1.1zm14.2 8.5h3.1c.2 0 .2 0 .2.2v3.3c0 .2 0 .2-.2.2h-1.9c.2.2.2.3.2.4 0 .1 0 .2-.2.3-.2.1-.3.3-.7.7-.7.9-1.5 1.7-2.4 2.4 1.5.7 3.4 1.1 5.7 1.5-.3.4-.6.9-.8 1.4-.2.4-.2.6-.5.6-.1 0-.2 0-.5-.1-2.4-.5-4.4-1.1-6-2.1-1.7.9-3.7 1.6-6.1 2.1h-.4c-.2 0-.3-.1-.5-.6s-.5-.9-.8-1.3c2.4-.3 4.3-.9 6-1.6-1-.8-1.8-1.8-2.6-2.9h-.8c-.2 0-.2 0-.2-.2v-.6h-1.5c-.2 0-.2 0-.2-.2v-2.4-1c0-.2 0-.2.2-.2h10.9zm-6.6-6.5h-2.8c-.2 0-.2 0-.2-.2V1.1c0-.2 0-.2.2-.2h10.7c.2 0 .2 0 .2.2v6.7c0 .2 0 .2-.2.2h-10.8c-.2 0-.2 0-.2-.2V6.6c0-.2 0-.2.2-.2h8.7V5.3h-8.1c-.2 0-.2 0-.2-.2V3.9c0-.2 0-.3.2-.3h8.2v-1h-5.9zm5.6 9.4c.3 0 .4 0 .5-.1.1 0 .2-.1.2-.1.2 0 .3.1 1 .6l.4.3v-2h-9.9v1.1h7.8zm-4.8 1.7c.6.7 1.3 1.4 2.1 1.9.8-.6 1.5-1.2 2.1-1.9h-4.2zM127.5 15.5c.5.9 1.1 1.4 2 1.8.8.3 2.2.4 4.1.4 2.8 0 6.1-.1 9.4-.5-.3.5-.5 1-.6 1.6-.1.7-.1.7-.8.7-2.8.2-5.4.2-7.7.2s-4.1-.1-5.1-.6c-1-.4-1.7-1-2.3-1.9-.6.6-1.3 1.3-2.1 1.9-.2.2-.4.3-.5.5-.1.1-.2.2-.3.2-.1 0-.2-.1-.3-.3-.3-.6-.6-1.3-.9-2 .6-.3.9-.4 1.3-.7.6-.4 1.2-.9 1.7-1.4v-4.9h-2.6c-.2 0-.3 0-.3-.3V8.6c0-.2 0-.2.3-.2h4.5c.2 0 .2 0 .2.2v6.9zm-1.2-10c-.1.1-.2.2-.3.2-.1 0-.1 0-.2-.2-.8-1.3-1.7-2.5-2.7-3.4-.2-.2-.1-.2.1-.4l1.2-.8c.1-.1.2-.1.3-.1.1 0 .1 0 .2.1 1 .9 2 2 2.8 3.2.1.2.1.2-.1.4l-1.3 1zm11.5.4c1.3 1 2.8 1.7 5.1 2.4-.3.4-.6.9-.7 1.5-.1.3-.2.4-.3.4-.1 0-.3 0-.5-.2-2.3-.9-4-2.1-5.3-3.7 0 1.1.1 2.2.1 2.6 0 .2 0 .2-.2.2h-1.7c-.2 0-.2 0-.2-.2 0-.3.1-1.3.1-2.4-1.1 1.2-2.4 2.2-3.9 3h8.4c.2 0 .3.1.2.3l-.3.8c-.1.4-.2.8-.4 1.2H140.8c.2 0 .3.1.3.2l-.1 1.3c-.1 1.2-.4 2.1-.6 2.7-.4.8-1.2 1.1-2.3 1.1h-1.5c-.6 0-.7 0-.7-.7 0-.5-.2-.9-.3-1.3.8.1 1.6.2 2 .2.4 0 .7-.1.9-.4.2-.4.3-.9.3-1.5h-1.1l-.1.2c-.1.2-.2.2-.4.2l-1.4-.1c-.3 0-.3-.1-.2-.3.3-.7.6-1.4.7-2h-1.8c-.4 2.8-1.4 4.4-4 5.5-.3.1-.4.2-.5.2-.2 0-.3-.1-.5-.5-.3-.4-.6-.8-1-1.1 2.6-.9 3.7-1.8 3.9-4.1H130.1c-.2 0-.3 0-.3-.3V9.7l-.5.3c-.3.1-.4.2-.5.2-.2 0-.2-.1-.3-.4-.3-.6-.5-1-.8-1.4 1.9-.7 3.4-1.4 4.7-2.6h-3.8c-.2 0-.3 0-.3-.2V4.3c0-.2 0-.2.3-.2h5.5V2.9c-1.2.1-2.4.2-3.7.2-.6 0-.6 0-.8-.5-.1-.5-.4-1-.6-1.3 2.1 0 3.6-.1 5.2-.3 1.2-.1 2.6-.3 3.7-.5.6-.1 1-.2 1.4-.4.6.4 1.1 1 1.4 1.3.1.2.2.3.2.4 0 .2-.2.3-.5.3-.2 0-.6 0-1.2.1-.9.2-2 .3-3 .4v1.5h5.8c.2 0 .2 0 .2.2v1.4c0 .2 0 .2-.2.2h-4.2zM158 7.2c-.2 1.8-.5 3.7-1.1 5.3-1.3 3.3-3.4 5.4-6.6 7.2-.3.1-.4.2-.5.2-.2 0-.3-.1-.5-.5-.4-.6-.9-1-1.4-1.3 3.6-1.6 5.8-3.7 6.8-6.5.5-1.4.8-2.9.9-4.4h-6.3c-.2 0-.3 0-.3-.2V5.2c0-.2 0-.2.3-.2h6.4V3.1c0-1.1 0-1.9-.2-2.9.9 0 1.8.1 2.6.2.3 0 .4.2.4.3 0 .2-.1.4-.2.5-.1.3-.2.9-.2 1.9V5h7.6c.2 0 .3 0 .3.3v2c0 3.7-.2 7.3-.7 9.7-.4 2.1-1.5 2.9-3.7 2.9-.8 0-1.5 0-2.1-.1-.7-.1-.7-.1-.8-.8-.2-.7-.4-1.3-.6-1.7 1.4.2 2.2.3 3.3.3.8 0 1.4-.3 1.6-1.5.4-2.1.6-5.1.6-8.8H158zM183.7 11.1l-.4.4-4.8-4.8-4.8 4.8-.4-.4 4.8-4.8-4.8-4.8.4-.4 4.8 4.8 4.8-4.8.4.4-4.8 4.8 4.8 4.8zM176 6.3c0 .6-.5 1-1 1s-1-.4-1-1 .4-1 1-1 1 .4 1 1zm3.5-3.4c0 .6-.5 1-1 1-.6 0-1-.4-1-1s.4-1 1-1c.5-.1 1 .4 1 1zm0 6.9c0 .6-.5 1-1 1-.6 0-1-.4-1-1s.4-1 1-1c.5 0 1 .4 1 1zm3.4-3.5c0 .6-.5 1-1 1s-1-.4-1-1 .4-1 1-1 1 .4 1 1z"/></symbol></svg>