<svg xmlns="http://www.w3.org/2000/svg" xmlns:xlink="http://www.w3.org/1999/xlink" style="display:none"><symbol id="logo-utori" viewBox="0 0 51 12"><style>.st0{fill:#595757}</style><path d="M6.6 3.6c-.4 0-.7.3-.7.7V9l-2.2 1.5c-.2.1-.3.2-.5.2h-1c-.4 0-.7-.3-.7-.7V4.3c0-.4-.3-.7-.6-.7-.6-.1-.9.2-.9.6v5.7C0 11 .9 12 2.1 12h1.4c.2 0 .4-.1.5-.2l1.8-1.2v.7c0 .4.3.7.6.7.4 0 .7-.3.7-.7v-7c.1-.4-.2-.7-.5-.7zM17.3 9.7l-1.1.7c-.2.1-.3.2-.5.2h-1c-.4 0-.7-.3-.7-.7v-5h2.9c.4 0 .7-.3.7-.6 0-.4-.3-.7-.7-.7H14V1.8c0-.4-.3-.7-.6-.7-.4 0-.7.3-.7.7v1.8h-1.4c-.4 0-.7.3-.7.6 0 .4.3.7.7.7h1.4v5c0 1.1.9 2.1 2.1 2.1h1.4c.2 0 .4-.1.5-.2l1.4-1c.3-.2.4-.7.1-1-.2-.3-.6-.3-.9-.1zM27.5 3.8c-.2-.2-.4-.3-.7-.3h-3c-.2 0-.5.1-.7.3L22 5.1c-.2.2-.3.4-.3.7v4.1c0 .2.1.5.3.7l1.2 1.2c.2.2.4.3.7.3h3c.2 0 .5-.1.7-.3l1.2-1.2c.1-.3.2-.6.2-.8V5.7c0-.2-.1-.5-.3-.7l-1.2-1.2zm.2 5.4c0 .2-.1.5-.3.7l-.4.4c-.2.2-.4.3-.7.3h-1.8c-.2 0-.5-.1-.7-.3l-.4-.4c-.2-.2-.3-.4-.3-.7V6.3c0-.2.1-.5.3-.7l.4-.4c.2-.2.4-.3.7-.3h1.8c.2 0 .5.1.7.3l.4.4c.2.2.3.4.3.7v2.9zM38.4 3.6H37c-.2 0-.4.1-.5.2L34.6 5v-.7c0-.4-.3-.7-.6-.7-.4 0-.7.3-.7.7v7c0 .4.3.7.6.7.4 0 .7-.3.7-.7V6.6l2.2-1.5c.2-.1.4-.2.6-.2h1c.4 0 .7.3.7.7v1.1c0 .4.3.7.6.7.4 0 .7-.3.7-.7V5.6c.1-1.1-.9-2-2-2zM50.3 10.6h-2.1V4.5c0-.5-.4-.9-.9-.9h-2.6c-.4 0-.7.3-.7.6 0 .4.3.7.7.7h2.2v5.7h-2.1c-.4 0-.7.3-.7.6 0 .4.3.7.7.7h5.7c.4 0 .7-.3.7-.7-.2-.3-.6-.6-.9-.6zM46.5 2.1h1.3c.2 0 .4-.2.4-.4V.4c0-.2-.2-.4-.4-.4h-1.3c-.2 0-.4.2-.4.4v1.3c0 .2.2.4.4.4z"/></symbol><symbol id="mask_01" viewBox="0 0 10 10"><path d="M10 0H0v10C0 4.5 4.5 0 10 0z"/></symbol><symbol id="mask_02" viewBox="0 0 10 10"><path d="M0 0h10v10C10 4.5 5.5 0 0 0z"/></symbol><symbol id="tx-about_us" viewBox="0 0 86.9 10.3"><style>.st0{fill:#606060}</style><path d="M2.3 4.1c-.4 0-1-.1-1-.7s.5-.7.9-.7H4c.7 0 1.2.1 1.7.6.7.6.7 1 .7 1.7l.1 4.6c0 .4-.2.8-.6.8-.4 0-.7-.3-.7-.7l-.9.5c-.3.1-.3.1-.8.1H2.2c-.6 0-1-.1-1.5-.5-.6-.4-.7-.9-.7-1.6v-.6c0-.6.2-1 .7-1.5.5-.4 1-.5 1.6-.5h2.9v-.3c0-1-.2-1.2-1.2-1.2H2.3zm-.1 2.8c-.3 0-.9.1-.9.6v.9c0 .5.6.6.9.6h1.5l1.5-.8v-.3c0-.7-.2-1-1-1h-2zM12.8 3.8l.2-.2c.4-.4.7-.7 1.3-.7h1.5c.4 0 .7.2 1 .5l.5.4c.5.5.7.8.7 1.6v2.7c0 .7-.2 1.1-.7 1.6l-.5.4c-.3.3-.7.5-1.1.5h-1.4c-.5 0-.9-.3-1.3-.7l-.3-.3v.1c0 .4-.1.9-.7.9s-.7-.5-.7-.9V.9c0-.5.1-.9.7-.9s.7.5.7.9v2.9zm0 3.3c0 .4.1.6.4.9l.8.6c.2.2.4.4.5.4h1c.2 0 .3 0 .4-.1l.6-.5c.2-.1.2-.4.2-.7V5.3c0-.3-.1-.5-.2-.6l-.6-.5c-.1-.1-.2-.1-.3-.1h-.9c-.2 0-.4.1-.6.2l-.9.8c-.2.2-.4.4-.4.8v1.2zM23 5.3c0-.9.2-1.2.9-1.8.7-.5 1-.8 1.9-.8h1.1c.9 0 1.2.2 1.9.8.7.5.9.9.9 1.8v2.5c0 .9-.2 1.2-.9 1.8-.7.6-1 .7-1.8.7h-1.1c-.9 0-1.1-.1-1.8-.7-.9-.6-1.1-.9-1.1-1.8V5.3zm1.3 2.5c0 .3.1.5.5.8.3.3.5.4.9.4h1.1c.4 0 .6-.1.9-.4.4-.3.5-.5.5-.8V5.3c0-.3-.1-.5-.5-.8-.3-.3-.5-.4-.9-.4h-1.1c-.4 0-.6.1-.9.4-.4.3-.5.5-.5.8v2.5zM41 9.3c0 .3.1 1-.7 1-.6 0-.7-.5-.7-.9v-.2l-1.1.7c-.4.3-.8.4-1.2.4h-1c-.4 0-.8-.1-1.2-.5-.6-.5-.6-1.1-.6-1.8l-.1-4.2c0-.5.1-1 .7-1s.6.5.7.9l.1 4.1c0 .3 0 .7.1.9.2.2.5.3.8.3h.4c.2 0 .3 0 .4-.1l2-1.2v-4c0-.5.1-.9.7-.9s.7.4.7.9v5.6zM48.6 7.8c0 .8 0 1.2.9 1.2h.7c.5 0 .8 0 .9-.6.1-.3.3-.5.7-.5.4 0 .7.3.7.7 0 .4-.2.9-.5 1.1-.5.6-1.1.7-1.8.7h-.7c-.7 0-1.3-.2-1.7-.7-.5-.6-.5-1.1-.5-1.9V4.1h-.4c-.4 0-.9-.1-.9-.7s.5-.7.9-.7h.4V1.4c0-.5.1-.9.7-.9s.7.5.7.9v1.4H51c.4 0 .9.1.9.7s-.5.7-.9.7h-2.3v3.6zM75.5 9.3c0 .3.1 1-.7 1-.6 0-.7-.5-.7-.9v-.2l-1.1.7c-.4.3-.8.4-1.2.4h-1c-.4 0-.8-.1-1.2-.5C69 9.3 69 8.7 69 8l-.1-4.2c0-.5.1-1 .7-1s.6.5.7.9l.1 4.1c0 .3 0 .7.1.9.1.2.5.3.8.3h.4c.2 0 .3 0 .4-.1l2-1.2v-4c0-.5.1-.9.7-.9s.7.5.7.9v5.6zM82.7 4.1c-.3 0-.8-.1-.8.4 0 .2.2.3.4.4l3.4 1.5c.9.4 1.3.9 1.3 1.9 0 1.4-.9 2-2.2 2h-2.1c-.7 0-1.2 0-1.7-.4-.3-.2-.6-.4-.6-.8s.3-.7.7-.7c.2 0 .4.1.5.2.2.4.6.4 1.1.4h1.8c.5 0 1.1 0 1.1-.7 0-.3-.4-.5-.7-.7l-3.2-1.4c-.7-.3-1.2-.8-1.2-1.6 0-1.1.8-1.7 1.8-1.7h2.3c.7 0 1.1 0 1.6.5.3.2.5.4.5.8s-.3.7-.7.7c-.3 0-.4-.1-.6-.3-.2-.2-.5-.3-.8-.3h-1.9z"/></symbol><symbol id="tx-gift_box" viewBox="0 0 74.5 11.8"><style>.st0{fill:#595757}</style><path d="M0 5c0-.5.2-1 .4-1.2l.8-.7c.3-.1.5-.2.8-.2h1.1c.3 0 .7.2 1.1.6l.3.2v-.2c0-.4.2-.7.6-.7.5 0 .6.4.6.8v5.6c0 1-.1 1.3-.6 1.7l-.4.3c-.5.4-.8.5-1.4.5h-2c-.3 0-.8-.1-.8-.6s.4-.6.8-.6h2.1c.2 0 .4-.1.6-.3l.3-.3c.1.1.2-.1.2-.3V8l-.3.3c-.2.2-.6.5-.9.5H1.9c-.2 0-.5 0-.9-.3l-.6-.7c-.4-.3-.4-.6-.4-1V5zm1.2 1.6c0 .2 0 .5.1.6l.5.4c.1.1.2.1.3.1H3c.1 0 .3-.1.5-.3l.9-.7c.1-.1.1-.2.1-.4v-.9c0-.2 0-.3-.1-.4l-.9-.7C3.3 4.1 3.1 4 3 4h-.9c-.1 0-.2.1-.3.1l-.5.4c-.1.1-.1.4-.1.6v1.5zM13.3 8.2h.9c.4 0 .8.1.8.6s-.5.6-.8.6h-2.9c-.3 0-.8-.1-.8-.6s.4-.6.8-.6h.9V4h-.9c-.3 0-.8-.1-.8-.6s.4-.6.8-.6h1.2c.7 0 .9.1.9.8v4.6zM11.5.5c0-.4.2-.5.5-.5h.7c.3 0 .5.1.5.5v.6c0 .4-.2.5-.5.5H12c-.3 0-.5-.1-.5-.5V.5zM21.4 4H21c-.3 0-.8-.1-.8-.6s.4-.6.8-.6h.3v-.1c0-.7 0-1.1.6-1.6S23 .5 23.7.5h.8c.4 0 .8 0 .8.6 0 .5-.4.6-.8.6h-.9c-.8 0-1.1.2-1.1 1v.2h1c.4 0 .8.1.8.6s-.5.6-.8.6h-1v4.5c0 .4-.1.8-.6.8s-.6-.4-.6-.8V4zM31.8 7.2c0 .6 0 1 .8 1h.6c.5 0 .7 0 .8-.5.1-.3.3-.5.6-.5s.6.3.6.6-.2.7-.4 1c-.4.5-1 .6-1.6.6h-.6c-.6 0-1.1-.1-1.5-.6-.4-.5-.4-1-.4-1.6V4h-.4c-.3 0-.8-.1-.8-.6s.4-.6.8-.6h.4V1.7c0-.4.1-.8.6-.8s.6.4.6.8v1.2h1.9c.4 0 .8.1.8.6s-.5.6-.8.6h-1.9v3.1zM50.4 3.7l.2-.2c.4-.4.6-.6 1.1-.6H53c.3 0 .6.2.9.4l.4.3c.5.4.6.7.6 1.3v2.3c0 .6-.2.9-.6 1.3l-.4.3c-.3.2-.6.4-.9.4h-1.2c-.5 0-.8-.3-1.1-.6l-.3-.3v.1c0 .4-.1.8-.6.8s-.6-.4-.6-.8V1.3c0-.4.1-.8.6-.8s.6.4.6.8v2.4zm0 2.9c0 .4 0 .5.3.8l.7.6c.1.1.3.3.4.3h.9c.2 0 .3 0 .4-.1l.5-.4c.1-.1.1-.4.1-.6V5c0-.2-.1-.4-.2-.5l-.5-.4c-.1 0-.2-.1-.3-.1h-.8c-.2 0-.3.1-.5.2l-.7.6c-.2.2-.3.3-.3.7v1.1zM59 5c0-.8.2-1 .7-1.5.6-.5.8-.6 1.6-.6h.9c.8 0 1.1.2 1.6.6.7.5.9.7.9 1.5v2.2c0 .8-.2 1-.8 1.5-.6.5-.8.6-1.6.6h-.9c-.7 0-1-.1-1.6-.6-.6-.5-.8-.8-.8-1.5V5zm1.2 2.2c0 .2.1.4.4.7.3.2.4.3.8.3h.9c.4 0 .5-.1.8-.3.3-.3.4-.4.4-.7V5c0-.2-.1-.4-.4-.7-.2-.2-.4-.3-.8-.3h-.9c-.4 0-.5.1-.8.3-.3.3-.4.4-.4.7v2.2zM70.9 6.1L69.2 4c-.1-.2-.3-.3-.3-.5 0-.3.3-.6.6-.6s.6.4.8.6l1.5 1.8 1.5-1.8c.2-.3.4-.6.8-.6.3 0 .6.3.6.6 0 .2-.1.4-.3.5l-1.8 2.1 1.8 2.1c.1.2.3.3.3.5 0 .3-.3.6-.6.6s-.6-.3-.8-.6l-1.5-1.8-1.5 1.8c-.3.3-.5.6-.8.6-.3 0-.6-.3-.6-.6 0-.2.1-.4.3-.5l1.7-2.1z"/></symbol><symbol id="tx-menu" viewBox="0 0 39.3 10.9"><style>.st0{fill:#595757}</style><path d="M5.2 0H7v10.2c0 .4-.2.7-.7.7-.5 0-.7-.3-.7-.7V1.9l-1.3 2v.2c-.1.5-.3.9-.8.9s-.7-.4-.7-.9v-.2l-1.3-2v8.3c0 .4-.2.7-.7.7s-.8-.3-.8-.7V0h1.8l1.7 2.5L5.2 0zM17 9.5c.4 0 .7.2.7.7 0 .5-.3.7-.7.7h-6.2V0H17c.4 0 .7.2.7.7 0 .5-.3.7-.7.7h-4.8v3.3h2.1c.4 0 .7.2.7.7 0 .5-.3.7-.7.7h-2.1v3.3H17zM27.1.7c0-.4.2-.7.7-.7.5 0 .7.3.7.7v10.2h-1.8L23 2.5v7.7c0 .4-.2.7-.7.7-.5 0-.7-.3-.7-.7V0h1.8l3.7 8.5V.7zM34.6 10.9c-.7 0-1.2-.2-1.7-.7-.5-.5-.5-1-.5-1.7V.7c-.1-.4.1-.7.6-.7s.7.3.7.7v7.8c0 .8.2 1 .9 1H37c.6 0 .9-.2.9-1V.7c0-.4.2-.7.7-.7.5 0 .7.3.7.7v7.8c0 .6-.1 1.1-.5 1.7-.5.5-1 .7-1.7.7h-2.5z"/></symbol><symbol id="tx-p1" viewBox="0 0 15.6 11.8"><style>.st0{fill:#595757}</style><path d="M5.6 6.8c0 .8-.1 1.1-.7 1.7l-.7.6c-.2.1-.6.5-.9.5h-.8c-.5 0-.7-.4-1.1-.7l-.2-.2V11c0 .4-.1.8-.6.8S0 11.4 0 11V3.7c0-.4 0-.9.6-.9.5 0 .6.4.6.8v.1l.2-.2c.3-.3.8-.7 1.1-.7h.8c.3 0 .6.3 1 .5l.7.5c.7.5.7.9.7 1.7v1.3zM4.5 5.4c0-.2-.1-.3-.2-.5l-.9-.7C3.3 4.1 3.1 4 3 4h-.3c-.2 0-.4.2-.5.4l-.7.6c-.3.3-.3.4-.3.6v1.1c0 .2 0 .4.2.5l.9.8c.2.2.3.3.5.3H3c.2 0 .3-.1.4-.2l.9-.7c.1-.1.2-.2.2-.4V5.4zM14.4 8.1V5.7c0-.3.2-.6.6-.6.4 0 .6.3.6.6v3c0 .4-.3.6-.6.6h-4.7c-.3 0-.6-.2-.6-.6s.3-.6.6-.6h1.8V1.2h-1.8c-.3 0-.6-.2-.6-.6 0-.4.3-.6.6-.6h3v8.1h1.1z"/></symbol><symbol id="tx-p124" viewBox="0 0 35.3 11.8"><style>.st0{fill:#595757}</style><path d="M5.6 6.8c0 .8-.1 1.1-.7 1.7l-.7.6c-.2.1-.6.5-.9.5h-.8c-.5 0-.7-.4-1.1-.7l-.2-.2V11c0 .4-.1.8-.6.8S0 11.4 0 11V3.7c0-.4 0-.9.6-.9.5 0 .6.4.6.8v.1l.2-.2c.3-.3.8-.7 1.1-.7h.8c.3 0 .6.3 1 .5l.7.5c.7.5.7.9.7 1.7v1.3zM4.5 5.4c0-.2-.1-.3-.2-.5l-.9-.7C3.3 4.1 3.1 4 3 4h-.3c-.2 0-.4.2-.5.4l-.7.6c-.3.3-.3.4-.3.6v1.1c0 .2 0 .4.2.5l.9.8c.2.2.3.3.5.3H3c.2 0 .3-.1.4-.2l.9-.7c.1-.1.2-.2.2-.4V5.4zM14.4 8.1V5.7c0-.3.2-.6.6-.6s.6.3.6.6v3c0 .4-.3.6-.6.6h-4.7c-.3 0-.6-.2-.6-.6s.3-.6.6-.6h1.8V1.2h-1.8c-.3 0-.6-.2-.6-.6 0-.4.3-.6.6-.6h3v8.1h1.1zM20.7 8.1h4.1c.3 0 .6.2.6.6s-.3.6-.6.6h-5.3V5.4c0-.9.5-1.4 1.4-1.4h3.4V1.2h-4.1c-.3 0-.6-.2-.6-.6 0-.4.3-.6.6-.6h4c.4 0 .7.1 1 .3.3.3.4.6.4 1.1v2.5c0 .4 0 .8-.4 1.1-.3.3-.6.3-1 .3h-3.4v2.8zM33.5 5.1V1.6c0-.3.1-.6.6-.6s.6.3.6.6v3.5c.3 0 .6.2.6.6s-.3.6-.6.6v2.4c0 .4-.2.6-.6.6-.4 0-.6-.2-.6-.6V6.3H30V.6c0-.3.1-.6.6-.6s.6.3.6.6v4.5h2.3z"/></symbol><symbol id="tx-p6" viewBox="0 0 15.6 11.8"><style>.st0{fill:#595757}</style><path d="M5.6 6.8c0 .8-.1 1.1-.7 1.7l-.7.6c-.2.1-.6.5-.9.5h-.8c-.5 0-.7-.4-1.1-.7l-.2-.2V11c0 .4-.1.8-.6.8S0 11.4 0 11V3.7c0-.4 0-.9.6-.9.5 0 .6.4.6.8v.1l.2-.2c.3-.3.8-.7 1.1-.7h.8c.3 0 .6.3 1 .5l.7.5c.7.5.7.9.7 1.7v1.3zM4.5 5.4c0-.2-.1-.3-.2-.5l-.9-.7C3.3 4.1 3.1 4 3 4h-.3c-.2 0-.4.2-.5.4l-.7.6c-.3.3-.3.4-.3.6v1.1c0 .2 0 .4.2.5l.9.8c.2.2.3.3.5.3H3c.2 0 .3-.1.4-.2l.9-.7c.1-.1.2-.2.2-.4V5.4zM10.9 5.1h4c.6 0 .7.3.7.8v2.7c0 .6-.2.8-.8.8h-4.4c-.6 0-.8-.2-.8-.8v-8c.1-.3.2-.6.6-.6h.7c.3 0 .6.3.6.6 0 .4-.3.6-.6.6v3.9zm0 1.2v1.8h3.5V6.3h-3.5z"/></symbol><symbol id="tx-short_film" viewBox="0 0 94.2 9.3"><style>.st0{fill:#595757}</style><path d="M2 4c-.3 0-.7 0-.7.3 0 .2.1.3.3.3L4.5 6c.7.3 1.1.8 1.1 1.6 0 1.2-.8 1.7-1.9 1.7H2c-.6 0-1 0-1.4-.4-.3-.1-.6-.3-.6-.6s.3-.6.6-.6c.2 0 .3.1.4.2.2.3.6.3 1 .3h1.6c.4 0 1 0 1-.6 0-.3-.3-.5-.6-.6L1.2 5.7c-.6-.3-1-.7-1-1.4 0-.9.7-1.5 1.6-1.5h2c.6 0 .9 0 1.3.4.2.2.5.3.5.6s-.4.7-.7.7c-.2 0-.3-.1-.5-.2C4.2 4 4 4 3.7 4H2zM13.1 4c-.1 0-.2 0-.4.1L11 5.2v3.3c0 .4-.1.8-.6.8s-.6-.4-.6-.8V1.3c0-.4.1-.8.6-.8s.6.4.6.8v2.6l.9-.6c.3-.2.6-.4 1-.4h.8c.2 0 .6 0 1.1.4.5.4.5.9.5 1.6l.1 3.6c0 .4 0 .9-.6.9-.5 0-.6-.4-.6-.8V5c0-.6 0-1-.6-1h-.5zM19.7 5c0-.8.2-1 .7-1.5.6-.5.8-.6 1.6-.6h1c.8 0 1.1.2 1.6.6.6.5.7.7.7 1.5v2.2c0 .8-.2 1-.8 1.5-.6.5-.8.6-1.6.6H22c-.7 0-1-.1-1.6-.6-.6-.5-.8-.8-.8-1.5V5zm1.1 2.2c0 .2.1.4.4.7.3.2.4.3.8.3h1c.4 0 .5-.1.8-.3.3-.3.4-.4.4-.7V5c0-.2-.1-.4-.4-.7-.3-.2-.5-.3-.8-.3h-1c-.4 0-.5.1-.8.3-.3.3-.4.4-.4.7v2.2zM29.5 3.7c0-.4 0-.9.6-.9.5 0 .6.4.6.8v.5l.9-.7c.3-.3.7-.5 1-.5h.9c.4 0 .8.1 1.1.5.4.4.5.8.5 1.3 0 .4-.1.8-.6.8-.4 0-.6-.3-.6-.7 0-.2 0-.3-.1-.5-.1-.3-.3-.3-.6-.3h-.3c-.2 0-.4.1-.6.3l-1.6 1.3v2.9c0 .4-.1.8-.6.8s-.6-.4-.6-.8V3.7zM41.7 7.2c0 .6 0 1 .8 1h.5c.5 0 .7 0 .8-.5.1-.3.3-.5.6-.5s.6.3.6.6-.2.7-.4 1c-.4.5-1 .6-1.6.6h-.6c-.6 0-1.1-.1-1.5-.6-.4-.5-.4-1-.4-1.6V4h-.4c-.3 0-.8-.1-.8-.6s.4-.6.8-.6h.4V1.7c0-.4.1-.8.6-.8s.6.4.6.8v1.2h1.9c.4 0 .8.1.8.6s-.5.6-.8.6h-1.9v3.1zM60.7 4h-.3c-.3 0-.8-.1-.8-.6s.4-.6.8-.6h.3v-.1c0-.7 0-1.1.6-1.6s1.1-.6 1.8-.6h.8c.4 0 .8 0 .8.6 0 .5-.4.6-.8.6H63c-.8 0-1.1.2-1.1 1v.2h1c.4 0 .8.1.8.6s-.5.6-.8.6h-1v4.5c0 .4-.1.8-.6.8s-.6-.4-.6-.8V4zM72.3 8.2h.9c.4 0 .8.1.8.6s-.5.6-.8.6h-2.9c-.3 0-.8-.1-.8-.6s.4-.6.8-.6h.9V4h-.9c-.3 0-.8-.1-.8-.6s.4-.6.8-.6h1.2c.7 0 .9.1.9.8v4.6zM70.6.5c0-.4.2-.5.5-.5h.7c.3 0 .5.1.5.5v.6c0 .4-.2.5-.5.5h-.7c-.3 0-.5-.1-.5-.5V.5zM82.1 8.2h.9c.4 0 .8.1.8.6s-.5.6-.8.6h-2.9c-.3 0-.8-.1-.8-.6s.4-.6.8-.6h.9V1.6h-.9c-.3 0-.8-.1-.8-.6s.4-.6.8-.6h1.2c.7 0 .9.1.9.8v7zM92 4.8v3.7c0 .4-.1.8-.6.8s-.6-.4-.6-.8V4.7c0-.2 0-.6-.3-.6-.1 0-.2.1-.3.2l-.5.5v3.7c0 .4-.1.8-.6.8s-.6-.4-.6-.8V3.7c0-.4.1-.8.6-.8.3 0 .5.2.6.5l.1-.1c.3-.2.5-.4.9-.4s.8.2 1.1.6l.1-.1c.4-.4.5-.5 1-.5.4 0 .7.2 1 .5.3.4.3.7.3 1.2l.1 4c0 .4 0 .9-.6.9-.5 0-.6-.4-.6-.8L93 4.9c0-.2 0-.6-.3-.6-.2 0-.4.3-.5.4l-.2.1z"/></symbol><symbol id="tx-top" viewBox="0 0 33.1 12.5"><style>.st0{fill:#595757}</style><path d="M1.6 1.6v.6c0 .5-.2.8-.8.8S0 2.7 0 2.2V0h7.9v2.2c0 .5-.2.8-.8.8-.6 0-.8-.3-.8-.8v-.6H4.8v10.1c0 .5-.2.8-.8.8s-.8-.3-.8-.8V1.6H1.6zM19.8 4.5c.3.6.4 1.1.4 1.8 0 .8-.2 1.2-.5 1.9l-1.5 2.9c-.4.8-1 1.3-2 1.3-.9 0-1.6-.6-2-1.3l-1.5-2.9c-.3-.7-.5-1.1-.5-1.9 0-.7.1-1.2.4-1.8l1.6-3.2c.4-.8 1-1.3 1.9-1.3.9 0 1.6.6 1.9 1.3l1.8 3.2zm-3-2.4c-.1-.3-.2-.5-.5-.5s-.4.2-.5.5L14.3 5c-.2.5-.4.8-.4 1.3 0 .4.1.7.3 1.1l1.5 3c.1.2.2.5.5.5s.4-.3.5-.5l1.5-3c.2-.4.3-.6.3-1.1 0-.5-.1-.8-.4-1.3l-1.3-2.9zM26.2 11.7c0 .5-.2.8-.8.8-.6 0-.8-.3-.8-.8V0H30c.7 0 1.3.1 1.8.7.7.6.8 1.2.8 2.1V5c0 .8-.1 1.4-.7 2-.6.7-1.3.8-2.1.8h-3.5v3.9zm0-5.6h3.6c.9 0 1.2-.2 1.2-1.2V2.8c0-.9-.2-1.2-1.2-1.2h-3.6v4.5z"/></symbol><symbol id="tx-utori" viewBox="0 0 44.4 9.3"><style>.st0{fill:#595757}</style><path d="M5.6 8.5c0 .3 0 .9-.6.9-.5 0-.6-.4-.6-.8v-.3l-.8.6c-.4.2-.7.4-1 .4h-.9c-.3 0-.7-.1-1.1-.4C.1 8.5.1 8 .1 7.4L0 3.7c0-.4 0-.9.6-.9.5 0 .6.4.6.8l.1 3.5c0 .3 0 .6.1.7.1.2.4.2.7.2h.4c.1 0 .3 0 .4-.1L4.5 7V3.7c0-.4.1-.8.6-.8s.6.4.6.8v4.8zM12.2 7.2c0 .6 0 1 .8 1h.6c.5 0 .7 0 .8-.5.1-.3.3-.5.6-.5s.6.3.6.6-.2.7-.4 1c-.4.5-1 .6-1.6.6H13c-.6 0-1.1-.1-1.5-.6-.5-.5-.5-1-.5-1.7V4h-.4c-.3 0-.8-.1-.8-.6s.4-.6.8-.6h.4V1.7c0-.4.1-.8.6-.8s.6.4.6.8v1.2h1.9c.4 0 .8.1.8.6s-.5.6-.8.6h-1.9v3.1zM19.7 5c0-.8.2-1 .7-1.5.6-.5.8-.6 1.6-.6h1c.8 0 1.1.2 1.6.6.6.5.7.7.7 1.5v2.2c0 .8-.2 1-.8 1.5-.6.5-.8.6-1.6.6H22c-.7 0-1-.1-1.6-.6-.6-.5-.8-.8-.8-1.5V5zm1.1 2.2c0 .2.1.4.4.7.3.2.4.3.8.3h1c.4 0 .5-.1.8-.3.3-.3.4-.4.4-.7V5c0-.2-.1-.4-.4-.7-.3-.2-.5-.3-.8-.3h-1c-.4 0-.5.1-.8.3-.3.3-.4.4-.4.7v2.2zM29.5 3.7c0-.4 0-.9.6-.9.5 0 .6.4.6.8v.5l.9-.7c.3-.3.7-.5 1-.5h.9c.4 0 .8.1 1.1.5.4.4.5.8.5 1.3 0 .4-.1.8-.6.8-.4 0-.6-.3-.6-.7 0-.2 0-.3-.1-.5-.1-.3-.3-.3-.6-.3h-.3c-.2 0-.4.1-.6.3l-1.6 1.3v2.9c0 .4-.1.8-.6.8s-.6-.4-.6-.8V3.7zM42.8 8.2h.9c.4 0 .8.1.8.6s-.5.6-.8.6h-2.9c-.3 0-.8-.1-.8-.6s.4-.6.8-.6h.9V4h-.9c-.3 0-.8-.1-.8-.6s.4-.6.8-.6H42c.7 0 .9.1.9.8v4.6zM41 .5c0-.4.3-.5.6-.5h.7c.3 0 .5.1.5.5v.6c0 .4-.2.5-.5.5h-.7c-.3 0-.5-.1-.5-.5V.5z"/></symbol></svg>