<?xml version="1.0" encoding="utf-8"?>
<!-- Generator: Adobe Illustrator 26.0.1, SVG Export Plug-In . SVG Version: 6.00 Build 0)  -->
<svg version="1.1" id="レイヤー_1" xmlns="http://www.w3.org/2000/svg" xmlns:xlink="http://www.w3.org/1999/xlink" x="0px"
	 y="0px" viewBox="0 0 411.8 21.3" style="enable-background:new 0 0 411.8 21.3;" xml:space="preserve">
<style type="text/css">
	.st0{fill:#FFFFFF;}
</style>
<g>
	<g>
		<path class="st0" d="M12.7,5.8c0,4.2-0.1,7.1-0.6,9.1c-0.4,2.2-1,3.8-2.1,5.2c-0.2,0.3-0.3,0.4-0.4,0.4c-0.1,0-0.2-0.1-0.5-0.4
			c-0.4-0.4-0.7-0.7-1.1-0.9c-0.1,0.2-0.3,0.4-0.4,0.6c-0.4,0.4-0.9,0.6-2.2,0.6c-0.7,0-0.7,0-0.8-0.7c-0.1-0.6-0.3-1.1-0.5-1.6
			c0.6,0.1,0.9,0.1,1.4,0.1c0.5,0,0.7-0.2,0.7-0.8v-3.6H3.7c-0.2,3-0.8,4.7-1.7,6.4c-0.2,0.3-0.2,0.4-0.4,0.4
			c-0.1,0-0.2-0.1-0.4-0.4c-0.4-0.5-0.8-0.9-1.3-1.1C1.3,17.1,1.8,14.9,1.8,9V5.3c0-2.3,0-3.5,0-3.7c0-0.2,0-0.2,0.3-0.2
			c0.1,0,0.6,0,2,0h2.2c1.4,0,1.8,0,2,0c0.2,0,0.2,0,0.2,0.2c0,0.1,0,1.3,0,3.7v9.8c0,1,0,2.1,0,3c0,0.1,0,0.2,0,0.3
			c1.4-1.8,1.9-4.4,2.1-9.1c0.1-1.4,0-2.8,0-5.1c0-1.6,0-2.4,0-2.5c0-0.2,0-0.2,0.2-0.2c0.2,0,0.6,0,2.1,0h2.4c1.5,0,2,0,2.2,0
			c0.2,0,0.2,0,0.2,0.2c0,0.2,0,1.4,0,3.8v11.7c0,0.4,0,0.6,0.1,0.6c0.1,0.1,0.2,0.1,0.4,0.1c0.2,0,0.3,0,0.5-0.2s0.3-1.1,0.3-3.3
			c0.4,0.3,0.8,0.4,1.3,0.6c0.6,0.2,0.5,0.2,0.5,0.8c-0.1,2.5-0.3,3.2-0.7,3.7c-0.4,0.5-1,0.6-2.2,0.6c-0.9,0-1.5-0.1-1.9-0.3
			c-0.4-0.2-0.6-0.7-0.6-1.6V3.8h-2.6V5.8z M6.2,11.8V8.6H3.9V9c0,1.1,0,2,0,2.9H6.2z M3.9,3.6v3h2.3v-3H3.9z"/>
		<path class="st0" d="M32.1,4c0.1-0.7,0.2-1.5,0.2-2.4C33.5,1.8,34.1,2,35,2.3c0.2,0.1,0.4,0.2,0.4,0.4c0,0.1,0,0.2-0.2,0.3
			c-0.2,0.3-0.3,0.5-0.4,0.8c-0.3,0.9-0.5,1.7-0.8,2.6c0.6-0.1,1.3-0.1,1.8-0.1c2,0,3.1,1.4,3.1,4.2c0,2.4-0.4,5.3-1.2,6.9
			c-0.6,1.4-1.7,2.1-3,2.1c-1.1,0-1.8-0.1-2.3-0.3c-0.3-0.1-0.4-0.3-0.4-0.6c-0.1-0.7-0.1-1.3-0.4-2c1,0.5,1.8,0.6,2.5,0.6
			c0.7,0,1.1-0.3,1.4-1.2c0.5-1.2,0.9-3.3,0.9-5.5c0-1.5-0.3-2-1.3-2c-0.5,0-1.2,0.1-1.8,0.2c-1.5,4.2-2.7,7.3-4.4,10.3
			c-0.1,0.3-0.3,0.3-0.6,0.2c-0.4-0.2-1.3-0.7-1.5-1c-0.1-0.1-0.2-0.2-0.2-0.3c0-0.1,0-0.2,0.1-0.2c1.8-3.1,2.9-5.4,4-8.6
			c-0.9,0.1-1.6,0.3-2.2,0.4c-0.6,0.1-0.9,0.2-1.2,0.4c-0.3,0.1-0.6,0.1-0.7-0.3c-0.2-0.5-0.4-1.3-0.7-2.3c1,0,1.9-0.1,2.9-0.2
			c0.9-0.1,1.7-0.2,2.6-0.3C31.8,5.5,31.9,4.8,32.1,4z M40.8,5.5c0.2-0.1,0.3,0,0.4,0.1c1.5,1.4,2.8,3.2,3.7,5.3
			c0.1,0.2,0.1,0.3-0.1,0.4c-0.4,0.4-1.2,0.9-1.7,1.1c-0.2,0.1-0.4,0.1-0.5-0.2c-0.9-2.3-2-4.2-3.6-5.7C39.6,6.2,40.2,5.8,40.8,5.5z
			 M41.4,2.4c0.1-0.1,0.2-0.1,0.3,0c0.7,0.5,1.5,1.4,2.1,2.4c0.1,0.1,0.1,0.2-0.1,0.4l-0.9,0.7c-0.2,0.1-0.3,0.1-0.4-0.1
			c-0.7-1-1.4-1.8-2.2-2.6L41.4,2.4z M43.4,1c0.1-0.1,0.2-0.1,0.3,0c0.8,0.6,1.6,1.5,2.1,2.3c0.1,0.1,0.1,0.3-0.1,0.4l-0.9,0.7
			c-0.2,0.1-0.3,0.1-0.4-0.1c-0.6-0.9-1.3-1.8-2.2-2.5L43.4,1z"/>
		<path class="st0" d="M54.7,14.9c-2,0-2.7,0-2.8,0c-0.2,0-0.2,0-0.2-0.2v-1.4c0-0.2,0-0.3,0.2-0.3c0.1,0,0.8,0,2.8,0h4.8
			c0.1-0.4,0.1-0.9,0.2-1.3h-2.1c-2.1,0-2.9,0-3,0c-0.2,0-0.2,0-0.2-0.2v-1.4c0-0.2,0-0.3,0.2-0.3c0.1,0,0.9,0,3,0h2.2V8.6h-2
			c-2,0-2.8,0-2.9,0c-0.2,0-0.2,0-0.2-0.3V7c0-0.2,0-0.3,0.2-0.3c0.1,0,0.9,0,2.9,0h2c0-0.7-0.1-1.2-0.1-1.6c0.7,0,1.6,0,2.2,0.1
			c0.3,0,0.4,0.1,0.4,0.3c0,0.1-0.1,0.3-0.1,0.5c-0.1,0.2-0.1,0.3-0.1,0.7h2.3c2,0,2.8,0,2.9,0c0.2,0,0.3,0,0.3,0.3v1.4
			c0,0.2,0,0.3-0.3,0.3c-0.1,0-0.9,0-2.9,0h-2.3v1.3h2.4c2.1,0,2.8,0,3,0c0.2,0,0.3,0,0.3,0.3v1.4c0,0.2,0,0.2-0.3,0.2
			c-0.1,0-0.8,0-3,0h-2.4c0,0.5-0.1,0.9-0.1,1.3h5.5c2,0,2.7,0,2.8,0c0.2,0,0.3,0,0.3,0.3v1.4c0,0.2,0,0.2-0.3,0.2
			c-0.1,0-0.8,0-2.8,0h-4.6c1.8,2.1,4.7,3.1,8.3,3.5c-0.3,0.4-0.7,1.1-0.8,1.7c-0.1,0.5-0.2,0.6-0.4,0.6c-0.1,0-0.3,0-0.5,0
			c-3.5-0.6-6.4-2-8.4-4.8c-0.2,0.3-0.3,0.5-0.5,0.8c-1.6,2-4,3.2-7.5,4c-0.2,0-0.4,0.1-0.5,0.1c-0.2,0-0.3-0.2-0.4-0.6
			c-0.2-0.6-0.5-1.1-0.8-1.5c3.7-0.5,6.5-1.8,7.6-3.4l0.2-0.3H54.7z M67.1,2.8c2,0,2.8,0,2.9,0c0.2,0,0.2,0,0.2,0.2
			c0,0.1,0,0.5,0,1.1V5c0,1.9,0,2.3,0,2.4c0,0.2,0,0.2-0.2,0.2h-1.8c-0.2,0-0.2,0-0.2-0.2V4.8h-14v2.7c0,0.2,0,0.2-0.3,0.2h-1.8
			c-0.2,0-0.2,0-0.2-0.2c0-0.1,0-0.5,0-2.4V4.3c0-0.8,0-1.2,0-1.3c0-0.2,0-0.2,0.2-0.2c0.2,0,0.9,0,2.9,0h4.8V2.7
			c0-0.9,0-1.5-0.2-2.1c0.8,0,1.6,0.1,2.4,0.1c0.2,0,0.4,0.1,0.4,0.2c0,0.2-0.1,0.3-0.1,0.4c-0.1,0.2-0.1,0.5-0.1,1.3v0.1H67.1z"/>
		<path class="st0" d="M92.3,0.7c0.2-0.1,0.3-0.1,0.5,0c0.4,0.3,1,0.9,1.4,1.4c0.2,0.2,0.1,0.3-0.1,0.4l-0.5,0.3c1.3,0,1.8,0,1.9,0
			c0.2,0,0.2,0,0.2,0.2v1.5c0,0.2,0,0.2-0.2,0.2c-0.1,0-0.9,0-2.9,0h-2.2c0.2,1.5,0.5,2.9,0.9,4.2C91.7,8.2,92,7.6,92.3,7
			c0.1-0.4,0.3-0.9,0.4-1.4C93.3,5.8,94,6,94.5,6.3c0.2,0.1,0.3,0.2,0.3,0.3c0,0.1-0.1,0.2-0.2,0.3c-0.1,0.1-0.2,0.3-0.4,0.7
			c-0.5,1.1-1.1,2.2-1.9,3.3c0.6,0.9,1.2,1.4,1.6,1.4c0.5,0,0.8-0.6,1-2.1c0.3,0.3,0.8,0.6,1.1,0.7c0.4,0.2,0.6,0.3,0.6,0.5
			c0,0.1,0,0.3-0.1,0.5c-0.6,1.8-1.3,2.7-2.5,2.7c-1.1,0-2.2-0.7-3.1-2c-0.5,0.5-1.1,1-1.7,1.5c-0.3,0.2-0.4,0.3-0.5,0.3
			c-0.1,0-0.2-0.1-0.5-0.4c-0.3-0.3-0.5-0.5-0.7-0.7c0,0.1-0.1,0.1-0.2,0.1c-0.2,0-0.6,0-1.9,0h-2.1c-1.3,0-1.7,0-1.9,0
			c-0.2,0-0.2,0-0.2-0.2c0-0.2,0-0.5,0-1.4v-1.5c0-0.9,0-1.3,0-1.4c0-0.2,0-0.2,0.2-0.2c0.2,0,0.6,0,1.9,0h2.1c1.3,0,1.7,0,1.9,0
			c0.2,0,0.2,0,0.2,0.2c0,0.1,0,0.5,0,1.4v1.5c0,0.7,0,1,0,1.2c0.9-0.6,1.7-1.2,2.4-2c-0.8-1.7-1.3-3.9-1.6-6.1h-7.8v1.5
			c0,1.2-0.2,3.3-0.4,4.4c-0.3,1.4-0.7,2.6-1.5,3.9c-0.2,0.3-0.3,0.4-0.4,0.4c-0.1,0-0.2-0.1-0.5-0.3c-0.5-0.4-1-0.7-1.4-0.9
			c0.9-1.2,1.3-2.2,1.6-3.5c0.3-1.2,0.4-2.6,0.4-4.7c0-1.5,0-2.3,0-2.4c0-0.2,0-0.2,0.3-0.2c0.1,0,0.9,0,3,0H88
			c-0.1-0.8-0.1-1.6-0.3-2.2c0.8,0,1.6,0.1,2.2,0.2c0.2,0,0.3,0.1,0.3,0.2c0,0.2-0.1,0.3-0.1,0.4c-0.1,0.2,0,0.7,0,1.5h2.1
			c-0.3-0.4-0.8-0.9-1-1.1c-0.1-0.1-0.1-0.1-0.1-0.2c0-0.1,0-0.2,0.2-0.2L92.3,0.7z M76.7,19.2c-0.3-0.2-0.3-0.2-0.1-0.4
			c0.9-1,1.7-2.4,2.2-3.7c0.1-0.2,0.1-0.2,0.4-0.1l1.3,0.6c0.3,0.1,0.3,0.2,0.2,0.4c-0.6,1.5-1.3,2.8-2.2,4c-0.1,0.2-0.2,0.2-0.4,0
			L76.7,19.2z M85.4,5.8c1.3,0,1.8,0,2,0c0.2,0,0.2,0,0.2,0.3v1.3c0,0.2,0,0.2-0.2,0.2c-0.1,0-0.7,0-2,0h-2.2c-1.3,0-1.8,0-2,0
			c-0.2,0-0.2,0-0.2-0.2V6c0-0.2,0-0.3,0.2-0.3c0.1,0,0.7,0,2,0H85.4z M83.9,17.5c0,0.4,0.1,0.7,0.4,0.9c0.4,0.2,1.3,0.2,2.2,0.2
			c1.6,0,2.2,0,2.7-0.2c0.4-0.2,0.6-0.8,0.6-1.9c0.4,0.3,0.9,0.5,1.6,0.7c0.6,0.2,0.6,0.2,0.5,0.8c-0.2,1.2-0.6,1.8-1.2,2.2
			c-0.8,0.4-2,0.5-4.3,0.5c-1.9,0-3.2-0.1-3.8-0.4c-0.5-0.3-0.8-0.7-0.8-1.9v-1.9c0-0.6,0-1-0.1-1.7c0.7,0,1.5,0,2.2,0.1
			c0.3,0,0.4,0.1,0.4,0.2c0,0.1,0,0.2-0.1,0.4c-0.1,0.2-0.1,0.4-0.1,0.8V17.5z M85.5,10h-2.6v1.6h2.6V10z M86.2,13.8
			c0.2-0.2,0.3-0.2,0.5,0c0.8,0.7,1.4,1.3,2.1,2.2c0.1,0.2,0.2,0.2-0.1,0.4l-1.1,0.9c-0.1,0.1-0.2,0.2-0.3,0.2s-0.1,0-0.2-0.2
			c-0.6-0.9-1.2-1.6-1.9-2.3c-0.2-0.2-0.2-0.2,0.1-0.4L86.2,13.8z M93,14.7c0.1-0.1,0.2-0.1,0.3-0.1s0.1,0,0.2,0.1
			c1,1.1,1.9,2.3,2.6,3.7c0.1,0.2,0.1,0.3-0.2,0.4l-1.4,0.8c-0.3,0.2-0.4,0.2-0.4,0c-0.6-1.5-1.3-2.7-2.4-3.8
			c-0.2-0.2-0.2-0.2,0.1-0.4L93,14.7z"/>
		<path class="st0" d="M111.3,2.9c0-0.6-0.1-0.9-0.3-1.6c1,0.1,2,0.2,2.6,0.3c0.4,0.1,0.6,0.2,0.6,0.4c0,0.2-0.1,0.3-0.2,0.5
			c-0.1,0.1-0.1,0.4-0.2,0.6c0,0.3,0,0.6,0,1.4c2.4-0.1,4.6-0.1,6.8-0.1c0.3,0,0.3,0,0.3,0.3c0,0.5,0,1.1,0,1.7
			c0,0.2-0.1,0.3-0.4,0.3c-2.3-0.1-4.4-0.1-6.7,0c0,1.3,0,2.8,0,4.1c0.2,0.6,0.3,1.5,0.3,2.2c0,2.6-1,5.2-3.9,7.1
			c-0.4,0.2-0.7,0.4-0.9,0.4s-0.4-0.2-0.7-0.3c-0.5-0.4-1.1-0.7-1.7-0.9c2.6-1.1,4.1-3,4.5-4.8c-0.4,0.6-1.3,0.9-2.1,0.9
			c-1.7,0-3.1-1.3-3.1-3.4c0-2,1.5-3.3,3.3-3.3c0.7,0,1.3,0.1,1.7,0.4c0-0.8,0-1.5,0-2.2c-2.8,0.2-5.9,0.4-7.6,0.7
			c-0.5,0.1-0.8,0.3-1,0.3c-0.2,0-0.3-0.1-0.4-0.3c-0.2-0.4-0.4-1.3-0.6-2.2c0.8,0.1,1.5,0,2.7-0.1c1.3-0.1,4.2-0.3,6.8-0.4
			C111.3,4,111.3,3.5,111.3,2.9z M108.5,11.8c0,1,0.6,1.5,1.4,1.5c0.8,0,1.5-0.5,1.5-1.5c0-0.9-0.6-1.4-1.5-1.4
			C109.2,10.3,108.5,10.8,108.5,11.8z"/>
		<path class="st0" d="M132.7,9.9c1.2-0.7,2.3-1,3.5-1c3.2,0,5.5,2.1,5.5,5.3c0,3.7-3,6-7.7,6c-2.8,0-4.4-1.2-4.4-3.2
			c0-1.5,1.4-2.7,3.1-2.7c2.1,0,3.6,1.1,4.1,3.2c1.5-0.7,2.2-1.7,2.2-3.3c0-2-1.4-3.3-3.5-3.3c-1.8,0-3.9,0.8-5.6,2.3
			c-0.6,0.6-1.3,1.2-1.9,1.9c-0.2,0.2-0.3,0.2-0.4,0.2c-0.1,0-0.2-0.1-0.3-0.2c-0.5-0.4-0.9-1-1.3-1.4c-0.1-0.2-0.1-0.3,0.1-0.5
			c1.7-1.4,3.2-2.8,5.2-4.9c1.4-1.4,2.4-2.5,3.4-3.8c-1.3,0.2-2.9,0.5-4.2,0.8c-0.3,0.1-0.6,0.1-0.9,0.3c-0.1,0-0.3,0.1-0.4,0.1
			c-0.2,0-0.4-0.1-0.5-0.4c-0.3-0.5-0.5-1.1-0.8-2.4c0.7,0.1,1.4,0.1,2,0c1.3-0.1,3.3-0.4,5-0.7c0.6-0.1,1-0.2,1.2-0.3
			c0.1-0.1,0.3-0.2,0.4-0.2c0.2,0,0.4,0.1,0.5,0.2c0.7,0.5,1.1,0.9,1.5,1.4c0.2,0.2,0.2,0.4,0.2,0.5c0,0.2-0.1,0.4-0.4,0.5
			c-0.4,0.2-0.5,0.3-1,0.7C135.8,6.7,134.3,8.2,132.7,9.9L132.7,9.9z M132.7,16.2c-0.6,0-1.1,0.4-1.1,0.8c0,0.7,0.6,1.1,1.9,1.1
			c0.4,0,0.7,0,1-0.1C134.3,16.8,133.6,16.2,132.7,16.2z"/>
		<path class="st0" d="M148.9,15.3c0.2-0.2,0.3-0.2,0.3-0.2s0.2,0,0.3,0.1c1.6,1,3.1,2.3,4.4,4c0.1,0.2,0.2,0.2,0.2,0.3
			c0,0.1,0,0.2-0.2,0.4l-1.3,1.1c-0.2,0.1-0.2,0.2-0.3,0.2c-0.1,0-0.2,0-0.3-0.2c-1.2-1.7-2.7-3.2-4.2-4.2c-0.1-0.1-0.2-0.2-0.2-0.2
			c0-0.1,0-0.1,0.2-0.3L148.9,15.3z"/>
		<path class="st0" d="M190.9,15.1c0,1.1,0,2.2,0,3.1c0,0.8-0.2,1.4-0.7,1.8c-0.5,0.4-1.4,0.6-3.7,0.6c-0.6,0-0.7,0-0.8-0.7
			c-0.1-0.6-0.3-1.1-0.6-1.7c1,0.1,1.9,0.1,2.5,0.1c0.7,0,1-0.2,1-0.9v-2.2h-10.9c-0.4,1.9-1.3,3.5-2.4,5c-0.2,0.3-0.3,0.4-0.4,0.4
			c-0.1,0-0.2-0.1-0.5-0.4c-0.5-0.5-0.9-0.8-1.5-1.1c2.3-2.2,3.1-4.5,3.1-8.7V7.6c-0.4,0.3-0.9,0.6-1.4,0.9
			c-0.2,0.2-0.4,0.2-0.5,0.2c-0.1,0-0.2-0.2-0.4-0.5c-0.2-0.5-0.6-1.1-0.9-1.4c2.4-1.2,4.3-3,5.6-5c0.3-0.5,0.5-0.9,0.6-1.4
			c0.9,0.2,1.5,0.3,2.1,0.4c0.2,0.1,0.3,0.2,0.3,0.4c0,0.1-0.1,0.3-0.3,0.4c-0.2,0.1-0.3,0.3-0.6,0.7h4.1c0.3,0,0.4,0,0.5-0.1
			c0.2-0.1,0.2-0.1,0.3-0.1c0.2,0,0.4,0.1,0.9,0.6c0.5,0.4,0.6,0.6,0.6,0.8c0,0.2-0.1,0.2-0.3,0.4c-0.2,0.1-0.4,0.3-0.7,0.7
			c-0.4,0.5-0.7,0.9-1.1,1.4h2.5c2.1,0,2.9,0,3.1,0c0.2,0,0.2,0,0.2,0.2c0,0.1,0,0.9,0,2.4V15.1z M182.5,6.1
			c0.5-0.6,0.9-1.2,1.3-1.8h-4.2c-0.5,0.6-1.1,1.3-1.7,1.8H182.5z M182.2,13.5v-1.9h-3.9c0,0.7-0.1,1.3-0.1,1.9H182.2z M182.2,9.8
			V7.9h-3.9v1.9H182.2z M184.4,7.9v1.9h4.4V7.9H184.4z M188.7,13.5v-1.9h-4.4v1.9H188.7z"/>
		<path class="st0" d="M209,8.1c-0.1,0-0.2-0.1-0.3-0.2c-0.4-0.4-0.9-0.6-1.4-0.8c1.3-1.1,1.7-2.1,1.7-3.8c0-0.8,0-1.5-0.1-1.9
			c0.8,0.1,1.3,0.2,2,0.4c1.4-0.1,2.9-0.4,3.9-0.6c0.4-0.1,0.7-0.2,1-0.4c0.5,0.4,0.7,0.7,1.2,1.3c0.1,0.1,0.2,0.3,0.2,0.4
			c0,0.1-0.1,0.2-0.3,0.2c-0.2,0-0.5,0-0.9,0c-1.5,0.3-3,0.5-5,0.6V4c0,0.1,0,0.2,0,0.3h3.9c2.1,0,2.9,0,3,0c0.2,0,0.2,0,0.2,0.3
			v1.3c0,0.2,0,0.2-0.2,0.2c-0.1,0-0.9,0-3,0h-0.1V7c0,0.5,0,0.8,0,1.1c0.3,0,0.5,0,0.5,0c0.2,0,0.2,0,0.2,0.2c0,0.2,0,0.8,0,2.2
			v4.4c0,1.5,0,2.1,0,2.2c0,0.2,0,0.3-0.2,0.3c-0.2,0-0.9,0-3.1,0h-0.4c1.8,1,3.9,1.5,6.4,1.7c-0.3,0.4-0.6,0.9-0.8,1.3
			c-0.2,0.4-0.3,0.6-0.5,0.6c-0.1,0-0.3,0-0.5-0.1c-2.2-0.4-4.5-1.2-6.2-2.2c-0.2-0.1-0.2-0.2,0.1-0.3l1.3-1h-6.8
			c0.5,0.3,0.9,0.5,1.3,0.8c0.2,0.2,0.3,0.2,0.3,0.3c0,0.2-0.1,0.3-0.3,0.3c-0.2,0.1-0.5,0.2-0.9,0.4c-1.2,0.6-3,1.3-5,1.7
			c-0.2,0-0.4,0.1-0.5,0.1c-0.2,0-0.3-0.1-0.5-0.5c-0.2-0.4-0.5-0.8-0.9-1.3c2-0.2,4.1-0.7,5.3-1.3c0.3-0.1,0.5-0.3,0.8-0.5
			c-2.1,0-2.9,0-3,0c-0.2,0-0.3,0-0.3-0.3c0-0.1,0-0.8,0-2.2v-4.4c0-1.5,0-2.1,0-2.2c0-0.2,0-0.2,0.3-0.2c0.1,0,0.7,0,2.3,0
			c0-0.2,0-0.6,0-1.1V5.9h-2c-0.2,1-0.6,2-1.4,2.9c-0.2,0.3-0.3,0.4-0.4,0.4c-0.1,0-0.2-0.1-0.5-0.4c-0.4-0.4-0.9-0.8-1.4-1
			c1.5-1.3,1.8-2.9,1.8-4.8c0-0.7,0-1.3-0.1-1.8c0.7,0.1,1.3,0.2,2,0.3c1.4-0.1,2.7-0.3,3.7-0.6c0.4-0.1,0.7-0.2,1-0.4
			c0.5,0.4,0.8,0.7,1.2,1.3c0.1,0.1,0.2,0.3,0.2,0.4c0,0.1-0.1,0.2-0.3,0.2c-0.2,0-0.5,0-0.8,0.1C205.3,3,204,3.1,202,3.3v1h3.1
			c1.9,0,2.5,0,2.7,0c0.2,0,0.2,0,0.2,0.3v1.3c0,0.2,0,0.2-0.2,0.2c-0.1,0-0.6,0-2,0V7c0,0.5,0,0.8,0,1.1H209z M203.4,9.7v1h9.9v-1
			H203.4z M213.3,13.2v-1.1h-9.9v1.1H213.3z M213.3,14.6h-9.9v1.1h9.9V14.6z M210.7,5.9c-0.2,0.6-0.6,1.2-1,1.8
			c-0.2,0.2-0.3,0.3-0.4,0.4h3.4c0-0.2,0-0.6,0-1.1V5.9H210.7z"/>
		<path class="st0" d="M236.7,7.6c0.2-0.3,0.3-0.5,0.4-0.7c0.1-0.3,0.2-0.6,0.4-1.1h-9.5V7c0,3-0.2,5.4-0.5,7.2
			c-0.4,2.1-0.9,3.9-1.9,5.7c-0.2,0.3-0.2,0.4-0.4,0.4c-0.1,0-0.2-0.1-0.4-0.4c-0.5-0.5-1-1-1.5-1.3c1.1-1.5,1.6-3.2,1.9-5.1
			c0.3-1.8,0.4-4.1,0.4-7.2c0-3.3,0-4.8,0-5c0-0.2,0-0.2,0.3-0.2c0.1,0,0.9,0,3,0h10.4c2.1,0,2.9,0,3,0c0.2,0,0.3,0,0.3,0.2
			c0,0.1,0,0.5,0,1.4v1.3c0,1,0,1.3,0,1.4c0,0.2,0,0.2-0.3,0.2c-0.1,0-0.9,0-3,0h-1.6c0.6,0.2,1.2,0.3,1.7,0.5
			c0.2,0.1,0.3,0.2,0.3,0.3c0,0.2-0.1,0.3-0.3,0.4c-0.2,0.1-0.3,0.2-0.4,0.5L239,7.6c2.1,0,2.8,0,3,0c0.2,0,0.2,0,0.2,0.2
			c0,0.1,0,0.6,0,1.8v2.1c0,1.1,0,1.6,0,1.7c0,0.2,0,0.2-0.2,0.2c-0.1,0-0.9,0-3,0H232c-2.1,0-2.9,0-3,0c-0.2,0-0.3,0-0.3-0.2
			c0-0.1,0-0.6,0-1.7V9.5c0-1.2,0-1.6,0-1.8c0-0.2,0-0.2,0.3-0.2c0.1,0,0.8,0,2.8,0c-0.2-0.3-0.4-0.7-0.6-1
			c-0.1-0.2-0.1-0.3,0.2-0.3l1.4-0.4c0.3-0.1,0.3-0.1,0.5,0.1c0.4,0.5,0.7,1.1,0.9,1.6H236.7z M240.3,2.9h-12.4v1.2h12.4V2.9z
			 M230,20.8c-0.2,0-0.2,0-0.2-0.2c0-0.2,0-0.6,0-3.1v-1.1c0-1.2,0-1.7,0-1.8c0-0.2,0-0.2,0.2-0.2c0.1,0,0.9,0,2.9,0h5.3
			c2,0,2.7,0,2.9,0c0.2,0,0.2,0,0.2,0.2c0,0.1,0,0.6,0,1.6v1.4c0,2.4,0,2.9,0,3c0,0.2,0,0.2-0.2,0.2h-1.7c-0.2,0-0.2,0-0.2-0.2v-0.5
			h-7.1v0.5c0,0.2,0,0.2-0.2,0.2H230z M234.3,9.9V9h-3.5v1H234.3z M234.3,12.2v-1h-3.5v1H234.3z M231.9,16.6h7.1v-0.9h-7.1V16.6z
			 M239,18.7v-0.9h-7.1v0.9H239z M236.3,9v1h3.8V9H236.3z M240.1,11.2h-3.8v1h3.8V11.2z"/>
		<path class="st0" d="M250.8,9.9c0.7-0.6,2.3-1.9,3.9-3.4c0.7-0.7,1.3-0.9,1.9-0.9c0.7,0,1.2,0.2,1.9,0.8c1.7,1.3,2.6,2.2,4.8,3.8
			c2,1.4,3.5,2.3,5.2,3.2c0.2,0.1,0.3,0.3,0.2,0.5c-0.2,0.7-0.7,1.5-1.1,2.1c-0.1,0.2-0.2,0.2-0.3,0.2c-0.1,0-0.2,0-0.3-0.1
			c-1.1-0.6-3.5-2.4-4.8-3.4c-1.6-1.2-3.2-2.6-4.6-3.9c-0.4-0.4-0.7-0.5-1-0.5c-0.2,0-0.5,0.2-0.7,0.5c-1.1,1.1-2.7,2.6-3.7,3.6
			c-0.4,0.5-0.6,0.7-0.8,1c-0.1,0.2-0.2,0.3-0.4,0.3s-0.3-0.1-0.4-0.2c-0.5-0.5-1.3-1.5-1.8-2.3C249.5,10.8,250.1,10.5,250.8,9.9z"
			/>
		<path class="st0" d="M285.3,5.6c-0.5,3.7-1.4,7.2-2.8,9.5c-0.9,1.6-2.1,2.5-3.7,2.5c-1.9,0-3.9-2.1-3.9-5.7c0-2.1,0.9-4.1,2.5-5.7
			c1.8-1.8,4.2-2.8,7.2-2.8c5.3,0,8.4,3.3,8.4,7.6c0,4.1-2.3,6.7-6.8,8c-0.5,0.1-0.7,0-0.9-0.4c-0.2-0.4-0.7-0.9-1.5-1.4
			c3.7-0.9,6.6-2.4,6.6-6.6C290.3,8.1,288.3,5.6,285.3,5.6L285.3,5.6z M278.9,7.7c-1.1,1.2-1.7,2.7-1.7,4.1c0,2,0.8,3.1,1.5,3.1
			c0.6,0,1.1-0.3,1.7-1.3c1-1.8,2-5,2.3-7.9C281.2,6.1,279.9,6.7,278.9,7.7z"/>
		<path class="st0" d="M303.8,5.6c-1.3,0-2.6,0.1-3.9,0.2c-0.3,0-0.4-0.1-0.4-0.3c-0.2-0.6-0.3-1.7-0.4-2.4c1.5,0.1,2.7,0.2,4.5,0.2
			h9.4c0.9,0,1.3,0,1.5-0.1c0.1,0,0.3-0.2,0.4-0.2c0.2,0,0.4,0.1,0.5,0.3c0.5,0.4,0.9,0.9,1.3,1.4c0.1,0.1,0.2,0.3,0.2,0.4
			c0,0.2-0.1,0.3-0.3,0.5c-0.2,0.2-0.4,0.4-0.6,0.6c-1,1.6-2.4,3.1-3.9,4.2c-0.1,0.1-0.3,0.2-0.5,0.2s-0.4-0.1-0.5-0.2
			c-0.5-0.4-1.1-0.7-1.8-0.9c1.8-1.3,2.8-2.3,3.9-3.9H303.8z M305,14.2c0.8-1.6,1.1-3.1,1.1-5.2c0-0.8,0-1.3-0.2-2.1
			c1.1,0.1,2.2,0.3,2.8,0.4c0.3,0.1,0.4,0.2,0.4,0.4c0,0.1,0,0.3-0.1,0.4c-0.2,0.3-0.2,0.5-0.2,0.9c-0.1,2.1-0.3,4.1-1.3,6.1
			c-0.9,1.7-2.2,3.2-4,4.4c-0.2,0.1-0.4,0.2-0.6,0.2c-0.2,0-0.3-0.1-0.4-0.2c-0.5-0.5-1.2-0.8-2-1.1C302.8,17.1,304.1,16,305,14.2z"
			/>
		<path class="st0" d="M327.5,6.6c-1.4,0-2.7,0.1-3.6,0.1c-0.3,0-0.4-0.1-0.4-0.4c-0.1-0.4-0.2-1.6-0.2-2.2c1,0.1,2.2,0.2,4.2,0.2
			h7.9c0.7,0,0.9,0,1.2-0.2c0.1-0.1,0.3-0.1,0.4-0.1c0.1,0,0.3,0,0.4,0.2c0.6,0.5,1.1,1,1.5,1.5c0.1,0.2,0.2,0.3,0.2,0.4
			c0,0.1-0.1,0.3-0.2,0.4c-0.2,0.2-0.3,0.4-0.5,0.9c-1.1,2.6-2.4,5-4.3,7.2c-1.9,2.2-4,4-6.2,5.2c-0.2,0.1-0.4,0.2-0.6,0.2
			c-0.2,0-0.4-0.1-0.5-0.2c-0.5-0.5-1.2-0.9-2-1.2c3.2-1.6,5.2-3.1,7.2-5.5c1.7-2,2.8-3.8,3.7-6.3H327.5z M342.7,2.4
			c0,1.3-1.1,2.4-2.4,2.4s-2.4-1-2.4-2.4c0-1.4,1.1-2.4,2.4-2.4S342.7,1,342.7,2.4z M339,2.4c0,0.7,0.5,1.3,1.3,1.3s1.3-0.5,1.3-1.3
			s-0.5-1.3-1.3-1.3S339,1.6,339,2.4z"/>
		<path class="st0" d="M351.5,16.5v1.3c0,0.4-0.1,0.4-0.5,0.4c-0.6,0-1.2,0-1.7,0c-0.4,0-0.5-0.1-0.5-0.3c0-1.1,0.1-2.7,0.1-4.4V8.2
			c0-1.2,0-2.4,0-3.7c0-0.2,0.1-0.3,0.2-0.3c1.2,0.1,2.5,0.1,3.9,0.1h5.2c1.4,0,3.1,0,4.1,0c0.2,0,0.3,0.1,0.3,0.4
			c0,1.1,0,2.3,0,3.6v5.3c0,1.9,0.1,3,0.1,4.2c0,0.3-0.1,0.4-0.4,0.4c-0.7,0-1.4,0-2,0c-0.3,0-0.3,0-0.3-0.4v-1.2H351.5z M360,6.6
			h-8.6v7.6h8.6V6.6z"/>
		<path class="st0" d="M374.5,12.3c-2.2,0-3,0.3-3.2,0.3c-0.3,0-0.4-0.1-0.5-0.5c-0.1-0.5-0.2-1.5-0.3-2.7c1.4,0.2,2.5,0.3,4.8,0.3
			h7.1c1.7,0,3.4,0,5.1-0.1c0.3,0,0.4,0,0.4,0.3c0,0.7,0,1.4,0,2.1c0,0.3-0.1,0.4-0.4,0.3c-1.7,0-3.3,0-4.9,0H374.5z"/>
		<path class="st0" d="M402,9c0-0.7,0-1.6,0-2.2c0-0.3,0-0.6-0.1-1c-1.5,0.3-3.5,0.6-5.2,0.7c-0.3,0-0.5-0.2-0.5-0.5
			c-0.2-0.4-0.5-0.9-1.1-1.5c2.8-0.1,4.5-0.4,6.5-0.8c1.5-0.3,2.6-0.6,3.6-0.9c1-0.4,1.4-0.6,1.9-1c0.7,0.5,1.5,1.1,1.8,1.5
			c0.2,0.2,0.3,0.4,0.3,0.6c0,0.2-0.2,0.3-0.6,0.3c-0.5,0.1-0.9,0.3-1.4,0.4c-1.3,0.4-2.7,0.7-4,1c0.6,0.1,1.1,0.2,1.4,0.3
			c0.2,0,0.3,0.2,0.3,0.3c0,0.1-0.1,0.2-0.1,0.4c-0.1,0.2-0.1,0.4-0.2,0.7c0,0.5,0,1,0,1.7h2.7c1.4,0,3.3-0.1,4.2-0.2
			c0.2,0,0.2,0.1,0.2,0.4c0,0.6,0,1.3,0,1.8c0,0.3,0,0.4-0.3,0.4c-1.4,0-2.7-0.1-4.3-0.1h-2.7c-0.2,1.9-0.5,3.2-1.1,4.4
			c-0.8,1.6-2.1,3.2-3.5,4.1c-0.1,0.1-0.2,0.2-0.4,0.2c-0.1,0-0.2,0-0.4-0.1c-0.8-0.4-1.6-0.7-2.3-0.8c2.2-1.3,3.2-2.4,4.1-4.1
			c0.6-1.1,0.9-2.3,1-3.7H398c-0.8,0-2.4,0-3.5,0.1c-0.3,0-0.4-0.2-0.4-0.5c-0.1-0.4-0.2-1.3-0.2-2C395.4,9,397,9,398.1,9H402z"/>
	</g>
</g>
</svg>
