<?xml version="1.0" encoding="utf-8"?>
<!-- Generator: Adobe Illustrator 26.0.1, SVG Export Plug-In . SVG Version: 6.00 Build 0)  -->
<svg version="1.1" id="レイヤー_1" xmlns="http://www.w3.org/2000/svg" xmlns:xlink="http://www.w3.org/1999/xlink" x="0px"
	 y="0px" viewBox="0 0 247.7 20.4" style="enable-background:new 0 0 247.7 20.4;" xml:space="preserve">
<style type="text/css">
	.st0{fill:#FFFFFF;}
</style>
<g>
	<g>
		<path class="st0" d="M2.6,6.6C4.5,6,6,5.5,7.7,5.5c2.9,0,4.6,2,4.6,5.2c0,2.2-0.8,3.9-1.8,5.3c-1,1.4-2.5,2.6-4.2,3.5
			c-0.2,0.1-0.3,0.1-0.4,0.1c-0.2,0-0.3-0.1-0.5-0.3c-0.5-0.5-1.1-0.9-1.8-1.2C6,17,7.5,15.8,8.4,14.5c0.6-0.9,1.2-2.1,1.2-3.9
			c0-1.8-0.8-2.8-2-2.8c-1.2,0-2.2,0.3-3.5,0.9C2.8,9.4,2.5,9.6,2.2,9.8C2,10,1.9,10.1,1.7,10.1c-0.3,0-0.5-0.3-0.6-0.5
			C0.8,9.1,0.4,8.1,0,7.3C0.9,7.2,1.4,7,2.6,6.6z M10.6,1.6c0.2,0,0.3,0.2,0.3,0.4c-0.1,0.5-0.3,1.5-0.5,1.9
			c-0.1,0.2-0.1,0.3-0.3,0.3C7.7,3.8,6,3.4,3.8,2.5c-0.1,0-0.2-0.2-0.2-0.4C3.8,1.3,4,0.7,4.3,0C6.3,0.8,8.4,1.2,10.6,1.6z"/>
		<path class="st0" d="M26.4,9c1.2-0.7,2.3-1,3.5-1c3.2,0,5.5,2.1,5.5,5.3c0,3.7-3,6-7.7,6c-2.8,0-4.4-1.2-4.4-3.2
			c0-1.5,1.4-2.7,3.1-2.7c2.1,0,3.6,1.1,4.1,3.2c1.5-0.7,2.2-1.7,2.2-3.3c0-2-1.4-3.3-3.5-3.3c-1.8,0-3.9,0.8-5.6,2.3
			c-0.6,0.6-1.3,1.2-1.9,1.9c-0.2,0.2-0.3,0.2-0.4,0.2c-0.1,0-0.2-0.1-0.3-0.2c-0.5-0.4-0.9-1-1.3-1.4c-0.1-0.2-0.1-0.3,0.1-0.5
			c1.7-1.4,3.2-2.8,5.2-4.9c1.4-1.4,2.4-2.5,3.4-3.8c-1.3,0.2-2.9,0.5-4.2,0.8c-0.3,0.1-0.6,0.1-0.9,0.3c-0.1,0-0.3,0.1-0.4,0.1
			c-0.2,0-0.4-0.1-0.5-0.4c-0.3-0.5-0.5-1.1-0.8-2.4c0.7,0.1,1.4,0.1,2,0c1.3-0.1,3.3-0.4,5-0.7c0.6-0.1,1-0.2,1.2-0.3
			c0.1-0.1,0.3-0.2,0.4-0.2c0.2,0,0.4,0.1,0.5,0.2c0.7,0.5,1.1,0.9,1.5,1.4c0.2,0.2,0.2,0.4,0.2,0.5c0,0.2-0.1,0.4-0.4,0.5
			c-0.4,0.2-0.6,0.3-1,0.7C29.5,5.8,28,7.3,26.4,9L26.4,9z M26.4,15.3c-0.6,0-1.1,0.4-1.1,0.8c0,0.7,0.6,1.1,1.9,1.1
			c0.4,0,0.7,0,1-0.1C28,16,27.3,15.3,26.4,15.3z"/>
		<path class="st0" d="M47.7,7.5c-1.1,0.1-2.2,0.2-3.7,0.2c-0.4,0-0.5-0.1-0.5-0.5c-0.1-0.4-0.2-1.1-0.2-1.9
			c0.6,0.1,1.1,0.1,1.7,0.1c0.9,0,1.9-0.1,2.8-0.2c0-0.7,0-1.6,0-2.5c0-0.6,0-1.2-0.2-1.8c1.1,0.1,2,0.2,2.6,0.4
			c0.3,0.1,0.4,0.2,0.4,0.4c0,0.1,0,0.2-0.1,0.4c-0.2,0.3-0.3,0.6-0.3,0.9c-0.1,0.6-0.1,1.1-0.1,1.8c1-0.2,1.9-0.5,2.8-0.8
			c0.2-0.1,0.4,0,0.4,0.2c0.1,0.6,0.1,1.1,0.1,1.7c0,0.2-0.1,0.3-0.3,0.4c-1.5,0.5-1.8,0.6-3.1,0.8c0,1.1,0,2.1,0,3.2
			c2.1-0.9,4-1.2,5.4-1.2c2.7,0,4.7,1.8,4.7,4.4c0,2.8-1.8,4.5-4.8,4.5c-0.6,0-1.3-0.1-1.8-0.2c-0.4-0.1-0.5-0.3-0.5-0.7
			c0-0.5-0.2-1.2-0.7-1.9c1.1,0.4,1.9,0.4,2.8,0.4c1.2,0,2.4-0.7,2.4-2.3c0-1.4-0.9-2.2-2.4-2.2c-1.3,0-2.8,0.3-5,1.5
			c0,0.9,0,1.7,0.1,2.6c0.1,1,0.2,2.4,0.2,2.9c0,0.3,0,0.6-0.3,0.7c-0.5,0.1-1.2,0.2-1.6,0.3c-0.2,0-0.3-0.2-0.5-0.4
			c-0.6-0.8-1.7-1.9-3.1-2.8c-0.2,0.1-0.5,0.3-0.7,0.5c-0.1,0.1-0.3,0.2-0.4,0.2c-0.2,0-0.4-0.1-0.5-0.4c-0.2-0.4-0.7-1.3-1-2
			c0.6-0.1,1.3-0.4,2-0.8c0.9-0.5,2-1.1,3.6-2V7.5z M45.6,15.1c0.6,0.3,1.4,0.7,2.1,1c0.2,0,0.2,0,0.2-0.2c0-0.6-0.1-1.6-0.1-2.3
			C47.2,14,46.4,14.5,45.6,15.1z M56.1,3.6c0.2-0.2,0.2-0.3,0.4-0.3c2,0.6,3.5,1.5,4.7,2.7c0.1,0.1,0.1,0.2,0.1,0.2s0,0.1-0.1,0.2
			C60.9,6.9,60.4,7.5,60,8c-0.1,0.1-0.4,0.1-0.4,0c-1.2-1.3-2.7-2.1-4.5-2.7C55.4,4.7,55.8,4.1,56.1,3.6z"/>
		<path class="st0" d="M71.1,3.7c0.2,0.1,0.4,0.2,0.4,0.4c0,0.1-0.1,0.4-0.2,0.6c-0.1,0.3-0.2,1.2-0.2,2.2c0,1.4,0,3,0.4,5
			c0.3,1.7,0.9,3.2,1.8,3.2c0.7,0,1.3-0.8,2.1-3.1c0.5,0.8,1,1.3,1.4,1.7c0.3,0.2,0.3,0.5,0.2,0.8c-0.8,2.2-2.2,3.4-3.7,3.4
			c-1.7,0-3.5-2-4.1-5.7c-0.4-2.1-0.5-4.4-0.5-6.4c0-1.2,0-1.9-0.3-2.9C69.4,3.1,70.5,3.3,71.1,3.7z M81.3,5C81.4,5,81.5,5,81.6,5
			c0.1,0,0.2,0,0.2,0.1c2,1.7,3.8,4.8,4.3,7.5c0.1,0.3-0.1,0.4-0.2,0.5c-0.6,0.4-1.1,0.7-1.7,0.9c-0.3,0.1-0.4,0-0.5-0.2
			c-0.7-3.1-1.9-5.4-4.1-7.7C80.4,5.5,81,5.2,81.3,5z"/>
		<path class="st0" d="M93.1,14.4c0.2-0.2,0.3-0.2,0.3-0.2c0.1,0,0.2,0,0.3,0.1c1.6,1,3.1,2.3,4.4,4c0.1,0.2,0.2,0.2,0.2,0.3
			c0,0.1,0,0.2-0.2,0.4l-1.3,1.1c-0.2,0.1-0.2,0.2-0.3,0.2c-0.1,0-0.2,0-0.3-0.2C95,18.5,93.5,17,92,16c-0.1-0.1-0.2-0.2-0.2-0.2
			c0-0.1,0-0.1,0.2-0.3L93.1,14.4z"/>
		<path class="st0" d="M129.7,4.9c0,4.2-0.1,7.1-0.5,9.1c-0.4,2.2-1,3.8-2.1,5.2c-0.2,0.3-0.3,0.4-0.4,0.4s-0.2-0.1-0.5-0.4
			c-0.4-0.4-0.7-0.7-1.1-0.9c-0.1,0.2-0.3,0.4-0.4,0.6c-0.4,0.4-0.9,0.6-2.2,0.6c-0.7,0-0.7,0-0.8-0.7c-0.1-0.6-0.3-1.1-0.5-1.6
			c0.6,0.1,0.9,0.1,1.4,0.1c0.5,0,0.7-0.2,0.7-0.8V13h-2.5c-0.2,3-0.8,4.7-1.7,6.4c-0.2,0.3-0.2,0.4-0.4,0.4c-0.1,0-0.2-0.1-0.4-0.4
			c-0.4-0.5-0.8-0.9-1.3-1.1c1.3-2.1,1.8-4.4,1.8-10.3V4.5c0-2.3,0-3.5,0-3.7c0-0.2,0-0.2,0.3-0.2c0.1,0,0.6,0,2,0h2.2
			c1.4,0,1.8,0,2,0c0.2,0,0.2,0,0.2,0.2c0,0.1,0,1.3,0,3.7v9.8c0,1,0,2.1,0,3c0,0.1,0,0.2,0,0.3c1.4-1.8,1.9-4.4,2.1-9.1
			c0.1-1.4,0-2.8,0-5.1c0-1.6,0-2.4,0-2.5c0-0.2,0-0.2,0.2-0.2c0.2,0,0.6,0,2.1,0h2.4c1.5,0,2,0,2.2,0c0.2,0,0.2,0,0.2,0.2
			c0,0.2,0,1.4,0,3.8v11.7c0,0.4,0,0.6,0.1,0.6c0.1,0.1,0.2,0.1,0.4,0.1c0.2,0,0.3,0,0.5-0.2c0.2-0.2,0.3-1.1,0.3-3.3
			c0.4,0.3,0.8,0.4,1.3,0.6c0.5,0.2,0.5,0.2,0.5,0.8c-0.1,2.5-0.3,3.2-0.7,3.7c-0.4,0.5-1,0.6-2.2,0.6c-0.9,0-1.5-0.1-1.9-0.3
			c-0.4-0.2-0.6-0.7-0.6-1.6V2.9h-2.6V4.9z M123.3,11V7.7H121v0.4c0,1.1,0,2,0,2.9H123.3z M121,2.7v3h2.3v-3H121z"/>
		<path class="st0" d="M147.5,2.3c0.4,0.2,0.5,0.3,0.5,0.5c0,0.2,0,0.2-0.3,0.7c-0.2,0.4-0.3,0.7-0.5,1.6c-0.6,2.7-0.9,5.4-0.9,7.1
			c0,1.1,0,1.8,0.1,2.6c0.5-1,0.9-1.7,1.5-3.3c0.2,0.5,0.5,0.9,0.8,1.4c0.1,0.1,0.2,0.2,0.2,0.3c0,0.2,0,0.2-0.1,0.4
			c-0.5,1.1-0.9,2.1-1.3,3.3c0,0.1-0.1,0.4-0.1,0.7c0,0.3,0,0.4,0,0.6c0,0.2-0.1,0.2-0.3,0.3c-0.6,0.2-1.2,0.3-1.8,0.4
			c-0.2,0-0.2-0.1-0.3-0.2c-0.6-1.5-1-4.3-1-6.6c0-2,0.2-4.4,0.7-7.2c0.3-1.6,0.4-2.4,0.4-3.3C146.1,1.7,146.8,1.9,147.5,2.3z
			 M152.2,12.6c0.2,0,0.2,0.1,0.2,0.3c0.1,1.5,1.2,2.1,3.6,2.1c1.6,0,2.7-0.1,4.2-0.3c0.2,0,0.3,0,0.3,0.3c0.1,0.5,0.1,1.3,0.1,1.9
			c0,0.3,0,0.3-0.4,0.3c-1.5,0.2-2.6,0.2-3.6,0.2c-3.3,0-4.8-0.5-5.7-1.8c-0.5-0.7-0.8-1.8-0.8-2.9L152.2,12.6z M150.9,4.4
			c0-0.3,0.1-0.3,0.3-0.4c1.3-0.2,3.8-0.4,4.8-0.4c1.3,0,2.3,0,3.3,0.1c0.5,0,0.5,0.1,0.5,0.3c0,0.7,0,1.3,0,1.9
			c0,0.2-0.1,0.3-0.3,0.3c-1.3-0.1-2.5-0.1-3.6-0.1c-1.5,0-2.9,0.1-5,0.5C150.9,5.3,150.9,4.8,150.9,4.4z"/>
		<path class="st0" d="M173.1,1c0.3,0.1,0.4,0.2,0.4,0.4c0,0.3-0.2,0.6-0.2,0.9c0,0.4,0.1,1,0.1,1.5c0.2,1.5,0.4,2.6,0.7,3.8
			c1.1-0.6,1.9-1,3.1-1.7c0.6-0.4,1.2-0.7,1.5-1.2c0.7,0.7,1.3,1.5,1.6,2.1c0.1,0.1,0.2,0.3,0.2,0.5c0,0.2-0.1,0.4-0.4,0.4
			c-0.7,0.1-1.4,0.4-2.1,0.7c-1.9,0.8-3.7,1.6-5.2,2.6c-1.9,1.3-2.6,2.3-2.6,3.3c0,1.3,1,1.8,3.5,1.8c2.8,0,5-0.2,6.7-0.5
			c0.2,0,0.4,0,0.4,0.3c0.1,0.6,0.2,1.4,0.2,2c0,0.2-0.1,0.4-0.4,0.4c-2,0.3-3.8,0.3-6.6,0.3c-4.2,0-6.4-1.4-6.4-4.2
			c0-2.4,1.6-4,4.2-5.7c-0.5-1.7-0.9-3.7-1.1-5.4c-0.2-1.2-0.3-1.9-0.6-2.6C171.3,0.8,172.3,0.8,173.1,1z"/>
		<path class="st0" d="M194,1.2c0.3,0.1,0.4,0.2,0.4,0.4c0,0.3-0.2,0.6-0.2,0.9c0,0.4,0.1,1,0.1,1.5c0.2,1.5,0.4,2.6,0.7,3.8
			c1.1-0.6,1.9-1,3.1-1.7c0.6-0.4,1.2-0.7,1.5-1.2c0.7,0.7,1.3,1.5,1.6,2.1c0.1,0.1,0.2,0.3,0.2,0.5c0,0.2-0.1,0.4-0.4,0.4
			c-0.7,0.1-1.4,0.4-2.1,0.7c-1.9,0.8-3.7,1.6-5.2,2.6c-1.9,1.3-2.6,2.3-2.6,3.3c0,1.3,0.9,1.8,3.7,1.8c2.5,0,4.9-0.2,6.6-0.5
			c0.2,0,0.4,0,0.4,0.3c0.1,0.6,0.2,1.4,0.2,2c0,0.2-0.1,0.4-0.4,0.4c-2,0.3-3.8,0.3-6.6,0.3c-4.2,0-6.4-1.4-6.4-4.2
			c0-2.4,1.6-4,4.2-5.7c-0.5-1.7-0.9-3.7-1.1-5.4c-0.2-1.2-0.3-1.9-0.6-2.6C192.2,1,193.2,1,194,1.2z M201.2,1.5
			c0.1-0.1,0.2-0.1,0.3,0c0.7,0.5,1.5,1.4,2.1,2.4c0.1,0.1,0.1,0.2-0.1,0.4l-0.9,0.7c-0.2,0.1-0.3,0.1-0.4-0.1
			c-0.7-1-1.4-1.8-2.2-2.6L201.2,1.5z M203.2,0.1c0.1-0.1,0.2-0.1,0.3,0c0.8,0.6,1.6,1.5,2.1,2.3c0.1,0.1,0.1,0.3-0.1,0.4l-0.9,0.7
			c-0.2,0.1-0.3,0.1-0.4-0.1c-0.6-0.9-1.3-1.8-2.2-2.5L203.2,0.1z"/>
		<path class="st0" d="M217.2,10.8c-1.5,0-3,0-4.5-0.1c-0.2,0-0.3-0.1-0.4-0.4c-0.1-0.5-0.1-1.4-0.1-1.9c1.6,0.2,3.3,0.2,5,0.2
			c0-0.8,0-1.7,0-2.5c-2.1,0.1-3.7,0.1-5.3-0.1c-0.2,0-0.4-0.1-0.4-0.3c-0.1-0.5-0.1-1.1-0.2-2c1.9,0.2,3.8,0.2,5.8,0.2
			c0-0.8,0-1.4,0-2.1c0-0.5-0.1-0.9-0.3-1.5c1.2,0.1,2.1,0.2,2.8,0.4c0.3,0.1,0.4,0.4,0.2,0.7c-0.2,0.3-0.3,0.7-0.3,1.1
			c0,0.4,0,0.7,0,1.4c2-0.2,3.5-0.4,4.8-0.7c0.3-0.1,0.4,0,0.4,0.3c0.1,0.6,0.1,1.2,0.1,1.6c0,0.3-0.1,0.3-0.2,0.4
			c-1.6,0.3-3,0.4-5.1,0.6c0,0.9,0,1.7,0,2.5c1.7-0.1,2.7-0.3,4.3-0.6c0.3-0.1,0.3,0,0.4,0.2c0,0.4,0.1,1.1,0.1,1.8
			c0,0.2-0.1,0.3-0.3,0.3c-1.5,0.2-2.5,0.4-4.3,0.5c0,1,0.1,2.1,0.2,3.1c2.1,0.6,3.9,1.4,5.8,2.7c0.2,0.2,0.2,0.3,0.2,0.5
			c-0.2,0.4-0.6,1.2-1,1.6c-0.1,0.1-0.2,0.2-0.3,0.2c-0.1,0-0.2,0-0.2-0.1c-1.3-1.1-2.7-1.8-4.4-2.5c0,2.4-1.5,3.3-4.5,3.3
			c-2.9,0-4.5-1.3-4.5-3.1c0-1.8,1.7-3.1,4.4-3.1c0.6,0,1.1,0,2.1,0.1C217.3,12.4,217.3,11.5,217.2,10.8z M215.3,15.2
			c-1.6,0-2.4,0.5-2.4,1.2c0,0.6,0.7,1,2.2,1c0.9,0,1.7-0.3,2-0.7c0.2-0.2,0.2-0.6,0.2-1.2C216.7,15.3,216,15.2,215.3,15.2z"/>
		<path class="st0" d="M238.7,9c1.2-0.7,2.3-1,3.5-1c3.2,0,5.5,2.1,5.5,5.3c0,3.7-3,6-7.7,6c-2.8,0-4.4-1.2-4.4-3.2
			c0-1.5,1.4-2.7,3.1-2.7c2.1,0,3.6,1.1,4.1,3.2c1.5-0.7,2.2-1.7,2.2-3.3c0-2-1.4-3.3-3.5-3.3c-1.8,0-3.9,0.8-5.6,2.3
			c-0.6,0.6-1.3,1.2-1.9,1.9c-0.2,0.2-0.3,0.2-0.4,0.2c-0.1,0-0.2-0.1-0.3-0.2c-0.5-0.4-0.9-1-1.3-1.4c-0.1-0.2-0.1-0.3,0.1-0.5
			c1.7-1.4,3.2-2.8,5.2-4.9c1.4-1.4,2.4-2.5,3.4-3.8c-1.3,0.2-2.9,0.5-4.2,0.8c-0.3,0.1-0.6,0.1-0.9,0.3c-0.1,0-0.3,0.1-0.4,0.1
			c-0.2,0-0.4-0.1-0.5-0.4c-0.3-0.5-0.5-1.1-0.8-2.4c0.7,0.1,1.4,0.1,2,0c1.3-0.1,3.3-0.4,5-0.7c0.6-0.1,1-0.2,1.2-0.3
			c0.1-0.1,0.3-0.2,0.4-0.2c0.2,0,0.4,0.1,0.5,0.2c0.7,0.5,1.1,0.9,1.5,1.4c0.2,0.2,0.2,0.4,0.2,0.5c0,0.2-0.1,0.4-0.4,0.5
			c-0.4,0.2-0.5,0.3-1,0.7C241.9,5.8,240.4,7.3,238.7,9L238.7,9z M238.8,15.3c-0.6,0-1.1,0.4-1.1,0.8c0,0.7,0.6,1.1,1.9,1.1
			c0.4,0,0.7,0,1-0.1C240.4,16,239.7,15.3,238.8,15.3z"/>
	</g>
</g>
</svg>
