<?xml version="1.0" encoding="utf-8"?>
<!-- Generator: Adobe Illustrator 26.0.1, SVG Export Plug-In . SVG Version: 6.00 Build 0)  -->
<svg version="1.1" id="レイヤー_1" xmlns="http://www.w3.org/2000/svg" xmlns:xlink="http://www.w3.org/1999/xlink" x="0px"
	 y="0px" viewBox="0 0 371.9 91.2" style="enable-background:new 0 0 371.9 91.2;" xml:space="preserve">
<style type="text/css">
	.st0{fill:#FFFFFF;}
</style>
<g>
	<path class="st0" d="M18.9,7.5c0,7.8-0.4,12.6-1.3,15.9c-0.7,2.7-1.6,4.7-3,6.6c-0.2,0.3-0.3,0.4-0.5,0.4c-0.2,0-0.3-0.1-0.6-0.5
		c-0.5-0.5-1-0.8-1.6-1.2c-0.1,0.2-0.3,0.4-0.4,0.5c-0.6,0.5-1.4,0.8-3.4,0.8c-0.9,0-0.9,0-1-0.8c-0.1-0.8-0.4-1.3-0.7-1.8
		c1,0.1,1.4,0.1,2.4,0.1c0.8,0,1.1-0.4,1.1-1.4v-6.5H5.2c-0.4,5-1.2,7.7-2.7,10.4c-0.2,0.3-0.3,0.5-0.4,0.5c-0.1,0-0.3-0.1-0.5-0.4
		c-0.5-0.6-1-1-1.5-1.2c2.2-3.5,3-6.9,3-16.5V7.3C3,3.7,2.9,2,2.9,1.8c0-0.3,0-0.3,0.3-0.3c0.2,0,0.8,0.1,2.9,0.1h3
		c2.1,0,2.7-0.1,2.9-0.1c0.3,0,0.3,0,0.3,0.3c0,0.2-0.1,1.9-0.1,5.5v15.1c0,1.6,0,3.2,0,4.7c0,0.6-0.1,1.2-0.4,1.6
		c1.6-1.7,2.6-3.9,3.3-6.9c0.7-3.2,1-7.4,1-12.5V5.5c0-2.3,0-3.3,0-3.5c0-0.3,0-0.3,0.3-0.3c0.2,0,0.9,0.1,3.2,0.1H23
		c2.3,0,3-0.1,3.2-0.1c0.3,0,0.3,0,0.3,0.3c0,0.2-0.1,2-0.1,6v18.3c0,0.7,0,0.9,0.2,1.1c0.2,0.2,0.5,0.2,0.9,0.2
		c0.6,0,0.9,0,1.1-0.4c0.2-0.3,0.4-1.5,0.5-5.1c0.4,0.3,1,0.5,1.6,0.8c0.7,0.2,0.6,0.3,0.6,1c-0.2,3.8-0.5,4.7-1,5.4
		c-0.6,0.6-1.4,0.9-3.1,0.9c-1.2,0-2-0.1-2.6-0.4c-0.6-0.3-0.9-1-0.9-2.3V4.3h-4.9V7.5z M9.9,17.5v-5.6H5.5v0.8c0,1.8,0,3.4-0.1,4.8
		H9.9z M5.5,4v5.5h4.4V4H5.5z"/>
	<path class="st0" d="M49.9,5.3c0.2-1.1,0.3-2.2,0.3-3.5c1.4,0.3,2.2,0.5,3.3,1c0.3,0.1,0.4,0.3,0.4,0.5c0,0.2-0.1,0.3-0.2,0.5
		c-0.3,0.3-0.4,0.6-0.6,1.2c-0.5,1.5-0.9,3-1.4,4.6c1-0.1,2.2-0.2,3-0.2c3.1,0,4.7,1.8,4.7,5.8c0,4.3-0.7,8.5-1.8,11
		c-0.9,2-2.4,2.9-4.2,2.9c-1.5,0-2.6-0.2-3.4-0.5c-0.3-0.1-0.5-0.3-0.5-0.7c-0.1-0.8-0.1-1.6-0.5-2.5c1.5,0.6,2.7,0.9,3.8,0.9
		c1,0,1.6-0.4,2.2-1.8c0.8-1.9,1.4-5.3,1.4-9.1c0-2.6-0.4-3.4-2.1-3.4c-1,0-2.2,0.1-3.3,0.3c-2.1,6.2-4.2,11.3-6.9,16.1
		c-0.2,0.3-0.4,0.4-0.7,0.2c-0.4-0.2-1.4-0.9-1.8-1.2c-0.1-0.1-0.2-0.2-0.2-0.4c0-0.1,0-0.2,0.1-0.3c2.8-4.8,4.7-9,6.4-14
		c-1.4,0.2-2.6,0.4-3.9,0.6c-0.7,0.1-1.3,0.3-1.7,0.5c-0.1,0.1-0.3,0.1-0.4,0.1c-0.2,0-0.4-0.1-0.5-0.4c-0.3-0.6-0.6-1.6-0.9-2.8
		c1.3,0,2.7-0.1,3.9-0.2c1.7-0.2,2.9-0.4,4.4-0.6C49.2,8.1,49.5,6.8,49.9,5.3z M62.7,7.8c0.2-0.1,0.4,0,0.6,0.2
		c2.3,2.1,4.4,5,5.5,8.2c0.1,0.3,0.1,0.4-0.1,0.6c-0.4,0.4-1.4,1-1.9,1.3c-0.3,0.2-0.5,0.1-0.6-0.2c-1.3-3.5-3-6.4-5.5-8.7
		C61.2,8.7,62,8.2,62.7,7.8z M63.6,2.5c0.1-0.1,0.2-0.1,0.4,0.1c1.3,0.9,2.7,2.5,3.8,4.1c0.1,0.1,0.1,0.3-0.1,0.4l-1.2,1
		C66.3,8.2,66.1,8.2,66,8c-1-1.7-2.4-3.2-3.9-4.4L63.6,2.5z M66.7,0.1C66.9,0,67,0,67.2,0.1c1.4,1.1,2.9,2.6,3.8,4
		c0.1,0.2,0.1,0.3-0.1,0.5l-1.2,1c-0.1,0.1-0.2,0.1-0.2,0.1s-0.2-0.1-0.2-0.2c-1-1.5-2.3-3.1-3.9-4.3L66.7,0.1z"/>
	<path class="st0" d="M85.3,21.5c-3.2,0-4.3,0.1-4.5,0.1c-0.3,0-0.3,0-0.3-0.3v-1.7c0-0.3,0-0.3,0.3-0.3c0.2,0,1.3,0.1,4.5,0.1h7.3
		c0.1-0.8,0.2-1.7,0.3-2.7h-3.4c-3.3,0-4.4,0.1-4.6,0.1c-0.3,0-0.3,0-0.3-0.3v-1.6c0-0.3,0-0.3,0.3-0.3c0.2,0,1.4,0.1,4.6,0.1H93
		c0-0.8,0-1.6,0-2.6h-3.5c-3.3,0-4.4,0.1-4.6,0.1c-0.3,0-0.3,0-0.3-0.3V10c0-0.3,0-0.3,0.3-0.3c0.2,0,1.3,0.1,4.6,0.1H93
		c0-1.4-0.1-2.2-0.2-2.9c0.9,0,1.8,0.1,2.7,0.2C95.8,7.1,96,7.1,96,7.4c0,0.2-0.1,0.5-0.2,0.7c-0.1,0.3-0.1,0.7-0.1,1.6h3.9
		c3.2,0,4.4-0.1,4.6-0.1c0.3,0,0.3,0,0.3,0.3v1.7c0,0.3,0,0.3-0.3,0.3c-0.2,0-1.3-0.1-4.6-0.1h-3.9c0,0.9,0,1.8,0,2.6h3.8
		c3.3,0,4.4-0.1,4.6-0.1c0.3,0,0.3,0,0.3,0.3v1.6c0,0.3,0,0.3-0.3,0.3c-0.2,0-1.3-0.1-4.6-0.1h-3.9c0,1-0.1,1.8-0.3,2.7h8.8
		c3.2,0,4.3-0.1,4.5-0.1c0.3,0,0.3,0,0.3,0.3v1.7c0,0.3,0,0.3-0.3,0.3c-0.2,0-1.3-0.1-4.5-0.1h-7.6c2.8,3.9,7.7,5.8,13.5,6.5
		c-0.4,0.5-0.8,1.2-1.1,1.9c-0.3,0.8-0.3,0.8-1.2,0.6c-5.5-1-10.2-3.3-13.4-8c-0.3,0.5-0.6,1.1-1,1.6c-2.3,3.1-5.9,5-11.6,6.3
		c-0.8,0.2-0.8,0.2-1.2-0.6c-0.2-0.7-0.6-1.3-1-1.7c5.8-1,10-3,11.8-5.6c0.2-0.3,0.4-0.7,0.6-1.1H85.3z M83.3,10.5
		c0,0.3,0,0.3-0.3,0.3h-2.1c-0.3,0-0.3,0-0.3-0.3c0-0.2,0.1-0.6,0.1-3.6V5.8c0-1.2-0.1-1.7-0.1-1.9c0-0.3,0-0.3,0.3-0.3
		c0.2,0,1.4,0.1,4.6,0.1H93V3.4c0-1.6-0.1-2.5-0.3-3.4c1,0,2,0.1,2.9,0.2c0.3,0,0.5,0.1,0.5,0.3c0,0.2-0.1,0.4-0.2,0.7
		c-0.1,0.3-0.2,0.7-0.2,2.2v0.3h8c3.3,0,4.4-0.1,4.6-0.1c0.3,0,0.3,0,0.3,0.3c0,0.2-0.1,0.7-0.1,1.6v1.4c0,3,0.1,3.4,0.1,3.6
		c0,0.3,0,0.3-0.3,0.3h-2.1c-0.3,0-0.3,0-0.3-0.3V6H83.3V10.5z"/>
	<path class="st0" d="M142.2,0.1c0.3-0.2,0.3-0.2,0.6,0c0.9,0.5,1.8,1.4,2.7,2.3c0.2,0.2,0.1,0.4-0.1,0.5l-1,0.7
		c2.2,0,3.2-0.1,3.3-0.1c0.3,0,0.3,0,0.3,0.3v1.8c0,0.3,0,0.3-0.3,0.3c-0.2,0-1.3-0.1-4.7-0.1h-3.6c0.3,2.7,0.9,5.3,1.8,7.4
		c0.8-1.2,1.4-2.4,1.8-3.6c0.2-0.5,0.4-1.3,0.6-2c0.8,0.2,1.5,0.5,2.1,0.8c0.2,0.1,0.4,0.2,0.4,0.4c0,0.2-0.1,0.3-0.3,0.5
		c-0.2,0.2-0.3,0.4-0.6,1c-0.7,1.7-1.6,3.5-2.9,5.3c1.1,1.7,2.3,2.8,3.1,2.8c1.1,0,1.4-1.2,1.9-3.6c0.4,0.4,0.9,0.7,1.3,1
		c0.7,0.4,0.8,0.5,0.6,1.3c-0.8,2.8-1.8,4-3.7,4c-1.6,0-3.3-1.4-4.8-3.4c-0.9,1-2,2-3.3,2.9c-0.3,0.2-0.5,0.3-0.6,0.3
		c-0.2,0-0.3-0.1-0.6-0.5c-0.4-0.4-0.7-0.6-1.2-1c1.9-1.1,3.4-2.4,4.6-3.8l-0.2-0.4c-1.2-2.4-2-5.8-2.4-9.2h-12.7v2.7
		c0,1.7-0.3,5.1-0.6,6.8c-0.5,2.1-1.1,3.9-2.4,5.9c-0.2,0.3-0.3,0.5-0.4,0.5c-0.1,0-0.3-0.1-0.6-0.4c-0.5-0.5-1.1-0.8-1.6-1
		c1.5-1.9,2.1-3.3,2.5-5.4c0.4-1.8,0.7-4.1,0.7-7.4c0-2.4-0.1-3.5-0.1-3.6c0-0.3,0-0.3,0.3-0.3c0.2,0,1.4,0.1,4.7,0.1h10
		c0-0.3,0-0.5,0-0.8c-0.1-1.1-0.2-2.1-0.4-2.9c0.9,0,1.9,0.1,2.7,0.2c0.3,0,0.4,0.1,0.4,0.3c0,0.2-0.1,0.4-0.1,0.6
		c-0.1,0.3-0.1,1-0.1,1.7c0,0.3,0,0.6,0,0.9h4.2c-0.7-0.9-1.7-1.7-2.4-2.3c-0.1-0.1-0.2-0.2-0.2-0.2c0-0.1,0.1-0.2,0.3-0.3
		L142.2,0.1z M124.5,22.8c0.4,0.2,0.4,0.2,0.3,0.5c-0.9,2.2-2.1,4.3-3.6,6.1c-0.1,0.1-0.2,0.2-0.3,0.2c-0.1,0-0.2-0.1-0.4-0.2
		l-1.4-0.8c-0.4-0.3-0.4-0.4-0.2-0.6c1.5-1.5,2.7-3.6,3.5-5.6c0.1-0.3,0.2-0.3,0.7-0.2L124.5,22.8z M125.4,8.3c0-0.3,0-0.3,0.3-0.3
		c0.2,0,1,0.1,3.1,0.1h3.4c2.1,0,2.9-0.1,3.1-0.1c0.3,0,0.3,0,0.3,0.3v1.6c0,0.3,0,0.3-0.3,0.3c-0.2,0-1-0.1-3.1-0.1h-3.4
		c-2.2,0-2.9,0.1-3.1,0.1c-0.3,0-0.3,0-0.3-0.3V8.3z M131.9,12c2,0,2.7-0.1,2.9-0.1c0.3,0,0.3,0,0.3,0.3c0,0.2-0.1,0.7-0.1,2.2v2.1
		c0,1.5,0.1,2,0.1,2.2c0,0.3,0,0.3-0.3,0.3c-0.2,0-0.9-0.1-2.9-0.1h-3c-2.1,0-2.7,0.1-2.9,0.1c-0.3,0-0.3,0-0.3-0.3
		c0-0.2,0.1-0.7,0.1-2.2v-2.1c0-1.5-0.1-2-0.1-2.2c0-0.3,0-0.3,0.3-0.3c0.2,0,0.8,0.1,2.9,0.1H131.9z M129.5,26.5
		c0,0.7,0.1,1.2,0.7,1.3c0.7,0.2,2,0.3,3.6,0.3c2.3,0,3.8,0,4.7-0.5c0.7-0.4,1-1.4,1.1-3c0.5,0.3,1.1,0.6,1.8,0.8
		c0.7,0.3,0.7,0.3,0.6,1c-0.3,2-1,2.8-1.9,3.3c-1.4,0.6-3.5,0.7-6.5,0.7c-2.5,0-4.3-0.1-5.4-0.5c-0.8-0.3-1.4-0.9-1.4-2.5v-3.2
		c0-1,0-1.8-0.2-2.7c0.9,0,1.9,0.1,2.6,0.2c0.3,0,0.5,0.2,0.5,0.3c0,0.2-0.1,0.3-0.2,0.5c-0.1,0.3-0.2,0.6-0.2,1.4V26.5z
		 M132.9,13.9H128v3h4.9V13.9z M133.1,20.4c0.2-0.1,0.3-0.2,0.4-0.2s0.2,0,0.3,0.1c1.3,1,2.4,2.1,3.4,3.4c0.1,0.2,0.1,0.3-0.2,0.5
		l-1.2,0.9c-0.2,0.1-0.3,0.2-0.4,0.2c-0.1,0-0.2-0.1-0.3-0.2c-0.9-1.3-2-2.5-3.2-3.5c-0.2-0.2-0.2-0.3,0.2-0.5L133.1,20.4z
		 M144,21.9c0.2-0.1,0.3-0.1,0.3-0.1c0.1,0,0.2,0,0.3,0.2c1.6,1.7,2.8,3.4,3.9,5.5c0.1,0.3,0.1,0.4-0.2,0.6l-1.5,0.8
		c-0.2,0.1-0.3,0.2-0.4,0.2c-0.1,0-0.2-0.1-0.2-0.2c-1-2.1-2.2-3.9-3.7-5.6c-0.2-0.2-0.2-0.3,0.2-0.5L144,21.9z"/>
	<path class="st0" d="M187.1,8.5c0,0.3-0.1,0.4-0.5,0.4c-3.6-0.1-6.8-0.2-10.5,0c0,2.1,0,4.4,0,6.6c0.3,1,0.4,2.3,0.4,3.5
		c0,4.1-1.8,8-6.4,10.7c-0.4,0.3-0.8,0.4-1,0.4c-0.2,0-0.5-0.2-0.8-0.4c-0.5-0.5-1.3-0.9-2-1.2c4.5-1.9,6.8-4.9,7.2-8.1
		c-0.7,1.2-2.1,1.7-3.5,1.7c-2.5,0-4.8-1.7-4.8-5c0-3.1,2.3-5,5-5c1.1,0,2.2,0.3,2.9,1c0-1.5,0-2.7-0.1-4.1c-4.6,0.3-9.2,0.6-12.2,1
		c-0.8,0.1-1.3,0.4-1.5,0.4s-0.4-0.1-0.5-0.4c-0.2-0.5-0.5-1.6-0.7-2.7c1.2,0.1,2.3,0,4.2-0.2c2.5-0.2,6.3-0.4,10.6-0.7
		c0-1.3,0-2-0.1-3c0-0.9-0.1-1.4-0.3-2.3c1.2,0.1,2.6,0.2,3.3,0.4c0.4,0.1,0.7,0.3,0.7,0.6c0,0.2-0.1,0.4-0.3,0.7
		c-0.1,0.2-0.2,0.5-0.2,1C176,4.4,176,4.9,176,6.3c3.7-0.1,7.1-0.1,10.6-0.1c0.4,0,0.4,0,0.4,0.4V8.5z M167.9,17.1
		c0,1.7,1.1,2.7,2.5,2.7c1.6,0,2.8-1.2,2.8-2.7c0-1.6-1.1-2.6-2.7-2.6C169.2,14.5,167.9,15.4,167.9,17.1z"/>
	<path class="st0" d="M205.6,15c2.2-1.4,4.3-2.1,6.5-2.1c4.9,0,8.2,3.1,8.2,7.8c0,5.3-4.2,9-11.5,9c-4.3,0-6.4-1.8-6.4-4.4
		c0-2,1.8-3.8,4.4-3.8c3.1,0,5.3,1.9,6.1,5c2.7-1,4.3-2.8,4.3-5.8c0-3.3-2.4-5.3-5.6-5.3c-3.1,0-6.4,1.5-9.1,3.7
		c-1.1,0.8-2,1.8-3,2.8c-0.2,0.2-0.3,0.3-0.5,0.3c-0.1,0-0.2-0.1-0.4-0.2c-0.5-0.5-1.2-1.2-1.6-1.7c-0.2-0.2-0.1-0.4,0.1-0.6
		c2.7-2.2,4.7-4.2,7.9-7.5c2.1-2.1,3.9-4.2,6.1-6.8c-2.5,0.4-5.2,1-7.8,1.5c-0.4,0.1-0.9,0.2-1.3,0.3c-0.2,0.1-0.5,0.2-0.6,0.2
		c-0.3,0-0.5-0.1-0.6-0.5c-0.3-0.7-0.6-1.4-1-2.9c1.1,0.1,2.1,0.1,3.1,0c2.4-0.2,5.3-0.6,8.1-1.2c0.6-0.1,1.1-0.2,1.4-0.4
		c0.2-0.1,0.4-0.2,0.6-0.2c0.2,0,0.4,0.1,0.7,0.3c0.8,0.6,1.4,1.2,1.8,1.7c0.2,0.2,0.3,0.5,0.3,0.7c0,0.3-0.2,0.6-0.5,0.7
		c-0.5,0.2-0.9,0.4-1.6,1.2c-2.8,2.9-5.1,5.2-8.2,8.3L205.6,15z M206.9,23.8c-1.1,0-2,0.6-2,1.5c0,1.1,1.1,1.9,3.3,2
		c0.7,0,1.3,0,2-0.2C209.8,25.1,208.6,23.8,206.9,23.8z"/>
	<path class="st0" d="M231.9,22.9c0.2-0.2,0.3-0.2,0.4-0.2s0.2,0.1,0.4,0.2c2.5,1.6,4.6,3.5,6.6,6.2c0.2,0.2,0.2,0.3,0.2,0.5
		s-0.1,0.3-0.3,0.4l-1.6,1.4c-0.2,0.2-0.3,0.2-0.4,0.2c-0.1,0-0.3,0-0.4-0.3c-1.8-2.6-4-4.9-6.3-6.4c-0.2-0.1-0.3-0.2-0.3-0.3
		c0-0.1,0-0.2,0.2-0.4L231.9,22.9z"/>
	<path class="st0" d="M27.3,82.4c0,1.6,0.1,3.3,0.1,4.7c0,1.2-0.3,1.9-1,2.5c-0.7,0.6-2,0.8-5.2,0.8c-0.8,0-0.8,0-1-0.9
		c-0.2-0.7-0.4-1.4-0.8-2c1.4,0.1,2.8,0.2,3.7,0.2c1.3,0,1.7-0.3,1.7-1.5v-4H7.2c-0.7,3.3-2.1,5.7-4,8c-0.3,0.3-0.4,0.4-0.5,0.4
		c-0.1,0-0.3-0.1-0.6-0.4c-0.6-0.5-1.1-0.9-1.8-1.2c3.6-3.4,5-6.9,5-13.7v-2.8c0-1,0-1.8,0-2.3c-0.8,0.6-1.7,1.3-2.7,1.9
		c-0.3,0.2-0.4,0.3-0.5,0.3c-0.2,0-0.3-0.2-0.5-0.6c-0.3-0.6-0.7-1.2-1.1-1.6c3.9-2,6.9-5,9-8.2c0.5-0.9,0.7-1.5,1-2.2
		c1.2,0.2,1.8,0.4,2.5,0.6c0.4,0.1,0.4,0.3,0.4,0.5c0,0.2-0.1,0.4-0.4,0.5c-0.2,0.1-0.5,0.4-0.8,1L11.7,63h6.7c0.4,0,0.6,0,0.7-0.1
		c0.2-0.1,0.3-0.1,0.4-0.1c0.2,0,0.5,0.1,1.2,0.7c0.6,0.5,0.7,0.8,0.7,1c0,0.2-0.1,0.3-0.4,0.5c-0.3,0.1-0.6,0.4-1,0.9
		c-0.6,0.9-1.3,1.8-2,2.7h4.2c3.4,0,4.6-0.1,4.8-0.1c0.3,0,0.3,0,0.3,0.3c0,0.2-0.1,1.3-0.1,3.7V82.4z M15.1,68.6
		c0.9-1.1,1.6-2.3,2.3-3.5h-7.2c-0.9,1.3-1.9,2.4-3.1,3.5H15.1z M14.7,80v-3.6H7.9c0,1.3-0.1,2.5-0.2,3.6H14.7z M14.7,74.3v-3.4H7.9
		v3.4H14.7z M17.2,70.9v3.4h7.4v-3.4H17.2z M24.7,80v-3.6h-7.4V80H24.7z"/>
	<path class="st0" d="M44.2,67.7c-0.3,1.7-1,3.4-2.4,5.2c-0.3,0.3-0.4,0.5-0.5,0.5c-0.2,0-0.3-0.1-0.6-0.4c-0.5-0.5-1-0.9-1.6-1.2
		c2.6-2.2,2.9-4.7,2.9-7.5c0-1.2,0-2.2-0.2-3c0.9,0.1,1.7,0.3,2.5,0.5c2.4-0.2,4.5-0.6,6.2-1.1c0.6-0.2,1.1-0.4,1.5-0.7
		c0.6,0.5,1.1,1,1.6,1.6c0.2,0.2,0.3,0.4,0.3,0.6c0,0.1-0.2,0.3-0.5,0.3s-0.7,0-1.2,0.1c-2.4,0.5-4.5,0.8-7.8,1.2v1.8H50
		c2.8,0,3.7-0.1,3.9-0.1c0.3,0,0.3,0,0.3,0.3v1.5c0,0.3,0,0.3-0.3,0.3c-0.2,0-1.1-0.1-3.5-0.1v1c0,1.5,0.1,2.1,0.1,2.3
		c0,0.3,0,0.3-0.3,0.3h-1.9c-0.3,0-0.3,0-0.3-0.3c0-0.2,0.1-0.8,0.1-2.3v-1H44.2z M50.9,87c0.3,0.2,0.3,0.3,0.3,0.5
		c0,0.2-0.1,0.3-0.4,0.4c-0.4,0.1-0.6,0.2-1.2,0.5c-2,1.1-4.8,2.2-7.9,2.8c-0.9,0.2-0.9,0.2-1.3-0.6c-0.2-0.5-0.6-1.1-1.1-1.5
		c3-0.4,6.2-1.3,8.2-2.3c0.5-0.3,0.8-0.5,1.2-1C49.6,86.1,50.3,86.6,50.9,87z M60.5,72c3.3,0,4.5-0.1,4.7-0.1c0.3,0,0.3,0,0.3,0.3
		c0,0.2-0.1,1.2-0.1,3.5V82c0,2.3,0.1,3.2,0.1,3.4c0,0.3,0,0.3-0.3,0.3c-0.2,0-1.4-0.1-4.8-0.1H49.1c-3.4,0-4.6,0.1-4.7,0.1
		c-0.3,0-0.3,0-0.3-0.3c0-0.2,0.1-1.1,0.1-3.4v-6.3c0-2.3-0.1-3.2-0.1-3.5c0-0.3,0-0.3,0.3-0.3c0.2,0,1.4,0.1,4.7,0.1H60.5z
		 M46.6,76h16.2v-2H46.6V76z M62.8,79.8v-2H46.6v2H62.8z M62.8,81.6H46.6v2.1h16.2V81.6z M57.8,67.7c-0.3,1.3-1,2.5-2,3.5
		c-0.3,0.3-0.5,0.5-0.6,0.5s-0.3-0.1-0.6-0.4c-0.4-0.4-1-0.7-1.6-1c2.1-1.7,2.7-3.6,2.7-6c0-1.4,0-2.3-0.1-3.1
		c1,0.1,1.7,0.3,2.5,0.6c2.3-0.2,4.8-0.6,6.4-1.1c0.6-0.2,1.1-0.4,1.6-0.6c0.6,0.5,1,0.9,1.5,1.6c0.2,0.2,0.3,0.4,0.3,0.5
		c0,0.2-0.1,0.3-0.4,0.3c-0.4,0-0.7,0-1.3,0.1c-2.3,0.5-4.7,0.9-8.1,1.2v1.3c0,0.2,0,0.4,0,0.6h6.7c3.1,0,4.1-0.1,4.4-0.1
		c0.3,0,0.3,0,0.3,0.3v1.5c0,0.3,0,0.3-0.3,0.3c-0.2,0-1.3-0.1-4.4-0.1h-0.7v1c0,1.5,0.1,2.1,0.1,2.3c0,0.3,0,0.3-0.3,0.3h-1.9
		c-0.3,0-0.3,0-0.3-0.3c0-0.2,0.1-0.9,0.1-2.3v-1H57.8z M59.5,86.2c0.3-0.3,0.4-0.3,0.6-0.2c2.6,1.5,5.8,2.5,9.5,2.9
		c-0.4,0.5-0.7,1.1-1,1.6c-0.3,0.8-0.4,0.8-1.2,0.6c-3.2-0.6-6.7-1.9-9.2-3.5c-0.3-0.2-0.2-0.2,0.1-0.5L59.5,86.2z"/>
	<path class="st0" d="M84.5,69.8c0,3.8-0.2,7.5-0.7,10.5c-0.5,3.4-1.3,6.2-3.2,9.2c-0.2,0.3-0.3,0.5-0.4,0.5c-0.1,0-0.2-0.1-0.5-0.4
		c-0.5-0.6-1.2-1.1-1.7-1.4c1.9-2.6,2.8-5.4,3.2-8.6c0.5-2.9,0.7-6.5,0.7-10.7c0-5-0.1-7.2-0.1-7.4c0-0.3,0-0.3,0.3-0.3
		c0.2,0,1.4,0,4.8,0h15.2c3.4,0,4.6,0,4.8,0c0.3,0,0.3,0,0.3,0.3c0,0.2-0.1,0.6-0.1,2.1v1.8c0,1.5,0.1,1.9,0.1,2.1
		c0,0.3,0,0.3-0.3,0.3c-0.2,0-1.4-0.1-4.8-0.1H84.5V69.8z M104.4,63.1h-20v2.4h20V63.1z M101.6,70.8c3.3,0,4.5-0.1,4.7-0.1
		c0.3,0,0.3,0,0.3,0.3c0,0.2-0.1,0.8-0.1,2.7v3.1c0,1.8,0.1,2.5,0.1,2.7c0,0.3,0,0.3-0.3,0.3c-0.2,0-1.4-0.1-4.7-0.1H91.2
		c-3.4,0-4.5,0.1-4.7,0.1c-0.3,0-0.3,0-0.3-0.3c0-0.2,0.1-0.9,0.1-2.7v-3.1c0-1.9-0.1-2.5-0.1-2.7c0-0.3,0-0.3,0.3-0.3
		c0.2,0,1.4,0.1,4.7,0.1h0.2c-0.3-0.6-0.7-1.3-1.2-1.9c-0.2-0.2-0.2-0.4,0.2-0.5l1.3-0.4c0.4-0.1,0.4-0.1,0.6,0.1
		c0.7,0.9,1.2,1.8,1.7,2.7h4.5c0.3-0.5,0.5-1,0.7-1.4c0.2-0.4,0.4-1,0.6-1.6c0.9,0.2,1.5,0.4,2.3,0.7c0.2,0.1,0.3,0.2,0.3,0.3
		c0,0.2-0.1,0.3-0.3,0.5c-0.2,0.1-0.4,0.4-0.6,0.7l-0.4,0.7H101.6z M88.2,90.9c-0.3,0-0.3,0-0.3-0.3c0-0.2,0.1-0.8,0.1-4.7v-1.7
		c0-1.8-0.1-2.5-0.1-2.8c0-0.3,0-0.3,0.3-0.3c0.2,0,1.3,0.1,4.4,0.1h7.6c3.2,0,4.2-0.1,4.4-0.1c0.3,0,0.3,0,0.3,0.3
		c0,0.2-0.1,0.9-0.1,2.4v2c0,3.8,0.1,4.5,0.1,4.7c0,0.3,0,0.3-0.3,0.3h-2c-0.3,0-0.3,0-0.3-0.3v-0.9h-12v1c0,0.3,0,0.3-0.3,0.3H88.2
		z M95,74.4v-1.9h-6.4v1.9H95z M95,77.9V76h-6.4v1.9H95z M90.4,84.7h12v-1.7h-12V84.7z M102.4,88v-1.8h-12V88H102.4z M97.3,72.5v1.9
		h6.8v-1.9H97.3z M104.1,76h-6.8v1.9h6.8V76z"/>
	<path class="st0" d="M120.3,74.8c1.4-1.2,3.7-3.2,6.1-5.3c1.1-1,1.8-1.3,2.7-1.3c1.1,0,1.7,0.3,2.7,1.2c2.7,2.1,4.7,3.8,7.6,6.1
		c2.8,2,5,3.4,7.7,4.8c0.3,0.1,0.3,0.3,0.3,0.5c-0.3,0.8-0.8,1.8-1.3,2.4c-0.1,0.2-0.2,0.3-0.4,0.3c-0.1,0-0.2-0.1-0.3-0.1
		c-1.8-1.1-5.1-3.4-7.3-5c-2.5-1.9-5-4.1-7.4-6.1c-0.7-0.6-1.2-0.9-1.6-0.9c-0.4,0-0.8,0.3-1.4,0.8c-1.8,1.8-4.3,4.1-6,5.7
		c-0.6,0.6-0.9,1-1.2,1.3c-0.1,0.2-0.3,0.3-0.5,0.3c-0.2,0-0.3-0.1-0.5-0.2c-0.6-0.6-1.6-1.8-2.2-2.7
		C118.5,76.1,119.3,75.6,120.3,74.8z"/>
	<path class="st0" d="M168.5,82c-1.5,2.5-3.1,3.7-5.3,3.7c-2.7,0-5.4-3-5.4-8.2c0-3.2,1.4-6.5,3.9-8.8c2.7-2.5,6.1-4,10.5-4
		c7.9,0,12.5,4.7,12.5,11.3c0,5.9-3.5,10.1-10.6,12.1c-0.5,0.1-0.8,0-1.2-0.5c-0.3-0.4-0.8-1.1-1.8-1.6c6.3-1.4,10.5-4.5,10.5-10.4
		c0-4.6-3.5-8.3-8.7-8.3C172.2,73,170.6,78.5,168.5,82z M163.5,70.5c-2,2.1-3,4.7-3,6.9c0,3.5,1.4,5.1,2.5,5.1c1.1,0,2-0.6,2.9-2.3
		c1.6-2.9,3.3-8,3.8-12.8C167.3,67.8,165.1,68.9,163.5,70.5z"/>
	<path class="st0" d="M202.5,67.1c-2.4,0-4.4,0.1-6.2,0.3c-0.4,0-0.5-0.1-0.6-0.4c-0.2-0.7-0.4-2-0.5-2.9c2.2,0.2,4.1,0.2,7,0.2
		h14.3c1.7,0,2.1-0.1,2.5-0.2c0.2-0.1,0.4-0.2,0.5-0.2c0.2,0,0.4,0.1,0.6,0.3c0.6,0.5,1.1,1.1,1.6,1.7c0.1,0.2,0.2,0.3,0.2,0.5
		c0,0.2-0.1,0.4-0.4,0.6c-0.3,0.2-0.6,0.6-0.8,0.9c-1.6,2.4-3.8,4.7-6.3,6.6c-0.2,0.1-0.3,0.2-0.5,0.2s-0.4-0.1-0.6-0.2
		c-0.6-0.5-1.4-0.8-2.2-1.1c2.9-2,4.9-3.9,6.6-6.4H202.5z M204.5,80.9c1.3-2.5,1.7-5.1,1.7-8.3c0-1.2-0.1-2-0.3-3
		c1.3,0.1,2.7,0.3,3.5,0.5c0.4,0.1,0.5,0.3,0.5,0.6c0,0.2-0.1,0.4-0.2,0.5c-0.2,0.4-0.3,0.7-0.3,1.5c0,3.1-0.5,6.3-2,9.2
		c-1.3,2.6-3.6,5-6.3,6.8c-0.2,0.1-0.5,0.2-0.7,0.2c-0.2,0-0.4-0.1-0.6-0.2c-0.6-0.5-1.5-1.1-2.4-1.3
		C200.9,85.6,203.2,83.6,204.5,80.9z"/>
	<path class="st0" d="M239.1,68.7c-2.1,0-4,0.1-5.7,0.2c-0.4,0-0.5-0.2-0.6-0.6c-0.1-0.6-0.2-1.9-0.2-2.7c1.9,0.2,3.7,0.2,6.5,0.2
		h12.1c1,0,1.4-0.1,1.8-0.3c0.2-0.1,0.3-0.1,0.5-0.1s0.4,0.1,0.5,0.2c0.7,0.5,1.4,1.1,1.9,1.7c0.1,0.2,0.2,0.4,0.2,0.5
		c0,0.2-0.1,0.5-0.4,0.7c-0.3,0.3-0.5,0.6-0.8,1.2c-1.6,4.2-3.9,8-6.6,11.1c-2.8,3.2-6,6-9.9,8.1c-0.3,0.1-0.5,0.2-0.7,0.2
		c-0.2,0-0.5-0.1-0.7-0.3c-0.5-0.6-1.4-1.1-2.3-1.4c5-2.6,8.1-5.1,11-8.5c2.6-2.9,4.6-6.3,6.1-10.4H239.1z M262.1,62.6
		c0,2.1-1.6,3.7-3.7,3.7c-2.1,0-3.7-1.6-3.7-3.7s1.6-3.7,3.7-3.7C260.5,58.9,262.1,60.5,262.1,62.6z M256.4,62.6
		c0,1.2,0.9,2.1,2.1,2.1s2-0.9,2-2.1c0-1.2-0.9-2-2-2S256.4,61.4,256.4,62.6z"/>
	<path class="st0" d="M277.4,84v2.2c0,0.5-0.1,0.5-0.6,0.6c-0.6,0-1.4,0-2.1,0c-0.4,0-0.6-0.1-0.6-0.5c0.1-2,0.1-4.3,0.1-7.1v-7.4
		c0-1.8,0-3.6-0.1-5.5c0-0.3,0.1-0.4,0.4-0.4c1.8,0.1,3.7,0.1,5.7,0.1h7.7c2.1,0,4.5,0,6.2-0.1c0.3,0,0.4,0.1,0.4,0.5
		c0,1.7,0,3.5,0,5.4v7.4c0,2.8,0.1,4.8,0.2,6.6c0,0.4-0.1,0.5-0.5,0.5c-0.7,0-1.6,0-2.3,0c-0.3,0-0.4-0.1-0.4-0.5V84H277.4z
		 M291.6,68.8h-14.2v12.4h14.2V68.8z"/>
	<path class="st0" d="M314.1,77.4c-3.1,0-4.5,0.4-4.8,0.4c-0.4,0-0.6-0.2-0.7-0.6c-0.1-0.6-0.3-2-0.4-3.2c2.1,0.3,4.4,0.3,7.4,0.3
		h10.6c2.4,0,5,0,7.6-0.1c0.4,0,0.5,0.1,0.5,0.4c0.1,0.7,0.1,1.6,0,2.4c0,0.4-0.1,0.5-0.5,0.4c-2.5,0-5.1-0.1-7.4-0.1H314.1z"/>
	<path class="st0" d="M357.4,67.5c1.2,0.1,2.5,0.3,3.3,0.5c0.3,0.1,0.4,0.3,0.4,0.6c-0.1,0.2-0.2,0.5-0.2,0.8
		c-0.1,0.4-0.1,0.8-0.1,1.3c0,0.8,0,1.4-0.1,2.4h4.4c2.1,0,4.7-0.1,6.5-0.2c0.3,0,0.3,0.1,0.4,0.4c0,0.7,0,1.5,0,2
		c0,0.4,0,0.5-0.4,0.5c-2.1-0.1-4.1-0.1-6.5-0.1h-4.4c-0.2,2.9-0.6,5.1-1.6,7.1c-1.2,2.5-3.1,4.9-5.5,6.5c-0.2,0.1-0.3,0.2-0.5,0.2
		c-0.1,0-0.3-0.1-0.5-0.2c-0.9-0.5-1.9-0.9-2.8-1.1c3.3-2,4.9-3.8,6.2-6.4c0.9-1.8,1.4-3.8,1.5-6.1h-6.2c-1.6,0-3.8,0-5.6,0.2
		c-0.4,0-0.5-0.2-0.6-0.6c-0.1-0.5-0.2-1.6-0.3-2.4c2.4,0.2,4.7,0.2,6.6,0.2h6.1c0-1,0-2.2,0-3.2c0-0.7-0.1-1.3-0.3-2.3
		c-2.4,0.4-5.5,1-8.4,1.2c-0.4,0.1-0.6-0.2-0.7-0.6c-0.2-0.5-0.6-1.2-1.4-1.9c4.2-0.2,6.8-0.6,10-1.3c2.4-0.5,4.3-1,5.9-1.6
		c1.4-0.5,1.9-0.8,2.6-1.3c0.9,0.6,1.8,1.3,2.2,1.8c0.3,0.2,0.4,0.5,0.4,0.8c0,0.3-0.3,0.4-0.8,0.5c-0.6,0.1-1.4,0.4-2,0.6
		c-2.4,0.7-4.8,1.3-7.2,1.7L357.4,67.5z"/>
</g>
</svg>
