<?xml version="1.0" encoding="utf-8"?>
<!-- Generator: Adobe Illustrator 25.4.1, SVG Export Plug-In . SVG Version: 6.00 Build 0)  -->
<svg version="1.1" id="レイヤー_1" xmlns="http://www.w3.org/2000/svg" xmlns:xlink="http://www.w3.org/1999/xlink" x="0px"
	 y="0px" width="500px" height="500px" viewBox="0 0 500 500" style="enable-background:new 0 0 500 500;" xml:space="preserve">
<style type="text/css">
	.st0{fill:#595757;}
</style>
<path class="st0" d="M492.7,165.4c-12.5-40-36.8-71.7-69.6-97.1C376.4,32.1,322.8,15.2,264.4,12c-18-1-36.1-0.2-54,2.2
	c-27.3,3.7-53.7,10.6-78.9,21.8c-40,17.7-74,43-99.3,79.1c-26.6,38-37.1,80.1-30.2,126c6.2,40.9,26,75,55.3,103.6
	c38.2,37.1,84.5,58.2,136.3,68c8.9,1.7,17.9,3.3,26.4,6c9,2.9,12.5,8.2,11.8,17.6c-0.9,12-2.7,23.9-4.5,35.8
	c-2.2,13.9,3.4,19.4,16.7,14.5c9.9-3.6,19.4-8.4,28.5-13.7c45.4-26.4,88.4-56.3,128.8-90c22.4-18.6,43.2-38.9,60.8-62.1
	c23.7-31.3,38.1-66,37.6-108.3C500.4,198,497.7,181.5,492.7,165.4z M161.8,272.4c-0.1,4.5-1.9,6.4-6.4,6.4c-22.2,0-44.4,0-66.5,0
	c-4.4,0-5.7-1.4-5.7-5.9c0-17.7,0-35.4,0-53.1c0-17.3,0-34.6,0-52c0-5.5,1-6.5,6.6-6.5c4.6,0,9.2,0,13.8,0c3.9,0,5.7,1.8,5.9,5.6
	c0.1,2.9,0,5.7,0,8.6c0,23.9,0,47.8,0,71.8c0,5.2,0,5.2,5.4,5.2c13.3,0,26.7,0,40,0c5.6,0,7,1.4,7,7.1
	C161.9,264,161.9,268.2,161.8,272.4z M203.7,271.7c0,5.9-1.3,7.1-7.3,7.2c-4.1,0-8.2,0-12.3,0c-5,0-6.6-1.6-6.6-6.4c0-35,0-70,0-105
	c0-4.6,1.4-6,6-6c4.7,0,9.5,0,14.2,0c4.7,0,6,1.4,6,6c0,17.6,0,35.1,0,52.7C203.7,237.3,203.7,254.5,203.7,271.7z M324.1,273.2
	c0,3.7-1.7,5.5-5.5,5.6c-5.1,0.1-10.3,0.5-15.3-0.2c-2.3-0.3-4.9-2.3-6.4-4.3c-15.2-20.2-30.2-40.6-45.2-60.9
	c-0.8-1.1-1.7-2-2.6-3.1c-0.4,0.1-0.7,0.2-1.1,0.3c-0.1,1.4-0.2,2.9-0.2,4.3c0,19.1,0,38.1,0,57.2c0,5.4-1.2,6.6-6.5,6.7
	c-4.5,0-9,0-13.5,0c-4.4,0-6.2-1.7-6.2-6c0-35.1,0-70.3,0-105.4c0-4.4,1.7-6,6.2-6c4.5,0,9,0.1,13.5-0.1c3.2-0.1,5.3,1.1,7.2,3.6
	c14.8,20.2,29.7,40.3,44.7,60.4c1.1,1.5,2.4,3,4.5,4.2c0.1-1.4,0.2-2.8,0.2-4.2c0-19.1,0-38.1,0-57.2c0-5.6,1.2-6.8,6.8-6.8
	c4.6,0,9.2,0,13.8,0c4.1,0.1,5.6,1.5,5.6,5.7C324.2,202.4,324.2,237.8,324.1,273.2z M420.7,226.5c0,5.6-1.2,6.7-6.9,6.7
	c-13.7,0-27.4,0.1-41.1-0.1c-3.5,0-4.6,1.2-4.4,4.5c0.2,3.5,0.2,7,0,10.5c-0.2,3.4,0.9,4.6,4.4,4.6c13.7-0.2,27.4-0.1,41.1-0.1
	c5.8,0,6.8,1,6.8,6.7c0,4.6,0,9.2,0,13.8c0,4.2-1.4,5.7-5.6,5.7c-22.3,0-44.6,0-66.9,0c-4.5,0-6.1-1.8-6.1-6.5c0-17.4,0-34.9,0-52.3
	c0-17.2,0-34.4,0-51.6c0-5.8,1.2-6.9,7-7c21.6,0,43.1,0,64.7,0c5.9,0,6.9,1,6.9,7c0,4.4,0,8.7,0,13.1c0,4.8-1.3,6.1-6.3,6.1
	c-14,0-27.9,0.1-41.9-0.1c-3.3,0-4.5,1-4.2,4.3c0.2,3.3,0,6.7,0,10.1c0,5,0,5.1,4.9,5.1c13.3,0,26.7,0,40,0c6.7,0,7.4,0.8,7.4,7.6
	C420.7,218.5,420.7,222.5,420.7,226.5z"/>
</svg>
