<?xml version="1.0" encoding="utf-8"?>
<!-- Generator: Adobe Illustrator 25.4.1, SVG Export Plug-In . SVG Version: 6.00 Build 0)  -->
<svg version="1.1" id="レイヤー_1" xmlns="http://www.w3.org/2000/svg" xmlns:xlink="http://www.w3.org/1999/xlink" x="0px"
	 y="0px" width="500px" height="500px" viewBox="0 0 500 500" style="enable-background:new 0 0 500 500;" xml:space="preserve">
<style type="text/css">
	.st0{fill:#595757;}
</style>
<g>
	<path class="st0" d="M250,456L250,456C250,455.6,250,455.8,250,456z"/>
	<path class="st0" d="M498.4,142.5C498,119,493.1,96.1,482.3,75C459.9,31.2,422.6,8.8,374.9,3.3C352.6,0.7,330,0,307.6,0
		C252.3,0,197,0.1,141.8,1.7c-41.7,1.2-79,14.7-107,47.7C12.3,75.8,4.1,107.3,1.7,141c-0.4,6.3-1.1,12.6-1.7,18.9
		c0,60,0,120.1,0,180.1c1.6,14.5,2.5,29.2,4.9,43.5C15.5,447,61.1,489.6,125.6,496.7c11.5,1.3,23,2.2,34.5,3.3c60,0,120.1,0,180.1,0
		c14.3-1.5,28.7-2.4,42.8-4.8c64.6-11,107.3-56.2,113.9-121.3c2.2-22.1,3.2-44.3,3.2-66.5C500,252.5,499.4,197.5,498.4,142.5z
		 M453.1,356c-0.4,28.7-8.8,55.4-32.1,75c-19.8,16.6-43.6,21.6-68.4,22.1c-34.1,0.7-68.3,3-102.5,3c0,0.5,0,0.2,0,0
		c-39.4-1.4-78.9-1.5-118.1-4.6c-48.3-3.9-80-34.9-83.1-83.2c-3.2-49.5-3.1-99.3-3.3-149c-0.1-29.4,0.5-58.9,3.2-88.2
		c4.3-47.7,35.1-79.4,83-82.5c49.5-3.2,99.3-3,149-3.4c27.5-0.2,55.1-0.3,82.4,2.6c58.3,6.1,88.3,37.1,89.9,95.9
		C454.8,214.3,454,285.2,453.1,356z"/>
	<path class="st0" d="M250.3,121.4c-70.9-0.1-128.4,57-128.6,128c-0.3,71,56.7,128.6,127.5,129c71.4,0.4,129.2-56.7,129.5-128
		C378.9,179,321.6,121.5,250.3,121.4z M249.4,333.1c-45.6-0.2-82.7-38-82.5-84c0.2-45.6,38-82.7,84-82.5c45.6,0.2,82.7,38,82.5,84
		C333.2,296.2,295.4,333.3,249.4,333.1z"/>
	<path class="st0" d="M383.9,86.4c-16.9-0.1-30.2,13-30.4,29.7c-0.1,16.8,13.1,30.2,29.8,30.4c16.8,0.1,30.2-13,30.3-29.8
		C413.7,99.7,400.7,86.5,383.9,86.4z"/>
</g>
</svg>
