<?xml version="1.0" encoding="utf-8"?>
<!-- Generator: Adobe Illustrator 25.4.1, SVG Export Plug-In . SVG Version: 6.00 Build 0)  -->
<svg version="1.1" id="レイヤー_1" xmlns="http://www.w3.org/2000/svg" xmlns:xlink="http://www.w3.org/1999/xlink" x="0px"
	 y="0px" width="500px" height="500px" viewBox="0 0 500 500" style="enable-background:new 0 0 500 500;" xml:space="preserve">
<style type="text/css">
	.st0{fill:#595757;}
</style>
<path class="st0" d="M250,447.5c-8.8,0-17.6-2.9-24.8-8.8L14.7,268.5C5.4,261,0,249.7,0,237.8V92c0-21.8,17.7-39.5,39.5-39.5
	S79,70.2,79,92v127l171,138.3L421,219V92c0-21.8,17.7-39.5,39.5-39.5S500,70.2,500,92v145.8c0,11.9-5.4,23.2-14.7,30.7L274.8,438.7
	C267.6,444.6,258.8,447.5,250,447.5z"/>
</svg>
