<?xml version="1.0" encoding="utf-8"?>
<!-- Generator: Adobe Illustrator 26.0.1, SVG Export Plug-In . SVG Version: 6.00 Build 0)  -->
<svg version="1.1" id="レイヤー_1" xmlns="http://www.w3.org/2000/svg" xmlns:xlink="http://www.w3.org/1999/xlink" x="0px"
	 y="0px" viewBox="0 0 129 129" style="enable-background:new 0 0 129 129;" xml:space="preserve">
<style type="text/css">
	.st0{fill:#606060;}
</style>
<path class="st0" d="M64.5,129C28.9,129,0,100.1,0,64.5S28.9,0,64.5,0S129,28.9,129,64.5S100.1,129,64.5,129z M64.5,1
	C29.5,1,1,29.5,1,64.5c0,35,28.5,63.5,63.5,63.5c35,0,63.5-28.5,63.5-63.5C128,29.5,99.5,1,64.5,1z"/>
<g>
	<path class="st0" d="M23,53.3c-0.9,0-1.2,0-1.2,0c-0.1,0-0.1,0-0.1-0.1v-0.5c0-0.1,0-0.1,0.1-0.1c0,0,0.3,0,1.2,0h1.9
		c0.9,0,1.2,0,1.2,0c0.1,0,0.1,0,0.1,0.1v0.5c0,0.1,0,0.1-0.1,0.1c-0.1,0-0.3,0-1.2,0h-0.1v1.1c0.7,0,1,0,1,0c0.1,0,0.1,0,0.1,0.1
		c0,0,0,0.3,0,0.9c0.6-0.7,1.1-1.7,1.4-2.6c0.1-0.3,0.1-0.5,0.1-0.7c0.3,0,0.5,0.1,0.7,0.2c0.1,0,0.1,0.1,0.1,0.1c0,0,0,0.1-0.1,0.1
		c-0.1,0.1-0.1,0.2-0.2,0.4c-0.1,0.3-0.2,0.6-0.3,0.9h1.7c0.9,0,1.2,0,1.3,0c0.1,0,0.1,0,0.1,0.1v0.6c0,0.1,0,0.1-0.1,0.1
		c-0.1,0-0.4,0-1.3,0h-0.8v1.3h0.9c0.6,0,0.8,0,0.9,0c0.1,0,0.1,0,0.1,0.1v0.6c0,0.1,0,0.1-0.1,0.1c-0.1,0-0.2,0-0.9,0h-0.9v1.4h0.9
		c0.6,0,0.8,0,0.9,0c0.1,0,0.1,0,0.1,0.1v0.6c0,0.1,0,0.1-0.1,0.1c0,0-0.2,0-0.9,0h-0.9v0.8c0,1,0,1.5,0,1.6c0,0.1,0,0.1-0.1,0.1
		h-0.6c-0.1,0-0.1,0-0.1-0.1c0,0,0-0.5,0-1.6v-5h-0.4c-0.2,0.4-0.5,0.9-0.8,1.3C26.5,56,26.4,56,26.4,56c0,0-0.1,0-0.2-0.1
		c-0.1-0.1-0.2-0.2-0.4-0.3v2.6c0,2.3,0,2.7,0,2.8c0,0.1,0,0.1-0.1,0.1h-0.5c-0.1,0-0.1,0-0.1-0.1v-0.4h-2.5v0.6
		c0,0.1,0,0.1-0.1,0.1h-0.5c-0.1,0-0.1,0-0.1-0.1c0-0.1,0-0.5,0-2.8v-1.7c0-1.6,0-2.1,0-2.1c0-0.1,0-0.1,0.1-0.1c0.1,0,0.3,0,1,0
		v-1.1H23z M23.7,55c0,0.4,0,0.9,0,1.3c-0.1,0.6-0.2,1-0.5,1.5c0,0.1-0.1,0.1-0.1,0.1c0,0-0.1,0-0.1-0.1c-0.1-0.1-0.2-0.3-0.3-0.3v1
		h2.5v-1c-0.1,0-0.2,0-0.4,0c-0.2,0-0.4,0-0.5-0.1c-0.1-0.1-0.2-0.3-0.2-0.6V55H23.7z M22.7,57.4c0.3-0.4,0.4-0.7,0.4-1.4
		c0-0.4,0-0.7,0-1h-0.5V57.4z M25.2,60v-0.9h-2.5V60H25.2z M24.2,54.4v-1.1h-0.5v1.1H24.2z M24.7,55v1.2c0,0.2,0,0.3,0,0.4
		c0.1,0.1,0.2,0.1,0.3,0.1h0.2V55H24.7z"/>
	<path class="st0" d="M35.9,58.1c0,2.2,0,2.5,0,2.6c0.9-0.2,1.7-0.6,2.2-1.1c-0.3-0.3-0.5-0.7-0.8-1.1c-0.2,0.3-0.5,0.5-0.8,0.8
		c-0.1,0.1-0.1,0.1-0.2,0.1c0,0-0.1,0-0.2-0.2c-0.1-0.1-0.2-0.2-0.3-0.3c0.8-0.5,1.3-1.2,1.7-2c0.1-0.2,0.2-0.5,0.2-0.7
		c0.2,0,0.4,0.1,0.6,0.2c0.1,0,0.1,0.1,0.1,0.1c0,0.1,0,0.1-0.1,0.2c-0.1,0-0.1,0.2-0.2,0.3l-0.1,0.2h1.4c0.1,0,0.2,0,0.2,0
		s0.1,0,0.1,0c0.1,0,0.1,0.1,0.3,0.2c0.1,0.1,0.2,0.2,0.2,0.3c0,0.1,0,0.1-0.1,0.1c-0.1,0-0.2,0.2-0.2,0.4c-0.2,0.5-0.5,0.9-0.9,1.3
		c0.6,0.4,1.3,0.7,2.2,0.9c-0.1,0.1-0.2,0.3-0.3,0.6c0,0.1-0.1,0.2-0.1,0.2c0,0-0.1,0-0.2,0c-0.8-0.3-1.5-0.6-2.1-1.1
		c-0.6,0.5-1.3,0.9-2.2,1.2c-0.1,0-0.1,0-0.2,0c-0.1,0-0.1,0-0.2-0.2c-0.1-0.1-0.1-0.2-0.2-0.4h-0.5c-0.1,0-0.1,0-0.1-0.1v-0.4h-2.2
		v0.8c0,0.1,0,0.1-0.1,0.1h-0.5c-0.1,0-0.1,0-0.1-0.1c0-0.1,0-0.5,0-2.8v-1.7c0-1.6,0-2,0-2.1c0-0.1,0-0.1,0.1-0.1c0,0,0.3,0,0.9,0
		v-1.1h-0.1c-0.8,0-1.1,0-1.1,0c-0.1,0-0.1,0-0.1-0.1v-0.5c0-0.1,0-0.1,0.1-0.1c0.1,0,0.3,0,1.1,0h1.7c0.8,0,1.1,0,1.2,0
		c0.1,0,0.1,0,0.1,0.1v0.5c0,0.1,0,0.1-0.1,0.1c0,0-0.3,0-1.2,0H35v1.1c0.6,0,0.8,0,0.9,0c0.1,0,0.1,0,0.1,0.1c0,0.1,0,0.5,0,1.8
		v0.2c0.7-0.3,1.1-0.7,1.3-1.3c0.1-0.2,0.1-0.4,0.1-0.5c0.2,0,0.5,0.1,0.6,0.2c0.1,0,0.1,0.1,0.1,0.1c0,0.1,0,0.1-0.1,0.1
		c-0.1,0.1-0.1,0.2-0.2,0.3c-0.2,0.7-0.6,1.1-1.3,1.5c-0.1,0-0.1,0.1-0.2,0.1c-0.1,0-0.1-0.1-0.2-0.2c-0.1-0.1-0.2-0.3-0.3-0.3V58.1
		z M34,55c0,0.6,0,1-0.1,1.2c-0.1,0.6-0.2,1-0.4,1.4c0,0.1-0.1,0.1-0.1,0.1c0,0,0,0-0.1-0.1l-0.2-0.3v0.8h2.2v-0.9h-0.2
		c-0.2,0-0.4,0-0.5-0.1c-0.1-0.1-0.2-0.2-0.2-0.6V55H34z M33.1,57.3c0.2-0.3,0.4-0.8,0.4-1.3c0-0.3,0-0.7,0-1h-0.4V57.3z M35.3,59.6
		v-0.8h-2.2v0.8H35.3z M34.4,54.4v-1.1H34v1.1H34.4z M34.9,55v1.3c0,0.2,0,0.3,0,0.4c0.1,0.1,0.1,0.1,0.3,0.1h0.1V55H34.9z
		 M39.6,52.8c0.1-0.1,0.1-0.1,0.2,0c0.5,0.4,1,1,1.3,1.6c0,0.1,0.1,0.1-0.1,0.2l-0.3,0.2c-0.1,0-0.1,0.1-0.1,0.1s-0.1,0-0.1-0.1
		c-0.1-0.2-0.2-0.3-0.3-0.5c-1.1,0.1-2,0.2-3.2,0.3c-0.2,0-0.3,0-0.4,0.1c0,0-0.1,0.1-0.1,0.1c-0.1,0-0.1,0-0.1-0.1
		c-0.1-0.2-0.1-0.4-0.1-0.7c0.3,0,0.5,0,0.8,0c0.2-0.4,0.3-0.6,0.5-1c0.1-0.2,0.2-0.5,0.2-0.7c0.3,0.1,0.5,0.1,0.7,0.2
		c0.1,0,0.1,0.1,0.1,0.1c0,0.1,0,0.1-0.1,0.1c-0.1,0.1-0.2,0.2-0.2,0.4c-0.1,0.3-0.2,0.5-0.4,0.8c0.7,0,1.3-0.1,2-0.2
		c-0.2-0.2-0.3-0.4-0.5-0.5c0,0,0-0.1,0-0.1c0,0,0-0.1,0.1-0.1L39.6,52.8z M37.8,57.9c0.2,0.5,0.5,0.9,0.8,1.2
		c0.4-0.4,0.7-0.8,0.9-1.3h-1.6L37.8,57.9z M39.4,55.6c0,0.1,0,0.2,0.1,0.2c0.1,0.1,0.2,0.1,0.4,0.1c0.3,0,0.4,0,0.5-0.1
		c0.1-0.1,0.2-0.3,0.2-0.7c0.1,0.1,0.2,0.2,0.4,0.2c0.2,0.1,0.2,0.1,0.2,0.3c-0.1,0.4-0.2,0.6-0.4,0.8c-0.2,0.1-0.4,0.2-0.9,0.2
		c-0.6,0-0.8,0-0.9-0.1c-0.1-0.1-0.2-0.3-0.2-0.6v-0.5c0-0.3,0-0.5,0-0.8c0.2,0,0.5,0,0.6,0.1c0.1,0,0.2,0.1,0.2,0.1s0,0.1,0,0.1
		c0,0.1,0,0.2,0,0.4V55.6z"/>
	<path class="st0" d="M45.5,55.5c1.2,0.4,2.2,0.8,3.2,1.4c0.1,0.1,0.1,0.1,0.1,0.2c-0.1,0.2-0.2,0.5-0.3,0.6c0,0.1-0.1,0.1-0.1,0.1
		c0,0,0,0-0.1,0c-0.9-0.6-1.9-1.1-2.8-1.3v2.3c0,0.6,0,1.3,0,2c0,0.1,0,0.1-0.2,0.1c-0.2,0-0.5,0-0.7,0c-0.1,0-0.2,0-0.2-0.1
		c0-0.7,0-1.4,0-2v-4.7c0-0.8,0-1.2-0.1-1.5c0.4,0,0.8,0.1,1,0.1c0.1,0,0.1,0.1,0.1,0.1c0,0.1,0,0.1-0.1,0.2c-0.1,0.2-0.1,0.4-0.1,1
		V55.5z"/>
	<path class="st0" d="M56.7,55h-3.6c-0.6,0-1.1,0-1.5,0.1c-0.1,0-0.1,0-0.1-0.1c0-0.2,0-0.6,0-0.8c0.6,0.1,1,0.1,1.6,0.1h2.7
		c0.5,0,1.1,0,1.6,0c0.2,0,0.2,0,0.2,0.2c0,0.5,0,1,0,1.5v2.3c0,0.7,0,1.4,0,1.7c0,0.1,0,0.1-0.1,0.1c-0.2,0-0.5,0-0.6,0
		c-0.1,0-0.2,0-0.2-0.1v-0.4h-3.5c-0.6,0-1.1,0-1.6,0c-0.1,0-0.1,0-0.1-0.1c0-0.2,0-0.5,0-0.8c0.5,0,1.1,0,1.8,0h3.5V55z"/>
	<path class="st0" d="M62.6,54.6c-0.6,0-1.2,0-1.7,0.1c-0.1,0-0.2,0-0.2-0.2c0-0.2-0.1-0.6-0.1-0.8c0.5,0.1,1.1,0.1,1.9,0.1h3.6
		c0.3,0,0.4,0,0.5-0.1c0,0,0.1,0,0.1,0s0.1,0,0.2,0.1c0.2,0.1,0.4,0.3,0.6,0.5c0,0.1,0.1,0.1,0.1,0.2c0,0.1,0,0.1-0.1,0.2
		c-0.1,0.1-0.2,0.2-0.2,0.4c-0.5,1.2-1.1,2.4-2,3.3c-0.8,0.9-1.8,1.8-2.9,2.4c-0.1,0-0.1,0.1-0.2,0.1c-0.1,0-0.1,0-0.2-0.1
		c-0.2-0.2-0.4-0.3-0.7-0.4c1.5-0.8,2.4-1.5,3.2-2.5c0.8-0.9,1.4-1.9,1.8-3.1H62.6z"/>
	<path class="st0" d="M73.5,59.4h1.2c0.5,0,1,0,1.5,0c0.1,0,0.1,0,0.1,0.1V60c0,0.1,0,0.2-0.1,0.2c-0.5,0-1,0-1.5,0h-3.2
		c-0.5,0-1,0-1.4,0c-0.1,0-0.1,0-0.1-0.2c0-0.1,0-0.4,0-0.7c0.5,0,1,0,1.5,0h1.2v-2.7H72c-0.4,0-0.8,0-1.2,0c-0.1,0-0.1,0-0.1-0.2
		c0-0.1,0-0.4,0-0.6c0.4,0,0.9,0.1,1.3,0.1h2.1c0.5,0,0.9,0,1.4,0c0.1,0,0.1,0,0.1,0.1c0,0.1,0,0.3,0,0.5c0,0.1,0,0.2-0.2,0.2
		c-0.4,0-0.9,0-1.3,0h-0.6V59.4z"/>
	<path class="st0" d="M80.2,59.2v0.6c0,0.1,0,0.2-0.2,0.2c-0.2,0-0.4,0-0.6,0c-0.1,0-0.2,0-0.2-0.1c0-0.6,0-1.3,0-2.1v-2.2
		c0-0.5,0-1.1,0-1.6c0-0.1,0-0.1,0.1-0.1c0.5,0,1.1,0,1.7,0h2.3c0.6,0,1.3,0,1.8,0c0.1,0,0.1,0,0.1,0.2c0,0.5,0,1,0,1.6v2.2
		c0,0.8,0,1.4,0,1.9c0,0.1,0,0.2-0.2,0.2c-0.2,0-0.5,0-0.7,0c-0.1,0-0.1,0-0.1-0.1v-0.6H80.2z M84.3,54.8h-4.2v3.7h4.2V54.8z"/>
	<path class="st0" d="M90,57.3c-0.9,0-1.3,0.1-1.4,0.1c-0.1,0-0.2-0.1-0.2-0.2c0-0.2-0.1-0.6-0.1-1c0.6,0.1,1.3,0.1,2.2,0.1h3.1
		c0.7,0,1.5,0,2.2,0c0.1,0,0.2,0,0.2,0.1c0,0.2,0,0.5,0,0.7c0,0.1,0,0.1-0.2,0.1c-0.8,0-1.5,0-2.2,0H90z"/>
	<path class="st0" d="M100.9,54.2c0.1,0,0.2,0.1,0.1,0.3c-0.1,0.2-0.1,0.4-0.1,0.7c0,1.2-0.2,2.1-0.6,2.8c-0.3,0.7-0.8,1.3-1.4,1.8
		C98.8,60,98.8,60,98.7,60c0,0-0.1,0-0.1-0.1c-0.2-0.1-0.4-0.2-0.7-0.3c0.7-0.5,1.3-1.1,1.6-1.9c0.3-0.7,0.5-1.4,0.5-2.7
		c0-0.4,0-0.6-0.1-1C100.3,54.1,100.7,54.2,100.9,54.2z M103.1,58.6c0.6-0.3,1.1-0.6,1.6-1c0.6-0.4,1.2-1,1.8-1.7
		c0,0.3,0.1,0.5,0.2,0.8c0,0,0,0.1,0,0.1c0,0.1,0,0.1-0.1,0.2c-0.5,0.5-1,1-1.5,1.4c-0.5,0.4-1.1,0.8-1.8,1.1
		c-0.2,0.1-0.2,0.1-0.3,0.2c0,0-0.1,0.1-0.2,0.1c-0.1,0-0.1,0-0.2-0.1c-0.2-0.1-0.4-0.3-0.5-0.5c0-0.1-0.1-0.1-0.1-0.2
		c0,0,0-0.1,0-0.1c0.1-0.1,0.1-0.3,0.1-0.9v-3c0-0.9,0-1.4-0.1-1.8c0.3,0,0.8,0.1,1,0.2c0.1,0,0.1,0.1,0.1,0.2c0,0,0,0.1-0.1,0.2
		c-0.1,0.2-0.1,0.5-0.1,1.2V58.6z"/>
	<path class="st0" d="M41.3,70.1c-1.7,1.4-2.2,2.8-2.2,4.6c0,1.8,0.6,3.2,2.2,4.6L41,79.6c-1.9-1.4-2.7-2.9-2.7-4.9s0.8-3.5,2.7-4.9
		L41.3,70.1z"/>
	<path class="st0" d="M44.9,74.1c0.9-0.3,1.9-0.6,2.7-1c0.5-0.2,0.8-0.4,1-0.7c0.3,0.2,0.5,0.5,0.7,0.7c0,0,0.1,0.1,0.1,0.2
		c0,0.1,0,0.1-0.1,0.2c-0.2,0.1-0.5,0.2-0.9,0.4c-1,0.4-2.2,0.9-3.4,1.2v1.6c0,0.5,0.1,0.7,0.4,0.8c0.4,0.1,0.8,0.1,1.4,0.1
		c0.8,0,1.7-0.1,2.7-0.2c0.1,0,0.1,0,0.1,0.1c0,0.2,0.1,0.5,0.1,0.7c0,0.1,0,0.1-0.2,0.2c-1.1,0.1-1.7,0.2-2.8,0.2
		c-0.8,0-1.4-0.1-1.8-0.2c-0.5-0.2-0.8-0.6-0.8-1.3V73c0-0.9,0-1.3-0.1-1.8c0.4,0,0.8,0.1,1,0.2c0.1,0,0.1,0.1,0.1,0.1
		c0,0.1,0,0.1-0.1,0.2c-0.1,0.2-0.1,0.5-0.1,1.1V74.1z M49.1,71.1c0.1,0,0.1,0,0.1,0c0.4,0.3,0.8,0.8,1.1,1.2c0,0,0,0.1,0,0.1
		l-0.4,0.3c-0.1,0-0.1,0-0.2,0c-0.3-0.5-0.7-0.9-1.1-1.3L49.1,71.1z M50,70.4c0.1,0,0.1,0,0.1,0c0.4,0.3,0.8,0.8,1.1,1.2
		c0,0.1,0,0.1,0,0.2L50.9,72c-0.1,0-0.1,0-0.1,0c-0.3-0.4-0.7-0.9-1.1-1.3L50,70.4z"/>
	<path class="st0" d="M58.3,72c0.3,0,0.4,0,0.5-0.1c0.1,0,0.1-0.1,0.1-0.1c0.1,0,0.1,0,0.1,0.1c0.2,0.1,0.4,0.3,0.6,0.5
		c0,0,0.1,0.1,0.1,0.1c0,0.1,0,0.1-0.1,0.2c-0.1,0.1-0.2,0.2-0.3,0.3c-0.4,0.9-1,1.8-1.5,2.6c0.4,0.3,0.8,0.7,1.2,1.1
		c0,0,0,0.1,0,0.1c0,0,0,0.1,0,0.1c-0.1,0.2-0.3,0.4-0.4,0.5c0,0-0.1,0-0.1,0s-0.1,0-0.1,0c-0.3-0.3-0.7-0.7-1.1-1
		c-1,1.1-2.1,2-3.4,2.6c-0.1,0-0.1,0.1-0.2,0.1c0,0-0.1,0-0.1-0.1c-0.2-0.2-0.5-0.3-0.7-0.4c1.5-0.8,2.7-1.6,3.7-2.8
		c-0.4-0.3-0.9-0.7-1.5-1c0.1-0.2,0.3-0.4,0.5-0.5c0.1-0.1,0.1-0.1,0.2,0c0.4,0.2,0.9,0.5,1.4,0.9c0.5-0.7,1-1.5,1.3-2.3l-2.7,0.1
		c-0.8,1-1.3,1.6-2.2,2.3c-0.1,0-0.1,0.1-0.2,0.1c0,0-0.1,0-0.1-0.1c-0.2-0.1-0.4-0.3-0.6-0.3c1.4-1.1,2.2-2.1,2.9-3.2
		c0.3-0.5,0.4-0.7,0.5-1.1c0.3,0.1,0.7,0.2,0.9,0.4c0.1,0,0.1,0.1,0.1,0.1c0,0.1,0,0.1-0.1,0.2c-0.1,0.1-0.2,0.2-0.2,0.3
		c-0.1,0.2-0.2,0.3-0.3,0.5L58.3,72z"/>
	<path class="st0" d="M63,76.5c0-0.1,0.1-0.1,0.2-0.1c1.5,0.3,3.2,0.8,4.7,1.5c0.1,0,0.1,0.1,0.1,0.2c-0.1,0.2-0.2,0.4-0.3,0.6
		c0,0.1-0.1,0.1-0.1,0.1c0,0-0.1,0-0.1,0c-1.5-0.8-3.2-1.3-4.8-1.6C62.7,77,62.9,76.7,63,76.5z M63.1,73.5c0-0.1,0.1-0.1,0.2-0.1
		c1,0.2,2.1,0.6,3,1c0.1,0.1,0.1,0.1,0.1,0.2c-0.1,0.2-0.2,0.4-0.2,0.6c0,0.1-0.1,0.1-0.1,0.1c0,0-0.1,0-0.1,0
		c-1-0.5-2.1-0.8-3.2-1.1C62.9,73.9,63,73.6,63.1,73.5z M63.8,70.9c0.1-0.1,0.1-0.1,0.2-0.1c1.1,0.2,2.4,0.6,3.5,1
		c0.1,0.1,0.1,0.1,0.1,0.2c0,0.2-0.2,0.5-0.3,0.6c0,0.1-0.1,0.1-0.1,0.1c0,0-0.1,0-0.1,0c-1.1-0.5-2.5-0.9-3.7-1.1
		C63.6,71.4,63.7,71,63.8,70.9z"/>
	<path class="st0" d="M71.2,71.6c0,0,0.1-0.1,0.1-0.1c0,0,0.1,0,0.1,0c0.5,0.3,1.3,0.8,1.9,1.4c0,0,0.1,0.1,0.1,0.1c0,0,0,0.1,0,0.1
		c-0.1,0.2-0.4,0.5-0.5,0.6c0,0-0.1,0.1-0.1,0.1c0,0,0,0-0.1-0.1c-0.6-0.6-1.3-1.1-2-1.5C70.8,72,71,71.8,71.2,71.6z M72,76.9
		c1.1-0.6,1.9-1.1,2.9-1.8c1.1-0.9,1.9-1.6,2.7-2.7c0,0.4,0.1,0.6,0.2,0.9c0,0.1,0,0.1,0,0.2c0,0.1,0,0.2-0.1,0.2
		c-0.6,0.7-1.5,1.5-2.4,2.2c-0.8,0.7-1.8,1.3-3,1.9c-0.4,0.2-0.5,0.3-0.6,0.4c0,0-0.1,0.1-0.1,0.1s-0.1,0-0.2-0.1
		c-0.2-0.2-0.4-0.5-0.6-0.9C71.3,77.3,71.6,77.2,72,76.9z"/>
	<path class="st0" d="M84.5,78.6h-0.9c-1.9,0-2.7-1.1-2.7-3.1v-1.4c0-0.6,0.1-1.5,0.3-2c0.2-0.7,0.5-1,0.9-1H86v0.4
		c0,0.3-0.2,0.5-0.7,0.5h-3.1c-0.2,0.6-0.3,1.5-0.3,2.3h3.2v0.3c0,0.3-0.2,0.5-0.6,0.5h-2.6v0.6c0,1.5,0.6,2,2,2h0.6
		c0.6,0,1.1-0.1,1.4-0.2v0.3C85.9,78.3,85.7,78.6,84.5,78.6z"/>
	<path class="st0" d="M87.5,69.8c1.9,1.4,2.7,2.9,2.7,4.9s-0.8,3.4-2.7,4.9l-0.2-0.3c1.7-1.4,2.2-2.8,2.2-4.6c0-1.8-0.6-3.2-2.2-4.6
		L87.5,69.8z"/>
</g>
</svg>
