<?xml version="1.0" encoding="utf-8"?>
<!-- Generator: Adobe Illustrator 26.0.1, SVG Export Plug-In . SVG Version: 6.00 Build 0)  -->
<svg version="1.1" id="レイヤー_1" xmlns="http://www.w3.org/2000/svg" xmlns:xlink="http://www.w3.org/1999/xlink" x="0px"
	 y="0px" viewBox="0 0 129 129" style="enable-background:new 0 0 129 129;" xml:space="preserve">
<style type="text/css">
	.st0{fill:#606060;}
</style>
<path class="st0" d="M64.5,129C28.9,129,0,100.1,0,64.5S28.9,0,64.5,0S129,28.9,129,64.5S100.1,129,64.5,129z M64.5,1
	C29.5,1,1,29.5,1,64.5c0,35,28.5,63.5,63.5,63.5c35,0,63.5-28.5,63.5-63.5C128,29.5,99.5,1,64.5,1z"/>
<g>
	<path class="st0" d="M52,55c0.1,0,0.2,0,0.2,0c0,0,0.1,0,0.1,0c0.1,0,0.2,0.1,0.3,0.2c0.2,0.2,0.2,0.3,0.2,0.4c0,0.1,0,0.1-0.1,0.2
		c-0.1,0.1-0.1,0.1-0.2,0.3c-0.5,1.6-1.4,2.9-2.8,4c-0.1,0.1-0.1,0.1-0.2,0.1c-0.1,0-0.1,0-0.2-0.2c-0.1-0.2-0.3-0.3-0.4-0.4
		c1.4-1,2.3-2.2,2.8-3.8h-1.3c-0.7,0-1,0-1,0c-0.1,0-0.1,0-0.1-0.1V55c0-0.1,0-0.1,0.1-0.1c0,0,0.3,0,1,0H52z M54.2,53.9
		c0.2,0.8,0.5,1.5,0.9,2.2c0.6-0.5,1-0.9,1.5-1.5c0.1-0.2,0.2-0.3,0.3-0.5c0.3,0.2,0.5,0.3,0.7,0.4c0.1,0.1,0.1,0.1,0.1,0.2
		c0,0.1-0.1,0.1-0.1,0.1c-0.1,0-0.2,0.2-0.5,0.4c-0.4,0.4-0.9,1-1.6,1.5c0.8,1.1,1.8,2,2.9,2.6c-0.2,0.1-0.3,0.3-0.4,0.5
		c-0.1,0.1-0.1,0.2-0.1,0.2s-0.1,0-0.2-0.1c-1.5-0.9-2.9-2.6-3.5-4.4c0,1.6,0.1,3.5,0.1,4.6c0,0.4-0.1,0.6-0.4,0.8
		c-0.2,0.1-0.6,0.2-1.3,0.2c-0.2,0-0.2,0-0.3-0.3c-0.1-0.2-0.2-0.4-0.3-0.6c0.3,0,0.6,0,0.9,0c0.4,0,0.5-0.1,0.5-0.4v-6.5
		c0-0.5,0-0.8-0.1-1.1c0.3,0,0.6,0,0.8,0.1c0.1,0,0.2,0.1,0.2,0.1c0,0.1,0,0.2-0.1,0.2c0,0.1-0.1,0.3-0.1,0.7V53.9z"/>
	<path class="st0" d="M60,55c0.1-0.1,0.1-0.1,0.2-0.1c0.5,0.3,0.9,0.6,1.4,1c0,0,0.1,0,0.1,0.1c0,0,0,0.1-0.1,0.1l-0.3,0.4
		c0,0.1-0.1,0.1-0.1,0.1c0,0,0,0-0.1,0c-0.4-0.4-0.9-0.8-1.3-1.1c0,0-0.1,0-0.1-0.1c0,0,0,0,0-0.1L60,55z M60.3,59.9
		c0.2-0.5,0.5-1.3,0.8-2.2c0.1,0.1,0.3,0.3,0.4,0.4c0.1,0.1,0.2,0.1,0.2,0.2c0,0,0,0.1,0,0.2c-0.3,0.8-0.5,1.5-0.8,2.2
		c-0.1,0.2-0.2,0.3-0.2,0.4c0,0.1,0,0.1-0.1,0.1c0,0-0.1,0-0.2-0.1c-0.2-0.1-0.4-0.2-0.6-0.4C60,60.4,60.1,60.2,60.3,59.9z
		 M60.5,52.4c0.1-0.1,0.1-0.1,0.2-0.1c0.5,0.3,0.9,0.7,1.3,1.1c0.1,0.1,0,0.1,0,0.2L61.7,54c-0.1,0.1-0.1,0.1-0.2,0.1
		c-0.4-0.4-0.9-0.8-1.3-1.1c0,0-0.1,0-0.1-0.1s0-0.1,0.1-0.1L60.5,52.4z M63.1,59c0-0.4,0-0.6,0-0.8c-0.2,0.1-0.4,0.2-0.6,0.3
		c-0.1,0.1-0.2,0.1-0.2,0.1c-0.1,0-0.1-0.1-0.1-0.2c-0.1-0.2-0.2-0.3-0.3-0.4c1.2-0.5,2.3-1.2,2.9-2.1c0.2-0.2,0.2-0.4,0.3-0.6
		c0.3,0.1,0.5,0.1,0.7,0.2c0.1,0,0.1,0.1,0.1,0.1c0,0,0,0.1-0.1,0.1l0,0c0.8,1.1,2,1.8,3.3,2.2c-0.1,0.1-0.2,0.3-0.3,0.5
		c0,0.1-0.1,0.2-0.1,0.2c0,0-0.1,0-0.2-0.1c-0.3-0.1-0.5-0.2-0.8-0.4c0,0.1,0,0.3,0,0.6v0.8c0,1.2,0,1.5,0,1.5c0,0.1,0,0.1-0.1,0.1
		h-0.6c-0.1,0-0.1,0-0.1-0.1v-0.4h-3v0.4c0,0.1,0,0.1-0.1,0.1h-0.6c-0.1,0-0.1,0-0.1-0.1c0-0.1,0-0.3,0-1.5V59z M64.6,54.7
		c0.1,0,0.1,0.1,0.1,0.1c0,0.1,0,0.1-0.1,0.1c-0.1,0-0.2,0.1-0.3,0.2c-0.4,0.5-0.9,0.9-1.5,1.3c-0.1,0.1-0.1,0.1-0.2,0.1
		c-0.1,0-0.1,0-0.2-0.2c-0.1-0.1-0.2-0.2-0.4-0.4c0.7-0.3,1.2-0.7,1.5-1.1c0.1-0.2,0.3-0.4,0.3-0.5C64.2,54.5,64.5,54.6,64.6,54.7z
		 M63,54.8c0,0.1,0,0.1-0.1,0.1h-0.5c-0.1,0-0.1,0-0.1-0.1c0,0,0-0.2,0-0.9v-0.2c0-0.2,0-0.4,0-0.4c0-0.1,0-0.1,0.1-0.1
		c0,0,0.4,0,1.4,0h1.1v-0.2c0-0.4,0-0.6-0.1-0.9c0.3,0,0.6,0,0.8,0c0.1,0,0.2,0.1,0.2,0.1c0,0.1,0,0.1,0,0.2c0,0.1-0.1,0.2-0.1,0.6
		v0.2H67c1,0,1.4,0,1.4,0c0.1,0,0.1,0,0.1,0.1c0,0.1,0,0.2,0,0.4v0.3c0,0.7,0,0.8,0,0.8c0,0.1,0,0.1-0.1,0.1h-0.5
		c-0.1,0-0.1,0-0.1-0.1v-0.9H63V54.8z M67.1,58c-0.7-0.5-1.4-1-1.9-1.7c-0.5,0.7-1.1,1.3-1.8,1.7H67.1z M63.8,60.2h3v-1.5h-3V60.2z
		 M66.3,54.4C66.3,54.4,66.3,54.4,66.3,54.4c0.1,0,0.1,0,0.2,0c0.5,0.6,1.2,1.1,2.1,1.4c-0.1,0.1-0.2,0.3-0.3,0.4
		c-0.1,0.1-0.1,0.2-0.2,0.2c0,0-0.1,0-0.2-0.1c-0.8-0.4-1.4-0.9-2-1.6c-0.1-0.1-0.1-0.1,0-0.1L66.3,54.4z"/>
	<path class="st0" d="M71,54.4c0.1,0,0.1,0,0.1,0.1c0,0.8-0.2,1.5-0.4,2.1c0,0.1-0.1,0.1-0.2,0l-0.4-0.1c-0.1,0-0.1-0.1-0.1-0.2
		c0.2-0.6,0.3-1.2,0.4-2c0-0.1,0-0.1,0.1,0L71,54.4z M71.5,53.6c0-0.7,0-1-0.1-1.4c0.3,0,0.6,0,0.8,0.1c0.1,0,0.1,0,0.1,0.1
		c0,0.1,0,0.1,0,0.2c0,0.1-0.1,0.4-0.1,1.1v5.8c0,1.2,0,1.7,0,1.8c0,0.1,0,0.1-0.1,0.1h-0.6c-0.1,0-0.1,0-0.1-0.1c0,0,0-0.6,0-1.7
		V53.6z M72.9,54c0.1,0,0.1,0,0.2,0c0.1,0.4,0.3,0.9,0.4,1.3c0,0.1,0,0.1-0.1,0.1L73,55.7c-0.1,0-0.2,0-0.2,0
		c-0.1-0.5-0.2-1-0.4-1.4c0-0.1,0-0.1,0.1-0.1L72.9,54z M74.5,60.9c-1,0-1.3,0-1.4,0c-0.1,0-0.1,0-0.1-0.1v-0.6c0-0.1,0-0.1,0.1-0.1
		c0,0,0.4,0,1.4,0h1.4v-2.2h-0.7c-0.9,0-1.2,0-1.3,0c-0.1,0-0.1,0-0.1-0.1v-0.6c0-0.1,0-0.1,0.1-0.1c0.1,0,0.4,0,1.3,0h0.7v-2h-1.4
		c-0.2,0.5-0.4,0.9-0.6,1.3c-0.1,0.1-0.1,0.2-0.1,0.2s-0.1,0-0.2-0.1c-0.2-0.1-0.4-0.2-0.5-0.2c0.5-0.8,1-2,1.2-2.9
		c0-0.1,0.1-0.4,0.1-0.6c0.3,0.1,0.6,0.1,0.8,0.2c0.1,0,0.1,0.1,0.1,0.1c0,0.1,0,0.1-0.1,0.1c-0.1,0.1-0.1,0.2-0.1,0.3
		c-0.1,0.3-0.1,0.6-0.2,0.9h1.2v-0.9c0-0.7,0-1-0.1-1.4c0.3,0,0.6,0,0.8,0.1c0.1,0,0.1,0,0.1,0.1c0,0.1,0,0.1,0,0.2
		c0,0.1-0.1,0.4-0.1,1.1v0.9h1c0.9,0,1.2,0,1.3,0c0.1,0,0.1,0,0.1,0.1v0.6c0,0.1,0,0.1-0.1,0.1c0,0-0.4,0-1.3,0h-1v2h0.7
		c0.9,0,1.2,0,1.3,0c0.1,0,0.1,0,0.1,0.1v0.6c0,0.1,0,0.1-0.1,0.1c0,0-0.4,0-1.3,0h-0.7v2.2h1.2c1,0,1.3,0,1.4,0
		c0.1,0,0.1,0,0.1,0.1v0.6c0,0.1,0,0.1-0.1,0.1c-0.1,0-0.4,0-1.4,0H74.5z"/>
	<path class="st0" d="M28.3,72.7c-0.6,0-1.2,0-1.7,0.1c-0.1,0-0.2,0-0.2-0.2c0-0.2-0.1-0.6-0.1-0.8c0.5,0,1.1,0.1,1.9,0.1h3.5
		c0.3,0,0.4,0,0.5-0.1c0.1,0,0.1,0,0.1,0s0.1,0,0.2,0c0.2,0.1,0.4,0.3,0.6,0.5c0,0,0.1,0.1,0.1,0.2c0,0.1,0,0.1-0.1,0.2
		C33.1,72.8,33,72.9,33,73c-0.5,1.2-1.1,2.3-2,3.3c-0.8,0.9-1.8,1.8-2.9,2.4c-0.1,0-0.1,0.1-0.2,0.1c-0.1,0-0.1,0-0.2-0.1
		c-0.2-0.2-0.4-0.3-0.7-0.4c1.5-0.8,2.4-1.5,3.2-2.5c0.8-0.9,1.4-1.9,1.8-3.1H28.3z M35.1,70.9c0,0.6-0.5,1.1-1.1,1.1
		c-0.6,0-1.1-0.5-1.1-1.1c0-0.6,0.5-1.1,1.1-1.1C34.6,69.8,35.1,70.3,35.1,70.9z M33.4,70.9c0,0.4,0.3,0.6,0.6,0.6
		c0.4,0,0.6-0.3,0.6-0.6c0-0.3-0.2-0.6-0.6-0.6C33.6,70.3,33.4,70.6,33.4,70.9z"/>
	<path class="st0" d="M38.6,77.2v0.6c0,0.1,0,0.2-0.2,0.2c-0.2,0-0.4,0-0.6,0c-0.1,0-0.2,0-0.2-0.1c0-0.6,0-1.3,0-2.1v-2.2
		c0-0.5,0-1.1,0-1.6c0-0.1,0-0.1,0.1-0.1c0.5,0,1.1,0,1.7,0h2.3c0.6,0,1.3,0,1.8,0c0.1,0,0.1,0,0.1,0.2c0,0.5,0,1,0,1.6v2.2
		c0,0.8,0,1.4,0,1.9c0,0.1,0,0.2-0.2,0.2c-0.2,0-0.5,0-0.7,0c-0.1,0-0.1,0-0.1-0.1v-0.6H38.6z M42.7,72.8h-4.2v3.7h4.2V72.8z"/>
	<path class="st0" d="M51.2,74.3c-0.1,1.2-0.2,1.8-0.6,2.6c-0.4,0.8-1.1,1.5-1.8,1.9c-0.1,0.1-0.2,0.1-0.2,0.1c-0.1,0-0.1,0-0.2-0.1
		c-0.2-0.2-0.4-0.3-0.7-0.4c1-0.5,1.6-1,2-1.8c0.4-0.7,0.5-1.3,0.5-2.3h-2c-0.5,0-1,0-1.5,0.1c-0.1,0-0.1,0-0.1-0.2
		c0-0.2-0.1-0.5-0.1-0.8c0.6,0,1.1,0.1,1.7,0.1h4.4c0.7,0,1.3,0,1.9-0.1c0.1,0,0.1,0,0.1,0.2v0.6c0,0.1-0.1,0.2-0.1,0.2
		c-0.6,0-1.2,0-1.8,0H51.2z M49.4,72c-0.5,0-0.9,0-1.4,0c-0.1,0-0.1,0-0.2-0.2c0-0.2,0-0.5-0.1-0.8c0.6,0,1.2,0,1.6,0h2.1
		c0.5,0,1.2,0,1.7,0c0.1,0,0.1,0,0.1,0.1c0,0.2,0,0.4,0,0.5c0,0.1,0,0.2-0.1,0.2c-0.5,0-1.2,0-1.7,0H49.4z"/>
	<path class="st0" d="M60.8,74.1c-0.4,0.6-1,1.3-1.5,1.7c-0.6,0.5-1.4,1.1-2.1,1.5c-0.1,0-0.1,0.1-0.2,0.1c-0.1,0-0.1,0-0.1-0.1
		c-0.1-0.2-0.4-0.4-0.6-0.4c1-0.5,1.8-1,2.5-1.6c0.6-0.5,1.1-1,1.5-1.7h-2c-0.5,0-1.1,0-1.6,0.1c-0.1,0-0.1,0-0.1-0.2
		c0-0.1,0-0.5-0.1-0.8c0.6,0,1.2,0,1.8,0h2.5l-0.1-0.9c0-0.5-0.1-0.8-0.1-1.2c0.4,0,0.8,0,1,0.1c0.1,0,0.1,0.1,0.1,0.1
		c0,0,0,0.1,0,0.1c0,0.1-0.1,0.4,0,0.9l0,0.9h0.9c0.7,0,1.2,0,1.9,0c0.1,0,0.1,0,0.1,0.1v0.7c0,0.1,0,0.1-0.1,0.1
		c-0.7,0-1.2,0-1.9,0h-0.9l0.2,3.8c0,0.6-0.1,0.9-0.5,1.1c-0.4,0.2-0.9,0.3-1.3,0.3c-0.1,0-0.2,0-0.2-0.1c-0.1-0.3-0.3-0.5-0.5-0.7
		c0.6,0,1,0,1.3-0.1c0.2-0.1,0.3-0.2,0.3-0.6l-0.1-2.3L60.8,74.1z"/>
	<path class="st0" d="M71.7,72.3c0.3,0,0.4,0,0.5-0.1c0,0,0.1,0,0.1,0c0,0,0.1,0,0.2,0.1c0.2,0.1,0.4,0.3,0.5,0.4
		c0.1,0.1,0.1,0.1,0.1,0.2c0,0.1,0,0.1-0.1,0.2c-0.1,0.1-0.2,0.2-0.3,0.4c-0.6,1.3-1.3,2.3-2,3.1c-0.9,1-2,1.9-3.1,2.5
		c0,0-0.1,0-0.1,0c-0.1,0-0.1,0-0.2-0.1c-0.2-0.2-0.5-0.3-0.8-0.4c1.5-0.8,2.3-1.5,3.3-2.6c0.8-0.9,1.3-1.7,1.9-3l-2.7,0.1
		c-0.8,0.9-1.3,1.5-1.9,2.1c-0.1,0.1-0.1,0.1-0.2,0.1c-0.1,0-0.1,0-0.2-0.1c-0.2-0.1-0.5-0.2-0.7-0.3c1.3-1,2-2,2.6-2.9
		c0.3-0.5,0.5-0.9,0.5-1.3c0.4,0.1,0.8,0.3,0.9,0.4c0.1,0,0.1,0.1,0.1,0.1c0,0.1,0,0.1-0.1,0.1c-0.1,0.1-0.2,0.2-0.3,0.3
		c-0.1,0.2-0.2,0.4-0.4,0.6L71.7,72.3z M72.8,70.9c0,0,0.1,0,0.1,0c0.4,0.3,0.8,0.8,1.1,1.2c0,0.1,0,0.1,0,0.1l-0.4,0.3
		c0,0-0.1,0-0.1,0c0,0-0.1,0-0.1-0.1c-0.3-0.5-0.7-0.9-1.2-1.3L72.8,70.9z M73.8,70.2C73.8,70.1,73.8,70.1,73.8,70.2
		c0.1,0,0.1,0,0.1,0c0.4,0.3,0.8,0.8,1.1,1.2c0,0.1,0,0.1,0,0.2l-0.3,0.3c0,0,0,0-0.1,0c0,0,0,0-0.1,0c-0.3-0.4-0.7-0.9-1.2-1.3
		L73.8,70.2z"/>
	<path class="st0" d="M77.8,72.4c0-0.7,0-1.1-0.1-1.5c0.3,0,0.8,0.1,1,0.2c0.2,0.1,0.2,0.2,0.1,0.3c-0.1,0.2-0.1,0.4-0.1,1v1.8
		c0,0.5,0,0.9,0,1.3c0,0.1-0.1,0.2-0.2,0.2h-0.6c-0.1,0-0.2,0-0.1-0.2c0-0.4,0-0.9,0-1.4V72.4z M82.2,74.2c0,1.5-0.3,2.5-0.9,3.2
		c-0.5,0.6-1.3,1.2-2.2,1.5c-0.1,0-0.1,0-0.1,0c-0.1,0-0.1,0-0.2-0.1c-0.2-0.2-0.4-0.3-0.7-0.5c1-0.3,1.9-0.8,2.4-1.4
		c0.5-0.6,0.7-1.4,0.7-2.7v-1.8c0-0.9,0-1.3-0.1-1.7c0.4,0,0.8,0.1,1.1,0.2c0.1,0,0.1,0.1,0.1,0.2c0,0,0,0.1,0,0.1
		c-0.1,0.2-0.1,0.4-0.1,1.2V74.2z"/>
	<path class="st0" d="M88.2,72.8c0-0.4,0.1-0.7,0.1-1.2c0-0.3,0-0.6,0-0.9c0.4,0,0.8,0.1,1,0.2c0.1,0,0.1,0.1,0.1,0.2
		c0,0.1,0,0.1-0.1,0.2c-0.1,0.1-0.1,0.3-0.1,0.6c0,0.3,0,0.6-0.1,1h1.6c0.6,0,1.1,0,1.3,0c0.1,0,0.2,0,0.2,0.1c0,0.2,0,0.5,0,1
		c0,1.2-0.2,2.5-0.4,3.2c-0.2,0.8-0.5,1.1-1,1.3c-0.2,0.1-0.6,0.1-1,0.1c-0.1,0-0.2,0-0.2-0.1c-0.1-0.3-0.2-0.5-0.4-0.7
		c0.7,0,1,0,1.3-0.1c0.3-0.1,0.4-0.2,0.5-0.8c0.2-0.8,0.3-1.8,0.3-3.1h-2.2c-0.2,1.2-0.5,2.1-0.9,2.8c-0.4,0.7-1.2,1.5-2.1,2.1
		c-0.1,0-0.1,0.1-0.2,0.1c-0.1,0-0.1,0-0.1-0.1c-0.2-0.2-0.4-0.3-0.7-0.5c1.1-0.5,1.8-1.2,2.3-2c0.4-0.6,0.6-1.3,0.8-2.3h-1
		c-0.5,0-0.9,0-1.4,0c-0.1,0-0.1,0-0.1-0.2c0-0.2-0.1-0.5-0.1-0.8c0.6,0,1,0,1.6,0H88.2z"/>
	<path class="st0" d="M95.5,71.6c0,0,0.1-0.1,0.1-0.1c0,0,0.1,0,0.1,0c0.5,0.3,1.3,0.8,1.9,1.4c0,0,0.1,0.1,0.1,0.1c0,0,0,0.1,0,0.1
		c-0.1,0.2-0.4,0.5-0.5,0.6c0,0-0.1,0.1-0.1,0.1c0,0,0,0-0.1-0.1c-0.6-0.6-1.3-1.1-2-1.5C95.2,72,95.4,71.8,95.5,71.6z M96.4,76.9
		c1.1-0.6,1.9-1.1,2.9-1.8c1.1-0.9,1.9-1.6,2.7-2.7c0,0.4,0.1,0.6,0.2,0.9c0,0.1,0,0.1,0,0.2c0,0.1,0,0.2-0.1,0.2
		c-0.6,0.7-1.5,1.5-2.4,2.2c-0.8,0.7-1.8,1.3-3,1.9c-0.4,0.2-0.5,0.3-0.6,0.4c0,0-0.1,0.1-0.1,0.1c-0.1,0-0.1,0-0.2-0.1
		c-0.2-0.2-0.4-0.5-0.6-0.9C95.7,77.3,96,77.2,96.4,76.9z"/>
</g>
</svg>
