<?xml version="1.0" encoding="utf-8"?>
<!-- Generator: Adobe Illustrator 26.1.0, SVG Export Plug-In . SVG Version: 6.00 Build 0)  -->
<svg version="1.1" id="レイヤー_1" xmlns="http://www.w3.org/2000/svg" xmlns:xlink="http://www.w3.org/1999/xlink" x="0px"
	 y="0px" viewBox="0 0 129 129" style="enable-background:new 0 0 129 129;" xml:space="preserve">
<style type="text/css">
	.st0{fill:#606060;}
</style>
<path class="st0" d="M64.5,129v-1c35,0,63.5-28.5,63.5-63.5C128,29.5,99.5,1,64.5,1V0C100.1,0,129,28.9,129,64.5S100.1,129,64.5,129
	z"/>
<path class="st0" d="M64.5,129C28.9,129,0,100.1,0,64.5S28.9,0,64.5,0v1C29.5,1,1,29.5,1,64.5c0,35,28.5,63.5,63.5,63.5V129z"/>
<g>
	<path class="st0" d="M23.4,53h4v0.6h-1.2v1.1h1v1.4c0.7-0.9,1.2-2.2,1.6-3.5l0.7,0.1c-0.1,0.5-0.3,1-0.5,1.5h3v0.7h-1.9v1.4h1.7V57
		h-1.7v1.5H32v0.7h-1.8v2.3h-0.7v-6.5h-0.7c-0.3,0.6-0.6,1.2-1,1.7c-0.1-0.1-0.4-0.3-0.6-0.4v5h-0.6v-0.5h-2.5v0.6h-0.5v-6.6h1v-1.1
		h-1.2V53z M24.1,58.6h2.5v-0.9h-0.5c-0.4,0-0.5-0.1-0.5-0.6v-1.8h-0.5v0.8c0,0.6-0.1,1.3-0.7,1.9c-0.1-0.1-0.2-0.2-0.3-0.2V58.6z
		 M24.1,57.7c0.5-0.5,0.6-1.1,0.6-1.6v-0.8h-0.6V57.7z M24.1,59.1v1h2.5v-1H24.1z M25.1,53.6v1.1h0.6v-1.1H25.1z M26,57.2
		c0,0.1,0,0.1,0.1,0.1h0.3c0.1,0,0.1,0,0.1,0v-1.9H26V57.2z"/>
	<path class="st0" d="M33.5,53.7v-0.6h3.8v0.6h-1.1v1.2h1v1.8c0.9-0.3,1.2-0.8,1.3-1.7L37.4,55l0-0.6l0.8,0c0.3-0.5,0.6-1.2,0.8-1.7
		l0.7,0.2c-0.2,0.5-0.5,1-0.8,1.5l2.1-0.1c-0.2-0.2-0.4-0.5-0.6-0.6l0.5-0.3c0.5,0.5,1.1,1.2,1.4,1.6l-0.5,0.3
		c-0.1-0.1-0.2-0.3-0.3-0.5l-0.8,0.1v1.2c0,0.2,0,0.2,0.2,0.2h0.6c0.2,0,0.2-0.1,0.2-0.7c0.1,0.1,0.4,0.2,0.5,0.2
		c-0.1,0.8-0.2,1-0.7,1h-0.8c-0.6,0-0.8-0.2-0.8-0.8v-1.2l-0.8,0c-0.1,1.1-0.4,1.8-1.5,2.2c-0.1-0.1-0.2-0.4-0.4-0.5v2.2
		c0.8-0.5,1.5-1.3,1.9-2.2l0.6,0.2c-0.1,0.3-0.2,0.5-0.4,0.7h1.7l0.1,0l0.4,0.2c-0.3,0.9-0.8,1.6-1.4,2.2c0.6,0.4,1.2,0.8,2,0.9
		c-0.1,0.1-0.3,0.4-0.4,0.6c-0.8-0.2-1.5-0.6-2-1.1c-0.6,0.5-1.4,0.8-2.2,1.1c-0.1-0.2-0.2-0.4-0.4-0.5v0.4h-0.6v-0.5h-2.5v0.7h-0.6
		v-6.5h1v-1.2H33.5z M34.1,57.8v0.8h2.5v-1.1h-0.5c-0.4,0-0.5-0.1-0.5-0.5v-1.5h-0.5v0.7c0,0.6-0.1,1.3-0.7,1.8
		C34.3,57.9,34.2,57.8,34.1,57.8z M34.1,55.5v2.2c0.5-0.5,0.6-1,0.6-1.5v-0.7H34.1z M36.7,60.1v-1h-2.5v1H36.7z M35.1,54.9h0.5v-1.2
		h-0.5V54.9z M36.2,57.1h0.4c0.1,0,0.1,0,0.1,0v-1.6H36V57C36,57.1,36.1,57.1,36.2,57.1z M39.3,59.8c-0.3-0.4-0.6-0.7-0.8-1.2
		c-0.3,0.3-0.6,0.5-0.9,0.7c-0.1-0.1-0.2-0.3-0.4-0.4v1.8C38,60.6,38.7,60.3,39.3,59.8z M38.9,58.2c0.2,0.5,0.5,0.9,0.9,1.2
		c0.4-0.4,0.7-0.8,1-1.3L38.9,58.2L38.9,58.2z"/>
	<path class="st0" d="M45.6,53.3c0,0.3-0.1,0.7-0.1,1v1.6c1.3,0.4,3.1,1.1,4.1,1.6l-0.3,0.8c-1-0.6-2.7-1.2-3.7-1.5v3.2
		c0,0.3,0,0.8,0.1,1.1h-0.9c0-0.3,0.1-0.8,0.1-1.1v-5.6c0-0.3,0-0.7-0.1-1H45.6z"/>
	<path class="st0" d="M57.5,60.7c0-0.1,0-0.3,0-0.5h-4.7c-0.4,0-0.8,0-1.1,0v-0.9c0.2,0,0.7,0.1,1.1,0.1h4.7v-4.5h-4.6
		c-0.4,0-0.8,0-1.1,0v-0.8c0.3,0,0.7,0.1,1,0.1h4.7c0.2,0,0.5,0,0.7,0c0,0.2,0,0.5,0,0.8v4.9c0,0.3,0,0.8,0,0.9H57.5z"/>
	<path class="st0" d="M67.8,54.3c-0.1,0.1-0.1,0.3-0.1,0.5c-0.2,1-0.7,2.5-1.4,3.5c-0.9,1.1-2,2-3.8,2.6l-0.6-0.7
		c1.8-0.5,2.9-1.3,3.7-2.3c0.7-0.9,1.1-2.2,1.2-3.1h-4.9c-0.4,0-0.7,0-0.9,0v-0.8c0.3,0,0.6,0.1,0.9,0.1h4.8c0.1,0,0.3,0,0.5,0
		L67.8,54.3z"/>
	<path class="st0" d="M69.3,60.7v-0.8c0.2,0,0.5,0.1,0.7,0.1h2.2v-3.5h-1.8c-0.2,0-0.5,0-0.7,0v-0.8c0.2,0,0.5,0,0.7,0h4.4
		c0.2,0,0.5,0,0.7,0v0.8c-0.2,0-0.5,0-0.7,0h-1.9V60h2.3c0.2,0,0.5,0,0.6-0.1v0.8c-0.2,0-0.5,0-0.6,0H70
		C69.8,60.7,69.5,60.7,69.3,60.7z"/>
	<path class="st0" d="M78.2,59.6v-4.7c0-0.2,0-0.5,0-0.7c0.4,0,0.6,0,0.8,0h5.1c0.2,0,0.5,0,0.8,0c0,0.2,0,0.5,0,0.7v4.7
		c0,0.3,0,1,0,1.1h-0.8c0-0.1,0-0.3,0-0.5H79c0,0.2,0,0.5,0,0.5h-0.8C78.2,60.6,78.2,59.9,78.2,59.6z M79,54.9v4.5h5.2v-4.5H79z"/>
	<path class="st0" d="M87.7,56.5c0.3,0,0.8,0,1.3,0h5.2c0.5,0,0.8,0,1,0v0.9c-0.2,0-0.6,0-1,0H89c-0.5,0-1,0-1.3,0V56.5z"/>
	<path class="st0" d="M96.9,60.4c0.8-0.6,1.4-1.4,1.7-2.3c0.3-0.9,0.3-2.8,0.3-3.8c0-0.3,0-0.5-0.1-0.7h0.9c0,0.1,0,0.4,0,0.7
		c0,1.1,0,3.1-0.3,4.1c-0.3,1-0.9,2-1.7,2.6L96.9,60.4z M101.2,60.5c0-0.1,0.1-0.3,0.1-0.5v-5.7c0-0.4-0.1-0.6-0.1-0.7h0.9
		c0,0.1,0,0.3,0,0.7v5.5c0.9-0.4,2.1-1.3,2.8-2.3l0.5,0.6c-0.8,1.1-2.1,2.1-3.3,2.6c-0.1,0.1-0.2,0.1-0.3,0.2L101.2,60.5z"/>
	<path class="st0" d="M40.2,75c0-1.9,0.8-3.4,1.9-4.5l0.6,0.3c-1.1,1.1-1.8,2.6-1.8,4.3s0.7,3.1,1.8,4.2l-0.6,0.3
		C41,78.4,40.2,76.9,40.2,75z"/>
	<path class="st0" d="M44.8,71.5h0.9c0,0.2,0,0.5,0,0.8v2.2c1.1-0.3,2.6-0.7,3.6-1.2c0.3-0.1,0.6-0.3,0.8-0.4l0.3,0.8
		c-1.5,0.7-3.2,1.2-4.8,1.6v2.1c0,0.5,0.2,0.6,0.7,0.7c0.3,0.1,0.8,0.1,1.3,0.1c1,0,2.5-0.1,3.3-0.3v0.9c-0.8,0.1-2.3,0.2-3.3,0.2
		c-0.6,0-1.1,0-1.5-0.1c-0.7-0.1-1.1-0.5-1.1-1.2v-5.3C44.9,72,44.9,71.7,44.8,71.5z M50,71.2c0.2,0.3,0.6,0.9,0.8,1.3l-0.5,0.2
		c-0.2-0.4-0.5-1-0.8-1.3L50,71.2z M50.5,71l0.5-0.2c0.2,0.4,0.6,0.9,0.8,1.3l-0.5,0.2C51.1,71.9,50.8,71.4,50.5,71z"/>
	<path class="st0" d="M60.4,72.5c-0.1,0.1-0.2,0.4-0.2,0.5c-0.2,0.8-0.7,1.9-1.4,2.8c0.4,0.2,0.7,0.5,0.9,0.6l-0.5,0.7
		c-0.2-0.2-0.5-0.4-0.9-0.7c-0.9,1-2.1,1.9-3.7,2.5l-0.7-0.6c1.7-0.5,2.9-1.4,3.8-2.4c-0.7-0.5-1.5-1-2.1-1.3l0.5-0.6
		c0.5,0.3,1.4,0.7,2.1,1.2c0.6-0.8,1-1.8,1.2-2.6h-3.2c-0.6,0.8-1.5,1.8-2.5,2.5l-0.6-0.5c1.6-1,2.6-2.4,3.1-3.3
		c0.1-0.2,0.2-0.5,0.3-0.8l0.9,0.3c-0.2,0.2-0.3,0.6-0.4,0.7c-0.1,0.1-0.1,0.2-0.2,0.4h2.6c0.3,0,0.5,0,0.6-0.1L60.4,72.5z"/>
	<path class="st0" d="M68.1,78.2l-0.3,0.7c-1.3-0.6-4.1-1.2-5.7-1.4l0.3-0.7C64,77,66.8,77.6,68.1,78.2z M67.8,75.1l-0.3,0.7
		c-1.1-0.4-3.4-1-4.8-1.2l0.3-0.7C64.3,74.2,66.6,74.7,67.8,75.1z M68.4,72.5l-0.3,0.7c-1.2-0.4-3.7-1-5-1.1l0.3-0.7
		C64.6,71.6,67.2,72.1,68.4,72.5z"/>
	<path class="st0" d="M74.3,76.7c1.5-0.9,2.6-2.3,3.2-3.5l0.4,0.8c-1.4,2.6-4.1,4.4-7,4.9l-0.5-0.8C72.1,77.8,73.3,77.2,74.3,76.7z
		 M73.7,73.6l-0.6,0.6c-0.5-0.5-1.7-1.5-2.4-2l0.5-0.6C71.9,72.1,73.2,73.1,73.7,73.6z"/>
	<path class="st0" d="M83.5,78.4h-0.8c-1.7,0-2.5-1-2.5-2.8v-1.2c0-0.6,0.1-1.3,0.2-1.8c0.2-0.7,0.4-1,0.9-1h3.5V72
		c0,0.2-0.2,0.5-0.7,0.5h-2.8c-0.1,0.5-0.2,1.4-0.2,2.1h2.9v0.3c0,0.3-0.2,0.5-0.6,0.5h-2.4v0.5c0,1.4,0.5,1.8,1.9,1.8h0.5
		c0.5,0,1-0.1,1.3-0.2v0.3C84.8,78.2,84.7,78.4,83.5,78.4z"/>
	<path class="st0" d="M88.2,75c0,1.9-0.8,3.4-1.9,4.5l-0.6-0.3c1.1-1.1,1.8-2.5,1.8-4.2s-0.7-3.1-1.8-4.3l0.6-0.3
		C87.5,71.6,88.2,73.2,88.2,75z"/>
</g>
</svg>
