<?xml version="1.0" encoding="utf-8"?>
<!-- Generator: Adobe Illustrator 26.0.3, SVG Export Plug-In . SVG Version: 6.00 Build 0)  -->
<svg version="1.1" id="レイヤー_1" xmlns="http://www.w3.org/2000/svg" xmlns:xlink="http://www.w3.org/1999/xlink" x="0px"
	 y="0px" viewBox="0 0 500 500" style="enable-background:new 0 0 500 500;" xml:space="preserve">
<style type="text/css">
	.st0{fill:#595757;}
</style>
<path class="st0" d="M411.5,130h-57.2v-25.7C354.3,46.8,307.5,0,250,0S145.7,46.8,145.7,104.3V130H88.5c-27.8,0-50.5,22.6-50.5,50.5
	v269.1c0,27.8,22.6,50.5,50.5,50.5h322.9c27.8,0,50.5-22.6,50.5-50.5V180.4C461.9,152.6,439.3,130,411.5,130z M192.8,104.3
	c0-31.5,25.7-57.2,57.2-57.2c31.5,0,57.2,25.7,57.2,57.2V130H192.8V104.3z M414.8,449.5c0,1.9-1.5,3.4-3.4,3.4H88.5
	c-1.9,0-3.4-1.5-3.4-3.4V180.4c0-1.9,1.5-3.4,3.4-3.4h322.9c1.9,0,3.4,1.5,3.4,3.4V449.5z"/>
</svg>
