<?xml version="1.0" encoding="utf-8"?>
<!-- Generator: Adobe Illustrator 26.0.3, SVG Export Plug-In . SVG Version: 6.00 Build 0)  -->
<svg version="1.1" id="レイヤー_1" xmlns="http://www.w3.org/2000/svg" xmlns:xlink="http://www.w3.org/1999/xlink" x="0px"
	 y="0px" viewBox="0 0 500 500" style="enable-background:new 0 0 500 500;" xml:space="preserve">
<style type="text/css">
	.st0{fill:#C9C9C9;}
</style>
<g>
	<path class="st0" d="M250,65c60.3,0,67.4,0.2,91.2,1.3c22,1,34,4.7,41.9,7.8c10.5,4.1,18.1,9,26,16.9c7.9,7.9,12.8,15.4,16.9,26
		c3.1,8,6.8,19.9,7.8,41.9c1.1,23.8,1.3,30.9,1.3,91.2s-0.2,67.4-1.3,91.2c-1,22-4.7,34-7.8,41.9c-4.1,10.5-9,18.1-16.9,26
		c-7.9,7.9-15.4,12.8-26,16.9c-8,3.1-19.9,6.8-41.9,7.8c-23.8,1.1-30.9,1.3-91.2,1.3s-67.4-0.2-91.2-1.3c-22-1-34-4.7-41.9-7.8
		c-10.5-4.1-18.1-9-26-16.9c-7.9-7.9-12.8-15.4-16.9-26c-3.1-8-6.8-19.9-7.8-41.9C65.2,317.4,65,310.3,65,250s0.2-67.4,1.3-91.2
		c1-22,4.7-34,7.8-41.9c4.1-10.5,9-18.1,16.9-26c7.9-7.9,15.4-12.8,26-16.9c8-3.1,19.9-6.8,41.9-7.8C182.6,65.2,189.7,65,250,65
		 M250,24.3c-61.3,0-69,0.3-93.1,1.4c-24,1.1-40.4,4.9-54.8,10.5c-14.8,5.8-27.4,13.5-40,26c-12.5,12.5-20.3,25.1-26,40
		c-5.6,14.4-9.4,30.8-10.5,54.8c-1.1,24.1-1.4,31.8-1.4,93.1c0,61.3,0.3,69,1.4,93.1c1.1,24,4.9,40.4,10.5,54.8
		c5.8,14.8,13.5,27.4,26,40c12.5,12.5,25.1,20.3,40,26c14.4,5.6,30.8,9.4,54.8,10.5c24.1,1.1,31.8,1.4,93.1,1.4s69-0.3,93.1-1.4
		c24-1.1,40.4-4.9,54.8-10.5c14.8-5.8,27.4-13.5,40-26c12.5-12.5,20.3-25.1,26-40c5.6-14.4,9.4-30.8,10.5-54.8
		c1.1-24.1,1.4-31.8,1.4-93.1s-0.3-69-1.4-93.1c-1.1-24-4.9-40.4-10.5-54.8c-5.8-14.8-13.5-27.4-26-40c-12.5-12.5-25.1-20.3-40-26
		c-14.4-5.6-30.8-9.4-54.8-10.5C319,24.6,311.3,24.3,250,24.3L250,24.3z"/>
	<path class="st0" d="M250,134.1c-64,0-115.9,51.9-115.9,115.9S186,365.9,250,365.9S365.9,314,365.9,250S314,134.1,250,134.1z
		 M250,325.2c-41.6,0-75.2-33.7-75.2-75.2c0-41.6,33.7-75.2,75.2-75.2s75.2,33.7,75.2,75.2C325.2,291.6,291.6,325.2,250,325.2z"/>
	<circle class="st0" cx="370.5" cy="129.5" r="27.1"/>
</g>
</svg>
