<?xml version="1.0" encoding="utf-8"?>
<!-- Generator: Adobe Illustrator 26.0.1, SVG Export Plug-In . SVG Version: 6.00 Build 0)  -->
<svg version="1.1" id="レイヤー_1" xmlns="http://www.w3.org/2000/svg" xmlns:xlink="http://www.w3.org/1999/xlink" x="0px"
	 y="0px" viewBox="0 0 22 12.8" style="enable-background:new 0 0 22 12.8;" xml:space="preserve">
<style type="text/css">
	.st0{fill:#595757;}
</style>
<path class="st0" d="M1.6,3.5l3.2,0l0,0.5c0,0.6-0.4,1-1.2,1l-2,0l0,4.6c0,1.3,0.5,1.9,1.5,1.9c0.6,0,1.1-0.1,1.5-0.3l0.1,0v0.6
	c0,0.8-0.6,1.2-1.7,1.2c-2.1,0-3-1.1-3-3.2l0-6c0-0.5,0.1-1.1,0.4-1.4c0.2-0.3,0.7-0.7,1-0.7h0.2L1.6,3.5z M11.8,12.8
	C9.5,12.8,8,11.3,8,8.6l0-5.1h0.5c0.7,0,1.1,0.4,1.1,1.2l0,3.8c0,1.9,0.9,2.9,2.3,2.9c1.5,0,2.2-0.8,2.2-2.8l0-5.1l0.4,0
	c0.8,0,1.1,0.4,1.1,1.2l0,4C15.6,11.4,14.2,12.8,11.8,12.8z M20.6,3.4l-0.5,0v3.1l0,3.5v1.6c0,0.8,0.6,1.2,1.1,1.2l0.5,0l0-3.1V6.3
	l0-1.6C21.7,3.9,21.1,3.4,20.6,3.4z M20.9,0c-0.6,0-1.1,0.5-1.1,1.1s0.5,1.1,1.1,1.1c0.6,0,1.1-0.5,1.1-1.1S21.5,0,20.9,0z"/>
</svg>
