<?xml version="1.0" encoding="utf-8"?>
<!-- Generator: Adobe Illustrator 25.4.1, SVG Export Plug-In . SVG Version: 6.00 Build 0)  -->
<svg version="1.1" id="レイヤー_1" xmlns="http://www.w3.org/2000/svg" xmlns:xlink="http://www.w3.org/1999/xlink" x="0px"
	 y="0px" width="51px" height="12px" viewBox="0 0 51 12" style="enable-background:new 0 0 51 12;" xml:space="preserve">
<style type="text/css">
	.st0{fill:#595757;}
</style>
<g>
	<path class="st0" d="M6.6,3.6c-0.4,0-0.7,0.3-0.7,0.7v4.7l-2.2,1.5c-0.2,0.1-0.3,0.2-0.5,0.2h-1c-0.4,0-0.7-0.3-0.7-0.7V4.3
		c0-0.4-0.3-0.7-0.6-0.7C0.3,3.5,0,3.8,0,4.2v5.7C0,11,0.9,12,2.1,12h1.4c0.2,0,0.4-0.1,0.5-0.2l1.8-1.2v0.7c0,0.4,0.3,0.7,0.6,0.7
		c0.4,0,0.7-0.3,0.7-0.7v-2c0,0,0,0,0,0v-5C7.2,3.9,6.9,3.6,6.6,3.6z"/>
	<path class="st0" d="M17.3,9.7l-1.1,0.7c-0.2,0.1-0.3,0.2-0.5,0.2h-1c-0.4,0-0.7-0.3-0.7-0.7v-5h2.9c0.4,0,0.7-0.3,0.7-0.6
		c0-0.4-0.3-0.7-0.7-0.7H14V1.8c0-0.4-0.3-0.7-0.6-0.7c-0.4,0-0.7,0.3-0.7,0.7v1.8h-1.4c-0.4,0-0.7,0.3-0.7,0.6
		c0,0.4,0.3,0.7,0.7,0.7h1.4v5c0,1.1,0.9,2.1,2.1,2.1h1.4c0.2,0,0.4-0.1,0.5-0.2l1.4-1c0.3-0.2,0.4-0.7,0.1-1
		C18,9.5,17.6,9.5,17.3,9.7z"/>
	<path class="st0" d="M27.5,3.8c-0.2-0.2-0.4-0.3-0.7-0.3h-3c-0.2,0-0.5,0.1-0.7,0.3L22,5.1c-0.2,0.2-0.3,0.4-0.3,0.7v4.1
		c0,0.2,0.1,0.5,0.3,0.7l1.2,1.2c0.2,0.2,0.4,0.3,0.7,0.3h3c0.2,0,0.5-0.1,0.7-0.3l1.2-1.2C28.9,10.3,29,10,29,9.8V5.7
		c0-0.2-0.1-0.5-0.3-0.7L27.5,3.8z M27.7,9.2c0,0.2-0.1,0.5-0.3,0.7L27,10.3c-0.2,0.2-0.4,0.3-0.7,0.3h-1.8c-0.2,0-0.5-0.1-0.7-0.3
		l-0.4-0.4c-0.2-0.2-0.3-0.4-0.3-0.7V6.3c0-0.2,0.1-0.5,0.3-0.7l0.4-0.4C24,5,24.2,4.9,24.5,4.9h1.8c0.2,0,0.5,0.1,0.7,0.3l0.4,0.4
		c0.2,0.2,0.3,0.4,0.3,0.7V9.2z"/>
	<path class="st0" d="M38.4,3.6H37c-0.2,0-0.4,0.1-0.5,0.2L34.6,5V4.3c0-0.4-0.3-0.7-0.6-0.7c-0.4,0-0.7,0.3-0.7,0.7v2c0,0,0,0,0,0
		v5c0,0.4,0.3,0.7,0.6,0.7c0.4,0,0.7-0.3,0.7-0.7V6.6l2.2-1.5C37,5,37.2,4.9,37.4,4.9h1c0.4,0,0.7,0.3,0.7,0.7v1.1
		c0,0.4,0.3,0.7,0.6,0.7c0.4,0,0.7-0.3,0.7-0.7V5.6C40.5,4.5,39.5,3.6,38.4,3.6z"/>
	<path class="st0" d="M50.3,10.6h-2.1V4.5c0-0.5-0.4-0.9-0.9-0.9h-2.6c-0.4,0-0.7,0.3-0.7,0.6c0,0.4,0.3,0.7,0.7,0.7h2.2v5.7h-2.1
		c-0.4,0-0.7,0.3-0.7,0.6c0,0.4,0.3,0.7,0.7,0.7h5.7c0.4,0,0.7-0.3,0.7-0.7C51,10.9,50.6,10.6,50.3,10.6z"/>
	<path class="st0" d="M46.5,2.1h1.3c0.2,0,0.4-0.2,0.4-0.4V0.4C48.2,0.2,48,0,47.8,0h-1.3c-0.2,0-0.4,0.2-0.4,0.4v1.3
		C46.1,1.9,46.3,2.1,46.5,2.1z"/>
</g>
</svg>
