<?xml version="1.0" encoding="utf-8"?>
<!-- Generator: Adobe Illustrator 25.4.1, SVG Export Plug-In . SVG Version: 6.00 Build 0)  -->
<svg version="1.1" id="レイヤー_1" xmlns="http://www.w3.org/2000/svg" xmlns:xlink="http://www.w3.org/1999/xlink" x="0px"
	 y="0px" width="86.9px" height="10.3px" viewBox="0 0 86.9 10.3" style="enable-background:new 0 0 86.9 10.3;"
	 xml:space="preserve">
<style type="text/css">
	.st0{fill:#606060;}
</style>
<g>
	<path class="st0" d="M2.3,4.1C1.9,4.1,1.3,4,1.3,3.4c0-0.6,0.5-0.7,0.9-0.7h1.8c0.7,0,1.2,0.1,1.7,0.6C6.4,3.9,6.4,4.3,6.4,5
		l0.1,4.6c0,0.4-0.2,0.8-0.6,0.8c-0.4,0-0.7-0.3-0.7-0.7l-0.9,0.5C4,10.3,4,10.3,3.5,10.3H2.2c-0.6,0-1-0.1-1.5-0.5
		C0.1,9.4,0,8.9,0,8.2V7.6C0,7,0.2,6.6,0.7,6.1c0.5-0.4,1-0.5,1.6-0.5h2.9V5.3c0-1-0.2-1.2-1.2-1.2H2.3z M2.2,6.9
		C1.9,6.9,1.3,7,1.3,7.5v0.9C1.3,8.9,1.9,9,2.2,9h1.5l1.5-0.8V7.9c0-0.7-0.2-1-1-1H2.2z"/>
	<path class="st0" d="M12.8,3.8l0.2-0.2c0.4-0.4,0.7-0.7,1.3-0.7h1.5c0.4,0,0.7,0.2,1,0.5l0.5,0.4c0.5,0.5,0.7,0.8,0.7,1.6v2.7
		c0,0.7-0.2,1.1-0.7,1.6l-0.5,0.4c-0.3,0.3-0.7,0.5-1.1,0.5h-1.4c-0.5,0-0.9-0.3-1.3-0.7l-0.3-0.3v0.1c0,0.4-0.1,0.9-0.7,0.9
		c-0.6,0-0.7-0.5-0.7-0.9V0.9c0-0.5,0.1-0.9,0.7-0.9c0.6,0,0.7,0.5,0.7,0.9V3.8z M12.8,7.1c0,0.4,0.1,0.6,0.4,0.9L14,8.6
		C14.2,8.8,14.4,9,14.5,9h1c0.2,0,0.3,0,0.4-0.1l0.6-0.5c0.2-0.1,0.2-0.4,0.2-0.7V5.3c0-0.3-0.1-0.5-0.2-0.6l-0.6-0.5
		c-0.1-0.1-0.2-0.1-0.3-0.1h-0.9c-0.2,0-0.4,0.1-0.6,0.2l-0.9,0.8c-0.2,0.2-0.4,0.4-0.4,0.8V7.1z"/>
	<path class="st0" d="M23,5.3c0-0.9,0.2-1.2,0.9-1.8c0.7-0.5,1-0.8,1.9-0.8h1.1c0.9,0,1.2,0.2,1.9,0.8c0.7,0.5,0.9,0.9,0.9,1.8v2.5
		c0,0.9-0.2,1.2-0.9,1.8c-0.7,0.6-1,0.7-1.8,0.7h-1.1c-0.9,0-1.1-0.1-1.8-0.7C23.2,9,23,8.7,23,7.8V5.3z M24.3,7.8
		c0,0.3,0.1,0.5,0.5,0.8C25.1,8.9,25.3,9,25.7,9h1.1c0.4,0,0.6-0.1,0.9-0.4c0.4-0.3,0.5-0.5,0.5-0.8V5.3c0-0.3-0.1-0.5-0.5-0.8
		c-0.3-0.3-0.5-0.4-0.9-0.4h-1.1c-0.4,0-0.6,0.1-0.9,0.4c-0.4,0.3-0.5,0.5-0.5,0.8V7.8z"/>
	<path class="st0" d="M41,9.3c0,0.3,0.1,1-0.7,1c-0.6,0-0.7-0.5-0.7-0.9V9.2l-1.1,0.7c-0.4,0.3-0.8,0.4-1.2,0.4h-1
		c-0.4,0-0.8-0.1-1.2-0.5c-0.6-0.5-0.6-1.1-0.6-1.8l-0.1-4.2c0-0.5,0.1-1,0.7-1c0.6,0,0.6,0.5,0.7,0.9l0.1,4.1c0,0.3,0,0.7,0.1,0.9
		C36.2,8.9,36.5,9,36.8,9h0.4c0.2,0,0.3,0,0.4-0.1l2-1.2V3.7c0-0.5,0.1-0.9,0.7-0.9S41,3.2,41,3.7V9.3z"/>
	<path class="st0" d="M48.6,7.8c0,0.8,0,1.2,0.9,1.2h0.7c0.5,0,0.8,0,0.9-0.6c0.1-0.3,0.3-0.5,0.7-0.5c0.4,0,0.7,0.3,0.7,0.7
		c0,0.4-0.2,0.9-0.5,1.1c-0.5,0.6-1.1,0.7-1.8,0.7h-0.7c-0.7,0-1.3-0.2-1.7-0.7c-0.5-0.6-0.5-1.1-0.5-1.9V4.1h-0.4
		c-0.4,0-0.9-0.1-0.9-0.7c0-0.6,0.5-0.7,0.9-0.7h0.4V1.4c0-0.5,0.1-0.9,0.7-0.9s0.7,0.5,0.7,0.9v1.4h2.3c0.4,0,0.9,0.1,0.9,0.7
		c0,0.6-0.5,0.7-0.9,0.7h-2.3V7.8z"/>
	<path class="st0" d="M75.5,9.3c0,0.3,0.1,1-0.7,1c-0.6,0-0.7-0.5-0.7-0.9V9.2L73,9.9c-0.4,0.3-0.8,0.4-1.2,0.4h-1
		c-0.4,0-0.8-0.1-1.2-0.5C69,9.3,69,8.7,69,8l-0.1-4.2c0-0.5,0.1-1,0.7-1c0.6,0,0.6,0.5,0.7,0.9l0.1,4.1c0,0.3,0,0.7,0.1,0.9
		C70.6,8.9,71,9,71.3,9h0.4c0.2,0,0.3,0,0.4-0.1l2-1.2V3.7c0-0.5,0.1-0.9,0.7-0.9s0.7,0.5,0.7,0.9V9.3z"/>
	<path class="st0" d="M82.7,4.1c-0.3,0-0.8-0.1-0.8,0.4c0,0.2,0.2,0.3,0.4,0.4l3.4,1.5c0.9,0.4,1.3,0.9,1.3,1.9c0,1.4-0.9,2-2.2,2
		h-2.1c-0.7,0-1.2,0-1.7-0.4c-0.3-0.2-0.6-0.4-0.6-0.8c0-0.4,0.3-0.7,0.7-0.7c0.2,0,0.4,0.1,0.5,0.2C81.8,9,82.2,9,82.7,9h1.8
		c0.5,0,1.1,0,1.1-0.7c0-0.3-0.4-0.5-0.7-0.7l-3.2-1.4c-0.7-0.3-1.2-0.8-1.2-1.6c0-1.1,0.8-1.7,1.8-1.7h2.3c0.7,0,1.1,0,1.6,0.5
		c0.3,0.2,0.5,0.4,0.5,0.8c0,0.4-0.3,0.7-0.7,0.7c-0.3,0-0.4-0.1-0.6-0.3c-0.2-0.2-0.5-0.3-0.8-0.3H82.7z"/>
</g>
</svg>
