<?xml version="1.0" encoding="utf-8"?>
<!-- Generator: Adobe Illustrator 25.4.1, SVG Export Plug-In . SVG Version: 6.00 Build 0)  -->
<svg version="1.1" id="レイヤー_1" xmlns="http://www.w3.org/2000/svg" xmlns:xlink="http://www.w3.org/1999/xlink" x="0px"
	 y="0px" width="74.5px" height="11.8px" viewBox="0 0 74.5 11.8" style="enable-background:new 0 0 74.5 11.8;"
	 xml:space="preserve">
<style type="text/css">
	.st0{fill:#595757;}
</style>
<g>
	<path class="st0" d="M0,5c0-0.5,0.2-1,0.4-1.2l0.8-0.7C1.5,3,1.7,2.9,2,2.9h1.1c0.3,0,0.7,0.2,1.1,0.6l0.3,0.2V3.5
		c0-0.4,0.2-0.7,0.6-0.7c0.5,0,0.6,0.4,0.6,0.8v5.6c0,1-0.1,1.3-0.6,1.7l-0.4,0.3c-0.5,0.4-0.8,0.5-1.4,0.5H1.3
		c-0.3,0-0.8-0.1-0.8-0.6c0-0.5,0.4-0.6,0.8-0.6h2.1c0.2,0,0.4-0.1,0.6-0.3l0.3-0.3C4.4,10,4.5,9.8,4.5,9.6V8L4.2,8.3
		C4,8.5,3.6,8.8,3.3,8.8H1.9c-0.2,0-0.5,0-0.9-0.3L0.4,7.8C0,7.5,0,7.2,0,6.8V5z M1.2,6.6c0,0.2,0,0.5,0.1,0.6l0.5,0.4
		C1.9,7.7,2,7.7,2.1,7.7H3c0.1,0,0.3-0.1,0.5-0.3l0.9-0.7c0.1-0.1,0.1-0.2,0.1-0.4V5.4c0-0.2,0-0.3-0.1-0.4L3.5,4.3
		C3.3,4.1,3.1,4,3,4H2.1C2,4,1.9,4.1,1.8,4.1L1.3,4.5C1.2,4.6,1.2,4.9,1.2,5.1V6.6z"/>
	<path class="st0" d="M13.3,8.2h0.9c0.4,0,0.8,0.1,0.8,0.6c0,0.5-0.5,0.6-0.8,0.6h-2.9c-0.3,0-0.8-0.1-0.8-0.6
		c0-0.5,0.4-0.6,0.8-0.6h0.9V4h-0.9c-0.3,0-0.8-0.1-0.8-0.6c0-0.5,0.4-0.6,0.8-0.6h1.2c0.7,0,0.9,0.1,0.9,0.8V8.2z M11.5,0.5
		c0-0.4,0.2-0.5,0.5-0.5h0.7c0.3,0,0.5,0.1,0.5,0.5v0.6c0,0.4-0.2,0.5-0.5,0.5h-0.7c-0.3,0-0.5-0.1-0.5-0.5V0.5z"/>
	<path class="st0" d="M21.4,4H21c-0.3,0-0.8-0.1-0.8-0.6c0-0.5,0.4-0.6,0.8-0.6h0.3V2.7c0-0.7,0-1.1,0.6-1.6
		c0.6-0.5,1.1-0.6,1.8-0.6h0.8c0.4,0,0.8,0,0.8,0.6c0,0.5-0.4,0.6-0.8,0.6h-0.9c-0.8,0-1.1,0.2-1.1,1v0.2h1c0.4,0,0.8,0.1,0.8,0.6
		c0,0.5-0.5,0.6-0.8,0.6h-1v4.5c0,0.4-0.1,0.8-0.6,0.8c-0.5,0-0.6-0.4-0.6-0.8V4z"/>
	<path class="st0" d="M31.8,7.2c0,0.6,0,1,0.8,1h0.6c0.5,0,0.7,0,0.8-0.5c0.1-0.3,0.3-0.5,0.6-0.5c0.3,0,0.6,0.3,0.6,0.6
		c0,0.3-0.2,0.7-0.4,1c-0.4,0.5-1,0.6-1.6,0.6h-0.6c-0.6,0-1.1-0.1-1.5-0.6c-0.4-0.5-0.4-1-0.4-1.6V4h-0.4c-0.3,0-0.8-0.1-0.8-0.6
		c0-0.5,0.4-0.6,0.8-0.6h0.4V1.7c0-0.4,0.1-0.8,0.6-0.8c0.5,0,0.6,0.4,0.6,0.8v1.2h1.9c0.4,0,0.8,0.1,0.8,0.6c0,0.5-0.5,0.6-0.8,0.6
		h-1.9V7.2z"/>
	<path class="st0" d="M50.4,3.7l0.2-0.2c0.4-0.4,0.6-0.6,1.1-0.6H53c0.3,0,0.6,0.2,0.9,0.4l0.4,0.3c0.5,0.4,0.6,0.7,0.6,1.3v2.3
		c0,0.6-0.2,0.9-0.6,1.3l-0.4,0.3c-0.3,0.2-0.6,0.4-0.9,0.4h-1.2c-0.5,0-0.8-0.3-1.1-0.6l-0.3-0.3v0.1c0,0.4-0.1,0.8-0.6,0.8
		c-0.5,0-0.6-0.4-0.6-0.8V1.3c0-0.4,0.1-0.8,0.6-0.8c0.5,0,0.6,0.4,0.6,0.8V3.7z M50.4,6.6c0,0.4,0,0.5,0.3,0.8l0.7,0.6
		c0.1,0.1,0.3,0.3,0.4,0.3h0.9c0.2,0,0.3,0,0.4-0.1l0.5-0.4c0.1-0.1,0.1-0.4,0.1-0.6V5c0-0.2-0.1-0.4-0.2-0.5L53,4.1
		C52.9,4.1,52.8,4,52.7,4h-0.8c-0.2,0-0.3,0.1-0.5,0.2l-0.7,0.6c-0.2,0.2-0.3,0.3-0.3,0.7V6.6z"/>
	<path class="st0" d="M59,5c0-0.8,0.2-1,0.7-1.5c0.6-0.5,0.8-0.6,1.6-0.6h0.9c0.8,0,1.1,0.2,1.6,0.6C64.5,4,64.7,4.2,64.7,5v2.2
		c0,0.8-0.2,1-0.8,1.5c-0.6,0.5-0.8,0.6-1.6,0.6h-0.9c-0.7,0-1-0.1-1.6-0.6C59.2,8.2,59,7.9,59,7.2V5z M60.2,7.2
		c0,0.2,0.1,0.4,0.4,0.7c0.3,0.2,0.4,0.3,0.8,0.3h0.9c0.4,0,0.5-0.1,0.8-0.3c0.3-0.3,0.4-0.4,0.4-0.7V5c0-0.2-0.1-0.4-0.4-0.7
		C62.9,4.1,62.7,4,62.3,4h-0.9c-0.4,0-0.5,0.1-0.8,0.3c-0.3,0.3-0.4,0.4-0.4,0.7V7.2z"/>
	<path class="st0" d="M70.9,6.1L69.2,4c-0.1-0.2-0.3-0.3-0.3-0.5c0-0.3,0.3-0.6,0.6-0.6c0.3,0,0.6,0.4,0.8,0.6l1.5,1.8l1.5-1.8
		c0.2-0.3,0.4-0.6,0.8-0.6c0.3,0,0.6,0.3,0.6,0.6c0,0.2-0.1,0.4-0.3,0.5l-1.8,2.1l1.8,2.1c0.1,0.2,0.3,0.3,0.3,0.5
		c0,0.3-0.3,0.6-0.6,0.6c-0.3,0-0.6-0.3-0.8-0.6l-1.5-1.8l-1.5,1.8C70,9,69.8,9.3,69.5,9.3c-0.3,0-0.6-0.3-0.6-0.6
		c0-0.2,0.1-0.4,0.3-0.5L70.9,6.1z"/>
</g>
</svg>
