<?xml version="1.0" encoding="utf-8"?>
<!-- Generator: Adobe Illustrator 25.4.1, SVG Export Plug-In . SVG Version: 6.00 Build 0)  -->
<svg version="1.1" id="レイヤー_1" xmlns="http://www.w3.org/2000/svg" xmlns:xlink="http://www.w3.org/1999/xlink" x="0px"
	 y="0px" width="39.3px" height="10.9px" viewBox="0 0 39.3 10.9" style="enable-background:new 0 0 39.3 10.9;"
	 xml:space="preserve">
<style type="text/css">
	.st0{fill:#595757;}
</style>
<g>
	<g>
		<path class="st0" d="M5.2,0h1.8v10.2c0,0.4-0.2,0.7-0.7,0.7c-0.5,0-0.7-0.3-0.7-0.7V1.9h0l-1.3,2v0.2C4.2,4.6,4,5,3.5,5
			C3,5,2.8,4.6,2.8,4.1V3.9l-1.3-2h0v8.3c0,0.4-0.2,0.7-0.7,0.7S0,10.6,0,10.2V0h1.8l1.7,2.5L5.2,0z"/>
		<path class="st0" d="M17,9.5c0.4,0,0.7,0.2,0.7,0.7c0,0.5-0.3,0.7-0.7,0.7h-6.2V0H17c0.4,0,0.7,0.2,0.7,0.7c0,0.5-0.3,0.7-0.7,0.7
			h-4.8v3.3h2.1c0.4,0,0.7,0.2,0.7,0.7c0,0.5-0.3,0.7-0.7,0.7h-2.1v3.3H17z"/>
		<path class="st0" d="M27.1,0.7c0-0.4,0.2-0.7,0.7-0.7c0.5,0,0.7,0.3,0.7,0.7v10.2h-1.8L23,2.5v0h0v7.7c0,0.4-0.2,0.7-0.7,0.7
			c-0.5,0-0.7-0.3-0.7-0.7V0h1.8l3.7,8.5h0h0L27.1,0.7z"/>
		<path class="st0" d="M34.6,10.9c-0.7,0-1.2-0.2-1.7-0.7c-0.5-0.5-0.5-1-0.5-1.7V0.7C32.3,0.3,32.5,0,33,0c0.5,0,0.7,0.3,0.7,0.7
			v7.8c0,0.8,0.2,1,0.9,1H37c0.6,0,0.9-0.2,0.9-1V0.7c0-0.4,0.2-0.7,0.7-0.7c0.5,0,0.7,0.3,0.7,0.7v7.8c0,0.6-0.1,1.1-0.5,1.7
			c-0.5,0.5-1,0.7-1.7,0.7H34.6z"/>
	</g>
</g>
</svg>
