<?xml version="1.0" encoding="utf-8"?>
<!-- Generator: Adobe Illustrator 25.4.1, SVG Export Plug-In . SVG Version: 6.00 Build 0)  -->
<svg version="1.1" id="レイヤー_1" xmlns="http://www.w3.org/2000/svg" xmlns:xlink="http://www.w3.org/1999/xlink" x="0px"
	 y="0px" width="35.3px" height="11.8px" viewBox="0 0 35.3 11.8" style="enable-background:new 0 0 35.3 11.8;"
	 xml:space="preserve">
<style type="text/css">
	.st0{fill:#595757;}
</style>
<g>
	<path class="st0" d="M5.6,6.8c0,0.8-0.1,1.1-0.7,1.7L4.2,9.1C4,9.2,3.6,9.6,3.3,9.6H2.5C2,9.6,1.8,9.2,1.4,8.9L1.2,8.7V11
		c0,0.4-0.1,0.8-0.6,0.8S0,11.4,0,11V3.7c0-0.4,0-0.9,0.6-0.9c0.5,0,0.6,0.4,0.6,0.8v0.1l0.2-0.2c0.3-0.3,0.8-0.7,1.1-0.7h0.8
		c0.3,0,0.6,0.3,1,0.5l0.7,0.5c0.7,0.5,0.7,0.9,0.7,1.7V6.8z M4.5,5.4c0-0.2-0.1-0.3-0.2-0.5L3.4,4.2C3.3,4.1,3.1,4,3,4H2.7
		C2.5,4,2.3,4.2,2.2,4.4L1.5,5C1.2,5.3,1.2,5.4,1.2,5.6v1.1c0,0.2,0,0.4,0.2,0.5l0.9,0.8c0.2,0.2,0.3,0.3,0.5,0.3H3
		c0.2,0,0.3-0.1,0.4-0.2l0.9-0.7C4.4,7.3,4.5,7.2,4.5,7V5.4z"/>
	<path class="st0" d="M14.4,8.1V5.7c0-0.3,0.2-0.6,0.6-0.6s0.6,0.3,0.6,0.6v3c0,0.4-0.3,0.6-0.6,0.6h-4.7c-0.3,0-0.6-0.2-0.6-0.6
		s0.3-0.6,0.6-0.6h1.8V1.2h-1.8C10,1.2,9.7,1,9.7,0.6C9.7,0.2,10,0,10.3,0h3v8.1H14.4z"/>
	<path class="st0" d="M20.7,8.1h4.1c0.3,0,0.6,0.2,0.6,0.6s-0.3,0.6-0.6,0.6h-5.3V5.4c0-0.9,0.5-1.4,1.4-1.4h3.4V1.2h-4.1
		c-0.3,0-0.6-0.2-0.6-0.6c0-0.4,0.3-0.6,0.6-0.6h4c0.4,0,0.7,0.1,1,0.3c0.3,0.3,0.4,0.6,0.4,1.1v2.5c0,0.4,0,0.8-0.4,1.1
		c-0.3,0.3-0.6,0.3-1,0.3h-3.4V8.1z"/>
	<path class="st0" d="M33.5,5.1V1.6c0-0.3,0.1-0.6,0.6-0.6c0.5,0,0.6,0.3,0.6,0.6v3.5c0.3,0,0.6,0.2,0.6,0.6S35,6.3,34.7,6.3v2.4
		c0,0.4-0.2,0.6-0.6,0.6c-0.4,0-0.6-0.2-0.6-0.6V6.3H30V0.6C30,0.3,30.1,0,30.6,0c0.5,0,0.6,0.3,0.6,0.6v4.5H33.5z"/>
</g>
</svg>
