<?xml version="1.0" encoding="utf-8"?>
<!-- Generator: Adobe Illustrator 25.4.1, SVG Export Plug-In . SVG Version: 6.00 Build 0)  -->
<svg version="1.1" id="レイヤー_1" xmlns="http://www.w3.org/2000/svg" xmlns:xlink="http://www.w3.org/1999/xlink" x="0px"
	 y="0px" width="94.2px" height="9.3px" viewBox="0 0 94.2 9.3" style="enable-background:new 0 0 94.2 9.3;" xml:space="preserve">
<style type="text/css">
	.st0{fill:#595757;}
</style>
<g>
	<path class="st0" d="M2,4C1.7,4,1.3,4,1.3,4.3c0,0.2,0.1,0.3,0.3,0.3L4.5,6c0.7,0.3,1.1,0.8,1.1,1.6c0,1.2-0.8,1.7-1.9,1.7H2
		c-0.6,0-1,0-1.4-0.4C0.3,8.8,0,8.6,0,8.3C0,8,0.3,7.7,0.6,7.7c0.2,0,0.3,0.1,0.4,0.2C1.2,8.2,1.6,8.2,2,8.2h1.6c0.4,0,1,0,1-0.6
		c0-0.3-0.3-0.5-0.6-0.6L1.2,5.7c-0.6-0.3-1-0.7-1-1.4c0-0.9,0.7-1.5,1.6-1.5h2c0.6,0,0.9,0,1.3,0.4c0.2,0.2,0.5,0.3,0.5,0.6
		S5.2,4.5,4.9,4.5c-0.2,0-0.3-0.1-0.5-0.2C4.2,4,4,4,3.7,4H2z"/>
	<path class="st0" d="M13.1,4c-0.1,0-0.2,0-0.4,0.1L11,5.2v3.3c0,0.4-0.1,0.8-0.6,0.8S9.8,8.9,9.8,8.5V1.3c0-0.4,0.1-0.8,0.6-0.8
		S11,0.9,11,1.3v2.6l0.9-0.6c0.3-0.2,0.6-0.4,1-0.4h0.8c0.2,0,0.6,0,1.1,0.4c0.5,0.4,0.5,0.9,0.5,1.6l0.1,3.6c0,0.4,0,0.9-0.6,0.9
		c-0.5,0-0.6-0.4-0.6-0.8L14.2,5c0-0.6,0-1-0.6-1H13.1z"/>
	<path class="st0" d="M19.7,5c0-0.8,0.2-1,0.7-1.5C21,3,21.2,2.9,22,2.9H23c0.8,0,1.1,0.2,1.6,0.6C25.2,4,25.3,4.2,25.3,5v2.2
		c0,0.8-0.2,1-0.8,1.5c-0.6,0.5-0.8,0.6-1.6,0.6H22c-0.7,0-1-0.1-1.6-0.6c-0.6-0.5-0.8-0.8-0.8-1.5V5z M20.8,7.2
		c0,0.2,0.1,0.4,0.4,0.7c0.3,0.2,0.4,0.3,0.8,0.3H23c0.4,0,0.5-0.1,0.8-0.3c0.3-0.3,0.4-0.4,0.4-0.7V5c0-0.2-0.1-0.4-0.4-0.7
		C23.5,4.1,23.3,4,23,4H22c-0.4,0-0.5,0.1-0.8,0.3c-0.3,0.3-0.4,0.4-0.4,0.7V7.2z"/>
	<path class="st0" d="M29.5,3.7c0-0.4,0-0.9,0.6-0.9c0.5,0,0.6,0.4,0.6,0.8v0.5l0.9-0.7c0.3-0.3,0.7-0.5,1-0.5h0.9
		c0.4,0,0.8,0.1,1.1,0.5c0.4,0.4,0.5,0.8,0.5,1.3c0,0.4-0.1,0.8-0.6,0.8c-0.4,0-0.6-0.3-0.6-0.7c0-0.2,0-0.3-0.1-0.5
		C33.7,4,33.5,4,33.2,4h-0.3c-0.2,0-0.4,0.1-0.6,0.3l-1.6,1.3v2.9c0,0.4-0.1,0.8-0.6,0.8s-0.6-0.4-0.6-0.8V3.7z"/>
	<path class="st0" d="M41.7,7.2c0,0.6,0,1,0.8,1H43c0.5,0,0.7,0,0.8-0.5c0.1-0.3,0.3-0.5,0.6-0.5c0.3,0,0.6,0.3,0.6,0.6
		c0,0.3-0.2,0.7-0.4,1c-0.4,0.5-1,0.6-1.6,0.6h-0.6c-0.6,0-1.1-0.1-1.5-0.6c-0.4-0.5-0.4-1-0.4-1.6V4h-0.4c-0.3,0-0.8-0.1-0.8-0.6
		c0-0.5,0.4-0.6,0.8-0.6h0.4V1.7c0-0.4,0.1-0.8,0.6-0.8s0.6,0.4,0.6,0.8v1.2h1.9c0.4,0,0.8,0.1,0.8,0.6c0,0.5-0.5,0.6-0.8,0.6h-1.9
		V7.2z"/>
	<path class="st0" d="M60.7,4h-0.3c-0.3,0-0.8-0.1-0.8-0.6c0-0.5,0.4-0.6,0.8-0.6h0.3V2.7c0-0.7,0-1.1,0.6-1.6
		c0.6-0.5,1.1-0.6,1.8-0.6h0.8c0.4,0,0.8,0,0.8,0.6c0,0.5-0.4,0.6-0.8,0.6H63c-0.8,0-1.1,0.2-1.1,1v0.2h1c0.4,0,0.8,0.1,0.8,0.6
		c0,0.5-0.5,0.6-0.8,0.6h-1v4.5c0,0.4-0.1,0.8-0.6,0.8c-0.5,0-0.6-0.4-0.6-0.8V4z"/>
	<path class="st0" d="M72.3,8.2h0.9c0.4,0,0.8,0.1,0.8,0.6c0,0.5-0.5,0.6-0.8,0.6h-2.9c-0.3,0-0.8-0.1-0.8-0.6
		c0-0.5,0.4-0.6,0.8-0.6h0.9V4h-0.9c-0.3,0-0.8-0.1-0.8-0.6c0-0.5,0.4-0.6,0.8-0.6h1.2c0.7,0,0.9,0.1,0.9,0.8V8.2z M70.6,0.5
		c0-0.4,0.2-0.5,0.5-0.5h0.7c0.3,0,0.5,0.1,0.5,0.5v0.6c0,0.4-0.2,0.5-0.5,0.5h-0.7c-0.3,0-0.5-0.1-0.5-0.5V0.5z"/>
	<path class="st0" d="M82.1,8.2H83c0.4,0,0.8,0.1,0.8,0.6c0,0.5-0.5,0.6-0.8,0.6h-2.9c-0.3,0-0.8-0.1-0.8-0.6c0-0.5,0.4-0.6,0.8-0.6
		H81V1.6h-0.9c-0.3,0-0.8-0.1-0.8-0.6c0-0.5,0.4-0.6,0.8-0.6h1.2c0.7,0,0.9,0.1,0.9,0.8V8.2z"/>
	<path class="st0" d="M92,4.8v3.7c0,0.4-0.1,0.8-0.6,0.8c-0.5,0-0.6-0.4-0.6-0.8V4.7c0-0.2,0-0.6-0.3-0.6c-0.1,0-0.2,0.1-0.3,0.2
		l-0.5,0.5v3.7c0,0.4-0.1,0.8-0.6,0.8c-0.5,0-0.6-0.4-0.6-0.8V3.7c0-0.4,0.1-0.8,0.6-0.8c0.3,0,0.5,0.2,0.6,0.5l0.1-0.1
		c0.3-0.2,0.5-0.4,0.9-0.4c0.4,0,0.8,0.2,1.1,0.6l0.1-0.1c0.4-0.4,0.5-0.5,1-0.5c0.4,0,0.7,0.2,1,0.5c0.3,0.4,0.3,0.7,0.3,1.2l0.1,4
		c0,0.4,0,0.9-0.6,0.9c-0.5,0-0.6-0.4-0.6-0.8l-0.1-3.8c0-0.2,0-0.6-0.3-0.6c-0.2,0-0.4,0.3-0.5,0.4L92,4.8z"/>
</g>
</svg>
