<?xml version="1.0" encoding="utf-8"?>
<!-- Generator: Adobe Illustrator 25.4.1, SVG Export Plug-In . SVG Version: 6.00 Build 0)  -->
<svg version="1.1" id="レイヤー_1" xmlns="http://www.w3.org/2000/svg" xmlns:xlink="http://www.w3.org/1999/xlink" x="0px"
	 y="0px" width="33.1px" height="12.5px" viewBox="0 0 33.1 12.5" style="enable-background:new 0 0 33.1 12.5;"
	 xml:space="preserve">
<style type="text/css">
	.st0{fill:#595757;}
</style>
<path class="st0" d="M1.6,1.6v0.6C1.6,2.7,1.4,3,0.8,3S0,2.7,0,2.2V0h7.9v2.2C7.9,2.7,7.7,3,7.1,3C6.5,3,6.3,2.7,6.3,2.2V1.6H4.8
	v10.1c0,0.5-0.2,0.8-0.8,0.8s-0.8-0.3-0.8-0.8V1.6H1.6z"/>
<path class="st0" d="M19.8,4.5c0.3,0.6,0.4,1.1,0.4,1.8c0,0.8-0.2,1.2-0.5,1.9l-1.5,2.9c-0.4,0.8-1,1.3-2,1.3c-0.9,0-1.6-0.6-2-1.3
	l-1.5-2.9c-0.3-0.7-0.5-1.1-0.5-1.9c0-0.7,0.1-1.2,0.4-1.8l1.6-3.2c0.4-0.8,1-1.3,1.9-1.3c0.9,0,1.6,0.6,1.9,1.3L19.8,4.5z
	 M16.8,2.1c-0.1-0.3-0.2-0.5-0.5-0.5s-0.4,0.2-0.5,0.5L14.3,5c-0.2,0.5-0.4,0.8-0.4,1.3c0,0.4,0.1,0.7,0.3,1.1l1.5,3
	c0.1,0.2,0.2,0.5,0.5,0.5s0.4-0.3,0.5-0.5l1.5-3c0.2-0.4,0.3-0.6,0.3-1.1c0-0.5-0.1-0.8-0.4-1.3L16.8,2.1z"/>
<path class="st0" d="M26.2,11.7c0,0.5-0.2,0.8-0.8,0.8c-0.6,0-0.8-0.3-0.8-0.8V0H30c0.7,0,1.3,0.1,1.8,0.7c0.7,0.6,0.8,1.2,0.8,2.1
	v2.2c0,0.8-0.1,1.4-0.7,2c-0.6,0.7-1.3,0.8-2.1,0.8h-3.5V11.7z M26.2,6.1h3.6c0.9,0,1.2-0.2,1.2-1.2V2.8c0-0.9-0.2-1.2-1.2-1.2h-3.6
	V6.1z"/>
</svg>
