<?xml version="1.0" encoding="utf-8"?>
<!-- Generator: Adobe Illustrator 25.4.1, SVG Export Plug-In . SVG Version: 6.00 Build 0)  -->
<svg version="1.1" id="レイヤー_1" xmlns="http://www.w3.org/2000/svg" xmlns:xlink="http://www.w3.org/1999/xlink" x="0px"
	 y="0px" width="44.4px" height="9.3px" viewBox="0 0 44.4 9.3" style="enable-background:new 0 0 44.4 9.3;" xml:space="preserve">
<style type="text/css">
	.st0{fill:#595757;}
</style>
<g>
	<path class="st0" d="M5.6,8.5c0,0.3,0,0.9-0.6,0.9c-0.5,0-0.6-0.4-0.6-0.8V8.3L3.6,8.9c-0.4,0.2-0.7,0.4-1,0.4H1.7
		C1.4,9.3,1,9.2,0.6,8.9C0.1,8.5,0.1,8,0.1,7.4L0,3.7c0-0.4,0-0.9,0.6-0.9c0.5,0,0.6,0.4,0.6,0.8l0.1,3.5c0,0.3,0,0.6,0.1,0.7
		c0.1,0.2,0.4,0.2,0.7,0.2h0.4c0.1,0,0.3,0,0.4-0.1L4.5,7V3.7c0-0.4,0.1-0.8,0.6-0.8c0.5,0,0.6,0.4,0.6,0.8V8.5z"/>
	<path class="st0" d="M12.2,7.2c0,0.6,0,1,0.8,1h0.6c0.5,0,0.7,0,0.8-0.5c0.1-0.3,0.3-0.5,0.6-0.5c0.3,0,0.6,0.3,0.6,0.6
		c0,0.3-0.2,0.7-0.4,1c-0.4,0.5-1,0.6-1.6,0.6h-0.6c-0.6,0-1.1-0.1-1.5-0.6C11,8.3,11,7.8,11,7.1V4h-0.4c-0.3,0-0.8-0.1-0.8-0.6
		c0-0.5,0.4-0.6,0.8-0.6H11V1.7c0-0.4,0.1-0.8,0.6-0.8c0.5,0,0.6,0.4,0.6,0.8v1.2h1.9c0.4,0,0.8,0.1,0.8,0.6c0,0.5-0.5,0.6-0.8,0.6
		h-1.9V7.2z"/>
	<path class="st0" d="M19.7,5c0-0.8,0.2-1,0.7-1.5C21,3,21.2,2.9,22,2.9H23c0.8,0,1.1,0.2,1.6,0.6C25.2,4,25.3,4.2,25.3,5v2.2
		c0,0.8-0.2,1-0.8,1.5c-0.6,0.5-0.8,0.6-1.6,0.6H22c-0.7,0-1-0.1-1.6-0.6c-0.6-0.5-0.8-0.8-0.8-1.5V5z M20.8,7.2
		c0,0.2,0.1,0.4,0.4,0.7c0.3,0.2,0.4,0.3,0.8,0.3H23c0.4,0,0.5-0.1,0.8-0.3c0.3-0.3,0.4-0.4,0.4-0.7V5c0-0.2-0.1-0.4-0.4-0.7
		C23.5,4.1,23.3,4,23,4H22c-0.4,0-0.5,0.1-0.8,0.3c-0.3,0.3-0.4,0.4-0.4,0.7V7.2z"/>
	<path class="st0" d="M29.5,3.7c0-0.4,0-0.9,0.6-0.9c0.5,0,0.6,0.4,0.6,0.8v0.5l0.9-0.7c0.3-0.3,0.7-0.5,1-0.5h0.9
		c0.4,0,0.8,0.1,1.1,0.5c0.4,0.4,0.5,0.8,0.5,1.3c0,0.4-0.1,0.8-0.6,0.8c-0.4,0-0.6-0.3-0.6-0.7c0-0.2,0-0.3-0.1-0.5
		C33.7,4,33.5,4,33.2,4h-0.3c-0.2,0-0.4,0.1-0.6,0.3l-1.6,1.3v2.9c0,0.4-0.1,0.8-0.6,0.8c-0.5,0-0.6-0.4-0.6-0.8V3.7z"/>
	<path class="st0" d="M42.8,8.2h0.9c0.4,0,0.8,0.1,0.8,0.6c0,0.5-0.5,0.6-0.8,0.6h-2.9c-0.3,0-0.8-0.1-0.8-0.6
		c0-0.5,0.4-0.6,0.8-0.6h0.9V4h-0.9c-0.3,0-0.8-0.1-0.8-0.6c0-0.5,0.4-0.6,0.8-0.6h1.2c0.7,0,0.9,0.1,0.9,0.8V8.2z M41,0.5
		C41,0.1,41.3,0,41.6,0h0.7c0.3,0,0.5,0.1,0.5,0.5v0.6c0,0.4-0.2,0.5-0.5,0.5h-0.7c-0.3,0-0.5-0.1-0.5-0.5V0.5z"/>
</g>
</svg>
