<svg xmlns="http://www.w3.org/2000/svg" xmlns:xlink="http://www.w3.org/1999/xlink" style="display:none"><symbol id="icon-close" viewBox="0 0 10.1 10.1"><path d="M5.9 5l3.7-3.7c.3-.3.2-.7 0-.9L9.1 0 5 4.1 1.4.5C1.1.2.7.3.5.5L0 .9 4.1 5 .6 8.5c-.4.4-.4.9 0 1.2l.3.3L5 6l3.5 3.5c.5.5.9.4 1.3.1l.3-.3L5.9 5z"/></symbol><symbol id="logo-tui_01" viewBox="0 0 22 12.8"><path d="M1.6 3.5h3.2V4c0 .6-.4 1-1.2 1h-2v4.6c0 1.3.5 1.9 1.5 1.9.6 0 1.1-.1 1.5-.3h.1v.6c0 .8-.6 1.2-1.7 1.2-2.1 0-3-1.1-3-3.2v-6c0-.5.1-1.1.4-1.4.2-.3.7-.7 1-.7h.2v1.8zm10.2 9.3C9.5 12.8 8 11.3 8 8.6V3.5h.5c.7 0 1.1.4 1.1 1.2v3.8c0 1.9.9 2.9 2.3 2.9 1.5 0 2.2-.8 2.2-2.8V3.5h.4c.8 0 1.1.4 1.1 1.2v4c0 2.7-1.4 4.1-3.8 4.1zm8.8-9.4h-.5v8.2c0 .8.6 1.2 1.1 1.2h.5V4.7c0-.8-.6-1.3-1.1-1.3zm.3-3.4c-.6 0-1.1.5-1.1 1.1s.5 1.1 1.1 1.1c.6 0 1.1-.5 1.1-1.1S21.5 0 20.9 0z"/></symbol><symbol id="mask_01" viewBox="0 0 10 10"><path d="M10 0H0v10C0 4.5 4.5 0 10 0z"/></symbol><symbol id="mask_02" viewBox="0 0 10 10"><path d="M0 0h10v10C10 4.5 5.5 0 0 0z"/></symbol></svg>