<svg xmlns="http://www.w3.org/2000/svg" xmlns:xlink="http://www.w3.org/1999/xlink" style="display:none"><symbol id="icon-close" viewBox="0 0 10.1 10.1"><path d="M5.9 5l3.7-3.7c.3-.3.2-.7 0-.9L9.1 0 5 4.1 1.4.5C1.1.2.7.3.5.5L0 .9 4.1 5 .6 8.5c-.4.4-.4.9 0 1.2l.3.3L5 6l3.5 3.5c.5.5.9.4 1.3.1l.3-.3L5.9 5z"/></symbol><symbol id="logo-tui_01" viewBox="0 0 22 12.8"><path d="M1.6 3.5h3.2V4c0 .6-.4 1-1.2 1h-2v4.6c0 1.3.5 1.9 1.5 1.9.6 0 1.1-.1 1.5-.3h.1v.6c0 .8-.6 1.2-1.7 1.2-2.1 0-3-1.1-3-3.2v-6c0-.5.1-1.1.4-1.4.2-.3.7-.7 1-.7h.2v1.8zm10.2 9.3C9.5 12.8 8 11.3 8 8.6V3.5h.5c.7 0 1.1.4 1.1 1.2v3.8c0 1.9.9 2.9 2.3 2.9 1.5 0 2.2-.8 2.2-2.8V3.5h.4c.8 0 1.1.4 1.1 1.2v4c0 2.7-1.4 4.1-3.8 4.1zm8.8-9.4h-.5v8.2c0 .8.6 1.2 1.1 1.2h.5V4.7c0-.8-.6-1.3-1.1-1.3zm.3-3.4c-.6 0-1.1.5-1.1 1.1s.5 1.1 1.1 1.1c.6 0 1.1-.5 1.1-1.1S21.5 0 20.9 0z"/></symbol><symbol id="mask_01" viewBox="0 0 10 10"><path d="M10 0H0v10C0 4.5 4.5 0 10 0z"/></symbol><symbol id="mask_02" viewBox="0 0 10 10"><path d="M0 0h10v10C10 4.5 5.5 0 0 0z"/></symbol><symbol id="tx-01" viewBox="0 0 183.7 20.2"><style>.st0{fill:#fff}</style><path d="M9.4 6.8h-3c-.2 0-.2 0-.2-.2V5c0-.2 0-.2.2-.2h5.2V3.3c0-1.4 0-2.2-.2-3.1.8 0 1.6.1 2.3.2.2 0 .4.1.4.2 0 .2-.1.3-.2.5-.1.3-.1.7-.1 2.2v1.5H20c.2 0 .2 0 .2.2v1.7c0 .2 0 .2-.2.2h-5.3c1.5 3 3.1 5 6.1 7.5-.5.5-.8.9-1.1 1.5-.2.3-.2.5-.4.5-.1 0-.2-.1-.5-.4-2.5-2.5-3.9-4.6-5.1-7.4v5.7h2.9c.2 0 .2 0 .2.2V16c0 .2 0 .3-.2.3h-2.9c0 2.1.1 3.5.1 3.8 0 .2 0 .2-.2.2h-1.9c-.2 0-.3 0-.3-.2s0-1.7.1-3.8H8.7c-.2 0-.2 0-.2-.3v-1.6c0-.2 0-.2.2-.2h2.8c0-1.7.1-3.7.1-5.6-1.3 3-2.8 5.3-5 7.3-.2.2-.4.3-.5.3s-.1-.1-.2-.4c-.3-.5-.7-.9-1-1.3v5.4c0 .2 0 .2-.2.2H2.8c-.2 0-.2 0-.2-.2v-8.3-2.5c-.4.5-.8 1.1-1.3 1.6-.1.3-.2.4-.3.4-.1 0-.2-.1-.2-.4C.6 10 .3 9.2 0 8.8c1.9-2.1 3.3-4.5 4.2-7.2.2-.5.3-1 .3-1.6.8.3 1.5.5 2.1.7.3.2.4.2.4.4s-.1.2-.2.4c-.2.1-.3.3-.5.9-.4 1-.9 2.1-1.4 3.2v8.9c2.4-2 4.3-4.4 5.8-7.6H9.4zM41.7.1c.3-.1.3-.1.5 0 .4.3 1 .9 1.4 1.4.2.2.1.3-.1.4l-.5.3h1.9c.2 0 .2 0 .2.2v1.5c0 .2 0 .2-.2.2h-5.1c.2 1.5.5 2.9.9 4.2.4-.7.8-1.3 1.1-1.9 0-.4.2-.9.3-1.4.7.2 1.3.4 1.8.7.2.1.3.2.3.3 0 .1-.1.2-.2.3-.1.1-.2.3-.4.7-.5 1.1-1.1 2.2-1.9 3.3.6.9 1.2 1.4 1.6 1.4.6 0 .8-.6 1-2.1.3.3.8.6 1.1.7.4.2.6.3.6.5 0 .1 0 .3-.1.5-.6 1.8-1.3 2.7-2.5 2.7-1.1 0-2.2-.7-3.1-2-.5.5-1.1 1-1.7 1.5-.3.2-.4.3-.5.3-.1 0-.2-.1-.5-.4l-.7-.7c0 .1-.1.1-.2.1h-5.9c-.2 0-.2 0-.2-.2V9.5 8.1c0-.2 0-.2.2-.2h5.9c.2 0 .2 0 .2.2v4.1c.9-.6 1.7-1.2 2.4-2-.8-1.7-1.3-3.9-1.6-6.1h-7.8v1.5c0 1.2-.2 3.3-.4 4.4-.3 1.4-.7 2.6-1.5 3.9-.2.3-.3.4-.4.4-.1 0-.2-.1-.5-.3-.5-.4-1-.7-1.4-.9.9-1.2 1.3-2.2 1.6-3.5.3-1.2.4-2.6.4-4.7V2.5c0-.2 0-.2.3-.2h9.6c-.1-.8-.1-1.6-.3-2.2.8 0 1.6.1 2.2.2.2 0 .3.1.3.2 0 .2-.1.3-.1.4-.1.2 0 .7 0 1.5h2.1c-.3-.4-.8-.9-1-1.1-.1-.1-.1-.1-.1-.2s0-.2.2-.2l.8-.8zM26.1 18.6c-.3-.2-.3-.2-.1-.4.9-1 1.7-2.4 2.2-3.7.1-.2.1-.2.4-.1l1.4.6c.3.1.3.2.2.4-.6 1.5-1.3 2.8-2.2 4-.1.2-.2.2-.4 0l-1.5-.8zm8.7-13.4h2c.2 0 .2 0 .2.3v1.3c0 .2 0 .2-.2.2h-6.2c-.2 0-.2 0-.2-.2V5.4c0-.2 0-.3.2-.3h4.2zm-1.5 11.7c0 .4.1.7.4.9.4.2 1.3.2 2.2.2 1.6 0 2.2 0 2.7-.2.4-.2.6-.8.6-1.9.4.3.9.5 1.6.7.6.2.6.2.5.8-.2 1.2-.6 1.8-1.2 2.2-.8.4-2 .5-4.3.5-1.9 0-3.2-.1-3.8-.4-.5-.3-.8-.7-.8-1.9v-1.9c0-.6 0-1-.1-1.7.7 0 1.5 0 2.2.1.3 0 .4.1.4.2s0 .2-.1.4-.1.4-.1.8v1.2zm1.6-7.5h-2.6V11h2.6V9.4zm.7 3.8c.2-.2.3-.2.5 0 .8.7 1.4 1.3 2.1 2.2.1.2.2.2-.1.4l-1.1.9c-.1.1-.2.2-.3.2s-.1 0-.2-.2c-.6-.9-1.2-1.6-1.9-2.3-.2-.2-.2-.2.1-.4l.9-.8zm6.8.9c.1-.1.2-.1.3-.1.1 0 .1 0 .2.1 1 1.1 1.9 2.3 2.6 3.7.1.2.1.3-.2.4l-1.4.8c-.3.2-.4.2-.4 0-.6-1.5-1.3-2.7-2.4-3.8-.2-.2-.1-.2.1-.4l1.2-.7zM60.7 2.3c0-.6-.1-.9-.3-1.6 1 .1 2 .2 2.6.3.4.1.6.2.6.4s-.1.3-.2.5c-.1.1-.1.4-.2.6v1.4c2.4-.1 4.6-.1 6.8-.1.3 0 .3 0 .3.3v1.7c0 .2-.1.3-.4.3-2.3-.1-4.4-.1-6.7 0v4.1c.2.6.3 1.5.3 2.2 0 2.6-1 5.2-3.9 7.1-.4.2-.7.4-.9.4s-.4-.2-.7-.3c-.5-.4-1.1-.7-1.7-.9 2.6-1.1 4.1-3 4.5-4.8-.4.6-1.3.9-2.1.9-1.7 0-3.1-1.3-3.1-3.4 0-2 1.5-3.3 3.3-3.3.7 0 1.3.1 1.7.4V6.3c-2.8.2-5.9.4-7.6.7-.5.1-.8.3-1 .3-.2 0-.3-.1-.4-.3-.2-.4-.4-1.3-.6-2.2.8.1 1.5 0 2.7-.1 1.3-.1 4.2-.3 6.8-.4.2-.9.2-1.4.2-2zm-2.8 8.9c0 1 .6 1.5 1.4 1.5.8 0 1.5-.5 1.5-1.5 0-.9-.6-1.4-1.5-1.4-.6-.1-1.4.4-1.4 1.4zM82.1 9.3c1.2-.7 2.3-1 3.5-1 3.2 0 5.5 2.1 5.5 5.3 0 3.7-3 6-7.7 6-2.8 0-4.4-1.2-4.4-3.2 0-1.5 1.4-2.7 3.1-2.7 2.1 0 3.6 1.1 4.1 3.2 1.5-.7 2.2-1.7 2.2-3.3 0-2-1.4-3.3-3.5-3.3-1.8 0-3.9.8-5.6 2.3-.6.6-1.3 1.2-1.9 1.9-.2.2-.3.2-.4.2-.1 0-.2-.1-.3-.2-.5-.4-.9-1-1.3-1.4-.1-.2-.1-.3.1-.5 1.7-1.4 3.2-2.8 5.2-4.9 1.4-1.4 2.4-2.5 3.4-3.8-1.3.2-2.9.5-4.2.8L79 5c-.1 0-.3.1-.4.1-.2 0-.4-.1-.5-.4-.3-.5-.5-1.1-.8-2.4.7.1 1.4.1 2 0 1.3-.1 3.3-.4 5-.7.6-.1 1-.2 1.2-.3.1-.1.3-.2.4-.2.2 0 .4.1.5.2.7.5 1.1.9 1.5 1.4.2.2.2.4.2.5 0 .2-.1.4-.4.5-.4.2-.6.3-1 .7-1.5 1.7-2.9 3.2-4.6 4.9zm0 6.3c-.6 0-1.1.4-1.1.8 0 .7.6 1.1 1.9 1.1.4 0 .7 0 1-.1-.2-1.2-.8-1.8-1.8-1.8zM98.2 6.2c.2-.2.3-.3.5-.2 1 .6 2.1 1.3 3.1 2.2l.2.2s0 .1-.1.2l-1 1.3c-.2.2-.2.3-.4.1-.9-.9-1.9-1.7-3.1-2.4-.1-.1-.2-.1-.2-.2s0-.1.1-.2l.9-1zm0 10.9c.5-1.3 1.3-3.2 1.9-5.3.3.3.8.7 1.2 1.1.6.4.6.4.4 1.1-.5 1.7-1.1 3.5-1.7 5-.2.4-.3.7-.3.9 0 .2-.1.3-.2.3s-.2 0-.4-.1c-.5-.3-1.1-.6-1.8-1.1.3-.8.6-1.2.9-1.9zM99.1.6c.2-.2.3-.2.4-.1 1.1.7 2.1 1.5 3.1 2.3.1.1.1.1.1.2s0 .1-.1.3l-1 1.3c-.2.3-.2.3-.4.1-.9-1-2-1.9-3.1-2.6-.2-.1-.2-.2 0-.4l1-1.1zm14.2 8.5h3.1c.2 0 .2 0 .2.2v3.3c0 .2 0 .2-.2.2h-1.9c.2.2.2.3.2.4 0 .1 0 .2-.2.3-.2.1-.3.3-.7.7-.7.9-1.5 1.7-2.4 2.4 1.5.7 3.4 1.1 5.7 1.5-.3.4-.6.9-.8 1.4-.2.4-.2.6-.5.6-.1 0-.2 0-.5-.1-2.4-.5-4.4-1.1-6-2.1-1.7.9-3.7 1.6-6.1 2.1h-.4c-.2 0-.3-.1-.5-.6s-.5-.9-.8-1.3c2.4-.3 4.3-.9 6-1.6-1-.8-1.8-1.8-2.6-2.9h-.8c-.2 0-.2 0-.2-.2v-.6h-1.5c-.2 0-.2 0-.2-.2v-2.4-1c0-.2 0-.2.2-.2h10.9zm-6.6-6.5h-2.8c-.2 0-.2 0-.2-.2V1.1c0-.2 0-.2.2-.2h10.7c.2 0 .2 0 .2.2v6.7c0 .2 0 .2-.2.2h-10.8c-.2 0-.2 0-.2-.2V6.6c0-.2 0-.2.2-.2h8.7V5.3h-8.1c-.2 0-.2 0-.2-.2V3.9c0-.2 0-.3.2-.3h8.2v-1h-5.9zm5.6 9.4c.3 0 .4 0 .5-.1.1 0 .2-.1.2-.1.2 0 .3.1 1 .6l.4.3v-2h-9.9v1.1h7.8zm-4.8 1.7c.6.7 1.3 1.4 2.1 1.9.8-.6 1.5-1.2 2.1-1.9h-4.2zM127.5 15.5c.5.9 1.1 1.4 2 1.8.8.3 2.2.4 4.1.4 2.8 0 6.1-.1 9.4-.5-.3.5-.5 1-.6 1.6-.1.7-.1.7-.8.7-2.8.2-5.4.2-7.7.2s-4.1-.1-5.1-.6c-1-.4-1.7-1-2.3-1.9-.6.6-1.3 1.3-2.1 1.9-.2.2-.4.3-.5.5-.1.1-.2.2-.3.2-.1 0-.2-.1-.3-.3-.3-.6-.6-1.3-.9-2 .6-.3.9-.4 1.3-.7.6-.4 1.2-.9 1.7-1.4v-4.9h-2.6c-.2 0-.3 0-.3-.3V8.6c0-.2 0-.2.3-.2h4.5c.2 0 .2 0 .2.2v6.9zm-1.2-10c-.1.1-.2.2-.3.2-.1 0-.1 0-.2-.2-.8-1.3-1.7-2.5-2.7-3.4-.2-.2-.1-.2.1-.4l1.2-.8c.1-.1.2-.1.3-.1.1 0 .1 0 .2.1 1 .9 2 2 2.8 3.2.1.2.1.2-.1.4l-1.3 1zm11.5.4c1.3 1 2.8 1.7 5.1 2.4-.3.4-.6.9-.7 1.5-.1.3-.2.4-.3.4-.1 0-.3 0-.5-.2-2.3-.9-4-2.1-5.3-3.7 0 1.1.1 2.2.1 2.6 0 .2 0 .2-.2.2h-1.7c-.2 0-.2 0-.2-.2 0-.3.1-1.3.1-2.4-1.1 1.2-2.4 2.2-3.9 3h8.4c.2 0 .3.1.2.3l-.3.8c-.1.4-.2.8-.4 1.2H140.8c.2 0 .3.1.3.2l-.1 1.3c-.1 1.2-.4 2.1-.6 2.7-.4.8-1.2 1.1-2.3 1.1h-1.5c-.6 0-.7 0-.7-.7 0-.5-.2-.9-.3-1.3.8.1 1.6.2 2 .2.4 0 .7-.1.9-.4.2-.4.3-.9.3-1.5h-1.1l-.1.2c-.1.2-.2.2-.4.2l-1.4-.1c-.3 0-.3-.1-.2-.3.3-.7.6-1.4.7-2h-1.8c-.4 2.8-1.4 4.4-4 5.5-.3.1-.4.2-.5.2-.2 0-.3-.1-.5-.5-.3-.4-.6-.8-1-1.1 2.6-.9 3.7-1.8 3.9-4.1H130.1c-.2 0-.3 0-.3-.3V9.7l-.5.3c-.3.1-.4.2-.5.2-.2 0-.2-.1-.3-.4-.3-.6-.5-1-.8-1.4 1.9-.7 3.4-1.4 4.7-2.6h-3.8c-.2 0-.3 0-.3-.2V4.3c0-.2 0-.2.3-.2h5.5V2.9c-1.2.1-2.4.2-3.7.2-.6 0-.6 0-.8-.5-.1-.5-.4-1-.6-1.3 2.1 0 3.6-.1 5.2-.3 1.2-.1 2.6-.3 3.7-.5.6-.1 1-.2 1.4-.4.6.4 1.1 1 1.4 1.3.1.2.2.3.2.4 0 .2-.2.3-.5.3-.2 0-.6 0-1.2.1-.9.2-2 .3-3 .4v1.5h5.8c.2 0 .2 0 .2.2v1.4c0 .2 0 .2-.2.2h-4.2zM158 7.2c-.2 1.8-.5 3.7-1.1 5.3-1.3 3.3-3.4 5.4-6.6 7.2-.3.1-.4.2-.5.2-.2 0-.3-.1-.5-.5-.4-.6-.9-1-1.4-1.3 3.6-1.6 5.8-3.7 6.8-6.5.5-1.4.8-2.9.9-4.4h-6.3c-.2 0-.3 0-.3-.2V5.2c0-.2 0-.2.3-.2h6.4V3.1c0-1.1 0-1.9-.2-2.9.9 0 1.8.1 2.6.2.3 0 .4.2.4.3 0 .2-.1.4-.2.5-.1.3-.2.9-.2 1.9V5h7.6c.2 0 .3 0 .3.3v2c0 3.7-.2 7.3-.7 9.7-.4 2.1-1.5 2.9-3.7 2.9-.8 0-1.5 0-2.1-.1-.7-.1-.7-.1-.8-.8-.2-.7-.4-1.3-.6-1.7 1.4.2 2.2.3 3.3.3.8 0 1.4-.3 1.6-1.5.4-2.1.6-5.1.6-8.8H158zM183.7 11.1l-.4.4-4.8-4.8-4.8 4.8-.4-.4 4.8-4.8-4.8-4.8.4-.4 4.8 4.8 4.8-4.8.4.4-4.8 4.8 4.8 4.8zM176 6.3c0 .6-.5 1-1 1s-1-.4-1-1 .4-1 1-1 1 .4 1 1zm3.5-3.4c0 .6-.5 1-1 1-.6 0-1-.4-1-1s.4-1 1-1c.5-.1 1 .4 1 1zm0 6.9c0 .6-.5 1-1 1-.6 0-1-.4-1-1s.4-1 1-1c.5 0 1 .4 1 1zm3.4-3.5c0 .6-.5 1-1 1s-1-.4-1-1 .4-1 1-1 1 .4 1 1z"/></symbol></svg>