<?xml version="1.0" encoding="utf-8"?>
<!-- Generator: Adobe Illustrator 26.0.1, SVG Export Plug-In . SVG Version: 6.00 Build 0)  -->
<svg version="1.1" id="レイヤー_1" xmlns="http://www.w3.org/2000/svg" xmlns:xlink="http://www.w3.org/1999/xlink" x="0px"
	 y="0px" viewBox="0 0 16.8 9.8" style="enable-background:new 0 0 16.8 9.8;" xml:space="preserve">
<style type="text/css">
	.st0{fill:#595757;}
</style>
<path class="st0" d="M1.2,2.6l2.4,0l0,0.4c0,0.4-0.3,0.7-0.9,0.7l-1.5,0l0,3.5c0,1,0.4,1.4,1.2,1.4c0.4,0,0.9,0,1.1-0.2h0.1l0,0.4
	c0,0.6-0.5,0.9-1.3,0.9C0.7,9.8,0,9,0,7.4l0-4.6C0,2.4,0.1,2,0.3,1.7C0.5,1.4,0.9,1.2,1,1.2h0.1L1.2,2.6z M9,9.8
	c-1.7,0-2.9-1.2-2.9-3.3l0-3.9l0.4,0c0.5,0,0.8,0.3,0.8,0.9l0,2.9c0,1.4,0.7,2.2,1.8,2.2c1.1,0,1.7-0.6,1.7-2.2l0-3.9h0.3
	c0.6,0,0.9,0.3,0.9,0.9l0,3.1C12,8.7,10.9,9.8,9,9.8z M15.7,2.6l-0.4,0V5l0,2.7l0,1.2c0,0.6,0.4,0.9,0.8,0.9h0.4V7.5l0-2.7V3.6
	C16.6,2.9,16.2,2.6,15.7,2.6z M16,0c-0.4,0-0.8,0.4-0.8,0.8c0,0.4,0.4,0.8,0.8,0.8c0.4,0,0.8-0.4,0.8-0.8S16.5,0,16,0z"/>
</svg>
