<?xml version="1.0" encoding="utf-8"?>
<!-- Generator: Adobe Illustrator 26.0.1, SVG Export Plug-In . SVG Version: 6.00 Build 0)  -->
<svg version="1.1" id="レイヤー_1" xmlns="http://www.w3.org/2000/svg" xmlns:xlink="http://www.w3.org/1999/xlink" x="0px"
	 y="0px" viewBox="0 0 320.3 20.5" style="enable-background:new 0 0 320.3 20.5;" xml:space="preserve">
<style type="text/css">
	.st0{fill:#FFFFFF;}
</style>
<g>
	<g>
		<path class="st0" d="M9.9,9.4c-0.9,1.2-1.8,2.2-3.1,3.4c-1.1,1-2.8,2.3-4.2,3.1c-0.2,0.1-0.4,0.2-0.5,0.2c-0.1,0-0.3-0.1-0.4-0.2
			c-0.4-0.5-1.2-1.1-1.8-1.3c2.2-1.2,3.6-2.2,5.1-3.5c1.3-1.1,2.4-2.2,3.2-3.4l-3.9,0c-1.1,0-2.4,0-3.5,0.1c-0.2,0-0.3-0.1-0.3-0.4
			C0.6,7,0.5,6.1,0.5,5.3c1.3,0.1,2.6,0.1,3.9,0.1h5.2l-0.1-2c0-1.1-0.2-1.9-0.4-2.6c1.2,0,2.1,0.1,2.8,0.2c0.2,0,0.3,0.1,0.3,0.3
			c0,0.1,0,0.2-0.1,0.3c-0.1,0.3-0.2,0.6-0.1,2l0.1,1.7h1.9c1.5,0,2.6,0,4.3-0.1c0.2,0,0.3,0.1,0.3,0.3c0,0.6,0,1.3,0,1.9
			c0,0.2-0.1,0.3-0.3,0.3c-1.6-0.1-2.9-0.1-4.2-0.1h-1.8l0.4,8.3c0.1,1.2-0.3,1.9-1.1,2.3c-0.7,0.4-2,0.8-3,0.8
			c-0.4,0-0.6-0.1-0.7-0.4c-0.4-0.8-0.7-1.3-1.5-2c1.7,0,2.4-0.1,3.1-0.2c0.5-0.1,0.7-0.3,0.6-1.3L9.9,9.4z"/>
		<path class="st0" d="M34.4,14.2c0,1.5,0,2.8,0.1,4.6c0,0.3-0.1,0.4-0.3,0.4c-0.7,0-1.5,0-2.2,0c-0.2,0-0.3-0.1-0.3-0.4
			c0-1.6,0.1-3,0.1-4.5V9.2c-1.9,1.6-4.3,3.3-6.1,4.2c-0.1,0.1-0.2,0.1-0.3,0.1c-0.2,0-0.3-0.1-0.5-0.2c-0.5-0.5-1.2-0.9-1.9-1.3
			c3-1.6,4.9-2.8,6.9-4.5c1.7-1.4,3.3-3,4.7-4.6c0.7-0.9,1-1.3,1.4-2.3c1,0.5,2,1.1,2.4,1.5c0.1,0.1,0.2,0.2,0.2,0.3
			c0,0.2-0.1,0.4-0.3,0.5c-0.4,0.2-0.7,0.6-1.3,1.2c-0.9,1-1.7,1.9-2.6,2.8V14.2z"/>
		<path class="st0" d="M51.2,4.4c0.4,0.1,0.4,0.4,0.3,0.7c-0.2,0.5-0.3,1-0.3,1.5c0,2.8-0.5,4.8-1.2,6.5c-0.6,1.3-1.5,2.8-3.1,4.1
			c-0.2,0.2-0.4,0.3-0.6,0.3c-0.1,0-0.3-0.1-0.4-0.2c-0.6-0.4-1.1-0.6-1.9-0.9c1.7-1.3,2.9-2.6,3.7-4.4c0.6-1.5,0.9-2.7,0.9-6.2
			c0-0.8,0-1.2-0.2-1.8C49.7,4,50.7,4.2,51.2,4.4z M56.1,13.7c1.1-0.6,2.1-1.3,3.1-2c1.3-1,2.6-2.2,3.9-3.7c0.1,0.8,0.3,1.5,0.7,2.2
			c0.1,0.2,0.1,0.3,0.1,0.4c0,0.2-0.1,0.3-0.3,0.5c-1.1,1.1-2.1,2-3.3,2.9c-1.1,0.9-2.4,1.7-3.9,2.6c-0.4,0.3-0.4,0.3-0.6,0.5
			c-0.1,0.1-0.3,0.2-0.4,0.2c-0.1,0-0.3-0.1-0.5-0.2c-0.5-0.3-1-0.9-1.3-1.3c-0.1-0.2-0.2-0.3-0.2-0.5c0-0.1,0-0.2,0.1-0.3
			c0.2-0.3,0.1-0.5,0.1-1.7V6.3c0-1.9,0-2.8-0.2-3.8c0.9,0.1,2.1,0.3,2.8,0.5c0.3,0.1,0.4,0.2,0.4,0.4c0,0.1-0.1,0.3-0.2,0.6
			c-0.2,0.4-0.2,0.9-0.2,2.4V13.7z"/>
		<path class="st0" d="M76.3,1.1c0.3,0.1,0.4,0.2,0.4,0.4c0,0.3-0.2,0.6-0.2,0.9c0,0.4,0.1,1,0.1,1.5c0.2,1.5,0.4,2.6,0.7,3.8
			c1.1-0.6,1.9-1,3.1-1.7c0.6-0.4,1.2-0.7,1.5-1.2c0.7,0.7,1.3,1.5,1.6,2.1c0.1,0.1,0.2,0.3,0.2,0.5c0,0.2-0.1,0.4-0.4,0.4
			c-0.7,0.1-1.4,0.4-2.1,0.7C79.3,9.2,77.6,10,76,11c-1.9,1.3-2.6,2.3-2.6,3.3c0,1.3,1,1.8,3.5,1.8c2.8,0,5-0.2,6.7-0.5
			c0.2,0,0.4,0,0.4,0.3c0.1,0.6,0.2,1.4,0.2,2c0,0.2-0.1,0.4-0.4,0.4c-2,0.3-3.8,0.3-6.6,0.3c-4.2,0-6.4-1.4-6.4-4.2
			c0-2.4,1.6-4,4.2-5.7c-0.5-1.7-0.9-3.7-1.1-5.4c-0.2-1.2-0.3-1.9-0.6-2.6C74.5,0.9,75.5,0.9,76.3,1.1z"/>
		<path class="st0" d="M96.3,5.4c0-1.7,0-2.6-0.3-3.9c1.1,0.1,2.2,0.2,2.8,0.4c0.3,0.1,0.4,0.2,0.4,0.4c0,0.1,0,0.2-0.1,0.4
			c-0.2,0.5-0.3,0.9-0.3,2v2.3l5.7-1.3c1-0.2,1.2-0.3,1.6-0.6c0.1-0.1,0.2-0.1,0.3-0.1c0.1,0,0.2,0,0.3,0.1c0.5,0.3,1.2,0.9,1.6,1.4
			c0.1,0.1,0.2,0.3,0.2,0.4c0,0.2-0.1,0.3-0.3,0.4c-0.3,0.2-0.5,0.6-0.7,0.9c-1.1,1.9-2.2,3.5-3.5,4.8c-0.2,0.2-0.4,0.3-0.6,0.3
			c-0.1,0-0.3,0-0.4-0.2c-0.6-0.4-1.2-0.7-1.8-0.8c1.5-1.3,2.6-2.8,3.6-4.4l-6.1,1.5v5c0,1.2,0.4,1.5,2.8,1.5c1.8,0,3.8-0.2,5.3-0.5
			c0.3,0,0.3,0.1,0.4,0.4c0.1,0.6,0.2,1.3,0.2,1.8c0,0.2-0.1,0.3-0.5,0.3c-1.3,0.2-2.8,0.3-5.3,0.3c-4.2,0-5.5-0.9-5.5-3.9V9.9
			l-1.4,0.4c-1.2,0.3-2.4,0.6-3.1,0.9c-0.1,0-0.2,0.1-0.3,0.1c-0.2,0-0.2-0.1-0.4-0.4c-0.3-0.6-0.6-1.5-0.9-2.2
			c1.4-0.2,2.6-0.4,4.1-0.8l1.9-0.5V5.4z"/>
		<path class="st0" d="M119.2,8.6c-1.1,0-2.2,0-3.3,0.1c-0.2,0-0.3-0.1-0.3-0.4c-0.1-0.6-0.2-1.4-0.2-2.2c1.3,0.1,2.6,0.2,4,0.2h7.5
			c0.4,0,0.8,0,1.2-0.2c0.1-0.1,0.2-0.1,0.3-0.1c0.1,0,0.2,0.1,0.3,0.2c0.5,0.4,1.1,1,1.5,1.4c0.2,0.2,0.2,0.3,0.2,0.5
			c0,0.1-0.1,0.3-0.2,0.4c-0.4,0.3-0.5,0.5-0.7,1c-2.2,4.7-4.7,7.4-9,9.7c-0.2,0.1-0.3,0.2-0.4,0.2c-0.2,0-0.3-0.1-0.5-0.3
			c-0.6-0.5-1.3-0.9-2-1.1c4.1-1.9,7.7-4.9,9.2-9.2L119.2,8.6z M120.6,3.9c-1,0-2.1,0-3,0.1c-0.2,0-0.3-0.1-0.3-0.5
			c-0.1-0.5-0.1-1.4-0.1-2.1c1.3,0.1,2,0.2,3.6,0.2h4c1.4,0,2.6-0.1,3.5-0.1c0.2,0,0.3,0.1,0.3,0.4c0,0.6,0,1.2,0,1.7
			c0,0.4-0.1,0.5-0.4,0.4c-0.7,0-1.8,0-3.1,0H120.6z"/>
		<path class="st0" d="M146.1,2.2c0.2,0.1,0.3,0.2,0.3,0.4c0,0.1-0.1,0.3-0.2,0.4c-0.4,0.5-0.7,1.2-0.9,1.8
			c-1.2,3.4-2.4,6.6-3.8,9.9c3.4-0.3,5.2-0.5,7.7-0.8c-0.7-1.2-1.5-2.4-2.4-3.5c0.7-0.4,1.3-0.7,1.9-1.1c0.2-0.1,0.4,0,0.5,0.1
			c1.7,2,3.4,4.8,4.4,7.2c0.1,0.1,0.1,0.2,0.1,0.3c0,0.1-0.1,0.3-0.3,0.4c-0.5,0.4-1.1,0.6-1.7,0.9c-0.1,0-0.2,0.1-0.3,0.1
			c-0.1,0-0.2-0.1-0.3-0.3c-0.3-0.6-0.5-1.2-0.8-1.8c-3.5,0.5-6.9,0.9-10.5,1.3c-1.5,0.2-2,0.3-2.6,0.5c-0.3,0.1-0.5,0.1-0.6-0.2
			c-0.2-0.4-0.5-1.5-0.8-2.8c0.9,0.1,1.8,0,2.7,0c1.6-3.9,2.7-7.2,3.9-10.9c0.4-1.1,0.6-1.9,0.6-3C144.4,1.4,145.4,1.7,146.1,2.2z"
			/>
		<path class="st0" d="M160.5,14.5c0.2-0.2,0.3-0.2,0.3-0.2s0.2,0,0.3,0.1c1.6,1,3.1,2.3,4.4,4c0.1,0.2,0.2,0.2,0.2,0.3
			c0,0.1,0,0.2-0.2,0.4l-1.3,1.1c-0.2,0.1-0.2,0.2-0.3,0.2c-0.1,0-0.2,0-0.3-0.2c-1.2-1.7-2.7-3.2-4.2-4.2c-0.1-0.1-0.2-0.2-0.2-0.2
			c0-0.1,0-0.1,0.2-0.3L160.5,14.5z"/>
		<path class="st0" d="M186.9,7.5c0.1-0.1,0.2-0.1,0.2-0.1c0.1,0,0.1,0,0.2,0.1c0.9,0.9,1.8,1.8,2.6,2.7c0.4-1.2,0.7-2.6,0.8-4.6h-3
			c-1.9,0-2.5,0-2.7,0c-0.2,0-0.2,0-0.2-0.3V3.7c0-0.2,0-0.2,0.2-0.2c0.1,0,0.8,0,2.7,0h1.1V2.1c0-1,0-1.5-0.2-2.1
			c0.8,0,1.5,0,2.3,0.2c0.2,0,0.4,0.1,0.4,0.2c0,0.2-0.1,0.3-0.1,0.4C191.1,1,191,1.3,191,2.1v1.4h0.6c1.9,0,2.6,0,2.7,0
			c0.2,0,0.2,0,0.2,0.2v1.6c0,0.2,0,0.3-0.2,0.3c-0.1,0-0.5,0-1.4,0c-0.2,2.7-0.7,4.8-1.4,6.5c0.9,1.1,1.8,2.3,2.6,3.5
			c0.1,0.2,0.2,0.2-0.1,0.5l-1.3,1.2c-0.1,0.1-0.2,0.2-0.2,0.2c-0.1,0-0.1-0.1-0.2-0.2c-0.6-1-1.2-2-1.8-2.9c-1,1.8-2.6,3.5-4,4.8
			c-0.2,0.2-0.4,0.3-0.5,0.3c-0.1,0-0.2-0.2-0.4-0.5c-0.3-0.5-0.7-0.9-1.2-1.3c2-1.5,3.2-2.8,4.5-5.3c-0.9-1.2-2-2.3-3.2-3.4
			c-0.2-0.1-0.2-0.2,0-0.4L186.9,7.5z M196,8.6c0.2-0.1,0.3-0.1,0.4,0c1,1.2,1.9,2.6,2.6,4.1c0.1,0.2,0.1,0.3-0.2,0.4l-1.4,0.8
			c-0.3,0.2-0.3,0.1-0.4-0.1c-0.7-1.5-1.4-2.9-2.4-4.2c-0.2-0.2-0.1-0.3,0.1-0.4L196,8.6z M202.3,12.9c0,1.5,0,3.2,0,4.4
			c0,1.1-0.1,1.6-0.7,2.1c-0.5,0.4-1.4,0.5-3.5,0.5c-0.7,0-0.7,0-0.8-0.7c-0.2-0.7-0.4-1.2-0.7-1.7c0.9,0.1,1.8,0.1,2.5,0.1
			c0.6,0,0.8-0.2,0.8-0.7V6.9h-2.1c-1.8,0-2.5,0-2.6,0c-0.2,0-0.2,0-0.2-0.2V4.9c0-0.2,0-0.2,0.2-0.2c0.1,0,0.7,0,2.6,0h2.1V3.1
			c0-1.4,0-2.1-0.1-3.1c0.8,0,1.6,0.1,2.3,0.1c0.2,0,0.4,0.1,0.4,0.2c0,0.2-0.1,0.3-0.1,0.5c-0.1,0.3-0.1,0.7-0.1,2.2v1.6
			c1.4,0,1.9,0,2,0c0.2,0,0.2,0,0.2,0.2v1.8c0,0.2,0,0.2-0.2,0.2c-0.1,0-0.6,0-2,0V12.9z"/>
		<path class="st0" d="M214.8,2.4c0.4,0.2,0.5,0.3,0.5,0.5c0,0.2,0,0.2-0.3,0.7c-0.2,0.4-0.3,0.7-0.5,1.6c-0.6,2.7-0.9,5.4-0.9,7.1
			c0,1.1,0,1.8,0.1,2.6c0.5-1,0.9-1.7,1.5-3.3c0.2,0.5,0.5,0.9,0.8,1.4c0.1,0.1,0.2,0.2,0.2,0.3c0,0.2,0,0.2-0.1,0.4
			c-0.5,1.1-0.9,2.1-1.3,3.3c0,0.1-0.1,0.4-0.1,0.7c0,0.3,0,0.4,0,0.6c0,0.2-0.1,0.2-0.3,0.3c-0.6,0.2-1.2,0.3-1.8,0.4
			c-0.2,0-0.2-0.1-0.3-0.2c-0.6-1.5-1-4.3-1-6.6c0-2,0.2-4.4,0.7-7.2c0.3-1.6,0.4-2.4,0.4-3.3C213.5,1.8,214.2,2,214.8,2.4z
			 M219.5,12.7c0.2,0,0.2,0.1,0.2,0.3c0.1,1.5,1.2,2.1,3.6,2.1c1.7,0,2.7-0.1,4.2-0.3c0.2,0,0.3,0,0.3,0.3c0.1,0.5,0.1,1.3,0.1,1.9
			c0,0.3,0,0.3-0.4,0.3c-1.5,0.2-2.6,0.2-3.6,0.2c-3.3,0-4.8-0.5-5.7-1.8c-0.5-0.7-0.8-1.8-0.8-2.9L219.5,12.7z M218.3,4.5
			c0-0.3,0.1-0.3,0.3-0.4c1.3-0.2,3.8-0.4,4.8-0.4c1.3,0,2.3,0,3.3,0.1c0.5,0,0.5,0.1,0.5,0.3c0,0.7,0,1.3,0,1.9
			c0,0.2-0.1,0.3-0.3,0.3c-1.3-0.1-2.5-0.1-3.6-0.1c-1.5,0-2.9,0.1-5,0.5C218.3,5.4,218.3,4.9,218.3,4.5z"/>
		<path class="st0" d="M243.9,3.7c0.2-0.1,0.3-0.1,0.3,0.2c0.1,0.6,0.2,1.2,0.2,1.8c0,0.2-0.1,0.2-0.3,0.3c-1.2,0.2-2.3,0.4-3.6,0.6
			c-1.4,3.7-2.7,6.8-4.3,9.4c-0.1,0.2-0.2,0.2-0.2,0.2c-0.1,0-0.2,0-0.3-0.1c-0.5-0.3-1.1-0.8-1.5-1.1c-0.1-0.1-0.2-0.2-0.2-0.2
			c0-0.1,0-0.2,0.1-0.3c1.7-2.7,2.8-5,3.8-7.7c-0.8,0-1.5,0-2.2,0c-0.5,0-0.7,0-1.2,0c-0.2,0-0.3-0.1-0.3-0.4
			c-0.1-0.4-0.2-1.1-0.2-1.9c0.9,0.1,1.4,0.1,2,0.1c0.9,0,1.5,0,2.5-0.1c0.3-0.9,0.4-1.7,0.6-2.5c0.1-0.8,0.1-1.1,0.1-1.8
			c0.9,0.1,1.9,0.3,2.6,0.5c0.2,0,0.4,0.2,0.4,0.3c0,0.2-0.1,0.3-0.2,0.4c-0.1,0.2-0.2,0.4-0.4,0.8c-0.2,0.5-0.3,1.2-0.5,1.9
			C242,4.1,243.1,3.9,243.9,3.7z M244.5,9.6c0-0.6,0-0.9-0.2-1.6c1.1,0.1,1.7,0.2,2.4,0.4c0.2,0,0.3,0.2,0.3,0.4c0,0,0,0.2-0.1,0.5
			c-0.1,0.3-0.1,0.5-0.1,0.9c0,1.3,0.1,2.2,0.2,3.7c1.6,0.6,2.7,1.1,4,2c0.2,0.2,0.2,0.2,0.1,0.5c-0.3,0.7-0.6,1.2-1,1.8
			c-0.1,0.1-0.1,0.2-0.2,0.2c-0.1,0-0.1,0-0.2-0.1c-1-0.8-1.8-1.3-2.7-1.8c0,2.2-1.6,3.2-4.1,3.2c-2.4,0-4-1.2-4-3.1
			c0-1.9,1.6-3.2,4.1-3.2c0.4,0,1,0,1.7,0.1C244.6,12,244.6,10.6,244.5,9.6z M243,15.2c-1.1,0-2,0.4-2,1.3c0,0.7,0.6,1.1,1.9,1.1
			c1.2,0,1.9-0.6,1.9-1.6c0-0.2,0-0.3,0-0.4C244.2,15.3,243.7,15.2,243,15.2z M247.1,4.6c0.1-0.2,0.2-0.2,0.5-0.2
			c1.3,0.4,3,1.2,4.3,2.1c0.1,0.1,0.2,0.2,0.2,0.2c0,0.1,0,0.2-0.1,0.3c-0.2,0.5-0.6,1.2-0.9,1.6c-0.1,0.1-0.1,0.2-0.2,0.2
			c-0.1,0-0.1,0-0.2-0.1c-1.3-0.9-2.9-1.8-4.6-2.4C246.4,5.6,246.8,5,247.1,4.6z"/>
		<path class="st0" d="M264.6,9.1c1.2-0.7,2.3-1,3.5-1c3.2,0,5.5,2.1,5.5,5.3c0,3.7-3,6-7.7,6c-2.8,0-4.4-1.2-4.4-3.2
			c0-1.5,1.4-2.7,3.1-2.7c2.1,0,3.6,1.1,4.1,3.2c1.5-0.7,2.2-1.7,2.2-3.3c0-2-1.4-3.3-3.5-3.3c-1.8,0-3.9,0.8-5.6,2.3
			c-0.6,0.6-1.3,1.2-1.9,1.9c-0.2,0.2-0.3,0.2-0.4,0.2c-0.1,0-0.2-0.1-0.3-0.2c-0.5-0.4-0.9-1-1.3-1.4c-0.1-0.2-0.1-0.3,0.1-0.5
			c1.7-1.4,3.2-2.8,5.2-4.9c1.4-1.4,2.4-2.5,3.4-3.8c-1.3,0.2-2.9,0.5-4.2,0.8c-0.3,0.1-0.6,0.1-0.9,0.3c-0.1,0-0.3,0.1-0.4,0.1
			c-0.2,0-0.4-0.1-0.5-0.4c-0.3-0.5-0.5-1.1-0.8-2.4c0.7,0.1,1.4,0.1,2,0c1.3-0.1,3.3-0.4,5-0.7c0.6-0.1,1-0.2,1.2-0.3
			c0.1-0.1,0.3-0.2,0.4-0.2c0.2,0,0.4,0.1,0.5,0.2c0.7,0.5,1.1,0.9,1.5,1.4c0.2,0.2,0.2,0.4,0.2,0.5c0,0.2-0.1,0.4-0.4,0.5
			c-0.4,0.2-0.5,0.3-1,0.7C267.7,5.9,266.2,7.4,264.6,9.1L264.6,9.1z M264.6,15.4c-0.6,0-1.1,0.4-1.1,0.8c0,0.7,0.6,1.1,1.9,1.1
			c0.4,0,0.7,0,1-0.1C266.2,16,265.5,15.4,264.6,15.4z"/>
		<path class="st0" d="M285.8,14.4c0,2,0.9,2.8,2.9,2.8c2.6,0,4-1,4-3c0-1.2-0.3-2.2-2-4c0.9,0.1,1.4,0,2.2-0.1c0.2,0,0.3,0,0.5,0.1
			c1.2,1.1,1.9,2.6,1.9,4.1c0,3.1-2.6,5.1-6.3,5.1c-3.9,0-5.5-1.8-5.5-5c0-0.5,0.1-1.1,0.2-2.1c-1.3-0.2-2.2-0.4-3-0.7
			c-0.2,0-0.2-0.2-0.2-0.4c-0.1-0.7-0.1-1.4,0-2c1.3,0.5,2.3,0.7,3.6,0.9c0.1-0.8,0.3-2.2,0.4-3.1c-1.5-0.2-2.3-0.3-3.2-0.6
			c-0.3-0.1-0.4-0.2-0.4-0.4c0-0.5-0.1-1.3-0.1-2c1.5,0.5,2.6,0.7,4,0.8c0.2-1.3,0.2-1.9,0.3-2.5c0-0.6,0-1.3,0-1.8
			c1,0.1,2.2,0.4,2.6,0.6c0.3,0.1,0.5,0.3,0.5,0.5c0,0.2-0.1,0.3-0.2,0.4c-0.2,0.2-0.3,0.4-0.4,0.9c-0.1,0.5-0.2,1.3-0.4,2.1
			c0.9,0.1,1.8,0,2.7-0.1c0.2,0,0.2,0.1,0.2,0.3c0,0.5,0,1.1,0,1.7c0,0.2-0.1,0.3-0.4,0.3c-1,0.1-2,0.1-2.9,0.1
			c-0.1,0.8-0.4,2.3-0.5,3.1c1.2,0,2.1,0,3.1-0.1c0.3,0,0.4,0,0.4,0.2c0,0.4,0,1.2-0.1,1.7c0,0.3-0.1,0.4-0.3,0.4
			c-1.1,0.1-2.2,0.1-3.4,0.1C285.8,13.4,285.8,14,285.8,14.4z"/>
		<path class="st0" d="M312.6,4.8c-0.5,3.7-1.4,7.2-2.8,9.5c-0.9,1.7-2.1,2.5-3.7,2.5c-1.9,0-3.9-2.1-3.9-5.7c0-2.1,0.9-4.1,2.5-5.7
			c1.8-1.8,4.2-2.8,7.2-2.8c5.3,0,8.4,3.3,8.4,7.6c0,4.1-2.3,6.7-6.8,8c-0.5,0.1-0.7,0-0.9-0.4c-0.2-0.4-0.7-0.9-1.5-1.4
			c3.7-0.9,6.6-2.4,6.6-6.6C317.6,7.3,315.7,4.8,312.6,4.8L312.6,4.8z M306.3,7c-1.1,1.2-1.7,2.7-1.7,4.1c0,2,0.8,3.1,1.5,3.1
			c0.6,0,1.1-0.3,1.7-1.3c1-1.8,2-5,2.3-7.9C308.5,5.3,307.3,5.9,306.3,7z"/>
	</g>
</g>
</svg>
