<?xml version="1.0" encoding="utf-8"?>
<!-- Generator: Adobe Illustrator 26.0.1, SVG Export Plug-In . SVG Version: 6.00 Build 0)  -->
<svg version="1.1" id="レイヤー_1" xmlns="http://www.w3.org/2000/svg" xmlns:xlink="http://www.w3.org/1999/xlink" x="0px"
	 y="0px" viewBox="0 0 184.7 20" style="enable-background:new 0 0 184.7 20;" xml:space="preserve">
<style type="text/css">
	.st0{fill:#595656;}
</style>
<path class="st0" d="M2.8,11.1c0-0.8,0-1.9,0-2.9C2.3,9,1.8,9.7,1.2,10.5c-0.1,0.2-0.2,0.2-0.3,0.2c-0.1,0-0.2-0.1-0.2-0.3
	C0.5,9.9,0.2,9.5,0,9.2c2.1-2.3,3.5-4.8,4.4-7.6c0.2-0.5,0.3-1,0.3-1.5c0.6,0.2,1.1,0.4,1.7,0.6c0.2,0.1,0.3,0.2,0.3,0.3
	c0,0.1-0.1,0.2-0.2,0.4C6.3,1.4,6.2,1.6,6,2.1C5.6,3.3,5.1,4.4,4.5,5.4v11c0,2.3,0,3.3,0,3.4c0,0.2,0,0.2-0.2,0.2H3
	c-0.2,0-0.2,0-0.2-0.2c0-0.1,0-1.1,0-3.4V11.1z M9.3,6.6c-2.2,0-2.9,0-3,0C6.1,6.6,6,6.6,6,6.4V5.1c0-0.2,0-0.2,0.2-0.2
	c0.1,0,0.9,0,3,0h2.5V3.1c0-1.4,0-2.1-0.2-2.9c0.6,0,1.1,0,1.8,0.1c0.2,0,0.4,0.1,0.4,0.2c0,0.2-0.1,0.3-0.2,0.4
	c-0.1,0.2-0.1,0.7-0.1,2V5h3.4c2.2,0,2.9,0,3.1,0c0.2,0,0.2,0,0.2,0.2v1.3c0,0.2,0,0.2-0.2,0.2c-0.1,0-0.9,0-3.1,0h-2.7
	c1.6,3.1,3.3,5.2,6.5,7.9c-0.3,0.3-0.6,0.7-0.8,1.1c-0.1,0.2-0.2,0.4-0.3,0.4s-0.2-0.1-0.4-0.3c-2.8-2.7-4.4-4.9-5.8-8.1
	c0,2.1,0,4.6,0.1,6.7h0.8c1.8,0,2.3,0,2.4,0c0.2,0,0.2,0,0.2,0.2v1.2c0,0.2,0,0.2-0.2,0.2c-0.1,0-0.7,0-2.4,0h-0.8
	c0,2.1,0.1,3.7,0.1,3.9c0,0.2,0,0.2-0.2,0.2h-1.4c-0.2,0-0.2,0-0.2-0.2c0-0.2,0-1.8,0.1-3.9h-0.7c-1.8,0-2.3,0-2.5,0
	c-0.2,0-0.2,0-0.2-0.2v-1.2c0-0.2,0-0.2,0.2-0.2c0.1,0,0.7,0,2.5,0h0.7c0-2.2,0.1-4.6,0.1-6.7c-1.4,3.2-3.1,5.7-5.6,8
	c-0.2,0.2-0.3,0.3-0.4,0.3c-0.1,0-0.2-0.1-0.3-0.3c-0.2-0.4-0.5-0.7-0.8-1c2.7-2.2,4.7-4.6,6.2-8H9.3z"/>
<path class="st0" d="M41.1,0.1c0.2-0.1,0.2-0.1,0.4,0C42,0.4,42.7,1,43.2,1.6c0.1,0.2,0.1,0.2-0.1,0.4l-0.7,0.5c1.5,0,2,0,2.1,0
	c0.2,0,0.2,0,0.2,0.2v1.1c0,0.2,0,0.2-0.2,0.2c-0.1,0-0.9,0-3,0h-2.3c0.2,1.7,0.6,3.4,1.1,4.8c0.5-0.8,0.9-1.6,1.2-2.3
	C41.8,6,41.9,5.5,42,5.1c0.5,0.2,1,0.3,1.4,0.5c0.2,0.1,0.2,0.2,0.2,0.2c0,0.1-0.1,0.2-0.2,0.3c-0.1,0.1-0.2,0.3-0.4,0.6
	C42.6,7.9,42,9,41.2,10.2c0.7,1.1,1.5,1.8,2,1.8c0.7,0,0.9-0.7,1.2-2.3c0.2,0.3,0.6,0.5,0.8,0.6c0.5,0.3,0.5,0.3,0.4,0.8
	c-0.5,1.8-1.2,2.6-2.4,2.6c-1,0-2.1-0.9-3.1-2.2c-0.6,0.6-1.3,1.3-2.1,1.8c-0.2,0.2-0.3,0.2-0.4,0.2c-0.1,0-0.2-0.1-0.4-0.3
	c-0.3-0.3-0.4-0.4-0.8-0.6c1.2-0.7,2.2-1.6,3-2.5l-0.1-0.3c-0.8-1.6-1.3-3.7-1.6-6h-8.2v1.7c0,1.1-0.2,3.3-0.4,4.4
	c-0.3,1.4-0.7,2.5-1.6,3.8c-0.1,0.2-0.2,0.3-0.3,0.3S27,14,26.8,13.9c-0.4-0.3-0.7-0.5-1.1-0.7c0.9-1.3,1.3-2.2,1.6-3.5
	c0.3-1.2,0.5-2.6,0.5-4.8c0-1.6,0-2.2,0-2.4c0-0.2,0-0.2,0.2-0.2c0.1,0,0.9,0,3,0h6.5c0-0.2,0-0.4,0-0.5c-0.1-0.7-0.1-1.3-0.2-1.8
	c0.6,0,1.3,0.1,1.7,0.1c0.2,0,0.3,0.1,0.3,0.2c0,0.1,0,0.3-0.1,0.4c-0.1,0.2-0.1,0.6,0,1.1c0,0.2,0,0.4,0,0.5H42
	c-0.5-0.5-1.1-1.1-1.6-1.5c-0.1-0.1-0.1-0.1-0.1-0.2c0-0.1,0-0.1,0.2-0.2L41.1,0.1z M29.7,14.8c0.3,0.1,0.3,0.2,0.2,0.4
	c-0.6,1.4-1.3,2.8-2.3,3.9c-0.1,0.1-0.1,0.1-0.2,0.1c-0.1,0-0.1,0-0.2-0.1l-0.9-0.6c-0.3-0.2-0.3-0.2-0.2-0.4c0.9-1,1.8-2.3,2.2-3.6
	c0.1-0.2,0.1-0.2,0.4-0.1L29.7,14.8z M30.3,5.3c0-0.2,0-0.2,0.2-0.2c0.1,0,0.6,0,2,0h2.2c1.4,0,1.9,0,2,0c0.2,0,0.2,0,0.2,0.2v1
	c0,0.2,0,0.2-0.2,0.2c-0.1,0-0.6,0-2,0h-2.2c-1.4,0-1.9,0-2,0c-0.2,0-0.2,0-0.2-0.2V5.3z M34.5,7.8c1.3,0,1.7,0,1.9,0
	c0.2,0,0.2,0,0.2,0.2c0,0.1,0,0.4,0,1.4v1.3c0,1,0,1.3,0,1.4c0,0.2,0,0.2-0.2,0.2c-0.2,0-0.6,0-1.9,0h-1.9c-1.3,0-1.8,0-1.9,0
	c-0.2,0-0.2,0-0.2-0.2c0-0.1,0-0.4,0-1.4V9.3c0-1,0-1.3,0-1.4c0-0.2,0-0.2,0.2-0.2c0.1,0,0.5,0,1.9,0H34.5z M32.9,17.1
	c0,0.5,0.1,0.7,0.5,0.9c0.5,0.1,1.3,0.2,2.3,0.2c1.5,0,2.5,0,3.1-0.3c0.5-0.2,0.7-0.9,0.7-2c0.3,0.2,0.7,0.4,1.2,0.5
	c0.5,0.2,0.5,0.2,0.4,0.7c-0.2,1.3-0.6,1.8-1.2,2.1c-0.9,0.4-2.3,0.5-4.2,0.5c-1.6,0-2.8-0.1-3.5-0.3c-0.5-0.2-0.9-0.6-0.9-1.6v-2
	c0-0.7,0-1.2-0.1-1.7c0.6,0,1.2,0,1.7,0.1c0.2,0,0.3,0.1,0.3,0.2c0,0.1,0,0.2-0.1,0.3c-0.1,0.2-0.1,0.4-0.1,0.9V17.1z M35.1,9h-3.2
	v2h3.2V9z M35.2,13.2c0.1-0.1,0.2-0.1,0.2-0.1s0.1,0,0.2,0.1c0.8,0.6,1.5,1.4,2.2,2.2c0.1,0.2,0.1,0.2-0.1,0.4l-0.8,0.6
	c-0.1,0.1-0.2,0.1-0.3,0.1c-0.1,0-0.1,0-0.2-0.1c-0.6-0.8-1.3-1.6-2-2.3c-0.2-0.1-0.1-0.2,0.1-0.4L35.2,13.2z M42.3,14.1
	c0.1-0.1,0.2-0.1,0.2-0.1c0.1,0,0.1,0,0.2,0.1c1,1.1,1.8,2.2,2.5,3.5c0.1,0.2,0.1,0.2-0.2,0.4l-0.9,0.5c-0.1,0.1-0.2,0.1-0.3,0.1
	c-0.1,0-0.1,0-0.2-0.1c-0.6-1.4-1.4-2.6-2.4-3.6c-0.1-0.1-0.1-0.2,0.1-0.3L42.3,14.1z"/>
<path class="st0" d="M70.2,5.5c0,0.2-0.1,0.3-0.3,0.3c-2.3-0.1-4.4-0.1-6.8,0c0,1.4,0,2.8,0,4.2c0.2,0.7,0.3,1.5,0.3,2.3
	c0,2.7-1.1,5.2-4.2,7c-0.3,0.2-0.5,0.3-0.7,0.3c-0.2,0-0.3-0.1-0.5-0.2c-0.4-0.3-0.8-0.6-1.3-0.7c2.9-1.2,4.4-3.2,4.7-5.3
	c-0.5,0.8-1.4,1.1-2.3,1.1c-1.6,0-3.1-1.1-3.1-3.2c0-2,1.5-3.3,3.3-3.3c0.7,0,1.5,0.2,1.9,0.6c0-0.9,0-1.7,0-2.6
	c-3,0.2-6,0.4-7.9,0.7c-0.5,0.1-0.8,0.2-1,0.2c-0.2,0-0.3-0.1-0.3-0.3c-0.2-0.4-0.3-1-0.4-1.7c0.8,0.1,1.5,0,2.7-0.1
	c1.6-0.1,4.1-0.3,6.9-0.5c0-0.8,0-1.3,0-2c0-0.6-0.1-0.9-0.2-1.5c0.8,0,1.7,0.2,2.1,0.3c0.3,0.1,0.5,0.2,0.5,0.4
	c0,0.1-0.1,0.2-0.2,0.4c-0.1,0.1-0.1,0.3-0.2,0.6c0,0.4,0,0.7,0,1.7C65.4,4,67.6,4,69.9,4c0.2,0,0.3,0,0.3,0.3V5.5z M57.7,11.1
	c0,1.1,0.7,1.7,1.6,1.7c1.1,0,1.8-0.8,1.8-1.8c0-1-0.7-1.7-1.8-1.7C58.6,9.3,57.7,10,57.7,11.1z"/>
<path class="st0" d="M82.2,9.7c1.4-0.9,2.8-1.3,4.2-1.3c3.2,0,5.3,2,5.3,5c0,3.4-2.8,5.8-7.4,5.8c-2.8,0-4.1-1.2-4.1-2.9
	c0-1.3,1.2-2.5,2.8-2.5c2,0,3.4,1.2,3.9,3.2c1.7-0.7,2.8-1.8,2.8-3.8c0-2.1-1.6-3.5-3.7-3.5c-2,0-4.2,1-5.9,2.4
	c-0.7,0.5-1.3,1.2-1.9,1.8c-0.1,0.1-0.2,0.2-0.3,0.2c-0.1,0-0.1,0-0.2-0.2c-0.4-0.3-0.7-0.7-1-1.1c-0.1-0.1-0.1-0.2,0.1-0.4
	c1.7-1.5,3-2.7,5.1-4.9c1.3-1.4,2.5-2.7,4-4.4c-1.6,0.3-3.3,0.6-5.1,0.9c-0.3,0-0.5,0.1-0.8,0.2c-0.1,0.1-0.3,0.1-0.4,0.1
	c-0.2,0-0.3-0.1-0.4-0.3c-0.2-0.4-0.4-0.9-0.6-1.8c0.7,0.1,1.3,0.1,2,0c1.6-0.2,3.4-0.4,5.3-0.8c0.4-0.1,0.7-0.2,0.9-0.3
	c0.1-0.1,0.3-0.2,0.4-0.2c0.1,0,0.3,0,0.4,0.2c0.5,0.4,0.9,0.8,1.2,1.1c0.1,0.2,0.2,0.3,0.2,0.4c0,0.2-0.1,0.4-0.4,0.5
	c-0.3,0.1-0.6,0.3-1,0.7C85.6,6.1,84.1,7.7,82.2,9.7L82.2,9.7z M83,15.4c-0.7,0-1.3,0.4-1.3,1c0,0.7,0.7,1.3,2.2,1.3
	c0.4,0,0.8,0,1.3-0.1C84.9,16.3,84.1,15.4,83,15.4z"/>
<path class="st0" d="M99.1,6.2c0.2-0.2,0.2-0.2,0.4-0.1c1,0.5,2,1.3,3,2.3c0.1,0.1,0.1,0.1,0.1,0.2c0,0,0,0.1-0.1,0.2l-0.7,0.9
	c-0.1,0.1-0.2,0.2-0.2,0.2c0,0-0.1,0-0.2-0.1c-0.9-0.9-1.9-1.7-3-2.4c-0.1,0-0.1-0.1-0.1-0.2c0,0,0-0.1,0.1-0.2L99.1,6.2z
	 M99.6,17.2c0.5-1.1,1.3-3.1,1.9-5.3c0.2,0.3,0.6,0.6,0.9,0.8c0.4,0.3,0.4,0.3,0.3,0.8c-0.5,1.7-1.2,3.6-1.8,5.1
	c-0.2,0.4-0.3,0.7-0.3,0.9c0,0.2-0.1,0.3-0.2,0.3c-0.1,0-0.2,0-0.4-0.1c-0.4-0.2-0.9-0.5-1.4-0.9C99,18.3,99.2,17.9,99.6,17.2z
	 M100.2,0.6c0.2-0.2,0.2-0.2,0.4-0.1c1.1,0.7,2.1,1.5,3,2.4c0.1,0.1,0.1,0.1,0.1,0.2c0,0.1,0,0.1-0.1,0.2l-0.7,0.9
	c-0.2,0.2-0.2,0.2-0.4,0.1c-0.9-1-1.9-1.9-2.9-2.6c-0.1,0-0.1-0.1-0.1-0.1c0-0.1,0-0.1,0.1-0.2L100.2,0.6z M113.4,11.9
	c0.3,0,0.4,0,0.5-0.1c0,0,0.1,0,0.2,0c0.2,0,0.3,0.1,0.8,0.5c0.4,0.4,0.5,0.5,0.5,0.7c0,0.1,0,0.2-0.2,0.3c-0.2,0.1-0.3,0.2-0.6,0.6
	c-0.8,1.1-1.7,2-2.6,2.7c1.6,0.9,3.6,1.5,6,1.9c-0.3,0.3-0.5,0.7-0.6,1.1c-0.2,0.5-0.2,0.5-0.7,0.4c-2.5-0.6-4.5-1.3-6.1-2.4
	c-1.8,1.1-3.9,1.8-6.3,2.3c-0.5,0.1-0.5,0.1-0.7-0.4c-0.2-0.4-0.4-0.7-0.6-1c2.5-0.4,4.6-1,6.4-2c-1-0.9-1.9-2-2.8-3.2
	c-0.5,0-0.7,0-0.7,0c-0.2,0-0.2,0-0.2-0.2V12c0-0.2,0-0.2,0.2-0.2c0.1,0,0.8,0,2.7,0H113.4z M105.1,12.5c0,0.2,0,0.2-0.2,0.2h-1.3
	c-0.2,0-0.2,0-0.2-0.2c0-0.1,0-0.3,0-1.8v-0.5c0-0.5,0-0.8,0-0.9c0-0.2,0-0.2,0.2-0.2c0.1,0,0.9,0,3.1,0h7.5c2.2,0,3,0,3.1,0
	c0.2,0,0.2,0,0.2,0.2c0,0.1,0,0.4,0,0.8v0.6c0,1.5,0,1.7,0,1.8c0,0.2,0,0.2-0.2,0.2H116c-0.2,0-0.2,0-0.2-0.2v-2h-10.7V12.5z
	 M107.9,2.4c-2,0-2.7,0-2.8,0c-0.2,0-0.2,0-0.2-0.2V1.2c0-0.2,0-0.2,0.2-0.2c0.1,0,0.8,0,2.8,0h4.4c2.1,0,3,0,3.1,0
	c0.2,0,0.2,0,0.2,0.2c0,0.1,0,0.7,0,2v2.4c0,1.3,0,1.9,0,2c0,0.2,0,0.2-0.2,0.2c-0.1,0-1.1,0-3.1,0h-4.7c-1.8,0-2.4,0-2.6,0
	c-0.2,0-0.2,0-0.2-0.2v-1c0-0.2,0-0.2,0.2-0.2c0.1,0,0.7,0,2.6,0h6.4V5h-5.8c-1.9,0-2.5,0-2.6,0c-0.2,0-0.2,0-0.2-0.2V3.9
	c0-0.2,0-0.2,0.2-0.2c0.1,0,0.7,0,2.6,0h5.8V2.4H107.9z M108.3,13.2c0.7,0.9,1.5,1.7,2.4,2.4c0.9-0.7,1.8-1.5,2.5-2.4H108.3z"/>
<path class="st0" d="M128.4,15.4c0.4,1,1,1.6,2,2c0.8,0.3,2.2,0.5,4.3,0.5c2.8,0,6-0.1,9.3-0.5c-0.2,0.4-0.4,0.8-0.5,1.3
	c-0.1,0.6-0.1,0.5-0.6,0.6c-2.8,0.2-5.5,0.2-7.8,0.2c-2.4,0-4.2-0.2-5.3-0.6c-1-0.5-1.6-1.1-2.2-2.1c-0.7,0.7-1.4,1.4-2.2,2
	c-0.3,0.2-0.4,0.3-0.5,0.5c-0.1,0.1-0.1,0.2-0.3,0.2c-0.1,0-0.2-0.1-0.3-0.2c-0.3-0.5-0.5-1-0.7-1.5c0.6-0.3,0.9-0.5,1.3-0.7
	c0.6-0.4,1.3-1,1.9-1.6v-5.2h-1.3c-1.1,0-1.4,0-1.5,0c-0.2,0-0.2,0-0.2-0.2V8.7c0-0.2,0-0.2,0.2-0.2c0.1,0,0.4,0,1.5,0h1.2
	c1.1,0,1.5,0,1.6,0c0.2,0,0.2,0,0.2,0.2c0,0.1,0,0.7,0,2.1V15.4z M125.4,1c0.2-0.2,0.3-0.2,0.4,0c0.9,0.9,1.8,1.9,2.6,3.1
	c0.1,0.2,0.1,0.2-0.2,0.4l-0.8,0.7c-0.1,0.1-0.2,0.2-0.3,0.2s-0.1-0.1-0.2-0.2c-0.8-1.3-1.6-2.3-2.5-3.2c-0.1-0.1-0.1-0.1-0.1-0.2
	c0-0.1,0.1-0.1,0.2-0.2L125.4,1z M138,5.5c1.5,1.3,3.1,2,5.9,2.8c-0.3,0.3-0.5,0.7-0.6,1.1c-0.1,0.3-0.2,0.4-0.3,0.4
	c-0.1,0-0.2,0-0.4-0.1c-2.6-0.9-4.3-2.1-5.8-3.8c0,1.4,0.1,2.6,0.1,2.9c0,0.2,0,0.2-0.2,0.2h-1.3c-0.2,0-0.2,0-0.2-0.2
	c0-0.4,0.1-1.5,0.1-2.9c-1.4,1.6-3.2,2.8-5.2,3.7c-0.2,0.1-0.3,0.1-0.4,0.1c-0.1,0-0.2-0.1-0.3-0.3c-0.2-0.5-0.4-0.7-0.7-1
	c2.1-0.7,3.8-1.6,5.2-2.9h-1.3c-2.2,0-2.9,0-3.1,0c-0.2,0-0.2,0-0.2-0.2V4.3c0-0.2,0-0.2,0.2-0.2c0.1,0,0.9,0,3.1,0h2.6V2.5
	c-1.3,0.1-2.5,0.2-4,0.3c-0.5,0-0.5,0-0.6-0.4c-0.1-0.4-0.3-0.7-0.5-0.9c2.2-0.1,3.6-0.2,5.2-0.4c1.2-0.1,2.6-0.3,3.6-0.6
	c0.5-0.2,1-0.3,1.3-0.4c0.5,0.3,0.9,0.7,1.1,1c0.1,0.1,0.2,0.2,0.2,0.3c0,0.2-0.2,0.3-0.5,0.2c-0.2,0-0.6,0-1.3,0.2
	c-0.9,0.2-1.9,0.4-3,0.5v1.8h3c2.2,0,2.9,0,3,0c0.2,0,0.2,0,0.2,0.2v1.1c0,0.2,0,0.2-0.2,0.2c-0.1,0-0.9,0-3,0H138z M135.3,10.9
	c-0.3,2.9-1.3,4.5-4.1,5.9c-0.2,0.1-0.3,0.2-0.4,0.2c-0.1,0-0.2-0.1-0.4-0.4c-0.2-0.3-0.5-0.6-0.8-0.8c2.7-1,3.9-2.2,4.1-4.8h-0.3
	c-1.6,0-2.2,0-2.3,0c-0.2,0-0.2,0-0.2-0.2v-1c0-0.2,0-0.2,0.2-0.2c0.1,0,0.6,0,2.3,0h3.6c1.8,0,2.4,0,2.5,0c0.2,0,0.3,0.1,0.2,0.3
	l-0.3,0.9c-0.1,0.4-0.3,0.8-0.4,1.2h1.6c0.9,0,1.1,0,1.3,0c0.2,0,0.2,0.1,0.2,0.2c0,0.4-0.1,0.8-0.1,1.2c-0.1,1.1-0.3,2.1-0.6,2.7
	c-0.3,0.7-1.1,1-2,1.1c-0.4,0-1.1,0-1.6-0.1c-0.5,0-0.5,0-0.6-0.6c0-0.4-0.2-0.7-0.3-1c0.8,0.1,1.5,0.2,2,0.2c0.4,0,0.7-0.1,0.9-0.4
	c0.2-0.4,0.3-1.1,0.4-1.9h-1.8l-0.1,0.3c-0.1,0.2-0.2,0.2-0.4,0.2l-0.9,0c-0.3,0-0.3-0.1-0.2-0.3c0.4-0.8,0.7-1.6,0.9-2.4H135.3z"/>
<path class="st0" d="M158.9,6.7c-0.2,1.9-0.5,3.9-1.1,5.6c-1.3,3.2-3.4,5.3-6.7,7.1c-0.2,0.1-0.3,0.2-0.4,0.2s-0.2-0.1-0.4-0.3
	c-0.4-0.4-0.7-0.8-1.1-1c3.5-1.6,5.9-3.8,7-6.7c0.6-1.5,0.9-3.2,1-4.9h-3.6c-2.2,0-2.9,0-3,0c-0.2,0-0.2,0-0.2-0.2V5.2
	c0-0.2,0-0.2,0.2-0.2c0.1,0,0.9,0,3,0h3.7c0-0.7,0-1.5,0-2.2c0-1.2,0-1.9-0.2-2.8c0.7,0,1.4,0.1,2,0.2c0.2,0,0.4,0.1,0.4,0.2
	c0,0.2-0.1,0.4-0.2,0.5c-0.1,0.2-0.2,0.8-0.2,1.8c0,0.7,0,1.4,0,2.2h4.6c2.2,0,2.9,0,3.1,0c0.2,0,0.2,0,0.2,0.2c0,0.7,0,1.4,0,2
	c0,3.5-0.3,7.3-0.7,9.6c-0.4,2-1.3,2.7-3.2,2.7c-1,0-1.6,0-2.5-0.1c-0.4,0-0.4,0-0.5-0.6c-0.1-0.6-0.3-1-0.5-1.3
	c1.4,0.3,2.2,0.3,3.3,0.3c0.8,0,1.4-0.3,1.6-1.6c0.4-2.2,0.6-5.5,0.6-9.4H158.9z"/>
<path class="st0" d="M184.7,11l-0.4,0.4l-4.8-4.8l-4.8,4.8l-0.4-0.4l4.8-4.8l-4.8-4.8l0.4-0.4l4.8,4.8l4.8-4.8l0.4,0.4l-4.8,4.8
	L184.7,11z M177,6.2c0,0.5-0.4,1-1,1c-0.5,0-1-0.4-1-1c0-0.5,0.4-1,1-1C176.6,5.2,177,5.6,177,6.2z M180.5,2.7c0,0.6-0.4,1-1,1
	s-1-0.4-1-1c0-0.5,0.4-1,1-1S180.5,2.2,180.5,2.7z M180.5,9.7c0,0.5-0.4,1-1,1s-1-0.4-1-1s0.4-1,1-1S180.5,9.1,180.5,9.7z
	 M183.9,6.2c0,0.5-0.4,1-1,1c-0.6,0-1-0.4-1-1c0-0.5,0.4-1,1-1C183.5,5.2,183.9,5.6,183.9,6.2z"/>
</svg>
