<?xml version="1.0" encoding="utf-8"?>
<!-- Generator: Adobe Illustrator 26.0.1, SVG Export Plug-In . SVG Version: 6.00 Build 0)  -->
<svg version="1.1" id="レイヤー_1" xmlns="http://www.w3.org/2000/svg" xmlns:xlink="http://www.w3.org/1999/xlink" x="0px"
	 y="0px" viewBox="0 0 183.7 20.2" style="enable-background:new 0 0 183.7 20.2;" xml:space="preserve">
<style type="text/css">
	.st0{fill:#FFFFFF;}
</style>
<g>
	<g>
		<path class="st0" d="M9.4,6.8c-2.2,0-2.9,0-3,0c-0.2,0-0.2,0-0.2-0.2V5c0-0.2,0-0.2,0.2-0.2c0.1,0,0.9,0,3,0h2.2V3.3
			c0-1.4,0-2.2-0.2-3.1c0.8,0,1.6,0.1,2.3,0.2c0.2,0,0.4,0.1,0.4,0.2c0,0.2-0.1,0.3-0.2,0.5c-0.1,0.3-0.1,0.7-0.1,2.2v1.5H17
			c2.1,0,2.9,0,3,0c0.2,0,0.2,0,0.2,0.2v1.7c0,0.2,0,0.2-0.2,0.2c-0.2,0-0.9,0-3,0h-2.3c1.5,3,3.1,5,6.1,7.5
			c-0.5,0.5-0.8,0.9-1.1,1.5c-0.2,0.3-0.2,0.5-0.4,0.5c-0.1,0-0.2-0.1-0.5-0.4c-2.5-2.5-3.9-4.6-5.1-7.4c0,2,0,3.9,0,5.7h0.5
			c1.7,0,2.3,0,2.4,0c0.2,0,0.2,0,0.2,0.2V16c0,0.2,0,0.3-0.2,0.3c-0.1,0-0.7,0-2.4,0h-0.5c0,2.1,0.1,3.5,0.1,3.8
			c0,0.2,0,0.2-0.2,0.2h-1.9c-0.2,0-0.3,0-0.3-0.2c0-0.2,0-1.7,0.1-3.8h-0.4c-1.7,0-2.3,0-2.4,0c-0.2,0-0.2,0-0.2-0.3v-1.6
			c0-0.2,0-0.2,0.2-0.2c0.1,0,0.7,0,2.4,0h0.4c0-1.7,0.1-3.7,0.1-5.6c-1.3,3-2.8,5.3-5,7.3c-0.2,0.2-0.4,0.3-0.5,0.3
			S6,16.1,5.9,15.8c-0.3-0.5-0.7-0.9-1-1.3v2.1c0,2.2,0,3.2,0,3.3c0,0.2,0,0.2-0.2,0.2H2.8c-0.2,0-0.2,0-0.2-0.2c0-0.1,0-1.2,0-3.3
			v-5c0-0.7,0-1.6,0-2.5c-0.4,0.5-0.8,1.1-1.3,1.6C1.2,11,1.1,11.1,1,11.1c-0.1,0-0.2-0.1-0.2-0.4C0.6,10,0.3,9.2,0,8.8
			c1.9-2.1,3.3-4.5,4.2-7.2c0.2-0.5,0.3-1,0.3-1.6C5.3,0.3,6,0.5,6.6,0.7C6.9,0.9,7,0.9,7,1.1c0,0.2-0.1,0.2-0.2,0.4
			C6.6,1.6,6.5,1.8,6.3,2.4C5.9,3.4,5.4,4.5,4.9,5.6v8.9c2.4-2,4.3-4.4,5.8-7.6H9.4z"/>
		<path class="st0" d="M41.7,0.1C42,0,42,0,42.2,0.1c0.4,0.3,1,0.9,1.4,1.4c0.2,0.2,0.1,0.3-0.1,0.4l-0.5,0.3c1.3,0,1.8,0,1.9,0
			c0.2,0,0.2,0,0.2,0.2v1.5c0,0.2,0,0.2-0.2,0.2c-0.1,0-0.9,0-2.9,0h-2.2c0.2,1.5,0.5,2.9,0.9,4.2c0.4-0.7,0.8-1.3,1.1-1.9
			C41.8,6,42,5.5,42.1,5c0.7,0.2,1.3,0.4,1.8,0.7c0.2,0.1,0.3,0.2,0.3,0.3c0,0.1-0.1,0.2-0.2,0.3c-0.1,0.1-0.2,0.3-0.4,0.7
			c-0.5,1.1-1.1,2.2-1.9,3.3c0.6,0.9,1.2,1.4,1.6,1.4c0.6,0,0.8-0.6,1-2.1c0.3,0.3,0.8,0.6,1.1,0.7c0.4,0.2,0.6,0.3,0.6,0.5
			c0,0.1,0,0.3-0.1,0.5c-0.6,1.8-1.3,2.7-2.5,2.7c-1.1,0-2.2-0.7-3.1-2c-0.5,0.5-1.1,1-1.7,1.5c-0.3,0.2-0.4,0.3-0.5,0.3
			c-0.1,0-0.2-0.1-0.5-0.4c-0.3-0.3-0.5-0.5-0.7-0.7c0,0.1-0.1,0.1-0.2,0.1c-0.2,0-0.6,0-1.9,0h-2.1c-1.3,0-1.7,0-1.9,0
			c-0.2,0-0.2,0-0.2-0.2c0-0.2,0-0.5,0-1.4V9.5c0-0.9,0-1.3,0-1.4c0-0.2,0-0.2,0.2-0.2c0.2,0,0.6,0,1.9,0h2.1c1.3,0,1.7,0,1.9,0
			c0.2,0,0.2,0,0.2,0.2c0,0.1,0,0.5,0,1.4V11c0,0.7,0,1,0,1.2c0.9-0.6,1.7-1.2,2.4-2c-0.8-1.7-1.3-3.9-1.6-6.1h-7.8v1.5
			c0,1.2-0.2,3.3-0.4,4.4c-0.3,1.4-0.7,2.6-1.5,3.9c-0.2,0.3-0.3,0.4-0.4,0.4c-0.1,0-0.2-0.1-0.5-0.3c-0.5-0.4-1-0.7-1.4-0.9
			c0.9-1.2,1.3-2.2,1.6-3.5c0.3-1.2,0.4-2.6,0.4-4.7c0-1.5,0-2.3,0-2.4c0-0.2,0-0.2,0.3-0.2c0.1,0,0.9,0,3,0h6.6
			c-0.1-0.8-0.1-1.6-0.3-2.2c0.8,0,1.6,0.1,2.2,0.2c0.2,0,0.3,0.1,0.3,0.2c0,0.2-0.1,0.3-0.1,0.4c-0.1,0.2,0,0.7,0,1.5h2.1
			c-0.3-0.4-0.8-0.9-1-1.1c-0.1-0.1-0.1-0.1-0.1-0.2s0-0.2,0.2-0.2L41.7,0.1z M26.1,18.6c-0.3-0.2-0.3-0.2-0.1-0.4
			c0.9-1,1.7-2.4,2.2-3.7c0.1-0.2,0.1-0.2,0.4-0.1L30,15c0.3,0.1,0.3,0.2,0.2,0.4c-0.6,1.5-1.3,2.8-2.2,4c-0.1,0.2-0.2,0.2-0.4,0
			L26.1,18.6z M34.8,5.2c1.3,0,1.8,0,2,0c0.2,0,0.2,0,0.2,0.3v1.3c0,0.2,0,0.2-0.2,0.2c-0.1,0-0.7,0-2,0h-2.2c-1.3,0-1.8,0-2,0
			c-0.2,0-0.2,0-0.2-0.2V5.4c0-0.2,0-0.3,0.2-0.3c0.1,0,0.7,0,2,0H34.8z M33.3,16.9c0,0.4,0.1,0.7,0.4,0.9c0.4,0.2,1.3,0.2,2.2,0.2
			c1.6,0,2.2,0,2.7-0.2c0.4-0.2,0.6-0.8,0.6-1.9c0.4,0.3,0.9,0.5,1.6,0.7c0.6,0.2,0.6,0.2,0.5,0.8c-0.2,1.2-0.6,1.8-1.2,2.2
			c-0.8,0.4-2,0.5-4.3,0.5c-1.9,0-3.2-0.1-3.8-0.4c-0.5-0.3-0.8-0.7-0.8-1.9v-1.9c0-0.6,0-1-0.1-1.7c0.7,0,1.5,0,2.2,0.1
			c0.3,0,0.4,0.1,0.4,0.2c0,0.1,0,0.2-0.1,0.4c-0.1,0.2-0.1,0.4-0.1,0.8V16.9z M34.9,9.4h-2.6V11h2.6V9.4z M35.6,13.2
			c0.2-0.2,0.3-0.2,0.5,0c0.8,0.7,1.4,1.3,2.1,2.2c0.1,0.2,0.2,0.2-0.1,0.4l-1.1,0.9c-0.1,0.1-0.2,0.2-0.3,0.2s-0.1,0-0.2-0.2
			c-0.6-0.9-1.2-1.6-1.9-2.3c-0.2-0.2-0.2-0.2,0.1-0.4L35.6,13.2z M42.4,14.1c0.1-0.1,0.2-0.1,0.3-0.1c0.1,0,0.1,0,0.2,0.1
			c1,1.1,1.9,2.3,2.6,3.7c0.1,0.2,0.1,0.3-0.2,0.4L43.9,19c-0.3,0.2-0.4,0.2-0.4,0c-0.6-1.5-1.3-2.7-2.4-3.8
			C40.9,15,41,15,41.2,14.8L42.4,14.1z"/>
		<path class="st0" d="M60.7,2.3c0-0.6-0.1-0.9-0.3-1.6c1,0.1,2,0.2,2.6,0.3c0.4,0.1,0.6,0.2,0.6,0.4c0,0.2-0.1,0.3-0.2,0.5
			c-0.1,0.1-0.1,0.4-0.2,0.6c0,0.3,0,0.6,0,1.4c2.4-0.1,4.6-0.1,6.8-0.1c0.3,0,0.3,0,0.3,0.3c0,0.6,0,1.1,0,1.7
			c0,0.2-0.1,0.3-0.4,0.3c-2.3-0.1-4.4-0.1-6.7,0c0,1.3,0,2.8,0,4.1c0.2,0.6,0.3,1.5,0.3,2.2c0,2.6-1,5.2-3.9,7.1
			c-0.4,0.2-0.7,0.4-0.9,0.4s-0.4-0.2-0.7-0.3c-0.5-0.4-1.1-0.7-1.7-0.9c2.6-1.1,4.1-3,4.5-4.8c-0.4,0.6-1.3,0.9-2.1,0.9
			c-1.7,0-3.1-1.3-3.1-3.4c0-2,1.5-3.3,3.3-3.3c0.7,0,1.3,0.1,1.7,0.4c0-0.8,0-1.5,0-2.2c-2.8,0.2-5.9,0.4-7.6,0.7
			c-0.5,0.1-0.8,0.3-1,0.3c-0.2,0-0.3-0.1-0.4-0.3c-0.2-0.4-0.4-1.3-0.6-2.2c0.8,0.1,1.5,0,2.7-0.1c1.3-0.1,4.2-0.3,6.8-0.4
			C60.7,3.4,60.7,2.9,60.7,2.3z M57.9,11.2c0,1,0.6,1.5,1.4,1.5c0.8,0,1.5-0.5,1.5-1.5c0-0.9-0.6-1.4-1.5-1.4
			C58.7,9.7,57.9,10.2,57.9,11.2z"/>
		<path class="st0" d="M82.1,9.3c1.2-0.7,2.3-1,3.5-1c3.2,0,5.5,2.1,5.5,5.3c0,3.7-3,6-7.7,6c-2.8,0-4.4-1.2-4.4-3.2
			c0-1.5,1.4-2.7,3.1-2.7c2.1,0,3.6,1.1,4.1,3.2c1.5-0.7,2.2-1.7,2.2-3.3c0-2-1.4-3.3-3.5-3.3c-1.8,0-3.9,0.8-5.6,2.3
			c-0.6,0.6-1.3,1.2-1.9,1.9c-0.2,0.2-0.3,0.2-0.4,0.2c-0.1,0-0.2-0.1-0.3-0.2c-0.5-0.4-0.9-1-1.3-1.4c-0.1-0.2-0.1-0.3,0.1-0.5
			c1.7-1.4,3.2-2.8,5.2-4.9c1.4-1.4,2.4-2.5,3.4-3.8c-1.3,0.2-2.9,0.5-4.2,0.8C79.6,4.8,79.3,4.9,79,5c-0.1,0-0.3,0.1-0.4,0.1
			c-0.2,0-0.4-0.1-0.5-0.4c-0.3-0.5-0.5-1.1-0.8-2.4c0.7,0.1,1.4,0.1,2,0c1.3-0.1,3.3-0.4,5-0.7c0.6-0.1,1-0.2,1.2-0.3
			c0.1-0.1,0.3-0.2,0.4-0.2c0.2,0,0.4,0.1,0.5,0.2c0.7,0.5,1.1,0.9,1.5,1.4c0.2,0.2,0.2,0.4,0.2,0.5c0,0.2-0.1,0.4-0.4,0.5
			c-0.4,0.2-0.6,0.3-1,0.7C85.2,6.1,83.8,7.6,82.1,9.3L82.1,9.3z M82.1,15.6c-0.6,0-1.1,0.4-1.1,0.8c0,0.7,0.6,1.1,1.9,1.1
			c0.4,0,0.7,0,1-0.1C83.7,16.2,83.1,15.6,82.1,15.6z"/>
		<path class="st0" d="M98.2,6.2c0.2-0.2,0.3-0.3,0.5-0.2c1,0.6,2.1,1.3,3.1,2.2c0.1,0.1,0.2,0.2,0.2,0.2c0,0,0,0.1-0.1,0.2l-1,1.3
			c-0.2,0.2-0.2,0.3-0.4,0.1c-0.9-0.9-1.9-1.7-3.1-2.4c-0.1-0.1-0.2-0.1-0.2-0.2c0-0.1,0-0.1,0.1-0.2L98.2,6.2z M98.2,17.1
			c0.5-1.3,1.3-3.2,1.9-5.3c0.3,0.3,0.8,0.7,1.2,1.1c0.6,0.4,0.6,0.4,0.4,1.1c-0.5,1.7-1.1,3.5-1.7,5c-0.2,0.4-0.3,0.7-0.3,0.9
			c0,0.2-0.1,0.3-0.2,0.3c-0.1,0-0.2,0-0.4-0.1c-0.5-0.3-1.1-0.6-1.8-1.1C97.6,18.2,97.9,17.8,98.2,17.1z M99.1,0.6
			c0.2-0.2,0.3-0.2,0.4-0.1c1.1,0.7,2.1,1.5,3.1,2.3c0.1,0.1,0.1,0.1,0.1,0.2c0,0.1,0,0.1-0.1,0.3l-1,1.3c-0.2,0.3-0.2,0.3-0.4,0.1
			c-0.9-1-2-1.9-3.1-2.6c-0.2-0.1-0.2-0.2,0-0.4L99.1,0.6z M113.3,9.1c2.2,0,2.9,0,3.1,0c0.2,0,0.2,0,0.2,0.2c0,0.1,0,0.4,0,0.8v0.6
			c0,1.5,0,1.7,0,1.9c0,0.2,0,0.2-0.2,0.2h-1.9c0.2,0.2,0.2,0.3,0.2,0.4c0,0.1,0,0.2-0.2,0.3c-0.2,0.1-0.3,0.3-0.7,0.7
			c-0.7,0.9-1.5,1.7-2.4,2.4c1.5,0.7,3.4,1.1,5.7,1.5c-0.3,0.4-0.6,0.9-0.8,1.4c-0.2,0.4-0.2,0.6-0.5,0.6c-0.1,0-0.2,0-0.5-0.1
			c-2.4-0.5-4.4-1.1-6-2.1c-1.7,0.9-3.7,1.6-6.1,2.1c-0.2,0-0.3,0-0.4,0c-0.2,0-0.3-0.1-0.5-0.6c-0.2-0.5-0.5-0.9-0.8-1.3
			c2.4-0.3,4.3-0.9,6-1.6c-1-0.8-1.8-1.8-2.6-2.9c-0.5,0-0.7,0-0.8,0c-0.2,0-0.2,0-0.2-0.2v-0.6h-1.5c-0.2,0-0.2,0-0.2-0.2
			c0-0.2,0-0.4,0-1.9v-0.5c0-0.5,0-0.8,0-1c0-0.2,0-0.2,0.2-0.2c0.2,0,0.9,0,3.1,0H113.3z M106.7,2.6c-2,0-2.7,0-2.8,0
			c-0.2,0-0.2,0-0.2-0.2V1.1c0-0.2,0-0.2,0.2-0.2c0.1,0,0.8,0,2.8,0h4.6c2.1,0,3.1,0,3.3,0c0.2,0,0.2,0,0.2,0.2c0,0.1,0,0.7,0,2v2.7
			c0,1.3,0,1.9,0,2c0,0.2,0,0.2-0.2,0.2c-0.1,0-1.2,0-3.3,0h-5c-1.8,0-2.4,0-2.5,0c-0.2,0-0.2,0-0.2-0.2V6.6c0-0.2,0-0.2,0.2-0.2
			c0.1,0,0.7,0,2.5,0h6.2V5.3H107c-1.8,0-2.5,0-2.6,0c-0.2,0-0.2,0-0.2-0.2V3.9c0-0.2,0-0.3,0.2-0.3c0.1,0,0.7,0,2.6,0h5.6V2.6
			H106.7z M112.3,12c0.3,0,0.4,0,0.5-0.1c0.1,0,0.2-0.1,0.2-0.1c0.2,0,0.3,0.1,1,0.6l0.4,0.3v-2h-9.9v1.1c0.4,0,1.1,0,2.5,0H112.3z
			 M107.5,13.7c0.6,0.7,1.3,1.4,2.1,1.9c0.8-0.6,1.5-1.2,2.1-1.9H107.5z"/>
		<path class="st0" d="M127.5,15.5c0.5,0.9,1.1,1.4,2,1.8c0.8,0.3,2.2,0.4,4.1,0.4c2.8,0,6.1-0.1,9.4-0.5c-0.3,0.5-0.5,1-0.6,1.6
			c-0.1,0.7-0.1,0.7-0.8,0.7c-2.8,0.2-5.4,0.2-7.7,0.2c-2.3,0-4.1-0.1-5.1-0.6c-1-0.4-1.7-1-2.3-1.9c-0.6,0.6-1.3,1.3-2.1,1.9
			c-0.2,0.2-0.4,0.3-0.5,0.5c-0.1,0.1-0.2,0.2-0.3,0.2c-0.1,0-0.2-0.1-0.3-0.3c-0.3-0.6-0.6-1.3-0.9-2c0.6-0.3,0.9-0.4,1.3-0.7
			c0.6-0.4,1.2-0.9,1.7-1.4v-4.9h-1c-1.1,0-1.5,0-1.6,0c-0.2,0-0.3,0-0.3-0.3V8.6c0-0.2,0-0.2,0.3-0.2c0.1,0,0.4,0,1.6,0h1.3
			c1.2,0,1.5,0,1.6,0c0.2,0,0.2,0,0.2,0.2c0,0.1,0,0.8,0,2.1V15.5z M126.3,5.5c-0.1,0.1-0.2,0.2-0.3,0.2c-0.1,0-0.1,0-0.2-0.2
			c-0.8-1.3-1.7-2.5-2.7-3.4c-0.2-0.2-0.1-0.2,0.1-0.4l1.2-0.8c0.1-0.1,0.2-0.1,0.3-0.1c0.1,0,0.1,0,0.2,0.1c1,0.9,2,2,2.8,3.2
			c0.1,0.2,0.1,0.2-0.1,0.4L126.3,5.5z M137.8,5.9c1.3,1,2.8,1.7,5.1,2.4c-0.3,0.4-0.6,0.9-0.7,1.5c-0.1,0.3-0.2,0.4-0.3,0.4
			c-0.1,0-0.3,0-0.5-0.2c-2.3-0.9-4-2.1-5.3-3.7c0,1.1,0.1,2.2,0.1,2.6c0,0.2,0,0.2-0.2,0.2h-1.7c-0.2,0-0.2,0-0.2-0.2
			c0-0.3,0.1-1.3,0.1-2.4c-1.1,1.2-2.4,2.2-3.9,3c0.3,0,0.8,0,2,0h3.9c1.8,0,2.4,0,2.5,0c0.2,0,0.3,0.1,0.2,0.3l-0.3,0.8
			c-0.1,0.4-0.2,0.8-0.4,1.2h1.4c0.8,0,1.1,0,1.2,0c0.2,0,0.3,0.1,0.3,0.2l-0.1,1.3c-0.1,1.2-0.4,2.1-0.6,2.7
			c-0.4,0.8-1.2,1.1-2.3,1.1c-0.4,0-1,0-1.5,0c-0.6,0-0.7,0-0.7-0.7c0-0.5-0.2-0.9-0.3-1.3c0.8,0.1,1.6,0.2,2,0.2
			c0.4,0,0.7-0.1,0.9-0.4c0.2-0.4,0.3-0.9,0.3-1.5h-1.1l-0.1,0.2c-0.1,0.2-0.2,0.2-0.4,0.2l-1.4-0.1c-0.3,0-0.3-0.1-0.2-0.3
			c0.3-0.7,0.6-1.4,0.7-2h-1.8c-0.4,2.8-1.4,4.4-4,5.5c-0.3,0.1-0.4,0.2-0.5,0.2c-0.2,0-0.3-0.1-0.5-0.5c-0.3-0.4-0.6-0.8-1-1.1
			c2.6-0.9,3.7-1.8,3.9-4.1h-0.1c-1.6,0-2.1,0-2.2,0c-0.2,0-0.3,0-0.3-0.3V9.7l-0.5,0.3c-0.3,0.1-0.4,0.2-0.5,0.2
			c-0.2,0-0.2-0.1-0.3-0.4c-0.3-0.6-0.5-1-0.8-1.4c1.9-0.7,3.4-1.4,4.7-2.6h-0.8c-2.1,0-2.9,0-3,0c-0.2,0-0.3,0-0.3-0.2V4.3
			c0-0.2,0-0.2,0.3-0.2c0.1,0,0.9,0,3,0h2.5V2.9c-1.2,0.1-2.4,0.2-3.7,0.2c-0.6,0-0.6,0-0.8-0.5c-0.1-0.5-0.4-1-0.6-1.3
			c2.1,0,3.6-0.1,5.2-0.3c1.2-0.1,2.6-0.3,3.7-0.5c0.6-0.1,1-0.2,1.4-0.4c0.6,0.4,1.1,1,1.4,1.3c0.1,0.2,0.2,0.3,0.2,0.4
			c0,0.2-0.2,0.3-0.5,0.3c-0.2,0-0.6,0-1.2,0.1c-0.9,0.2-2,0.3-3,0.4v1.5h2.8c2.1,0,2.9,0,3,0c0.2,0,0.2,0,0.2,0.2v1.4
			c0,0.2,0,0.2-0.2,0.2c-0.1,0-0.9,0-3,0H137.8z"/>
		<path class="st0" d="M158,7.2c-0.2,1.8-0.5,3.7-1.1,5.3c-1.3,3.3-3.4,5.4-6.6,7.2c-0.3,0.1-0.4,0.2-0.5,0.2
			c-0.2,0-0.3-0.1-0.5-0.5c-0.4-0.6-0.9-1-1.4-1.3c3.6-1.6,5.8-3.7,6.8-6.5c0.5-1.4,0.8-2.9,0.9-4.4h-3.4c-2.1,0-2.8,0-2.9,0
			c-0.2,0-0.3,0-0.3-0.2V5.2c0-0.2,0-0.2,0.3-0.2c0.1,0,0.8,0,2.9,0h3.5c0-0.6,0-1.3,0-1.9c0-1.1,0-1.9-0.2-2.9
			c0.9,0,1.8,0.1,2.6,0.2c0.3,0,0.4,0.2,0.4,0.3c0,0.2-0.1,0.4-0.2,0.5c-0.1,0.3-0.2,0.9-0.2,1.9c0,0.6,0,1.2,0,1.9h4.6
			c2.1,0,2.9,0,3,0c0.2,0,0.3,0,0.3,0.3c0,0.7,0,1.4,0,2c0,3.7-0.2,7.3-0.7,9.7c-0.4,2.1-1.5,2.9-3.7,2.9c-0.8,0-1.5,0-2.1-0.1
			c-0.7-0.1-0.7-0.1-0.8-0.8c-0.2-0.7-0.4-1.3-0.6-1.7c1.4,0.2,2.2,0.3,3.3,0.3c0.8,0,1.4-0.3,1.6-1.5c0.4-2.1,0.6-5.1,0.6-8.8H158z
			"/>
		<path class="st0" d="M183.7,11.1l-0.4,0.4l-4.8-4.8l-4.8,4.8l-0.4-0.4l4.8-4.8l-4.8-4.8l0.4-0.4l4.8,4.8l4.8-4.8l0.4,0.4l-4.8,4.8
			L183.7,11.1z M176,6.3c0,0.6-0.5,1-1,1s-1-0.4-1-1c0-0.6,0.4-1,1-1S176,5.7,176,6.3z M179.5,2.9c0,0.6-0.5,1-1,1c-0.6,0-1-0.4-1-1
			c0-0.6,0.4-1,1-1C179,1.8,179.5,2.3,179.5,2.9z M179.5,9.8c0,0.6-0.5,1-1,1c-0.6,0-1-0.4-1-1c0-0.6,0.4-1,1-1
			C179,8.8,179.5,9.2,179.5,9.8z M182.9,6.3c0,0.6-0.5,1-1,1s-1-0.4-1-1c0-0.6,0.4-1,1-1S182.9,5.7,182.9,6.3z"/>
	</g>
</g>
</svg>
