<?xml version="1.0" encoding="utf-8"?>
<!-- Generator: Adobe Illustrator 26.0.1, SVG Export Plug-In . SVG Version: 6.00 Build 0)  -->
<svg version="1.1" id="レイヤー_1" xmlns="http://www.w3.org/2000/svg" xmlns:xlink="http://www.w3.org/1999/xlink" x="0px"
	 y="0px" viewBox="0 0 110.7 19.1" style="enable-background:new 0 0 110.7 19.1;" xml:space="preserve">
<style type="text/css">
	.st0{fill:#595757;}
</style>
<g>
	<g>
		<path class="st0" d="M12.3,4.1c0,5.1-0.2,8.1-0.9,10.3c-0.4,1.7-1.1,3-2,4.2c-0.1,0.2-0.2,0.3-0.3,0.3c-0.1,0-0.2-0.1-0.4-0.3
			c-0.4-0.3-0.6-0.5-1-0.7c-0.1,0.1-0.2,0.3-0.3,0.4c-0.4,0.3-0.9,0.5-2.2,0.5c-0.5,0-0.5,0-0.7-0.5c-0.1-0.5-0.2-0.9-0.4-1.2
			c0.6,0.1,0.9,0.1,1.5,0.1c0.5,0,0.7-0.3,0.7-0.9V12h-3c-0.2,3.2-0.8,5-1.8,6.8c-0.1,0.2-0.2,0.3-0.3,0.3c-0.1,0-0.2-0.1-0.4-0.3
			c-0.4-0.4-0.6-0.6-1-0.8c1.4-2.3,1.9-4.5,1.9-10.7V3.9c0-2.3,0-3.4,0-3.5c0-0.2,0-0.2,0.2-0.2c0.1,0,0.5,0,1.9,0h1.9
			c1.3,0,1.8,0,1.9,0c0.2,0,0.2,0,0.2,0.2c0,0.1,0,1.2,0,3.5v9.7c0,1,0,2.1,0,3c0,0.4-0.1,0.7-0.2,1.1c1-1.1,1.7-2.6,2.1-4.4
			c0.5-2.1,0.6-4.8,0.6-8.1V2.8c0-1.5,0-2.1,0-2.2c0-0.2,0-0.2,0.2-0.2c0.2,0,0.6,0,2,0h2.1c1.5,0,1.9,0,2.1,0c0.2,0,0.2,0,0.2,0.2
			c0,0.1,0,1.3,0,3.9v11.9c0,0.4,0,0.6,0.1,0.7c0.1,0.1,0.3,0.1,0.6,0.1c0.4,0,0.6,0,0.7-0.2c0.2-0.2,0.3-0.9,0.3-3.3
			c0.3,0.2,0.6,0.4,1,0.5c0.4,0.1,0.4,0.2,0.4,0.7c-0.1,2.4-0.3,3.1-0.7,3.5c-0.4,0.4-0.9,0.6-2,0.6c-0.8,0-1.3-0.1-1.7-0.3
			c-0.4-0.2-0.6-0.6-0.6-1.5V2h-3.2V4.1z M6.4,10.5V6.8H3.5v0.5c0,1.2,0,2.2-0.1,3.1H6.4z M3.5,1.8v3.5h2.9V1.8H3.5z"/>
		<path class="st0" d="M33.5,13.4c-0.9,1.6-2,2.4-3.5,2.4c-1.8,0-3.5-1.9-3.5-5.3c0-2.1,0.9-4.2,2.5-5.7c1.7-1.6,4-2.6,6.8-2.6
			c5.1,0,8.1,3,8.1,7.3c0,3.8-2.2,6.6-6.9,7.8c-0.4,0.1-0.5,0-0.7-0.3c-0.2-0.3-0.5-0.7-1.1-1.1c4.1-0.9,6.8-2.9,6.8-6.8
			c0-3-2.3-5.3-5.6-5.3C35.9,7.6,34.9,11.2,33.5,13.4z M30.3,6c-1.3,1.3-1.9,3-1.9,4.4c0,2.2,0.9,3.3,1.6,3.3c0.7,0,1.3-0.4,1.9-1.5
			c1.1-1.9,2.2-5.2,2.5-8.3C32.7,4.3,31.3,5,30.3,6z"/>
		<path class="st0" d="M55.7,0.8c0.3,0.1,0.4,0.2,0.4,0.4c0,0.2-0.1,0.4-0.2,0.6c-0.1,0.3-0.2,1-0.3,2.4c-0.2,3.4-0.3,6.2-0.3,9.1
			c0,2.3,0.5,2.9,2.3,2.9c2.4,0,5.4-1.5,7.8-4.1c0.1,0.6,0.3,1.2,0.4,1.6c0.1,0.2,0.1,0.3,0.1,0.4c0,0.2-0.1,0.3-0.3,0.5
			c-2.3,2.2-5.3,3.5-8.4,3.5c-2.7,0-4-1.2-4-4.4c0-3.4,0.2-6.8,0.3-9.7c0-1.3,0.1-2.5-0.2-3.6C54.1,0.5,55.1,0.6,55.7,0.8z"/>
		<path class="st0" d="M82.9,1.3c0.1,0.1,0.2,0.2,0.2,0.3c0,0.2-0.1,0.3-0.2,0.4c-0.3,0.1-0.5,0.3-0.9,0.7c-2,1.8-4.6,4.2-6.3,6
			c-0.2,0.2-0.3,0.4-0.3,0.5c0,0.2,0.1,0.3,0.3,0.4c2.8,2,5.7,4.4,8.4,7.1c0.1,0.1,0.1,0.2,0.1,0.2s0,0.1-0.1,0.2
			c-0.4,0.4-0.8,0.9-1.1,1.1c-0.1,0.1-0.2,0.1-0.2,0.1s-0.1-0.1-0.2-0.2c-2.7-3-5.4-5.3-8.2-7.4c-0.7-0.6-1-1-1-1.6
			c0-0.6,0.3-1,0.9-1.7c1.8-1.9,4-4.1,5.9-6.1c0.5-0.5,0.8-0.9,1.1-1.5C81.8,0.4,82.4,0.9,82.9,1.3z"/>
		<path class="st0" d="M105.8,6.8c0-0.5,0-0.9,0-1.5c0.9,0.2,1.7,0.5,2.1,0.8c0.2,0.1,0.2,0.3,0.1,0.5c-0.1,0.2-0.2,0.4-0.3,0.7
			c-0.2,1-0.4,2.1-0.7,3.1c1.3,0.6,2.6,1.4,3.6,2.2c0.2,0.1,0.2,0.2,0.1,0.4c-0.2,0.4-0.5,1.1-0.7,1.4c0,0.1-0.1,0.1-0.2,0.1
			c-0.1,0-0.1,0-0.2-0.1c-1.1-0.9-2.1-1.6-3.2-2.2c-1.1,2.7-2.3,4.4-4.6,6.1c-0.2,0.1-0.3,0.2-0.4,0.2c-0.1,0-0.2,0-0.3-0.1
			c-0.4-0.4-0.9-0.6-1.5-0.7c2.8-1.9,4-3.7,4.9-6.2c-1.4-0.7-3.1-1.3-4.9-1.5c-1.1,2.2-1.8,3.5-2.6,4.3c-0.8,0.9-1.7,1.3-2.8,1.3
			c-1.2,0-2.4-0.8-2.4-2.7c0-2.6,2.7-4.6,6.4-4.6c0.8-1.9,1.4-3.6,2.1-5.7c-1.4,0.2-2.8,0.3-3.5,0.4c-0.4,0.1-0.7,0.2-1,0.2
			c-0.1,0-0.2,0.1-0.3,0.1c-0.2,0-0.2-0.1-0.3-0.2c-0.2-0.4-0.4-1.1-0.6-1.9c0.6,0.1,1.1,0.2,1.9,0.1c1,0,2.2-0.1,3.4-0.3
			c0.6-0.1,0.8-0.2,1-0.3c0.2-0.1,0.4-0.1,0.5,0c0.4,0.3,0.9,0.6,1.2,1c0.1,0.1,0.2,0.2,0.2,0.3c0,0.1-0.1,0.2-0.2,0.3
			c-0.3,0.2-0.4,0.6-0.6,1.1c-0.7,1.8-1.3,3.4-2,5.1c1.7,0.2,3.2,0.6,4.8,1.3C105.5,8.7,105.7,7.7,105.8,6.8z M93.7,12.8
			c0,0.7,0.3,1.1,0.9,1.1c0.6,0,1-0.3,1.5-1c0.5-0.6,1.1-1.6,1.8-3C95.4,10.1,93.7,11.4,93.7,12.8z"/>
	</g>
</g>
</svg>
