<?xml version="1.0" encoding="utf-8"?>
<!-- Generator: Adobe Illustrator 26.0.1, SVG Export Plug-In . SVG Version: 6.00 Build 0)  -->
<svg version="1.1" id="レイヤー_1" xmlns="http://www.w3.org/2000/svg" xmlns:xlink="http://www.w3.org/1999/xlink" x="0px"
	 y="0px" viewBox="0 0 324.4 20.2" style="enable-background:new 0 0 324.4 20.2;" xml:space="preserve">
<style type="text/css">
	.st0{fill:#595656;}
</style>
<path class="st0" d="M10,8.5c-0.9,1.4-2.3,2.8-3.3,3.7c-1.4,1.2-3.1,2.4-4.6,3.3c-0.2,0.1-0.3,0.2-0.4,0.2c-0.1,0-0.2,0-0.3-0.2
	c-0.3-0.4-0.9-0.8-1.4-1c2.2-1.1,3.8-2.2,5.4-3.6c1.3-1.2,2.4-2.3,3.3-3.6H4.4c-1.1,0-2.4,0-3.6,0.1c-0.2,0-0.3-0.1-0.3-0.3
	C0.5,6.8,0.4,6,0.4,5.4c1.3,0.1,2.6,0.1,3.9,0.1h5.4l-0.1-2C9.6,2.4,9.5,1.6,9.3,0.9c0.9,0,1.8,0.1,2.3,0.2c0.2,0,0.2,0.1,0.2,0.2
	c0,0.1,0,0.2-0.1,0.3c-0.1,0.2-0.2,0.8-0.1,2l0.1,1.9h2.1c1.5,0,2.6,0,4.1-0.1c0.2,0,0.3,0.1,0.3,0.2v1.5c0,0.2-0.1,0.3-0.3,0.3
	c-1.5-0.1-2.7-0.1-4.1-0.1h-2l0.4,8.3c0.1,1.3-0.3,2-1,2.3c-0.8,0.4-2,0.7-2.9,0.7c-0.3,0-0.5-0.1-0.5-0.3c-0.3-0.6-0.6-1.1-1.2-1.6
	c1.4,0,2.2-0.1,2.9-0.3c0.5-0.1,0.7-0.4,0.7-1.4l-0.2-5L10,8.5z"/>
<path class="st0" d="M34.4,14.2c0,1.4,0,2.7,0.1,4.2c0,0.2-0.1,0.3-0.3,0.3c-0.5,0-1.2,0-1.7,0c-0.2,0-0.3-0.1-0.3-0.3
	c0-1.4,0.1-2.8,0.1-4.2V8.4c-2,1.8-4.4,3.4-6.5,4.6c-0.1,0-0.2,0.1-0.3,0.1c-0.1,0-0.2,0-0.4-0.2c-0.4-0.4-0.9-0.7-1.4-1
	c2.9-1.5,5-3,6.9-4.6C32.3,6,33.9,4.4,35,3c0.8-1,1.2-1.6,1.5-2.4C37.3,1,38,1.5,38.4,1.8c0.1,0.1,0.2,0.2,0.2,0.3
	c0,0.2-0.1,0.3-0.3,0.4C38,2.7,37.6,3.1,37,3.7c-0.9,1.1-1.7,2-2.7,2.9V14.2z"/>
<path class="st0" d="M52.5,4.3c0.3,0.1,0.3,0.3,0.2,0.6c-0.2,0.4-0.2,0.9-0.2,1.6c-0.1,2.6-0.5,4.6-1.3,6.2c-0.7,1.5-1.7,2.8-3.1,4
	c-0.2,0.2-0.3,0.2-0.5,0.2c-0.1,0-0.2,0-0.3-0.1c-0.4-0.3-0.9-0.5-1.5-0.7c1.6-1.2,2.8-2.5,3.6-4.2c0.7-1.5,1.1-3.1,1.1-5.9
	c0-0.9,0-1.4-0.2-2.1C51.2,4,52,4.2,52.5,4.3z M57.2,14c1.3-0.7,2.4-1.3,3.5-2.2c1.3-0.9,2.6-2.1,3.9-3.7c0.1,0.6,0.2,1.2,0.5,1.7
	c0.1,0.1,0.1,0.2,0.1,0.3c0,0.1-0.1,0.2-0.2,0.4c-1.1,1.1-2.2,2.1-3.4,3c-1.2,0.9-2.4,1.7-3.9,2.5c-0.4,0.2-0.5,0.3-0.7,0.5
	c-0.1,0.1-0.2,0.2-0.4,0.2c-0.1,0-0.2-0.1-0.4-0.2c-0.4-0.3-0.8-0.7-1.1-1.1c-0.1-0.2-0.1-0.3-0.1-0.4c0-0.1,0-0.2,0.1-0.3
	c0.1-0.3,0.1-0.6,0.1-2V6.4c0-2,0-3-0.2-3.9c0.7,0.1,1.7,0.2,2.2,0.4c0.2,0.1,0.3,0.2,0.3,0.3c0,0.1,0,0.3-0.1,0.4
	c-0.2,0.4-0.2,1-0.2,2.7V14z"/>
<path class="st0" d="M77.9,1.1c0.2,0,0.3,0.2,0.3,0.3c0,0.3-0.1,0.5-0.1,0.8c0,0.5,0.1,0.9,0.1,1.4c0.2,1.6,0.4,2.9,0.8,4.2
	c1.2-0.6,2.3-1.1,3.5-1.8c0.7-0.4,1.1-0.7,1.4-1.1c0.5,0.6,1,1.1,1.3,1.6c0.1,0.1,0.1,0.2,0.1,0.4c0,0.2-0.1,0.4-0.4,0.4
	c-0.6,0.1-1.3,0.4-2,0.7c-1.7,0.7-3.6,1.6-5.1,2.5c-2.1,1.3-2.9,2.4-2.9,3.7c0,1.7,1.5,2.2,4.5,2.2c2.2,0,4.3-0.2,6-0.5
	c0.2,0,0.3,0,0.4,0.2c0.1,0.5,0.1,1,0.2,1.5c0,0.2-0.1,0.3-0.3,0.4c-1.9,0.2-3.5,0.3-6.2,0.3c-4,0-6.5-1.1-6.5-4
	c0-2.3,1.5-3.9,4.2-5.5c-0.6-1.7-0.9-3.8-1.2-5.5c-0.1-1.1-0.3-1.7-0.5-2.3C76.4,0.8,77.3,0.9,77.9,1.1z"/>
<path class="st0" d="M98.9,5.1c0-1.7,0-2.5-0.3-3.5c0.9,0.1,1.8,0.2,2.3,0.4c0.2,0.1,0.4,0.2,0.4,0.4c0,0.1,0,0.2-0.1,0.3
	C101,3,101,3.6,101,4.8v2.3l6.1-1.5c1-0.2,1.2-0.3,1.5-0.6c0.1-0.1,0.2-0.1,0.3-0.1c0.1,0,0.2,0,0.3,0.1c0.4,0.2,0.9,0.7,1.3,1.1
	c0.1,0.1,0.2,0.2,0.2,0.3c0,0.2-0.1,0.3-0.3,0.4c-0.3,0.2-0.4,0.4-0.6,0.7c-1,1.8-2.1,3.5-3.5,4.8c-0.2,0.2-0.3,0.2-0.5,0.2
	c-0.1,0-0.2,0-0.3-0.1c-0.5-0.3-0.9-0.5-1.4-0.6c1.6-1.4,2.9-3,3.8-4.8L101,9v5.1c0,1.4,0.6,1.8,3.1,1.8c1.8,0,3.7-0.2,5.1-0.4
	c0.3,0,0.3,0.1,0.4,0.4c0.1,0.4,0.2,0.9,0.2,1.3c0,0.2-0.1,0.3-0.4,0.3c-1.3,0.2-2.8,0.3-5.1,0.3c-4,0-5.2-0.9-5.2-3.6V9.4l-1.7,0.4
	c-1.4,0.3-2.5,0.6-3.2,0.9c-0.1,0-0.2,0.1-0.2,0.1c-0.1,0-0.2-0.1-0.3-0.3c-0.2-0.5-0.6-1.2-0.7-1.8c1.3-0.2,2.5-0.4,4.1-0.7l2-0.5
	V5.1z"/>
<path class="st0" d="M121.4,8.2c-1.2,0-2.2,0-3.2,0.1c-0.2,0-0.3-0.1-0.3-0.4c-0.1-0.4-0.2-1-0.2-1.7c1.2,0.1,2.4,0.2,3.8,0.2h7.7
	c0.5,0,0.8,0,1.1-0.2c0.1-0.1,0.2-0.1,0.3-0.1c0.1,0,0.2,0,0.3,0.1c0.4,0.3,0.8,0.7,1.1,1c0.1,0.1,0.2,0.3,0.2,0.4
	c0,0.1-0.1,0.2-0.2,0.4c-0.3,0.2-0.4,0.4-0.6,0.9c-2,4.5-4.7,7.5-9.2,9.8c-0.2,0.1-0.3,0.1-0.4,0.1c-0.1,0-0.2-0.1-0.4-0.2
	c-0.4-0.4-1-0.7-1.6-0.9c4.4-2.1,7.8-5.3,9.4-9.5H121.4z M123.1,3.6c-1.1,0-2.1,0-3.1,0.1c-0.2,0-0.3-0.1-0.3-0.4
	c-0.1-0.4-0.1-1.1-0.1-1.6c1.3,0.1,2.1,0.2,3.6,0.2h3.7c1.4,0,2.4-0.1,3.4-0.1c0.2,0,0.2,0.1,0.2,0.3c0,0.4,0,0.9,0,1.3
	c0,0.3,0,0.4-0.3,0.3c-0.9,0-1.9,0-3.2,0H123.1z"/>
<path class="st0" d="M149.2,2.1c0.1,0.1,0.2,0.2,0.2,0.3c0,0.1-0.1,0.3-0.2,0.4c-0.3,0.4-0.6,1-0.8,1.7c-1.1,3.3-2.5,7-4,10.3
	c3.1-0.2,5.9-0.5,8.6-0.9c-0.7-1.3-1.6-2.5-2.6-3.7c0.5-0.3,1-0.6,1.4-0.8c0.2-0.1,0.3,0,0.5,0.1c1.6,1.9,3.2,4.6,4.3,7
	c0,0.1,0.1,0.2,0.1,0.2c0,0.1-0.1,0.2-0.2,0.3c-0.4,0.3-0.9,0.5-1.3,0.7c-0.2,0.1-0.4,0-0.5-0.2c-0.3-0.6-0.5-1.2-0.9-1.8
	c-3.5,0.5-6.9,0.9-10.7,1.3c-1.5,0.2-2,0.3-2.4,0.5c-0.1,0.1-0.2,0.1-0.4,0.1c-0.1,0-0.2-0.1-0.3-0.2c-0.2-0.4-0.4-1.2-0.6-2.3
	c0.8,0.1,1.6,0,2.6,0c1.6-3.8,3-7.7,3.9-10.6c0.4-1.4,0.6-2.3,0.7-3.2C147.8,1.4,148.7,1.8,149.2,2.1z"/>
<path class="st0" d="M163.7,14.6c0.1-0.1,0.2-0.2,0.3-0.2s0.2,0,0.3,0.1c1.6,1,3,2.3,4.3,4c0.1,0.2,0.1,0.2,0.1,0.3s0,0.2-0.2,0.3
	l-1,0.9c-0.1,0.1-0.2,0.2-0.3,0.2c-0.1,0-0.2,0-0.3-0.2c-1.1-1.7-2.6-3.1-4.1-4.2c-0.1-0.1-0.2-0.1-0.2-0.2s0-0.1,0.1-0.2
	L163.7,14.6z"/>
<path class="st0" d="M196.4,16.9c-0.1,0.1-0.1,0.1-0.2,0.1c0,0-0.1,0-0.2-0.2c-0.6-1.1-1.3-2.1-2-3.1c-1.1,1.9-2.5,3.7-4.4,5.2
	c-0.2,0.2-0.3,0.2-0.4,0.2c-0.1,0-0.2-0.1-0.4-0.3c-0.2-0.4-0.6-0.7-0.9-0.9c2.2-1.6,3.6-3.2,4.9-5.7c-1-1.2-2.1-2.4-3.3-3.6
	c-0.1-0.1-0.2-0.2,0-0.3l0.8-0.7c0.1-0.1,0.1-0.1,0.2-0.1c0,0,0.1,0,0.2,0.1c1,1,1.9,2,2.9,3c0.5-1.3,0.8-3,1-5.3h-3.3
	c-1.9,0-2.6,0-2.7,0c-0.2,0-0.2,0-0.2-0.2V3.9c0-0.2,0-0.2,0.2-0.2c0.1,0,0.8,0,2.7,0h1.3V2.2c0-1.1,0-1.6-0.2-2.2
	c0.7,0,1.2,0,1.8,0.1c0.2,0,0.3,0.1,0.3,0.2c0,0.2,0,0.2-0.1,0.4c-0.1,0.2-0.1,0.5-0.1,1.5v1.5h0.9c1.9,0,2.6,0,2.7,0
	c0.2,0,0.2,0,0.2,0.2v1.2c0,0.2,0,0.2-0.2,0.2c-0.1,0-0.5,0-1.6,0c-0.2,2.8-0.7,5-1.5,6.8c0.9,1.1,1.8,2.3,2.6,3.6
	c0.1,0.2,0.1,0.2-0.1,0.4L196.4,16.9z M199.3,8.7c0.1-0.1,0.2-0.1,0.2-0.1c0.1,0,0.1,0,0.2,0.1c1.1,1.2,1.9,2.5,2.6,4
	c0.1,0.2,0.1,0.3-0.1,0.4l-1,0.6c-0.1,0.1-0.2,0.1-0.3,0.1c0,0-0.1,0-0.1-0.2c-0.7-1.6-1.5-2.9-2.5-4c-0.1-0.2-0.1-0.2,0.1-0.4
	L199.3,8.7z M203.7,5.1V2.9c0-1.4,0-2-0.1-2.9c0.6,0,1.3,0.1,1.8,0.1c0.2,0,0.3,0.1,0.3,0.2c0,0.2-0.1,0.3-0.1,0.4
	c-0.1,0.2-0.1,0.7-0.1,2v2.2c1.5,0,2.1,0,2.2,0c0.2,0,0.2,0,0.2,0.2v1.3c0,0.2,0,0.2-0.2,0.2c-0.1,0-0.7,0-2.2,0v6.9
	c0,1.4,0,2.8,0,3.9c0,1-0.1,1.4-0.6,1.8c-0.4,0.3-1.2,0.4-3.3,0.4c-0.5,0-0.6,0-0.7-0.5c-0.1-0.5-0.3-0.9-0.5-1.3
	c0.8,0.1,1.8,0.1,2.5,0.1c0.7,0,0.9-0.2,0.9-0.8V6.7h-2.4c-1.9,0-2.5,0-2.6,0c-0.2,0-0.2,0-0.2-0.2V5.2c0-0.2,0-0.2,0.2-0.2
	c0.1,0,0.7,0,2.6,0H203.7z"/>
<path class="st0" d="M218.4,2.3c0.3,0.2,0.4,0.3,0.4,0.4c0,0.1,0,0.2-0.2,0.5c-0.2,0.3-0.3,0.7-0.5,1.3c-0.6,2.6-1,5.5-1,7.4
	c0,1.4,0.1,2.3,0.2,3.3c0.5-1.1,0.9-2,1.6-3.5c0.2,0.4,0.4,0.7,0.7,1.1c0.1,0.1,0.1,0.2,0.1,0.3c0,0.1,0,0.2-0.1,0.4
	c-0.5,1.1-0.9,2.2-1.3,3.4c-0.1,0.1-0.1,0.4-0.1,0.6c0,0.2,0,0.4,0,0.5c0,0.1,0,0.2-0.2,0.2c-0.4,0.1-1,0.2-1.5,0.3
	c-0.1,0-0.2-0.1-0.3-0.2c-0.6-1.5-1-4.2-1-6.4c0-2.2,0.3-4.7,0.8-7.4c0.2-1.3,0.4-2,0.4-2.8C217.3,1.8,217.9,2.1,218.4,2.3z
	 M223,12.7c0.1,0,0.2,0.1,0.2,0.3c0.1,1.6,1.3,2.3,3.8,2.3c1.6,0,2.9-0.1,4.3-0.3c0.2,0,0.2,0,0.3,0.2c0,0.4,0.1,1,0.1,1.4
	c0,0.2,0,0.2-0.3,0.3c-1.4,0.2-2.6,0.2-3.8,0.2c-2.8,0-4.2-0.4-5.2-1.6c-0.6-0.7-0.8-1.7-0.9-2.7L223,12.7z M222.2,4.5
	c0-0.2,0.1-0.3,0.3-0.3c1.3-0.2,3.6-0.4,4.7-0.4c1.3,0,2.4,0,3.2,0.1c0.4,0,0.4,0,0.4,0.2c0,0.5,0,0.9,0,1.4c0,0.2,0,0.2-0.2,0.2
	c-1.1-0.1-2.4-0.1-3.6-0.1c-1.3,0-2.9,0.1-4.8,0.5C222.2,5.3,222.2,4.9,222.2,4.5z"/>
<path class="st0" d="M247.8,3.9c0.2-0.1,0.3,0,0.3,0.2c0.1,0.4,0.1,0.9,0.1,1.3c0,0.2,0,0.2-0.2,0.3c-1.2,0.2-2.3,0.4-3.7,0.6
	c-1.3,3.6-2.8,6.8-4.4,9.3c-0.1,0.1-0.1,0.2-0.2,0.2c-0.1,0-0.1,0-0.2-0.1c-0.4-0.3-0.9-0.6-1.2-0.9c-0.1-0.1-0.1-0.1-0.1-0.2
	c0-0.1,0-0.1,0.1-0.2c1.7-2.7,3-5.2,4-8c-0.9,0.1-1.6,0.1-2.5,0.1c-0.4,0-0.7,0-1.2,0c-0.2,0-0.2,0-0.3-0.3
	c-0.1-0.4-0.2-0.9-0.2-1.4c0.8,0.1,1.3,0.1,1.9,0.1c0.9,0,1.7,0,2.8-0.2c0.3-0.9,0.4-1.6,0.6-2.5c0.1-0.7,0.2-1.1,0.2-1.7
	c0.7,0.1,1.6,0.3,2.1,0.4c0.2,0,0.3,0.2,0.3,0.3c0,0.1,0,0.2-0.2,0.4c-0.1,0.1-0.2,0.3-0.3,0.7c-0.2,0.7-0.4,1.5-0.7,2.2
	C245.8,4.4,246.8,4.1,247.8,3.9z M248.8,9.5c0-0.5,0-0.9-0.2-1.5c0.8,0.1,1.4,0.2,1.9,0.3c0.2,0,0.3,0.2,0.3,0.3
	c0,0.1,0,0.2-0.1,0.4c-0.1,0.3-0.1,0.6-0.1,1c0,1.3,0.1,2.5,0.2,3.9c1.6,0.6,2.8,1.2,4,2.1c0.2,0.1,0.2,0.2,0.1,0.4
	c-0.2,0.5-0.5,0.9-0.7,1.3c-0.1,0.1-0.1,0.1-0.2,0.1c-0.1,0-0.1,0-0.2-0.1c-1-0.9-2-1.5-3.1-2c0,2.2-1.3,3.3-4,3.3
	c-2,0-3.7-1-3.7-2.9c0-1.8,1.6-3,3.9-3c0.6,0,1.3,0.1,2,0.2C248.9,12.1,248.8,10.6,248.8,9.5z M247.1,14.9c-1.5,0-2.3,0.6-2.3,1.4
	c0,0.9,0.7,1.3,2.1,1.3c1.6,0,2.2-0.8,2.2-1.9c0-0.2,0-0.4,0-0.5C248.4,15,247.8,14.9,247.1,14.9z M251,4.6c0.1-0.2,0.2-0.2,0.4-0.1
	c1.4,0.4,3.1,1.2,4.3,2.1c0.1,0.1,0.2,0.1,0.2,0.2s0,0.2-0.1,0.2c-0.2,0.4-0.5,0.9-0.7,1.2c-0.1,0.1-0.1,0.1-0.2,0.1
	c0,0-0.1,0-0.2-0.1c-1.3-0.9-2.9-1.8-4.5-2.3C250.5,5.5,250.7,5,251,4.6z"/>
<path class="st0" d="M267.7,9.5c1.4-0.9,2.8-1.3,4.2-1.3c3.2,0,5.3,2,5.3,5c0,3.4-2.8,5.8-7.4,5.8c-2.8,0-4.1-1.2-4.1-2.9
	c0-1.3,1.2-2.5,2.8-2.5c2,0,3.4,1.2,3.9,3.2c1.7-0.7,2.8-1.8,2.8-3.8c0-2.1-1.6-3.5-3.7-3.5c-2,0-4.2,1-5.9,2.4
	c-0.7,0.5-1.3,1.2-1.9,1.8c-0.1,0.1-0.2,0.2-0.3,0.2c-0.1,0-0.1,0-0.2-0.2c-0.4-0.3-0.7-0.7-1-1.1c-0.1-0.1-0.1-0.2,0.1-0.4
	c1.7-1.5,3-2.7,5.1-4.9c1.3-1.4,2.5-2.7,4-4.4c-1.6,0.3-3.3,0.6-5.1,0.9c-0.3,0-0.5,0.1-0.8,0.2c-0.1,0.1-0.3,0.1-0.4,0.1
	c-0.2,0-0.3-0.1-0.4-0.3c-0.2-0.4-0.4-0.9-0.6-1.8c0.7,0.1,1.3,0.1,2,0c1.6-0.2,3.4-0.4,5.3-0.8c0.4-0.1,0.7-0.2,0.9-0.3
	c0.1-0.1,0.3-0.2,0.4-0.2c0.1,0,0.3,0,0.4,0.2c0.5,0.4,0.9,0.8,1.2,1.1c0.1,0.2,0.2,0.3,0.2,0.4c0,0.2-0.1,0.4-0.4,0.5
	c-0.3,0.1-0.5,0.3-1,0.7C271.1,5.9,269.6,7.4,267.7,9.5L267.7,9.5z M268.5,15.1c-0.7,0-1.3,0.4-1.3,1c0,0.7,0.7,1.3,2.2,1.3
	c0.4,0,0.8,0,1.3-0.1C270.4,16,269.6,15.1,268.5,15.1z"/>
<path class="st0" d="M289.9,14.3c0,2.2,1.1,3,3.2,3c2.4,0,4.2-1.1,4.2-3.2c0-1.2-0.4-2.3-2-4c0.7,0.1,1.1,0,1.7-0.1
	c0.2,0,0.3,0,0.4,0.1c1.3,1.2,1.8,2.7,1.8,4c0,3-2.5,4.9-6,4.9c-3.7,0-5.3-1.6-5.3-4.6c0-0.7,0.1-1.5,0.2-2.5
	c-1.4-0.2-2.3-0.4-3.2-0.7c-0.1,0-0.2-0.1-0.2-0.3c-0.1-0.5-0.1-1.1,0-1.6c1.3,0.5,2.4,0.7,3.8,0.8c0.2-1.1,0.3-2.5,0.5-3.5
	c-1.5-0.2-2.5-0.3-3.5-0.7c-0.2,0-0.3-0.1-0.3-0.3c0-0.4-0.1-1-0.1-1.6c1.5,0.5,2.7,0.7,4.1,0.9c0.2-1.2,0.2-1.8,0.3-2.6
	c0.1-0.6,0.1-1.3,0-1.8c0.8,0.1,1.7,0.4,2.1,0.6c0.2,0.1,0.4,0.3,0.4,0.4c0,0.1-0.1,0.2-0.2,0.4c-0.2,0.2-0.3,0.4-0.4,1
	c-0.1,0.7-0.2,1.4-0.4,2.3c0.9,0.1,2,0,2.9-0.1c0.1,0,0.2,0.1,0.2,0.2c0,0.4,0,0.9,0,1.3c0,0.2-0.1,0.3-0.3,0.3
	c-1,0.1-2.1,0.1-3.1,0.1c-0.2,0.9-0.4,2.4-0.5,3.5c0.5,0,0.9,0.1,1.3,0.1c0.7,0,1.3,0,2-0.1c0.2,0,0.3,0,0.3,0.2
	c0,0.3,0,0.9-0.1,1.2c0,0.2-0.1,0.3-0.2,0.3c-1.1,0.1-2.4,0.1-3.6,0C290,12.9,289.9,13.8,289.9,14.3z"/>
<path class="st0" d="M313.9,14c-0.9,1.6-2,2.4-3.5,2.4c-1.8,0-3.5-1.9-3.5-5.3c0-2.1,0.9-4.2,2.5-5.7c1.7-1.6,4-2.6,6.8-2.6
	c5.1,0,8.1,3,8.1,7.3c0,3.8-2.2,6.6-6.9,7.8c-0.4,0.1-0.5,0-0.7-0.3c-0.2-0.3-0.5-0.7-1.1-1.1c4.1-0.9,6.8-2.9,6.8-6.8
	c0-3-2.3-5.3-5.6-5.3C316.3,8.2,315.3,11.7,313.9,14z M310.8,6.6c-1.3,1.3-1.9,3-1.9,4.4c0,2.2,0.9,3.3,1.6,3.3
	c0.7,0,1.3-0.4,1.9-1.5c1.1-1.9,2.2-5.2,2.5-8.3C313.2,4.8,311.8,5.5,310.8,6.6z"/>
</svg>
