<?xml version="1.0" encoding="utf-8"?>
<!-- Generator: Adobe Illustrator 26.0.1, SVG Export Plug-In . SVG Version: 6.00 Build 0)  -->
<svg version="1.1" id="レイヤー_1" xmlns="http://www.w3.org/2000/svg" xmlns:xlink="http://www.w3.org/1999/xlink" x="0px"
	 y="0px" viewBox="0 0 250.7 20.3" style="enable-background:new 0 0 250.7 20.3;" xml:space="preserve">
<style type="text/css">
	.st0{fill:#595656;}
</style>
<path class="st0" d="M2.6,6.9c2-0.6,3.3-1.1,4.9-1.1c2.5,0,4.3,1.7,4.3,5.1c0,2.1-0.7,3.8-1.8,5.1c-1.1,1.4-2.5,2.4-4,3.3
	c-0.2,0.1-0.3,0.1-0.4,0.1c-0.1,0-0.2-0.1-0.4-0.2c-0.4-0.4-0.8-0.7-1.4-0.9C6,17.2,7.4,16,8.4,14.7c0.7-0.9,1.2-2.2,1.2-4
	c0-2.3-1.1-3.1-2.4-3.1c-0.9,0-2,0.3-3.3,0.8C2.8,8.9,2.4,9.1,2,9.4C1.7,9.5,1.6,9.6,1.4,9.6C1.2,9.6,1,9.4,0.9,9.2
	C0.6,8.9,0.3,8.1,0,7.5C0.9,7.4,1.5,7.2,2.6,6.9z M10.2,2c0.2,0,0.3,0.2,0.2,0.3c-0.1,0.4-0.2,1.1-0.4,1.4C10,3.9,10,4,9.8,4
	c-2.3-0.4-4-0.8-6.2-1.7C3.5,2.3,3.5,2.2,3.5,2C3.6,1.4,3.8,0.9,4,0.4C6,1.2,8,1.7,10.2,2z"/>
<path class="st0" d="M25.5,9.6c1.4-0.9,2.8-1.3,4.2-1.3c3.2,0,5.3,2,5.3,5c0,3.4-2.8,5.8-7.4,5.8c-2.8,0-4.1-1.2-4.1-2.9
	c0-1.3,1.2-2.5,2.8-2.5c2,0,3.4,1.2,3.9,3.2c1.7-0.7,2.8-1.8,2.8-3.8c0-2.1-1.6-3.5-3.7-3.5c-2,0-4.2,1-5.9,2.4
	c-0.7,0.5-1.3,1.2-1.9,1.8c-0.1,0.1-0.2,0.2-0.3,0.2c-0.1,0-0.1,0-0.2-0.2c-0.4-0.3-0.7-0.7-1-1.1c-0.1-0.1-0.1-0.2,0.1-0.4
	c1.7-1.5,3-2.7,5.1-4.9c1.3-1.4,2.5-2.7,4-4.4c-1.6,0.3-3.3,0.6-5.1,0.9c-0.3,0-0.6,0.1-0.8,0.2c-0.1,0.1-0.3,0.1-0.4,0.1
	c-0.2,0-0.3-0.1-0.4-0.3c-0.2-0.4-0.4-0.9-0.6-1.8c0.7,0.1,1.3,0.1,2,0C25.3,2.2,27.2,2,29,1.6c0.4-0.1,0.7-0.2,0.9-0.3
	c0.1-0.1,0.3-0.2,0.4-0.2c0.1,0,0.3,0,0.4,0.2c0.5,0.4,0.9,0.8,1.2,1.1C32,2.7,32.1,2.8,32.1,3c0,0.2-0.1,0.4-0.4,0.5
	c-0.3,0.1-0.6,0.3-1,0.7C28.9,6,27.4,7.5,25.5,9.6L25.5,9.6z M26.3,15.2c-0.7,0-1.3,0.4-1.3,1c0,0.7,0.7,1.3,2.2,1.3
	c0.4,0,0.8,0,1.3-0.1C28.2,16.1,27.4,15.2,26.3,15.2z"/>
<path class="st0" d="M48.2,7.2c-1.3,0.1-2.7,0.2-3.9,0.2c-0.3,0-0.4-0.1-0.5-0.4c-0.1-0.3-0.1-0.8-0.2-1.4c1.4,0.1,2.9,0,4.5-0.2
	c0-0.7,0-1.5,0-2.3c0-0.8,0-1.4-0.2-2c0.9,0.1,1.7,0.2,2.2,0.4c0.2,0.1,0.3,0.2,0.3,0.4c0,0.1,0,0.2-0.1,0.3c-0.1,0.3-0.2,0.5-0.3,1
	c0,0.6-0.1,1.2-0.1,1.9c1-0.2,2-0.5,3.1-0.9c0.2-0.1,0.3,0,0.3,0.2c0.1,0.4,0.1,0.8,0.1,1.2c0,0.2-0.1,0.2-0.3,0.3
	C52,6.5,51.3,6.7,50,7c0,1.3,0,2.6,0,3.9c2.1-1,4-1.5,5.6-1.5c2.7,0,4.5,1.7,4.5,4.1c0,2.7-1.8,4.2-4.6,4.2c-0.6,0-1.3-0.1-1.8-0.2
	c-0.3-0.1-0.4-0.3-0.4-0.6c0-0.4-0.2-0.9-0.5-1.3c0.9,0.4,1.8,0.4,2.5,0.4c1.5,0,2.8-0.8,2.8-2.5c0-1.5-1-2.5-2.8-2.5
	c-1.3,0-2.9,0.4-5.3,1.6c0,0.9,0,1.9,0.1,3.1c0,1,0.2,2,0.2,2.4c0,0.3,0,0.5-0.3,0.6c-0.4,0.1-0.9,0.2-1.3,0.2
	c-0.2,0-0.3-0.2-0.7-0.7c-0.7-0.8-1.8-1.7-3.1-2.6c-0.3,0.2-0.5,0.3-0.7,0.5c-0.1,0.1-0.2,0.2-0.4,0.2c-0.2,0-0.3-0.1-0.4-0.3
	c-0.2-0.3-0.5-1-0.8-1.6c0.6-0.2,1.3-0.4,2.1-0.8c0.9-0.5,2.1-1.1,3.5-2V7.2z M45.6,14.9c0.9,0.5,1.6,0.9,2.5,1.4
	c0.2,0.1,0.2,0,0.2-0.2c0-0.8-0.1-1.8-0.1-2.8C47.4,13.8,46.6,14.3,45.6,14.9z M56.4,3.9c0.1-0.2,0.2-0.2,0.4-0.2
	c1.8,0.4,3.4,1.3,4.5,2.5c0.1,0.1,0.1,0.1,0.1,0.2c0,0,0,0.1-0.1,0.2c-0.2,0.3-0.6,0.9-0.9,1.2c0,0-0.1,0.1-0.2,0.1
	c-0.1,0-0.1,0-0.2-0.1c-1.2-1.3-2.6-2.1-4.3-2.5C55.8,4.8,56.1,4.3,56.4,3.9z"/>
<path class="st0" d="M71.4,3.7c0.2,0.1,0.3,0.2,0.3,0.3c0,0.1,0,0.3-0.1,0.5c-0.1,0.3-0.2,1-0.2,2.1c0,1.4,0,2.9,0.4,5
	c0.3,2.2,1.1,4,2,4c0.8,0,1.5-1.1,2.2-3.3c0.4,0.7,0.7,1,1.1,1.3c0.2,0.2,0.3,0.4,0.2,0.7c-0.7,2-2,3.5-3.5,3.5
	c-1.8,0-3.4-2.3-3.9-5.9c-0.3-2.2-0.4-4.6-0.4-6.2c0-1,0-1.6-0.2-2.4C69.9,3.2,70.9,3.5,71.4,3.7z M81.8,5.3c0.2-0.1,0.3-0.1,0.4,0
	c2.1,1.9,3.7,4.7,4.3,7.6c0,0.2,0,0.3-0.2,0.4c-0.4,0.3-0.9,0.5-1.4,0.7c-0.2,0-0.3,0-0.4-0.2c-0.7-3.3-2-5.6-4.1-7.7
	C81,5.7,81.5,5.4,81.8,5.3z"/>
<path class="st0" d="M93.5,14.7c0.1-0.1,0.2-0.2,0.3-0.2c0.1,0,0.2,0,0.3,0.1c1.6,1,3,2.3,4.3,4c0.1,0.2,0.1,0.2,0.1,0.3
	s0,0.2-0.2,0.3l-1,0.9c-0.1,0.1-0.2,0.2-0.3,0.2c-0.1,0-0.2,0-0.3-0.2c-1.1-1.7-2.6-3.1-4.1-4.2c-0.1-0.1-0.2-0.1-0.2-0.2
	s0-0.1,0.1-0.2L93.5,14.7z"/>
<path class="st0" d="M130,4.7c0,5.1-0.2,8.1-0.9,10.3c-0.4,1.7-1.1,3-2,4.2c-0.1,0.2-0.2,0.3-0.3,0.3c-0.1,0-0.2-0.1-0.4-0.3
	c-0.4-0.3-0.6-0.5-1-0.7c-0.1,0.1-0.2,0.3-0.3,0.4c-0.4,0.3-0.9,0.5-2.2,0.5c-0.5,0-0.5,0-0.7-0.5c-0.1-0.5-0.2-0.9-0.4-1.2
	c0.6,0.1,0.9,0.1,1.5,0.1c0.5,0,0.7-0.3,0.7-0.9v-4.2h-3c-0.2,3.2-0.8,5-1.8,6.8c-0.1,0.2-0.2,0.3-0.3,0.3c-0.1,0-0.2-0.1-0.4-0.3
	c-0.4-0.4-0.6-0.6-1-0.8c1.4-2.3,1.9-4.5,1.9-10.7V4.6c0-2.3,0-3.4,0-3.5c0-0.2,0-0.2,0.2-0.2c0.1,0,0.5,0,1.9,0h1.9
	c1.3,0,1.8,0,1.9,0c0.2,0,0.2,0,0.2,0.2c0,0.1,0,1.2,0,3.5v9.7c0,1,0,2.1,0,3c0,0.4-0.1,0.7-0.2,1.1c1-1.1,1.7-2.6,2.1-4.4
	c0.5-2.1,0.6-4.8,0.6-8.1V3.4c0-1.5,0-2.1,0-2.2c0-0.2,0-0.2,0.2-0.2c0.2,0,0.6,0,2,0h2.1c1.5,0,1.9,0,2.1,0c0.2,0,0.2,0,0.2,0.2
	c0,0.1,0,1.3,0,3.9v11.9c0,0.4,0,0.6,0.1,0.7c0.1,0.1,0.3,0.1,0.6,0.1c0.4,0,0.6,0,0.7-0.2c0.2-0.2,0.3-0.9,0.3-3.3
	c0.3,0.2,0.6,0.4,1,0.5c0.4,0.1,0.4,0.2,0.4,0.7c-0.1,2.4-0.3,3.1-0.7,3.5c-0.4,0.4-0.9,0.6-2,0.6c-0.8,0-1.3-0.1-1.7-0.3
	c-0.4-0.2-0.6-0.6-0.6-1.5v-15H130V4.7z M124.2,11.2V7.5h-2.9V8c0,1.2,0,2.2-0.1,3.1H124.2z M121.3,2.4V6h2.9V2.4H121.3z"/>
<path class="st0" d="M148.2,2.4c0.3,0.2,0.4,0.3,0.4,0.4c0,0.1,0,0.2-0.2,0.5c-0.2,0.3-0.3,0.7-0.5,1.3c-0.6,2.6-1,5.5-1,7.4
	c0,1.4,0.1,2.3,0.2,3.3c0.5-1.1,0.9-2,1.6-3.5c0.2,0.4,0.4,0.7,0.7,1.1c0.1,0.1,0.1,0.2,0.1,0.3c0,0.1,0,0.2-0.1,0.4
	c-0.5,1.1-0.9,2.2-1.3,3.4c-0.1,0.1-0.1,0.4-0.1,0.6c0,0.2,0,0.4,0,0.5c0,0.1,0,0.2-0.2,0.2c-0.4,0.1-1,0.2-1.5,0.3
	c-0.1,0-0.2-0.1-0.3-0.2c-0.6-1.5-1-4.2-1-6.4c0-2.2,0.3-4.7,0.8-7.4c0.2-1.3,0.4-2,0.4-2.8C147.1,1.9,147.8,2.2,148.2,2.4z
	 M152.9,12.9c0.1,0,0.2,0.1,0.2,0.3c0.1,1.6,1.3,2.3,3.8,2.3c1.6,0,2.9-0.1,4.3-0.3c0.2,0,0.2,0,0.3,0.2c0,0.4,0.1,1,0.1,1.4
	c0,0.2,0,0.2-0.3,0.3c-1.4,0.2-2.6,0.2-3.8,0.2c-2.8,0-4.2-0.4-5.2-1.6c-0.6-0.7-0.8-1.7-0.9-2.7L152.9,12.9z M152,4.6
	c0-0.2,0.1-0.3,0.3-0.3c1.3-0.2,3.6-0.4,4.7-0.4c1.3,0,2.4,0,3.2,0.1c0.4,0,0.4,0,0.4,0.2c0,0.5,0,0.9,0,1.4c0,0.2,0,0.2-0.2,0.2
	c-1.1-0.1-2.4-0.1-3.6-0.1c-1.3,0-2.9,0.1-4.8,0.5C152,5.4,152,5,152,4.6z"/>
<path class="st0" d="M174.4,1.2c0.2,0,0.3,0.2,0.3,0.3c0,0.3-0.1,0.5-0.1,0.8c0,0.5,0.1,0.9,0.1,1.4c0.2,1.6,0.4,2.9,0.8,4.2
	c1.2-0.6,2.3-1.1,3.5-1.8c0.7-0.4,1.1-0.7,1.4-1.1c0.6,0.6,1,1.1,1.3,1.6c0.1,0.1,0.1,0.2,0.1,0.4c0,0.2-0.1,0.4-0.4,0.4
	c-0.6,0.1-1.3,0.4-2,0.7c-1.7,0.7-3.6,1.6-5.1,2.5c-2.1,1.3-2.9,2.4-2.9,3.7c0,1.7,1.5,2.2,4.5,2.2c2.2,0,4.3-0.2,6-0.5
	c0.2,0,0.3,0,0.4,0.2c0.1,0.5,0.1,1,0.2,1.5c0,0.2-0.1,0.3-0.3,0.4c-1.9,0.2-3.5,0.3-6.2,0.3c-4,0-6.5-1.1-6.5-4
	c0-2.3,1.5-3.9,4.2-5.5c-0.6-1.7-0.9-3.8-1.2-5.5c-0.1-1.1-0.3-1.7-0.5-2.3C172.9,0.9,173.8,1,174.4,1.2z"/>
<path class="st0" d="M195.8,1.5c0.2,0,0.3,0.2,0.3,0.3c0,0.3-0.1,0.5-0.1,0.8c0,0.5,0.1,0.9,0.1,1.4c0.2,1.6,0.4,2.9,0.8,4.2
	c1.2-0.6,2.3-1.1,3.5-1.8c0.7-0.4,1.1-0.7,1.4-1.1c0.6,0.5,1,1.1,1.3,1.6c0.1,0.1,0.1,0.2,0.1,0.4c0,0.2-0.1,0.4-0.4,0.4
	c-0.6,0.1-1.3,0.4-2,0.7c-1.7,0.7-3.6,1.6-5.1,2.5c-2.1,1.3-2.9,2.4-2.9,3.7c0,1.7,1.5,2.2,4.5,2.2c2.2,0,4.3-0.2,6-0.5
	c0.2,0,0.3,0,0.4,0.2c0.1,0.5,0.1,1,0.2,1.5c0,0.2-0.1,0.3-0.3,0.4c-1.9,0.2-3.5,0.3-6.2,0.3c-4,0-6.5-1.1-6.5-4
	c0-2.3,1.5-3.9,4.2-5.5c-0.6-1.7-0.9-3.8-1.2-5.5c-0.1-1.1-0.3-1.7-0.5-2.3C194.3,1.3,195.2,1.3,195.8,1.5z M203,1.6
	c0.1-0.1,0.2,0,0.3,0c0.8,0.6,1.8,1.6,2.4,2.7c0.1,0.1,0.1,0.2,0,0.3l-0.8,0.7c-0.1,0.1-0.3,0.1-0.4-0.1c-0.7-1.1-1.5-2.1-2.5-2.8
	L203,1.6z M205.1,0c0.1-0.1,0.2-0.1,0.3,0c0.9,0.7,1.8,1.6,2.4,2.6c0.1,0.1,0.1,0.2-0.1,0.3L207,3.6c-0.1,0-0.1,0.1-0.2,0.1
	s-0.1,0-0.2-0.1c-0.6-1-1.5-2-2.5-2.8L205.1,0z"/>
<path class="st0" d="M220.8,10.6c-1.6,0-3.3,0-4.8-0.1c-0.2,0-0.3-0.1-0.3-0.3c0-0.4-0.1-1-0.1-1.4c1.6,0.2,3.5,0.2,5.2,0.2
	c0-1,0-2,0-2.9c-2.1,0.1-3.9,0.1-5.6-0.1c-0.2,0-0.3-0.1-0.3-0.3c0-0.4-0.1-0.8-0.1-1.5c1.9,0.2,3.9,0.3,6,0.2c0-0.9,0-1.5,0-2.2
	c0-0.6-0.1-1-0.2-1.5c0.9,0.1,1.7,0.2,2.2,0.3c0.3,0.1,0.4,0.4,0.2,0.6c-0.2,0.3-0.3,0.6-0.3,1c0,0.6,0,1-0.1,1.7
	c2-0.2,3.7-0.4,5.1-0.7c0.2,0,0.3,0,0.3,0.2c0.1,0.5,0.1,0.9,0.1,1.3c0,0.2-0.1,0.3-0.2,0.3c-1.6,0.3-3.3,0.5-5.3,0.7c0,1,0,2,0,2.9
	c1.7-0.1,2.9-0.3,4.6-0.7c0.2,0,0.3,0,0.3,0.2c0,0.3,0,0.9,0,1.3c0,0.2-0.1,0.2-0.3,0.3c-1.5,0.3-2.8,0.4-4.6,0.5
	c0,1.2,0.1,2.4,0.2,3.6c2,0.6,4,1.4,5.8,2.8c0.2,0.1,0.2,0.2,0.1,0.4c-0.1,0.4-0.4,0.9-0.7,1.2c-0.1,0.1-0.2,0.2-0.2,0.2
	c-0.1,0-0.1,0-0.2-0.1c-1.6-1.2-3-2.1-4.7-2.7c0,2.4-1.4,3.4-4.2,3.4c-2.7,0-4.2-1.1-4.2-2.8c0-1.7,1.6-2.9,4.2-2.9
	c0.7,0,1.4,0,2.2,0.1C220.9,12.6,220.9,11.6,220.8,10.6z M218.8,15.1c-1.7,0-2.6,0.5-2.6,1.3c0,0.8,0.8,1.2,2.3,1.2
	c0.9,0,1.8-0.2,2.1-0.7c0.2-0.3,0.4-0.7,0.3-1.5C220.3,15.2,219.5,15.1,218.8,15.1z"/>
<path class="st0" d="M241.3,9.6c1.4-0.9,2.8-1.3,4.2-1.3c3.2,0,5.3,2,5.3,5c0,3.4-2.8,5.8-7.4,5.8c-2.8,0-4.1-1.2-4.1-2.9
	c0-1.3,1.2-2.5,2.8-2.5c2,0,3.4,1.2,3.9,3.2c1.7-0.7,2.8-1.8,2.8-3.8c0-2.1-1.6-3.5-3.7-3.5c-2,0-4.2,1-5.9,2.4
	c-0.7,0.5-1.3,1.2-1.9,1.8c-0.1,0.1-0.2,0.2-0.3,0.2c-0.1,0-0.1,0-0.2-0.2c-0.4-0.3-0.7-0.7-1-1.1c-0.1-0.1-0.1-0.2,0.1-0.4
	c1.7-1.5,3-2.7,5.1-4.9c1.3-1.4,2.5-2.7,4-4.4c-1.6,0.3-3.3,0.6-5.1,0.9c-0.3,0-0.6,0.1-0.8,0.2c-0.1,0.1-0.3,0.1-0.4,0.1
	c-0.2,0-0.3-0.1-0.4-0.3c-0.2-0.4-0.4-0.9-0.6-1.8c0.7,0.1,1.3,0.1,2,0c1.6-0.2,3.4-0.4,5.3-0.8c0.4-0.1,0.7-0.2,0.9-0.3
	c0.1-0.1,0.3-0.2,0.4-0.2c0.1,0,0.3,0,0.4,0.2c0.5,0.4,0.9,0.8,1.2,1.1c0.1,0.2,0.2,0.3,0.2,0.4c0,0.2-0.1,0.4-0.4,0.5
	c-0.3,0.1-0.6,0.3-1,0.7C244.7,6,243.2,7.5,241.3,9.6L241.3,9.6z M242.1,15.2c-0.7,0-1.3,0.4-1.3,1c0,0.7,0.7,1.3,2.2,1.3
	c0.4,0,0.8,0,1.3-0.1C243.9,16.1,243.2,15.2,242.1,15.2z"/>
</svg>
