<?xml version="1.0" encoding="utf-8"?>
<!-- Generator: Adobe Illustrator 26.0.1, SVG Export Plug-In . SVG Version: 6.00 Build 0)  -->
<svg version="1.1" id="レイヤー_1" xmlns="http://www.w3.org/2000/svg" xmlns:xlink="http://www.w3.org/1999/xlink" x="0px"
	 y="0px" viewBox="0 0 239.2 20.5" style="enable-background:new 0 0 239.2 20.5;" xml:space="preserve">
<style type="text/css">
	.st0{fill:#FFFFFF;}
</style>
<g>
	<path class="st0" d="M3.5,9.8c-2.2,0-2.9,0-3.1,0c-0.2,0-0.2,0-0.2-0.2V8.3c0-0.2,0-0.2,0.2-0.2c0.1,0,0.9,0,3.1,0h3.9V2.9
		c0-1.2,0-1.8-0.2-2.6c0.6,0,1.4,0.1,1.9,0.2c0.2,0,0.3,0.1,0.3,0.2c0,0.2-0.1,0.3-0.1,0.4C9.2,1.4,9.2,1.8,9.2,2.9v5.2h3.7
		c2.2,0,2.9,0,3.1,0c0.2,0,0.2,0,0.2,0.2c0,0.1,0,0.8,0,2.7v5.9c0,2.1,0,3,0,3.1c0,0.2,0,0.2-0.2,0.2h-1.4c-0.2,0-0.2,0-0.2-0.2V19
		h-11c-2.2,0-2.9,0-3.1,0c-0.2,0-0.2,0-0.2-0.2v-1.3c0-0.2,0-0.2,0.2-0.2c0.1,0,0.9,0,3.1,0h11v-3.1H4.4c-2.2,0-2.9,0-3.1,0
		c-0.2,0-0.2,0-0.2-0.2v-1.3c0-0.2,0-0.2,0.2-0.2c0.1,0,0.9,0,3.1,0h9.9v-3H3.5z M2.2,1.8c0.2-0.1,0.3-0.1,0.4,0
		C3.5,3,4.4,4.6,5,6.1c0.1,0.2,0,0.2-0.2,0.4l-1,0.5C3.7,7,3.6,7,3.5,7C3.5,7,3.5,7,3.4,6.9C2.8,5.4,1.9,3.7,1,2.6
		C0.9,2.5,0.9,2.4,1.2,2.3L2.2,1.8z M13.9,2.4c0.2-0.3,0.2-0.6,0.3-0.9c0.6,0.2,1.1,0.5,1.7,0.8C16,2.4,16,2.5,16,2.6
		c0,0.1,0,0.2-0.2,0.3c-0.1,0.1-0.2,0.2-0.4,0.5c-0.6,1.2-1.3,2.3-2.2,3.5c-0.2,0.2-0.2,0.3-0.4,0.3c-0.1,0-0.2-0.1-0.4-0.2
		c-0.4-0.2-0.7-0.4-1.1-0.5C12.5,5.1,13.3,3.7,13.9,2.4z"/>
	<path class="st0" d="M33.5,4.2c0.2,0,0.3,0,0.3,0.2c0.1,0.4,0.1,0.8,0.1,1.2c0,0.2,0,0.3-0.3,0.4c-1.4,0.4-2.6,0.7-3.9,0.9
		c-1.4,4.6-2.6,8.3-4.1,11.9c-0.1,0.2-0.2,0.2-0.4,0.2c-0.2-0.1-1-0.5-1.4-0.7c-0.1-0.1-0.2-0.2-0.1-0.4c1.8-3.8,2.9-7.1,4-10.7
		c-1.4,0.1-2.8,0.2-4.1,0.2c-0.3,0-0.4,0-0.4-0.3c-0.1-0.4-0.2-1-0.2-1.5c0.4,0,0.8,0,1.5,0c1.1,0,2.4-0.1,3.7-0.2
		c0.3-1.1,0.4-1.9,0.6-2.8c0.1-0.6,0.2-1.3,0.2-2c0.8,0.1,1.7,0.4,2.2,0.6c0.1,0.1,0.2,0.2,0.2,0.3c0,0.1,0,0.2-0.2,0.4
		c-0.2,0.3-0.3,0.5-0.4,0.9c-0.2,0.9-0.4,1.7-0.6,2.4C31.1,5,32.3,4.6,33.5,4.2z M32.5,14.5c0.2,0,0.3,0.1,0.3,0.2
		c0.2,1.8,1.3,2.4,3.8,2.4c1.2,0,2.6-0.2,3.4-0.3c0.2,0,0.2,0,0.3,0.2c0.1,0.4,0.1,1,0.1,1.4c0,0.2,0,0.3-0.3,0.3
		c-0.7,0.1-1.9,0.2-2.9,0.2c-2.6,0-4.1-0.4-5.1-1.3c-0.7-0.7-1-1.7-1-3C31.5,14.6,32.3,14.5,32.5,14.5z M32.7,8.8
		c0-0.2,0-0.3,0.3-0.4c1.3-0.3,2.8-0.5,4-0.5c0.9,0,1.8,0.1,2.7,0.2c0.3,0,0.3,0.1,0.3,0.3c0,0.4,0,0.8,0,1.3c0,0.3-0.1,0.4-0.3,0.3
		c-0.9-0.2-1.8-0.2-2.8-0.2c-1.4,0-2.8,0.2-4.2,0.5C32.7,9.7,32.7,9.1,32.7,8.8z"/>
	<path class="st0" d="M50.4,1.7c0.2,0.1,0.4,0.2,0.4,0.4c0,0.1,0,0.2-0.1,0.3c-0.2,0.2-0.3,0.5-0.4,0.9c-0.4,1.8-0.6,3.5-0.6,4.7
		c0,0.8-0.1,1.7,0,2.5c0.5-0.9,1-2,1.6-3c0.2,0.5,0.4,0.8,0.6,1.1c0.1,0.1,0.1,0.2,0.1,0.3c0,0.1-0.1,0.3-0.2,0.4
		c-0.5,1-1,2-1.3,2.9c-0.1,0.3-0.1,0.5-0.1,0.7c0,0.2,0,0.3-0.2,0.3c-0.3,0.1-1,0.2-1.4,0.2c-0.1,0-0.2-0.1-0.3-0.2
		c-0.3-0.9-0.6-2.5-0.6-4.3c0-1.4,0.2-3.3,0.5-5.3c0.1-0.9,0.2-1.6,0.2-2.5C49.3,1.3,50,1.5,50.4,1.7z M57.5,1.5
		c0.4,0.1,0.4,0.2,0.4,0.5c0,0.3,0,0.7,0,1c0.2,2.3,0.3,4.2,0.3,5.8c0,3.1-0.5,5.6-1.8,7.4c-0.9,1.3-2.2,2.5-3.7,3.4
		c-0.1,0.1-0.2,0.1-0.4,0.1s-0.2-0.1-0.4-0.2c-0.4-0.3-0.9-0.7-1.5-0.8c1.8-1,2.9-1.8,3.8-3c1.3-1.7,1.8-3.5,1.8-6.8
		c0-1.5-0.1-3.7-0.2-5.2c-0.1-1.1-0.2-1.6-0.4-2.4C56.2,1.3,56.9,1.3,57.5,1.5z"/>
	<path class="st0" d="M68,5.1c-2,0-2.7,0-2.8,0c-0.2,0-0.2,0-0.2-0.2V3.7c0-0.2,0-0.2,0.2-0.2c0.1,0,0.8,0,2.8,0h7.9
		C76.5,2.8,77,2,77.5,1.1c0.2-0.4,0.4-0.8,0.5-1.1c0.7,0.2,1.3,0.3,1.7,0.5c0.2,0.1,0.3,0.2,0.3,0.3S79.8,0.9,79.7,1
		c-0.2,0.1-0.3,0.2-0.7,0.9c-0.3,0.4-0.7,1.1-1.2,1.6h3.4c2,0,2.7,0,2.8,0c0.2,0,0.2,0,0.2,0.2v1.3c0,0.2,0,0.2-0.2,0.2
		c-0.1,0-0.8,0-2.8,0H68z M74.1,15c0,1.1,0,2.3,0,2.9c0,0.7-0.1,1.3-0.5,1.6c-0.3,0.3-0.9,0.4-2.5,0.4c-0.5,0-0.5,0-0.6-0.5
		c-0.1-0.4-0.2-0.8-0.4-1.1c0.6,0,0.9,0.1,1.6,0.1c0.7,0,0.9-0.2,0.9-0.7v-2.3h-4.1v1.7c0,1.9,0,2.7,0,2.8c0,0.2,0,0.2-0.2,0.2h-1.3
		c-0.2,0-0.2,0-0.2-0.2c0-0.1,0-0.9,0-2.9V10c0-1.9,0-2.8,0-2.9c0-0.2,0-0.2,0.2-0.2c0.1,0,0.7,0,2.3,0h2.6c1.6,0,2.1,0,2.3,0
		c0.2,0,0.2,0,0.2,0.2c0,0.1,0,1.1,0,3.1V15z M68.4,8.4v2.1h4.1V8.4H68.4z M72.5,14v-2.1h-4.1V14H72.5z M70.8,0.2
		C70.9,0.1,71,0.1,71,0.1c0,0,0.1,0,0.1,0.1c0.6,0.7,1,1.4,1.4,2.3c0.1,0.2,0.1,0.2-0.2,0.3l-1,0.4c-0.1,0.1-0.2,0.1-0.3,0.1
		c-0.1,0-0.1,0-0.2-0.2c-0.4-0.8-0.7-1.4-1.3-2.3c-0.1-0.2-0.1-0.2,0.2-0.3L70.8,0.2z M76.6,10.3c0-1.3,0-2-0.2-2.9
		c0.6,0,1.2,0.1,1.7,0.1c0.2,0,0.3,0.1,0.3,0.2c0,0.2-0.1,0.3-0.1,0.4c-0.1,0.3-0.1,0.7-0.1,2.1V13c0,1.5,0,2.2,0,2.3
		c0,0.2,0,0.2-0.2,0.2h-1.3c-0.2,0-0.2,0-0.2-0.2c0-0.1,0-0.8,0-2.3V10.3z M82.7,14.2c0,1.4,0,2.5,0,3.4c0,1-0.2,1.5-0.7,1.8
		c-0.5,0.4-1,0.4-3,0.4c-0.6,0-0.6,0-0.7-0.5c-0.1-0.5-0.3-0.9-0.5-1.2c0.7,0.1,1.3,0.1,2.1,0.1c0.7,0,1-0.2,1-1v-8
		c0-1.3,0-2.1-0.2-2.8c0.7,0,1.3,0.1,1.8,0.1c0.2,0,0.3,0.1,0.3,0.2c0,0.2-0.1,0.3-0.2,0.5c-0.1,0.2-0.1,0.7-0.1,2V14.2z"/>
	<path class="st0" d="M99.6,15.3c0,0.2-0.1,0.3-0.3,0.3c-0.3,0-0.8,0.1-1.3,0.1c-0.2,0-0.2-0.1-0.2-0.3c0-0.9,0-2,0-3
		c-2.2,1.1-3.1,2.2-3.1,3.4c0,1.1,1,1.7,3.4,1.7c1.9,0,3.7-0.2,5.3-0.4c0.2,0,0.2,0,0.3,0.2c0.1,0.4,0.2,1,0.2,1.4
		c0,0.2-0.1,0.4-0.2,0.4c-1.7,0.2-3.4,0.3-5.5,0.3c-3.3,0-5.3-0.9-5.3-3.3c0-2,1.2-3.5,4.8-5.3c-0.1-1.3-0.5-1.8-1.6-1.8
		c-1,0-2.1,0.6-3.3,1.7c-0.9,0.8-1.4,1.4-2.1,2.2c-0.1,0.1-0.2,0.2-0.2,0.2s-0.1,0-0.2-0.1c-0.3-0.2-0.8-0.8-1-1.1
		c0-0.1-0.1-0.1-0.1-0.2s0-0.1,0.1-0.2c1.9-1.6,3.6-3.6,4.9-5.8c-1.2,0.1-2.5,0.1-3.8,0c-0.2,0-0.2-0.1-0.3-0.3
		c0-0.3-0.1-0.9-0.2-1.4c1.6,0.1,3.3,0.1,5,0c0.2-0.6,0.5-1.3,0.7-2.1c0.1-0.4,0.2-0.7,0.2-1.2c0.8,0.1,1.6,0.3,2.1,0.5
		c0.2,0.1,0.2,0.2,0.2,0.3c0,0.1,0,0.2-0.1,0.3c-0.1,0.1-0.2,0.3-0.4,0.6c-0.2,0.4-0.4,0.8-0.6,1.5c1.5-0.2,2.9-0.4,4.3-0.7
		c0.2,0,0.3,0,0.3,0.2c0.1,0.4,0.2,0.7,0.2,1.2c0,0.2-0.1,0.2-0.3,0.3c-1.7,0.3-3.6,0.5-5.3,0.7c-0.6,1.1-1.3,2.1-2,2.9l0,0
		c0.8-0.6,1.8-0.9,2.5-0.9c1.6,0,2.6,0.8,2.8,2.6c1-0.5,2.2-1,3.3-1.6c0.5-0.3,1.2-0.6,1.7-1.1c0.6,0.6,1.1,1.2,1.3,1.5
		c0.1,0.2,0.1,0.3,0.1,0.4c0,0.2-0.1,0.2-0.3,0.3c-0.4,0-0.8,0.2-1.3,0.3c-1.6,0.6-2.9,1.1-4.7,1.9V15.3z"/>
	<path class="st0" d="M111.3,14.9c0.1-0.1,0.2-0.2,0.3-0.2c0.1,0,0.2,0,0.3,0.1c1.6,1,3,2.3,4.3,4c0.1,0.2,0.1,0.2,0.1,0.3
		s0,0.2-0.2,0.3l-1,0.9c-0.1,0.1-0.2,0.2-0.3,0.2c-0.1,0-0.2,0-0.3-0.2c-1.1-1.7-2.6-3.1-4.1-4.2c-0.1-0.1-0.2-0.1-0.2-0.2
		s0-0.1,0.1-0.2L111.3,14.9z"/>
	<path class="st0" d="M137.5,6.2c0.2-0.4,0.4-0.7,0.5-1.1c0.5,0.2,1.1,0.4,1.4,0.7c0.1,0.1,0.2,0.2,0.2,0.3c0,0.2-0.1,0.3-0.2,0.4
		c-0.2,0.1-0.3,0.3-0.5,0.6c-0.8,1.1-1.5,2.1-2.8,3.1c-0.2,0.2-0.3,0.2-0.4,0.2c-0.1,0-0.2-0.1-0.4-0.3c-0.2-0.3-0.6-0.5-0.9-0.7
		C135.8,8.4,136.7,7.4,137.5,6.2z M147.5,11.9c0.3,0,0.4,0,0.5-0.1s0.2-0.1,0.3-0.1c0.2,0,0.3,0.1,0.7,0.6c0.4,0.4,0.5,0.6,0.5,0.7
		c0,0.2-0.1,0.3-0.3,0.4c-0.2,0.1-0.3,0.2-0.6,0.5c-1,1-1.9,1.8-3,2.6c2.5,1.1,5.3,1.5,8.6,1.8c-0.3,0.3-0.5,0.8-0.7,1.2
		c-0.2,0.5-0.2,0.5-0.7,0.5c-3.3-0.4-6.2-1.2-8.7-2.6c-2.4,1.3-5,2.1-8.2,2.6c-0.5,0.1-0.6,0-0.8-0.5c-0.2-0.4-0.4-0.7-0.6-0.9
		c3.1-0.4,5.7-1,8.1-2.2c-0.9-0.6-1.8-1.4-2.5-2.2c-1,0.9-2.2,1.7-3.7,2.4c-0.2,0.1-0.3,0.1-0.4,0.1c-0.1,0-0.2-0.1-0.4-0.4
		c-0.2-0.4-0.5-0.7-0.8-0.8c3.3-1.4,5.3-3.1,6.5-4.8c0.3-0.5,0.5-0.8,0.6-1.1c0.6,0.1,1,0.3,1.5,0.5c0.2,0.1,0.2,0.1,0.2,0.3
		c0,0.2-0.1,0.2-0.3,0.3c-0.2,0.1-0.3,0.3-0.5,0.6c-0.2,0.2-0.3,0.4-0.5,0.6H147.5z M143.1,4.2c-0.1,3.7-1.3,5.4-3.9,6.8
		c-0.2,0.1-0.3,0.2-0.4,0.2c-0.1,0-0.2-0.1-0.4-0.3c-0.3-0.3-0.6-0.6-0.9-0.7c2.8-1.3,3.9-2.4,4-6h-3.7c-2.1,0-2.8,0-2.9,0
		c-0.2,0-0.2,0-0.2-0.2V2.8c0-0.2,0-0.2,0.2-0.2c0.1,0,0.8,0,2.9,0h5.4V2.2c0-1.1,0-1.6-0.2-2.2c0.6,0,1.3,0,1.8,0.1
		c0.2,0,0.3,0.1,0.3,0.2c0,0.1,0,0.3-0.1,0.4c-0.1,0.2-0.1,0.5-0.1,1.4v0.4h5.6c2,0,2.8,0,2.9,0c0.2,0,0.2,0,0.2,0.2V4
		c0,0.2,0,0.2-0.2,0.2c-0.1,0-0.8,0-2.9,0h-3.1v2.2c0,1.1,0,1.8,0,2.2c0,0.7-0.2,1.2-0.7,1.5c-0.5,0.2-0.7,0.3-1.9,0.3
		c-0.5,0-0.5,0-0.7-0.5c-0.1-0.4-0.3-0.8-0.5-1.1c0.6,0.1,0.8,0.1,1.2,0.1c0.7,0,0.9-0.2,0.9-0.8V4.2H143.1z M141.2,13.2L141.2,13.2
		c0.9,1.1,1.8,1.8,2.9,2.4c1.1-0.7,2.1-1.5,3-2.4H141.2z M149.8,5.3c0.1-0.1,0.2-0.1,0.2-0.1c0.1,0,0.1,0,0.2,0.1
		c1.3,1.1,2.3,2.4,3.1,3.8c0.1,0.2,0.1,0.2-0.2,0.4l-0.9,0.6c-0.1,0.1-0.2,0.1-0.2,0.1c-0.1,0-0.2-0.1-0.2-0.2
		c-0.8-1.5-1.8-2.8-2.9-3.8c-0.1-0.1-0.1-0.1-0.1-0.2c0-0.1,0-0.1,0.2-0.2L149.8,5.3z"/>
	<path class="st0" d="M164.5,7c1.7-0.3,3-0.5,4-0.8c0.4-0.1,0.5-0.2,0.8-0.3c0.1-0.1,0.2-0.1,0.4-0.1c0.1,0,0.2,0,0.3,0.1
		c0.3,0.2,0.7,0.5,1,0.9c0.1,0.1,0.2,0.3,0.2,0.4c0,0.2-0.1,0.3-0.3,0.4c-0.3,0.1-0.5,0.3-0.7,0.5c-1.6,1.6-2.9,2.9-4.4,4.5
		c0.4-0.2,0.7-0.2,1.1-0.2c1.1,0,2,0.8,2.4,2.4c0.4,2,0.8,2.3,2.8,2.3c1.2,0,2.2-0.2,3.3-0.4c0.2,0,0.3,0.1,0.3,0.3
		c0.1,0.4,0.1,0.9,0.1,1.5c0,0.2-0.1,0.3-0.3,0.3c-1,0.2-2.2,0.3-3.2,0.3c-3.2,0-4.2-0.8-4.7-3c-0.3-1.5-0.7-2.3-1.5-2.3
		c-0.7,0-1.5,0.4-2.3,1.2c-1.1,1-2.5,2.8-3.4,3.8c-0.1,0.1-0.3,0.2-0.4,0c-0.4-0.3-0.8-0.7-1.1-1c0,0-0.1-0.1-0.1-0.2
		c0-0.1,0.1-0.2,0.2-0.3c1.5-1.6,3-3.1,4.2-4.3c1.2-1.2,2.6-2.8,4.8-5.2c-2,0.5-3.7,0.8-5.4,1.2c-0.6,0.1-0.9,0.3-1,0.3
		c-0.2,0.1-0.3,0.1-0.4,0.1c-0.1,0-0.2-0.1-0.3-0.3c-0.2-0.4-0.4-1.1-0.7-1.9C161.5,7.4,162.5,7.3,164.5,7z M170.1,2.4
		c0.2,0,0.2,0.1,0.2,0.4c-0.1,0.4-0.3,1-0.4,1.3c-0.1,0.1-0.2,0.2-0.3,0.2c-1.9-0.4-4.2-1.1-5.8-1.8c-0.1,0-0.2-0.2-0.2-0.3
		c0.1-0.4,0.3-1,0.6-1.6C166.2,1.4,168.1,1.9,170.1,2.4z"/>
	<path class="st0" d="M185.6,9.8c1.4-0.9,2.8-1.3,4.2-1.3c3.2,0,5.3,2,5.3,5c0,3.4-2.8,5.8-7.4,5.8c-2.8,0-4.1-1.2-4.1-2.9
		c0-1.3,1.2-2.5,2.8-2.5c2,0,3.4,1.2,3.9,3.2c1.7-0.7,2.8-1.8,2.8-3.8c0-2.1-1.6-3.5-3.7-3.5c-2,0-4.2,1-5.9,2.4
		c-0.7,0.5-1.3,1.2-1.9,1.8c-0.1,0.1-0.2,0.2-0.3,0.2c-0.1,0-0.1,0-0.2-0.2c-0.4-0.3-0.7-0.7-1-1.1c-0.1-0.1-0.1-0.2,0.1-0.4
		c1.7-1.5,3-2.7,5.1-4.9c1.3-1.4,2.5-2.7,4-4.4c-1.6,0.3-3.3,0.6-5.1,0.9c-0.3,0-0.5,0.1-0.8,0.2c-0.1,0.1-0.3,0.1-0.4,0.1
		c-0.2,0-0.3-0.1-0.4-0.3c-0.2-0.4-0.4-0.9-0.6-1.8c0.7,0.1,1.3,0.1,2,0c1.6-0.2,3.4-0.4,5.3-0.8c0.4-0.1,0.7-0.2,0.9-0.3
		c0.1-0.1,0.3-0.2,0.4-0.2c0.1,0,0.3,0,0.4,0.2c0.5,0.4,0.9,0.8,1.2,1.1c0.1,0.2,0.2,0.3,0.2,0.4c0,0.2-0.1,0.4-0.4,0.5
		c-0.3,0.1-0.5,0.3-1,0.7C189,6.2,187.5,7.8,185.6,9.8L185.6,9.8z M186.4,15.5c-0.7,0-1.3,0.4-1.3,1c0,0.7,0.7,1.3,2.2,1.3
		c0.4,0,0.8,0,1.3-0.1C188.3,16.3,187.5,15.5,186.4,15.5z"/>
	<path class="st0" d="M206.2,14.7c0,2.2,1.1,3,3.2,3c2.4,0,4.2-1.1,4.2-3.2c0-1.2-0.4-2.3-2-4c0.7,0.1,1.1,0,1.7-0.1
		c0.2,0,0.3,0,0.4,0.1c1.3,1.2,1.8,2.7,1.8,4c0,3-2.5,4.9-6,4.9c-3.7,0-5.3-1.6-5.3-4.6c0-0.7,0.1-1.5,0.2-2.5
		c-1.4-0.2-2.3-0.4-3.2-0.7c-0.1,0-0.2-0.1-0.2-0.3c-0.1-0.5-0.1-1.1,0-1.6c1.3,0.5,2.4,0.7,3.8,0.8c0.2-1.1,0.3-2.5,0.5-3.5
		c-1.5-0.2-2.5-0.3-3.5-0.7c-0.2,0-0.3-0.1-0.3-0.3c0-0.4-0.1-1-0.1-1.6c1.5,0.5,2.7,0.7,4.1,0.9c0.2-1.2,0.2-1.8,0.3-2.6
		c0.1-0.6,0.1-1.3,0-1.8c0.8,0.1,1.7,0.4,2.1,0.5c0.2,0.1,0.4,0.3,0.4,0.4c0,0.1-0.1,0.2-0.2,0.4c-0.2,0.2-0.3,0.4-0.4,1
		c-0.1,0.7-0.2,1.4-0.4,2.3c0.9,0.1,2,0,2.9-0.1c0.1,0,0.2,0.1,0.2,0.2c0,0.4,0,0.9,0,1.3c0,0.2-0.1,0.3-0.3,0.3
		c-1,0.1-2.1,0.1-3.1,0.1c-0.2,0.9-0.4,2.4-0.5,3.5c0.5,0,0.9,0.1,1.3,0.1c0.7,0,1.3,0,2-0.1c0.2,0,0.3,0,0.3,0.2
		c0,0.3,0,0.9-0.1,1.2c0,0.2-0.1,0.3-0.2,0.3c-1.1,0.1-2.4,0.1-3.6,0C206.3,13.3,206.2,14.1,206.2,14.7z"/>
	<path class="st0" d="M228.7,14.3c-0.9,1.6-2,2.4-3.5,2.4c-1.8,0-3.5-1.9-3.5-5.3c0-2.1,0.9-4.2,2.5-5.7c1.7-1.6,4-2.6,6.8-2.6
		c5.1,0,8.1,3,8.1,7.3c0,3.8-2.2,6.6-6.9,7.8c-0.4,0.1-0.5,0-0.7-0.3c-0.2-0.3-0.5-0.7-1.1-1.1c4.1-0.9,6.8-2.9,6.8-6.8
		c0-3-2.3-5.3-5.6-5.3C231.1,8.5,230.1,12.1,228.7,14.3z M225.5,6.9c-1.3,1.3-1.9,3-1.9,4.4c0,2.2,0.9,3.3,1.6,3.3
		c0.7,0,1.3-0.4,1.9-1.5c1.1-1.9,2.2-5.2,2.5-8.3C228,5.1,226.6,5.9,225.5,6.9z"/>
</g>
</svg>
