<?xml version="1.0" encoding="utf-8"?>
<!-- Generator: Adobe Illustrator 26.0.1, SVG Export Plug-In . SVG Version: 6.00 Build 0)  -->
<svg version="1.1" id="レイヤー_1" xmlns="http://www.w3.org/2000/svg" xmlns:xlink="http://www.w3.org/1999/xlink" x="0px"
	 y="0px" viewBox="0 0 414.9 21.1" style="enable-background:new 0 0 414.9 21.1;" xml:space="preserve">
<style type="text/css">
	.st0{fill:#FFFFFF;}
</style>
<path class="st0" d="M12.3,5.6c0,5.1-0.2,8.1-0.9,10.3c-0.4,1.7-1.1,3-2,4.2c-0.1,0.2-0.2,0.3-0.3,0.3c-0.1,0-0.2-0.1-0.4-0.3
	c-0.4-0.3-0.6-0.5-1-0.7c-0.1,0.1-0.2,0.3-0.3,0.4C7,20,6.5,20.2,5.2,20.2c-0.5,0-0.5,0-0.7-0.5c-0.1-0.5-0.2-0.9-0.4-1.2
	c0.6,0.1,0.9,0.1,1.5,0.1c0.5,0,0.7-0.3,0.7-0.9v-4.2h-3c-0.2,3.2-0.8,5-1.8,6.8c-0.1,0.2-0.2,0.3-0.3,0.3c-0.1,0-0.2-0.1-0.4-0.3
	c-0.4-0.4-0.6-0.6-1-0.8c1.4-2.3,1.9-4.5,1.9-10.7V5.4c0-2.3,0-3.4,0-3.5c0-0.2,0-0.2,0.2-0.2c0.1,0,0.5,0,1.9,0h1.9
	c1.3,0,1.8,0,1.9,0c0.2,0,0.2,0,0.2,0.2c0,0.1,0,1.2,0,3.5v9.7c0,1,0,2.1,0,3c0,0.4-0.1,0.7-0.2,1.1c1-1.1,1.7-2.6,2.1-4.4
	c0.5-2.1,0.6-4.8,0.6-8.1V4.3c0-1.5,0-2.1,0-2.2c0-0.2,0-0.2,0.2-0.2c0.2,0,0.6,0,2,0h2.1c1.5,0,1.9,0,2.1,0c0.2,0,0.2,0,0.2,0.2
	c0,0.1,0,1.3,0,3.9v11.9c0,0.4,0,0.6,0.1,0.7c0.1,0.1,0.3,0.1,0.6,0.1c0.4,0,0.6,0,0.7-0.2c0.2-0.2,0.3-0.9,0.3-3.3
	c0.3,0.2,0.6,0.4,1,0.5c0.4,0.1,0.4,0.2,0.4,0.7c-0.1,2.4-0.3,3.1-0.7,3.5c-0.4,0.4-0.9,0.6-2,0.6c-0.8,0-1.3-0.1-1.7-0.3
	c-0.4-0.2-0.6-0.6-0.6-1.5v-15h-3.2V5.6z M6.4,12V8.3H3.5v0.5c0,1.2,0,2.2-0.1,3.1H6.4z M3.5,3.3v3.5h2.9V3.3H3.5z"/>
<path class="st0" d="M32.3,4.1c0.2-0.7,0.2-1.4,0.2-2.3c0.9,0.2,1.4,0.4,2.1,0.7c0.2,0.1,0.3,0.2,0.3,0.4c0,0.1,0,0.2-0.1,0.3
	c-0.2,0.2-0.3,0.4-0.4,0.8c-0.3,1-0.6,1.9-0.9,2.9c0.7-0.1,1.5-0.1,2-0.1c2,0,3,1.1,3,3.8c0,2.8-0.5,5.5-1.2,7.1
	c-0.6,1.3-1.5,1.9-2.7,1.9c-1,0-1.7-0.1-2.2-0.3c-0.2-0.1-0.3-0.2-0.3-0.5c0-0.5-0.1-1-0.3-1.6c1,0.4,1.8,0.6,2.5,0.6
	c0.7,0,1-0.2,1.4-1.2c0.5-1.2,0.9-3.4,0.9-5.9c0-1.7-0.3-2.2-1.4-2.2c-0.6,0-1.5,0.1-2.2,0.2c-1.4,4-2.7,7.3-4.5,10.4
	c-0.1,0.2-0.3,0.2-0.5,0.2c-0.3-0.2-0.9-0.5-1.2-0.8c-0.1-0.1-0.1-0.2-0.1-0.2c0-0.1,0-0.1,0.1-0.2c1.8-3.1,3-5.8,4.1-9.1
	c-0.9,0.1-1.7,0.3-2.6,0.4c-0.5,0.1-0.9,0.2-1.1,0.3c-0.1,0-0.2,0.1-0.3,0.1c-0.1,0-0.3-0.1-0.4-0.3c-0.2-0.4-0.4-1-0.6-1.8
	c0.9,0,1.8,0,2.6-0.1c1.1-0.1,1.9-0.2,2.9-0.4C31.8,6,32.1,5.1,32.3,4.1z M40.5,5.8c0.1-0.1,0.2,0,0.4,0.1c1.5,1.3,2.8,3.2,3.6,5.3
	c0.1,0.2,0.1,0.3-0.1,0.4c-0.3,0.3-0.9,0.6-1.3,0.8c-0.2,0.1-0.4,0.1-0.4-0.2c-0.8-2.3-1.9-4.1-3.6-5.6C39.6,6.3,40.1,6,40.5,5.8z
	 M41.2,2.3c0.1-0.1,0.2,0,0.3,0C42.3,2.9,43.2,4,43.9,5c0.1,0.1,0,0.2-0.1,0.3L43,5.9C42.9,6,42.8,6,42.7,5.9
	C42,4.8,41.1,3.8,40.2,3L41.2,2.3z M43.2,0.7c0.1-0.1,0.2-0.1,0.3,0c0.9,0.7,1.8,1.7,2.4,2.6C46,3.5,46,3.5,45.8,3.7l-0.7,0.6
	c-0.1,0-0.1,0.1-0.2,0.1c0,0-0.1,0-0.2-0.1c-0.6-1-1.5-2-2.5-2.8L43.2,0.7z"/>
<path class="st0" d="M55.2,14.6c-2.1,0-2.8,0-2.9,0c-0.2,0-0.2,0-0.2-0.2v-1.1c0-0.2,0-0.2,0.2-0.2c0.1,0,0.8,0,2.9,0h4.7
	c0.1-0.5,0.2-1.1,0.2-1.7H58c-2.1,0-2.9,0-3,0c-0.2,0-0.2,0-0.2-0.2v-1.1c0-0.2,0-0.2,0.2-0.2c0.1,0,0.9,0,3,0h2.2
	c0-0.5,0-1.1,0-1.7h-2.3c-2.1,0-2.8,0-3,0c-0.2,0-0.2,0-0.2-0.2V7.2C54.7,7,54.8,7,55,7c0.1,0,0.9,0,3,0h2.3c0-0.9-0.1-1.4-0.1-1.9
	c0.6,0,1.1,0,1.7,0.1c0.2,0,0.4,0.1,0.4,0.2c0,0.1-0.1,0.3-0.2,0.5c-0.1,0.2-0.1,0.5-0.1,1.1h2.5c2.1,0,2.8,0,2.9,0
	c0.2,0,0.2,0,0.2,0.2v1.1c0,0.2,0,0.2-0.2,0.2c-0.1,0-0.9,0-2.9,0h-2.5c0,0.6,0,1.2,0,1.7h2.5c2.2,0,2.9,0,3,0c0.2,0,0.2,0,0.2,0.2
	v1.1c0,0.2,0,0.2-0.2,0.2c-0.1,0-0.8,0-3,0h-2.5c0,0.6-0.1,1.2-0.2,1.7h5.7c2.1,0,2.8,0,2.9,0c0.2,0,0.2,0,0.2,0.2v1.1
	c0,0.2,0,0.2-0.2,0.2c-0.1,0-0.8,0-2.9,0h-4.9c1.8,2.5,5,3.7,8.7,4.2c-0.3,0.3-0.5,0.8-0.7,1.2c-0.2,0.5-0.2,0.5-0.7,0.4
	c-3.6-0.7-6.6-2.2-8.7-5.2c-0.2,0.4-0.4,0.7-0.6,1c-1.5,2-3.9,3.2-7.5,4.1c-0.6,0.1-0.6,0.1-0.8-0.4c-0.2-0.4-0.4-0.8-0.7-1.1
	c3.7-0.6,6.4-1.9,7.6-3.6c0.2-0.2,0.3-0.5,0.4-0.7H55.2z M53.9,7.5c0,0.2,0,0.2-0.2,0.2h-1.3c-0.2,0-0.2,0-0.2-0.2
	c0-0.1,0-0.4,0-2.3V4.5c0-0.7,0-1.1,0-1.2c0-0.2,0-0.2,0.2-0.2c0.2,0,0.9,0,3,0h4.8V2.9c0-1,0-1.6-0.2-2.2c0.7,0,1.3,0.1,1.8,0.1
	c0.2,0,0.3,0.1,0.3,0.2c0,0.2-0.1,0.3-0.1,0.4c-0.1,0.2-0.1,0.5-0.1,1.4v0.2H67c2.1,0,2.9,0,3,0c0.2,0,0.2,0,0.2,0.2
	c0,0.1,0,0.5,0,1.1v0.9c0,1.9,0,2.2,0,2.3c0,0.2,0,0.2-0.2,0.2h-1.3c-0.2,0-0.2,0-0.2-0.2V4.6H53.9V7.5z"/>
<path class="st0" d="M92,0.8c0.2-0.1,0.2-0.1,0.4,0c0.6,0.4,1.2,0.9,1.7,1.5c0.1,0.2,0.1,0.2-0.1,0.4l-0.7,0.5c1.5,0,2,0,2.1,0
	c0.2,0,0.2,0,0.2,0.2v1.1c0,0.2,0,0.2-0.2,0.2c-0.1,0-0.9,0-3,0h-2.3c0.2,1.7,0.6,3.4,1.1,4.8c0.5-0.8,0.9-1.6,1.2-2.3
	c0.1-0.4,0.3-0.8,0.4-1.3c0.5,0.2,1,0.3,1.4,0.5c0.2,0.1,0.2,0.2,0.2,0.2c0,0.1-0.1,0.2-0.2,0.3C94.2,7,94.1,7.1,94,7.5
	c-0.5,1.1-1.1,2.3-1.9,3.4c0.7,1.1,1.5,1.8,2,1.8c0.7,0,0.9-0.7,1.2-2.3c0.2,0.3,0.6,0.5,0.8,0.6c0.5,0.3,0.5,0.3,0.4,0.8
	c-0.5,1.8-1.2,2.6-2.4,2.6c-1,0-2.1-0.9-3.1-2.2c-0.6,0.6-1.3,1.3-2.1,1.8c-0.2,0.2-0.3,0.2-0.4,0.2c-0.1,0-0.2-0.1-0.4-0.3
	c-0.3-0.3-0.4-0.4-0.8-0.6c1.2-0.7,2.2-1.6,3-2.5l-0.1-0.3c-0.8-1.6-1.3-3.7-1.6-6h-8.2v1.7c0,1.1-0.2,3.3-0.4,4.4
	c-0.3,1.4-0.7,2.5-1.6,3.8c-0.1,0.2-0.2,0.3-0.3,0.3c-0.1,0-0.2-0.1-0.4-0.3c-0.4-0.3-0.7-0.5-1.1-0.7c0.9-1.3,1.3-2.2,1.6-3.5
	c0.3-1.2,0.5-2.6,0.5-4.8c0-1.6,0-2.2,0-2.4c0-0.2,0-0.2,0.2-0.2c0.1,0,0.9,0,3,0h6.5c0-0.2,0-0.4,0-0.5c-0.1-0.7-0.1-1.3-0.2-1.8
	c0.6,0,1.3,0.1,1.7,0.1c0.2,0,0.3,0.1,0.3,0.2c0,0.1,0,0.3-0.1,0.4c-0.1,0.2-0.1,0.6,0,1.1c0,0.2,0,0.4,0,0.5h2.8
	c-0.5-0.5-1.1-1.1-1.6-1.5c-0.1-0.1-0.1-0.1-0.1-0.2c0-0.1,0-0.1,0.2-0.2L92,0.8z M80.6,15.5c0.3,0.1,0.3,0.2,0.2,0.4
	c-0.6,1.4-1.3,2.8-2.3,3.9c-0.1,0.1-0.1,0.1-0.2,0.1c-0.1,0-0.1,0-0.2-0.1l-0.9-0.6C76.9,19,76.9,19,77,18.8c0.9-1,1.8-2.3,2.2-3.6
	c0.1-0.2,0.1-0.2,0.4-0.1L80.6,15.5z M81.2,6.1c0-0.2,0-0.2,0.2-0.2c0.1,0,0.6,0,2,0h2.2c1.4,0,1.9,0,2,0c0.2,0,0.2,0,0.2,0.2v1
	c0,0.2,0,0.2-0.2,0.2c-0.1,0-0.6,0-2,0h-2.2c-1.4,0-1.9,0-2,0c-0.2,0-0.2,0-0.2-0.2V6.1z M85.4,8.5c1.3,0,1.7,0,1.9,0
	c0.2,0,0.2,0,0.2,0.2c0,0.1,0,0.4,0,1.4v1.3c0,1,0,1.3,0,1.4c0,0.2,0,0.2-0.2,0.2c-0.2,0-0.6,0-1.9,0h-1.9c-1.3,0-1.8,0-1.9,0
	c-0.2,0-0.2,0-0.2-0.2c0-0.1,0-0.4,0-1.4V10c0-1,0-1.3,0-1.4c0-0.2,0-0.2,0.2-0.2c0.1,0,0.5,0,1.9,0H85.4z M83.8,17.8
	c0,0.5,0.1,0.7,0.5,0.9c0.5,0.1,1.3,0.2,2.3,0.2c1.5,0,2.5,0,3.1-0.3c0.5-0.2,0.7-0.9,0.7-2c0.3,0.2,0.7,0.4,1.2,0.5
	c0.5,0.2,0.5,0.2,0.4,0.7c-0.2,1.3-0.6,1.8-1.2,2.1c-0.9,0.4-2.3,0.5-4.2,0.5c-1.6,0-2.8-0.1-3.5-0.3c-0.5-0.2-0.9-0.6-0.9-1.6v-2
	c0-0.7,0-1.2-0.1-1.7c0.6,0,1.2,0,1.7,0.1c0.2,0,0.3,0.1,0.3,0.2c0,0.1,0,0.2-0.1,0.3c-0.1,0.2-0.1,0.4-0.1,0.9V17.8z M86,9.7h-3.2
	v2H86V9.7z M86.1,13.9c0.1-0.1,0.2-0.1,0.2-0.1c0.1,0,0.1,0,0.2,0.1c0.8,0.6,1.5,1.4,2.2,2.2c0.1,0.2,0.1,0.2-0.1,0.4L87.8,17
	c-0.1,0.1-0.2,0.1-0.3,0.1c-0.1,0-0.1,0-0.2-0.1c-0.6-0.8-1.3-1.6-2-2.3c-0.2-0.1-0.1-0.2,0.1-0.4L86.1,13.9z M93.2,14.9
	c0.1-0.1,0.2-0.1,0.2-0.1c0.1,0,0.1,0,0.2,0.1c1,1.1,1.8,2.2,2.5,3.5c0.1,0.2,0.1,0.2-0.2,0.4L95,19.3c-0.1,0.1-0.2,0.1-0.3,0.1
	c-0.1,0-0.1,0-0.2-0.1c-0.6-1.4-1.4-2.6-2.4-3.6c-0.1-0.1-0.1-0.2,0.1-0.3L93.2,14.9z"/>
<path class="st0" d="M121,6.2c0,0.2-0.1,0.3-0.3,0.3c-2.3-0.1-4.4-0.1-6.8,0c0,1.4,0,2.8,0,4.2c0.2,0.7,0.3,1.5,0.3,2.3
	c0,2.7-1.1,5.2-4.2,7c-0.3,0.2-0.5,0.3-0.7,0.3s-0.3-0.1-0.5-0.2c-0.4-0.3-0.8-0.6-1.3-0.7c2.9-1.2,4.4-3.2,4.7-5.3
	c-0.5,0.8-1.4,1.1-2.3,1.1c-1.6,0-3.1-1.1-3.1-3.2c0-2,1.5-3.3,3.3-3.3c0.7,0,1.5,0.2,1.9,0.6c0-0.9,0-1.7,0-2.6
	c-3,0.2-6,0.4-7.9,0.7c-0.5,0.1-0.8,0.2-1,0.2s-0.3-0.1-0.3-0.3c-0.2-0.4-0.3-1-0.4-1.7c0.8,0.1,1.5,0,2.7-0.1
	c1.6-0.1,4.1-0.3,6.9-0.5c0-0.8,0-1.3,0-2c0-0.6-0.1-0.9-0.2-1.5c0.8,0,1.7,0.2,2.1,0.3c0.3,0.1,0.5,0.2,0.5,0.4
	c0,0.1-0.1,0.2-0.2,0.4c-0.1,0.1-0.1,0.3-0.2,0.6c0,0.4,0,0.7,0,1.7c2.4-0.1,4.6-0.1,6.9-0.1c0.2,0,0.3,0,0.3,0.3V6.2z M108.6,11.8
	c0,1.1,0.7,1.7,1.6,1.7c1.1,0,1.8-0.8,1.8-1.8c0-1-0.7-1.7-1.8-1.7C109.4,10.1,108.6,10.7,108.6,11.8z"/>
<path class="st0" d="M133.1,10.4c1.4-0.9,2.8-1.3,4.2-1.3c3.2,0,5.3,2,5.3,5c0,3.4-2.8,5.8-7.4,5.8c-2.8,0-4.1-1.2-4.1-2.9
	c0-1.3,1.2-2.5,2.8-2.5c2,0,3.4,1.2,3.9,3.2c1.7-0.7,2.8-1.8,2.8-3.8c0-2.1-1.6-3.5-3.7-3.5c-2,0-4.2,1-5.9,2.4
	c-0.7,0.5-1.3,1.2-1.9,1.8c-0.1,0.1-0.2,0.2-0.3,0.2c-0.1,0-0.1,0-0.2-0.2c-0.4-0.3-0.7-0.7-1-1.1c-0.1-0.1-0.1-0.2,0.1-0.4
	c1.7-1.5,3-2.7,5.1-4.9c1.3-1.4,2.5-2.7,4-4.4c-1.6,0.3-3.3,0.6-5.1,0.9c-0.3,0-0.6,0.1-0.8,0.2c-0.1,0.1-0.3,0.1-0.4,0.1
	c-0.2,0-0.3-0.1-0.4-0.3c-0.2-0.4-0.4-0.9-0.6-1.8c0.7,0.1,1.3,0.1,2,0c1.6-0.2,3.4-0.4,5.3-0.8c0.4-0.1,0.7-0.2,0.9-0.3
	c0.1-0.1,0.3-0.2,0.4-0.2c0.1,0,0.3,0,0.4,0.2c0.5,0.4,0.9,0.8,1.2,1.1c0.1,0.2,0.2,0.3,0.2,0.4c0,0.2-0.1,0.4-0.4,0.5
	c-0.3,0.1-0.6,0.3-1,0.7C136.5,6.8,135,8.4,133.1,10.4L133.1,10.4z M133.9,16.1c-0.7,0-1.3,0.4-1.3,1c0,0.7,0.7,1.3,2.2,1.3
	c0.4,0,0.8,0,1.3-0.1C135.7,17,135,16.1,133.9,16.1z"/>
<path class="st0" d="M150.1,15.5c0.1-0.1,0.2-0.2,0.3-0.2c0.1,0,0.2,0,0.3,0.1c1.6,1,3,2.3,4.3,4c0.1,0.2,0.1,0.2,0.1,0.3
	s0,0.2-0.2,0.3l-1,0.9c-0.1,0.1-0.2,0.2-0.3,0.2c-0.1,0-0.2,0-0.3-0.2c-1.1-1.7-2.6-3.1-4.1-4.2c-0.1-0.1-0.2-0.1-0.2-0.2
	s0-0.1,0.1-0.2L150.1,15.5z"/>
<path class="st0" d="M192,15.2c0,1.1,0,2.1,0,3c0,0.7-0.2,1.3-0.7,1.6c-0.4,0.4-1.3,0.5-3.4,0.5c-0.5,0-0.5,0-0.6-0.5
	c-0.1-0.5-0.3-0.9-0.5-1.3c0.9,0.1,1.8,0.1,2.4,0.1c0.8,0,1.1-0.2,1.1-0.9v-2.6H179c-0.5,2.1-1.3,3.7-2.6,5.2
	c-0.2,0.2-0.3,0.3-0.4,0.3c-0.1,0-0.2-0.1-0.4-0.3c-0.4-0.4-0.7-0.6-1.1-0.7c2.4-2.2,3.2-4.5,3.2-8.9V8.8c0-0.6,0-1.1,0-1.5
	c-0.5,0.4-1.1,0.8-1.8,1.2c-0.2,0.1-0.3,0.2-0.4,0.2c-0.1,0-0.2-0.1-0.3-0.4c-0.2-0.4-0.4-0.8-0.7-1c2.6-1.3,4.5-3.2,5.8-5.3
	c0.4-0.6,0.5-1,0.6-1.4c0.7,0.2,1.2,0.3,1.6,0.4c0.3,0.1,0.3,0.2,0.3,0.3c0,0.1-0.1,0.2-0.2,0.3c-0.1,0.1-0.3,0.3-0.5,0.7l-0.2,0.3
	h4.4c0.3,0,0.4,0,0.5-0.1c0.1-0.1,0.2-0.1,0.3-0.1c0.1,0,0.3,0.1,0.7,0.5c0.4,0.4,0.5,0.5,0.5,0.6c0,0.1-0.1,0.2-0.3,0.3
	c-0.2,0.1-0.4,0.3-0.6,0.6c-0.4,0.6-0.8,1.2-1.3,1.8h2.7c2.2,0,2.9,0,3.1,0c0.2,0,0.2,0,0.2,0.2c0,0.1,0,0.8,0,2.4V15.2z M184.1,6.3
	c0.6-0.7,1.1-1.5,1.5-2.2H181c-0.6,0.8-1.3,1.5-2,2.2H184.1z M183.9,13.7v-2.3h-4.4c0,0.8-0.1,1.6-0.2,2.3H183.9z M183.9,9.9V7.7
	h-4.4v2.2H183.9z M185.5,7.7v2.2h4.8V7.7H185.5z M190.3,13.7v-2.3h-4.8v2.3H190.3z"/>
<path class="st0" d="M202.9,5.7c-0.2,1.1-0.6,2.2-1.6,3.4c-0.2,0.2-0.3,0.3-0.4,0.3c-0.1,0-0.2-0.1-0.4-0.3c-0.3-0.3-0.6-0.6-1-0.7
	c1.6-1.4,1.9-3,1.9-4.8c0-0.7,0-1.4-0.1-1.9c0.6,0.1,1.1,0.2,1.6,0.4c1.6-0.1,2.9-0.4,4-0.7c0.4-0.1,0.7-0.2,1-0.4
	c0.4,0.3,0.7,0.6,1,1c0.1,0.2,0.2,0.2,0.2,0.4c0,0.1-0.1,0.2-0.3,0.2s-0.4,0-0.8,0.1c-1.6,0.4-2.9,0.5-5,0.7v1.1h3.6
	c1.8,0,2.4,0,2.5,0c0.2,0,0.2,0,0.2,0.2v1c0,0.2,0,0.2-0.2,0.2c-0.1,0-0.7,0-2.3,0v0.6c0,1,0,1.4,0,1.5c0,0.2,0,0.2-0.2,0.2h-1.3
	c-0.2,0-0.2,0-0.2-0.2c0-0.1,0-0.5,0-1.5V5.7H202.9z M207.2,18.2c0.2,0.1,0.2,0.2,0.2,0.3c0,0.1-0.1,0.2-0.3,0.3
	c-0.2,0-0.4,0.2-0.7,0.3c-1.3,0.7-3.1,1.4-5.1,1.8c-0.6,0.1-0.6,0.1-0.8-0.4c-0.2-0.3-0.4-0.7-0.7-1c1.9-0.2,4-0.8,5.3-1.5
	c0.3-0.2,0.5-0.4,0.8-0.6C206.4,17.6,206.9,17.9,207.2,18.2z M213.4,8.4c2.2,0,2.9,0,3,0c0.2,0,0.2,0,0.2,0.2c0,0.2,0,0.7,0,2.2v4.1
	c0,1.5,0,2.1,0,2.2c0,0.2,0,0.2-0.2,0.2c-0.1,0-0.9,0-3.1,0h-7.3c-2.2,0-2.9,0-3.1,0c-0.2,0-0.2,0-0.2-0.2c0-0.1,0-0.7,0-2.2v-4.1
	c0-1.5,0-2.1,0-2.2c0-0.2,0-0.2,0.2-0.2c0.1,0,0.9,0,3.1,0H213.4z M204.5,11H215V9.7h-10.5V11z M215,13.5v-1.3h-10.5v1.3H215z
	 M215,14.7h-10.5V16H215V14.7z M211.8,5.7c-0.2,0.8-0.6,1.6-1.3,2.3c-0.2,0.2-0.3,0.3-0.4,0.3c-0.1,0-0.2-0.1-0.4-0.2
	c-0.3-0.3-0.6-0.5-1-0.6c1.4-1.1,1.8-2.3,1.8-3.9c0-0.9,0-1.5-0.1-2c0.6,0.1,1.1,0.2,1.6,0.4c1.5-0.2,3.1-0.4,4.2-0.7
	c0.4-0.1,0.7-0.2,1-0.4c0.4,0.3,0.7,0.6,1,1c0.1,0.2,0.2,0.2,0.2,0.4s-0.1,0.2-0.3,0.2c-0.2,0-0.5,0-0.8,0.1
	c-1.5,0.4-3.1,0.6-5.2,0.7V4c0,0.1,0,0.3,0,0.4h4.4c2,0,2.7,0,2.8,0c0.2,0,0.2,0,0.2,0.2v1c0,0.2,0,0.2-0.2,0.2c-0.1,0-0.8,0-2.8,0
	h-0.4v0.6c0,0.9,0,1.4,0,1.5c0,0.2,0,0.2-0.2,0.2h-1.3c-0.2,0-0.2,0-0.2-0.2c0-0.1,0-0.6,0-1.5V5.7H211.8z M212.8,17.6
	c0.2-0.2,0.3-0.2,0.4-0.1c1.7,1,3.8,1.6,6.2,1.9c-0.3,0.3-0.5,0.7-0.6,1c-0.2,0.5-0.2,0.5-0.8,0.4c-2.1-0.4-4.3-1.2-6-2.2
	c-0.2-0.1-0.2-0.2,0.1-0.3L212.8,17.6z"/>
<path class="st0" d="M229,7.1c0,2.5-0.2,4.9-0.5,6.8c-0.4,2.2-0.9,4-2,5.9c-0.1,0.2-0.2,0.3-0.3,0.3c-0.1,0-0.2-0.1-0.3-0.3
	c-0.3-0.4-0.8-0.7-1.1-0.9c1.2-1.7,1.8-3.5,2.1-5.6c0.3-1.9,0.4-4.2,0.4-7c0-3.3,0-4.7,0-4.8c0-0.2,0-0.2,0.2-0.2c0.1,0,0.9,0,3.1,0
	h9.8c2.2,0,3,0,3.1,0c0.2,0,0.2,0,0.2,0.2c0,0.1,0,0.4,0,1.4v1.1c0,1,0,1.3,0,1.4c0,0.2,0,0.2-0.2,0.2c-0.1,0-0.9,0-3.1,0H229V7.1z
	 M241.9,2.7H229v1.6h12.9V2.7z M240.1,7.7c2.2,0,2.9,0,3.1,0c0.2,0,0.2,0,0.2,0.2c0,0.1,0,0.5,0,1.7v2c0,1.2,0,1.6,0,1.7
	c0,0.2,0,0.2-0.2,0.2c-0.1,0-0.9,0-3.1,0h-6.7c-2.2,0-2.9,0-3.1,0c-0.2,0-0.2,0-0.2-0.2c0-0.1,0-0.6,0-1.7v-2c0-1.2,0-1.6,0-1.7
	c0-0.2,0-0.2,0.2-0.2c0.1,0,0.9,0,3.1,0h0.1c-0.2-0.4-0.5-0.8-0.8-1.2c-0.1-0.2-0.1-0.2,0.1-0.3l0.9-0.3c0.2-0.1,0.3-0.1,0.4,0.1
	c0.4,0.6,0.8,1.2,1.1,1.8h2.9c0.2-0.3,0.3-0.6,0.5-0.9c0.1-0.3,0.3-0.6,0.4-1c0.6,0.1,1,0.3,1.5,0.5c0.2,0.1,0.2,0.1,0.2,0.2
	c0,0.2-0.1,0.2-0.2,0.3c-0.2,0.1-0.3,0.3-0.4,0.5l-0.3,0.5H240.1z M231.4,20.7c-0.2,0-0.2,0-0.2-0.2c0-0.1,0-0.6,0-3v-1.1
	c0-1.2,0-1.6,0-1.8c0-0.2,0-0.2,0.2-0.2c0.1,0,0.8,0,2.9,0h5c2,0,2.7,0,2.9,0c0.2,0,0.2,0,0.2,0.2c0,0.1,0,0.6,0,1.5v1.3
	c0,2.4,0,2.9,0,3c0,0.2,0,0.2-0.2,0.2h-1.3c-0.2,0-0.2,0-0.2-0.2v-0.5h-7.8v0.6c0,0.2,0,0.2-0.2,0.2H231.4z M235.8,10V8.8h-4.1V10
	H235.8z M235.8,12.3V11h-4.1v1.3H235.8z M232.8,16.7h7.8v-1.1h-7.8V16.7z M240.6,18.8v-1.2h-7.8v1.2H240.6z M237.3,8.8V10h4.4V8.8
	H237.3z M241.7,11h-4.4v1.3h4.4V11z"/>
<path class="st0" d="M252.2,10.3c0.9-0.8,2.4-2.1,3.9-3.5c0.7-0.7,1.2-0.9,1.8-0.9c0.7,0,1.1,0.2,1.7,0.7c1.7,1.4,3,2.5,4.9,3.9
	c1.8,1.3,3.3,2.2,5,3.1c0.2,0.1,0.2,0.2,0.2,0.4c-0.2,0.5-0.5,1.1-0.8,1.6c-0.1,0.1-0.2,0.2-0.2,0.2c-0.1,0-0.1,0-0.2-0.1
	c-1.2-0.7-3.3-2.2-4.7-3.3c-1.6-1.2-3.2-2.6-4.8-4c-0.4-0.4-0.7-0.6-1.1-0.6c-0.3,0-0.5,0.2-0.9,0.5c-1.2,1.2-2.8,2.7-3.8,3.7
	c-0.4,0.4-0.6,0.6-0.7,0.9c-0.1,0.2-0.2,0.2-0.3,0.2s-0.2,0-0.3-0.2c-0.4-0.4-1-1.2-1.4-1.8C251,11.1,251.5,10.8,252.2,10.3z"/>
<path class="st0" d="M283.3,14.9c-0.9,1.6-2,2.4-3.5,2.4c-1.8,0-3.5-1.9-3.5-5.3c0-2.1,0.9-4.2,2.5-5.7c1.7-1.6,4-2.6,6.8-2.6
	c5.1,0,8.1,3,8.1,7.3c0,3.8-2.2,6.6-6.9,7.8c-0.4,0.1-0.5,0-0.7-0.3c-0.2-0.3-0.5-0.7-1.1-1.1c4.1-0.9,6.8-2.9,6.8-6.8
	c0-3-2.3-5.3-5.6-5.3C285.7,9.1,284.7,12.7,283.3,14.9z M280.1,7.5c-1.3,1.3-1.9,3-1.9,4.4c0,2.2,0.9,3.3,1.6,3.3
	c0.7,0,1.3-0.4,1.9-1.5c1.1-1.9,2.2-5.2,2.5-8.3C282.6,5.8,281.2,6.5,280.1,7.5z"/>
<path class="st0" d="M305.3,5.3c-1.5,0-2.9,0.1-4,0.2c-0.2,0-0.3-0.1-0.4-0.3c-0.1-0.5-0.2-1.3-0.3-1.9c1.4,0.1,2.7,0.2,4.5,0.2h9.3
	c1.1,0,1.4,0,1.6-0.1c0.1,0,0.2-0.1,0.4-0.1c0.1,0,0.3,0.1,0.4,0.2c0.4,0.3,0.7,0.7,1,1.1c0.1,0.1,0.2,0.2,0.2,0.3
	c0,0.2-0.1,0.3-0.3,0.4c-0.2,0.2-0.4,0.4-0.5,0.6c-1,1.5-2.5,3.1-4.1,4.3c-0.1,0.1-0.2,0.1-0.4,0.1s-0.3,0-0.4-0.2
	c-0.4-0.3-0.9-0.5-1.5-0.7c1.8-1.3,3.2-2.5,4.3-4.2H305.3z M306.7,14.2c0.8-1.7,1.1-3.3,1.1-5.3c0-0.8-0.1-1.3-0.2-1.9
	c0.8,0.1,1.7,0.2,2.2,0.4c0.2,0.1,0.3,0.2,0.3,0.4c0,0.1,0,0.2-0.1,0.4c-0.1,0.2-0.2,0.5-0.2,1c0,2-0.3,4.1-1.3,5.9
	c-0.9,1.7-2.3,3.2-4.1,4.4c-0.2,0.1-0.3,0.2-0.5,0.2c-0.1,0-0.3,0-0.4-0.2c-0.4-0.4-0.9-0.7-1.6-0.9C304.3,17.3,305.8,16,306.7,14.2
	z"/>
<path class="st0" d="M329.1,6.3c-1.4,0-2.6,0.1-3.7,0.1c-0.3,0-0.4-0.1-0.4-0.4c0-0.4-0.2-1.2-0.2-1.7c1.2,0.1,2.4,0.2,4.2,0.2h7.8
	c0.7,0,0.9,0,1.1-0.2c0.1-0.1,0.2-0.1,0.3-0.1s0.2,0,0.4,0.1c0.5,0.3,0.9,0.7,1.3,1.1c0.1,0.1,0.1,0.2,0.1,0.4
	c0,0.2-0.1,0.3-0.2,0.4c-0.2,0.2-0.3,0.4-0.5,0.8c-1.1,2.7-2.5,5.2-4.3,7.2c-1.8,2.1-3.9,3.8-6.4,5.3c-0.2,0.1-0.3,0.2-0.5,0.2
	s-0.3-0.1-0.4-0.2c-0.4-0.4-0.9-0.7-1.5-0.9c3.2-1.7,5.2-3.3,7.2-5.5c1.7-1.9,3-4.1,3.9-6.7H329.1z M343.9,2.4c0,1.3-1,2.4-2.4,2.4
	c-1.3,0-2.4-1.1-2.4-2.4c0-1.3,1.1-2.4,2.4-2.4C342.9,0,343.9,1,343.9,2.4z M340.2,2.4c0,0.8,0.6,1.3,1.3,1.3c0.8,0,1.3-0.6,1.3-1.3
	s-0.6-1.3-1.3-1.3C340.8,1.1,340.2,1.6,340.2,2.4z"/>
<path class="st0" d="M353.8,16.3v1.4c0,0.3-0.1,0.4-0.4,0.4c-0.4,0-0.9,0-1.3,0c-0.3,0-0.4-0.1-0.4-0.3c0.1-1.3,0.1-2.8,0.1-4.6V8.4
	c0-1.2,0-2.4,0-3.6c0-0.2,0.1-0.3,0.2-0.3c1.1,0.1,2.4,0.1,3.7,0.1h5c1.4,0,2.9,0,4,0c0.2,0,0.3,0.1,0.3,0.4c0,1.1,0,2.3,0,3.5v4.8
	c0,1.8,0.1,3.1,0.1,4.3c0,0.3-0.1,0.3-0.4,0.3c-0.5,0-1,0-1.5,0c-0.2,0-0.2,0-0.2-0.3v-1.2H353.8z M363,6.4h-9.2v8.1h9.2V6.4z"/>
<path class="st0" d="M377.6,12c-2,0-2.9,0.2-3.1,0.2c-0.2,0-0.4-0.1-0.4-0.4c-0.1-0.4-0.2-1.3-0.3-2.1c1.4,0.2,2.8,0.2,4.8,0.2h6.9
	c1.6,0,3.2,0,4.9-0.1c0.3,0,0.4,0,0.4,0.3c0,0.5,0,1.1,0,1.5c0,0.2-0.1,0.3-0.4,0.3c-1.6,0-3.3,0-4.8,0H377.6z"/>
<path class="st0" d="M405.6,5.5c0.8,0,1.6,0.2,2.1,0.3c0.2,0.1,0.3,0.2,0.2,0.4c-0.1,0.2-0.1,0.3-0.2,0.5c0,0.3-0.1,0.5-0.1,0.8
	c0,0.5,0,0.9,0,1.5h2.8c1.4,0,3.1-0.1,4.2-0.1c0.2,0,0.2,0.1,0.2,0.3c0,0.4,0,0.9,0,1.3c0,0.3,0,0.3-0.3,0.3c-1.4,0-2.7-0.1-4.2-0.1
	h-2.8c-0.1,1.8-0.4,3.3-1,4.6c-0.7,1.6-2,3.2-3.5,4.2c-0.1,0.1-0.2,0.1-0.3,0.1c-0.1,0-0.2,0-0.3-0.1c-0.6-0.3-1.2-0.6-1.8-0.7
	c2.2-1.3,3.2-2.5,4-4.1c0.6-1.2,0.9-2.5,0.9-4h-4c-1,0-2.5,0-3.6,0.1c-0.3,0-0.3-0.1-0.4-0.4c-0.1-0.4-0.2-1-0.2-1.6
	c1.5,0.1,3,0.1,4.2,0.1h3.9c0-0.6,0-1.5,0-2c0-0.5,0-0.8-0.2-1.5c-1.6,0.3-3.6,0.6-5.4,0.7c-0.3,0-0.4-0.2-0.5-0.4
	c-0.2-0.3-0.4-0.7-0.9-1.2c2.7-0.2,4.4-0.4,6.5-0.8c1.5-0.3,2.8-0.7,3.8-1c0.9-0.4,1.2-0.5,1.6-0.9c0.6,0.4,1.1,0.9,1.4,1.2
	c0.2,0.2,0.3,0.3,0.3,0.5c0,0.2-0.2,0.3-0.5,0.3c-0.4,0.1-0.9,0.3-1.3,0.4c-1.6,0.4-3.1,0.8-4.6,1.1L405.6,5.5z"/>
</svg>
